<svg xmlns="http://www.w3.org/2000/svg" width="1222.6" height="1174.7"><style>.st0{fill:#eeedee}.st1{opacity:.42;fill:#bdd3de}.st2{fill:none}.st3{opacity:.46;fill:#fff}.st4{fill:#cd907f}.st6{fill:#bdd3de}.st7{opacity:.5;fill:#fff}.st8{fill:#19233d}.st10{fill:#5a142a}.st11{fill:#490e1c}.st12{opacity:.19;fill:#fff}.st13{opacity:8.000000e-02;fill:#19233d}.st15{fill:#fc860a}.st18,.st19{opacity:.1;fill:#19233d}.st19{opacity:7.000000e-02}.st21{fill:#a05021}.st27{fill:#fff}.st28{opacity:.23}.st28,.st31,.st34{fill:#19233d}.st31{opacity:5.000000e-02}.st34{opacity:.15}.st48{fill:#7b291a}.st49{fill:#0d2a28}.st55{fill:#87aeb4}.st58{opacity:.47;fill:#fff}</style><g id="background"><g id="general"><g id="figure2_general"><path class="st0" d="M1171.5 586.6c-.1.8-.1 1.6-.2 2.4-.8 11.4-2.1 23.2-3.9 35.1-.1.8-.2 1.6-.4 2.4-.1.7-.2 1.3-.3 2-.7 4.5-1.5 9-2.3 13.6-1.3 7-2.8 14-4.4 21l-.6 2.4c-3 12.9-6.6 25.9-10.8 38.9-.2.8-.5 1.6-.8 2.4-4 12.3-8.5 24.5-13.5 36.7-.3.8-.6 1.6-1 2.4-2.4 5.7-4.8 11.3-7.5 16.9-.8 1.7-1.6 3.4-2.4 5-1.4 3-2.9 6-4.4 8.9-.9 1.8-1.8 3.5-2.7 5.2-.4.8-.8 1.6-1.3 2.4-6.7 12.6-13.9 24.8-21.8 36.7-.5.8-1.1 1.6-1.6 2.4-1.5 2.2-3 4.4-4.5 6.5l-2.4 3.3c-.3.5-.7.9-1 1.4-2.6 3.6-5.3 7.2-8.1 10.7-4.6 5.8-9.3 11.5-14.2 17.1l-2.1 2.4c-3.1 3.5-6.2 6.9-9.5 10.2l-2.4 2.4c-8.2 8.4-16.8 16.5-25.7 24.1-.9.8-1.9 1.6-2.8 2.4-2.6 2.2-5.3 4.5-8 6.6-.8.6-1.6 1.3-2.4 1.9-7 5.7-14.2 11.1-21.6 16.4-4.9 3.5-9.9 7-15 10.3l-4.5 3-7.5 4.8c-9.5 6-19.2 11.7-29 17.1-.8.4-1.6.9-2.4 1.3-8.3 4.5-16.7 8.9-25.1 13-1.6.8-3.3 1.6-4.9 2.4-2 1-3.9 1.9-5.9 2.8-.8.4-1.6.8-2.4 1.1-12.1 5.7-24.3 11-36.5 16-.8.3-1.6.6-2.4 1-13 5.2-26 10.1-38.8 14.6-.8.3-1.6.6-2.4.8l-8.7 3c-2.4.8-4.9 1.6-7.3 2.4-3 1-6.1 2-9.1 2.9-3.8 1.2-7.7 2.4-11.5 3.6-.5.1-1 .3-1.5.4-4.7 1.4-9.3 2.8-13.9 4.1-63.9 18.3-120.5 28.2-155.3 34.2-2.1.4-5.3.9-9.3 1.6-11.2 1.9-81.1 13.1-166 19.6-112.9 8.6-252.3 8.9-315.9-32.2-.3-.2-.5-.3-.8-.5-6.5-4.2-12.1-8.9-16.8-14.1-1.1-1.2-2.2-2.5-3.2-3.8-2.5-3.2-4.8-6.6-6.6-10.1-6.4-12.1-9-26.9-8.2-43.8 1.3-28.7 12.6-63.3 31.9-100.1.4-.7.8-1.5 1.2-2.2 6.8-12.7 14.4-25.6 23-38.7.6-.9 1.2-1.8 1.8-2.8 9.6-14.5 20.3-29.1 32-43.6.1-.2.2-.3.4-.5 15.1-18.8 31.9-37.5 50-55.6 54-53.9 120.4-102.8 193.4-135.2 119.9-53.3 213.9-42.7 322.3-51.9.8-.1 1.6-.1 2.4-.2 6.7-.6 13.3-1.2 20.1-2 6.5-.7 13.1-1.5 19.8-2.5 11.2-1.6 22.5-3.4 34.2-5.6.8-.1 1.6-.3 2.4-.5 12.7-2.5 25.6-5.4 38.8-8.9l2.4-.6c11.9-3.2 24.1-6.9 36.6-11 .8-.3 1.6-.5 2.4-.8 10.6-3.6 21.4-7.6 32.4-12l6-2.4c11.9-4.9 24-10.2 36.5-16.2.8-.4 1.6-.8 2.4-1.1 8.2-4 16.6-8.1 25.1-12.6 4.5-2.4 8.9-4.7 13.2-7 1.5-.8 3-1.6 4.4-2.4 12.5-6.8 24.2-13.4 35-19.2.8-.4 1.6-.8 2.4-1.3 10.5-5.6 20.3-10.4 29.5-13.9 2.7-1 5.3-2 7.9-2.8 13.5-4.3 25.5-5.3 36.6-1.5l2.4.9c.6.2 1.2.5 1.8.8l2.4 1.2c.6.4 1.3.7 1.9 1.1 10.8 6.7 19.7 18.5 26.3 34.1.3.8.7 1.6 1 2.4 2.1 5.2 4 10.8 5.6 16.7.9 3.2 1.7 6.4 2.4 9.8.7 3.3 1.4 6.7 2 10.1.1.8.3 1.6.4 2.4 2 12 3.2 25.1 3.6 38.8 0 .8.1 1.6.1 2.4.2 11.8 0 24-.9 36.7z"/><g id="cupboard_general"><g id="cupboard"><path class="st1" d="M411.1 818.2l-2 50.8-.1 3.4-2 51.4-.1 3.4-5.1 128.3c-.3 6.6-5.9 11.7-12.5 11.5l-29.9-1.2-2-.1-33-1.3-2.1-.1-19.5-.8-3.4-.1-46.5-1.8-4.9-.2-48.5-1.9-2.7-.1-45.3-1.8-2.6-.1-37.7-1.5c-6.5-4.2-12.1-8.9-16.8-14.1-1.1-1.2-2.2-2.5-3.2-3.8-2.5-3.2-4.8-6.6-6.6-10.1-6.4-12.1-9-26.9-8.2-43.8 1.3-28.7 12.6-63.3 31.9-100.1.4-.7.8-1.5 1.2-2.2 6.8-12.7 14.4-25.6 23-38.7.6-.9 1.2-1.8 1.8-2.8 9.6-14.5 20.3-29.1 32-43.6.1-.2.2-.3.4-.5l233.2 9.2c6.3.5 11.5 6.1 11.2 12.7z"/><path class="st1" d="M1119.2 776.6c-.9 1.8-1.8 3.5-2.7 5.2-.4.8-.8 1.6-1.3 2.4-6.7 12.6-13.9 24.8-21.8 36.7-.5.8-1.1 1.6-1.6 2.4-1.5 2.2-3 4.4-4.5 6.5l-2.4 3.3c-.3.5-.7.9-1 1.4-2.6 3.6-5.3 7.2-8.1 10.7-4.6 5.8-9.3 11.5-14.2 17.1l-2.1 2.4c-3.1 3.5-6.2 6.9-9.5 10.2l-2.4 2.4c-8.2 8.4-16.8 16.5-25.7 24.1-.9.8-1.9 1.6-2.8 2.4-2.6 2.2-5.3 4.5-8 6.6-.8.6-1.6 1.3-2.4 1.9-7 5.7-14.2 11.1-21.6 16.4-4.9 3.5-9.9 7-15 10.3l-4.5 3-7.5 4.8c-9.5 6-19.2 11.7-29 17.1-.8.4-1.6.9-2.4 1.3-8.3 4.5-16.7 8.9-25.1 13-1.6.8-3.3 1.6-4.9 2.4-2 1-3.9 1.9-5.9 2.8-.8.4-1.6.8-2.4 1.1-12.1 5.7-24.3 11-36.5 16-.8.3-1.6.6-2.4 1-13 5.2-26 10.1-38.8 14.6-.8.3-1.6.6-2.4.8l-8.7 3c-2.4.8-4.9 1.6-7.3 2.4-3 1-6.1 2-9.1 2.9-3.8 1.2-7.7 2.4-11.5 3.6-.5.1-1 .3-1.5.4-4.7 1.4-9.3 2.8-13.9 4.1-63.9 18.3-120.5 28.2-155.3 34.2-2.1.4-5.3.9-9.3 1.6-11.2 1.9-81.1 13.1-166 19.6-112.9 8.6-252.3 8.9-315.9-32.2-.3-.2-.5-.3-.8-.5-6.5-4.2-12.1-8.9-16.8-14.1-1.1-1.2-2.2-2.5-3.2-3.8-2.5-3.2-4.8-6.6-6.6-10.1-6.4-12.1-9-26.9-8.2-43.8 1.3-28.7 12.6-63.3 31.9-100.1.4-.7.8-1.5 1.2-2.2 6.8-12.7 14.4-25.6 23-38.7.6-.9 1.2-1.8 1.8-2.8 9.6-14.5 20.3-29.1 32-43.6.1-.2.2-.3.4-.5 15.1-18.8 31.9-37.5 50-55.6l236.5 9.4h.2l303.9 12 187.1 7.4 87.2 3.5 87.8 3.6z"/><path class="st1" d="M766.3 832.7l-7.9 200.6c-63.9 18.3-120.5 28.2-155.3 34.2-2.1.4-5.3.9-9.3 1.6-11.2 1.9-81.1 13.1-166 19.6l10.6-269c.3-6.6 5.9-11.8 12.5-11.5l303.9 12c6.6.3 11.8 5.9 11.5 12.5zm-635.4 41.4c-5.4 7.3-12.8 8.5-20.7 9.8-.7.1-1.4.2-2.2.4.4-.7.8-1.5 1.2-2.2.2 0 .5-.1.7-.1 7.5-1.2 14.6-2.4 19.5-9 4.8-6.5 4.2-13.5 3.3-24.2-.1-1.7-.3-3.5-.4-5.4.6-.9 1.2-1.8 1.8-2.8.2 2.9.4 5.5.6 8 .8 10.6 1.5 18.4-3.8 25.5zm61.2-31.8c-4 4.7-9.1 5.1-14.6 5.7-5.4.5-11 1-16.3 5.6-8.4 7.1-8.1 17.4-7.8 29.3.3 11.4.6 24.2-7 36.4-7.3 11.8-17.4 15.3-27.1 18.6-7.9 2.7-16 5.6-22.8 12.8-15.2 16.3-16 46.9-2.2 91.2-1.1-1.2-2.2-2.5-3.2-3.8-12.6-42.7-11.3-72.5 3.9-88.8 7.1-7.6 15.5-10.5 23.6-13.3 9.8-3.4 19.1-6.7 26-17.8 7.3-11.7 6.9-24.2 6.7-35.3-.3-11.9-.6-23.2 8.5-30.9 5.8-4.9 12-5.5 17.5-6 5.3-.5 9.9-.9 13.3-5 6.3-7.4 4.6-22-5.2-43.3l2.2.1c9.9 21.8 11.3 36.5 4.5 44.5zm54.4-2.8c-2.7 4-6.1 6-9.5 7.8-3.9 2.1-7.5 4.2-10.2 9.3-4 7.6-2.2 15.2-.5 21.9 1.5 6.2 2.8 11.6-.8 15.6-3.9 4.4-10 3.1-17 1.5-7.2-1.6-15.3-3.4-23.6.1-8.6 3.6-11.3 10.3-19.6 30.2-2.1 5.2-4.6 11.1-7.6 18-8.1 18.7-13.9 30.2-17.7 37.9-5.8 11.6-7.8 15.5-8 24.3-.4 17 6.5 34.9 19.8 52l-2.6-.1c-13-17-19.6-34.9-19.2-51.9.2-9.2 2.2-13.2 8.2-25.1 3.8-7.6 9.6-19.2 17.7-37.8 3-6.9 5.4-12.8 7.6-18 8.3-19.9 11.3-27.3 20.7-31.2 8.9-3.7 17.7-1.8 24.8-.2 6.7 1.5 12 2.6 15.1-.9 2.9-3.3 1.7-8.2.3-13.8-1.6-6.7-3.6-15 .7-23.3 3-5.7 7.1-8 11-10.2 3.3-1.8 6.4-3.5 8.8-7.2 5.3-8 3.8-21-4.4-38.5l2.2.1c8.1 17.7 9.5 31 3.8 39.5z"/><path class="st1" d="M283.2 801.6c-10 17.9-17.2 36.4-21.3 55.1-2.6 11.9-3.7 22.4-4.6 31.6-1.8 17.3-3.1 29.8-13.3 36.2-6.4 4-12.3 2.9-18.5 1.8-6.2-1.1-12.6-2.2-21 .9-22.9 8.6-31.2 38.6-33.2 47.6-8.3 37 15.1 69.8 28.6 85.1l-2.7-.1c-13.9-16.1-36-48.7-27.8-85.5 2.1-9.2 10.6-40.1 34.5-49 8.9-3.3 15.9-2.1 22-1s11.3 2 17.1-1.6c9.4-5.8 10.6-17.3 12.4-34.7 1-9.3 2-19.8 4.7-31.9 4.1-18.6 11.1-37 21-54.8l2.1.3z"/><path class="st1" d="M357.3 804.5c-5 17-12.7 32.2-23 45.4-9.5 12.2-18 18.6-25.6 24.3-8.8 6.6-16.3 12.3-22.8 24.9-7.2 13.9-7.7 25.9-8.2 35.6-.5 10.3-.8 18.4-8.8 24-8.4 5.9-18.2 3.8-27.8 1.7-9.9-2.1-19.2-4.2-27.5 1.8-14.9 10.7-12.1 37.4-11.7 40.4 2.9 23.6 22.4 45.5 51.8 59.5l-4.9-.2c-9.1-4.7-17.2-10.2-24.2-16.3-14.2-12.6-22.8-27.4-24.6-42.8-.4-3.1-3.3-30.9 12.5-42.3 9-6.5 19.2-4.3 29.1-2.1 9.5 2.1 18.5 4 26.2-1.4 7.1-5 7.5-12.3 7.9-22.5.4-9.8 1-22.1 8.4-36.4 6.7-13 14.4-18.8 23.4-25.6 7.5-5.6 15.9-12 25.2-23.9 10-12.8 17.5-27.7 22.5-44.2l2.1.1z"/><path class="st1" d="M386.3 805.7c-26.9 26.9-44.4 56-52.1 86.7-2.6 10.3-3.8 19.7-4.9 28-2.2 17-4.1 31.7-16.7 45.6-12 13.4-26.3 17.9-37.7 21.6-10 3.2-17.9 5.7-20.5 12.9-4.8 13.4 11.7 34.8 48.9 63.7l-3.4-.1c-36.9-28.9-52.4-50-47.4-64.2 2.9-8.1 11.2-10.8 21.8-14.1 11.2-3.5 25.2-8 36.9-21 12.1-13.5 13.9-27.2 16.2-44.5 1.1-8.3 2.3-17.8 5-28.2 7.7-30.5 24.9-59.5 51.3-86.3l2.6-.1zm22.8 63.3l-.1 3.4c-6.7 7.8-14.6 10.6-22.4 13.3-8.5 3-16.5 5.8-22.8 14.7-8.1 11.5-6.2 22.8-4 35.8 2.2 13.2 4.7 28.2-3.8 45.5-5.2 10.5-11.2 15.4-17 20.2-5.7 4.6-11 9-14.9 18.4-5.2 12.6-5 27.6.6 44.6l-2.1-.1c-5.5-17.2-5.6-32.4-.3-45.3 4.1-9.8 9.6-14.4 15.5-19.2 5.7-4.6 11.5-9.4 16.5-19.5 8.2-16.7 5.9-30.7 3.7-44.3-2.2-13-4.2-25.2 4.4-37.3 6.7-9.5 15.4-12.5 23.8-15.4 8.3-3 16.3-5.8 22.9-14.8zm-2.1 54.8l-.1 3.4c-7.9 10.3-14.7 21.3-20.3 32.7-11.9 24-16.2 44.6-21.1 68.5-2.6 12.5-4.6 25.2-6.1 37.9l-2-.1c1.5-12.8 3.6-25.6 6.2-38.2 4.9-24 9.2-44.8 21.2-69 6-12.3 13.5-24.1 22.2-35.2z"/><path class="st2" d="M411.1 818.2v.5l-2 50.3-.1 3.4-2 51.4-.1 3.4-5.1 128.3v.4c-.3 6.6-5.9 11.8-12.5 11.5l-29.9-1.2-2-.1-32.8-1.3-2.1-.1-19.1-.8-3.4-.1-46-1.8-4.9-.2-49-1.9-2.7-.1-45.3-1.8-2.6-.1-37.3-1.5c-.3-.2-.5-.3-.8-.5-6.5-4.2-12.1-8.9-16.8-14.1-1.1-1.2-2.2-2.5-3.2-3.8-2.5-3.2-4.8-6.6-6.6-10.1-6.4-12.1-9-26.9-8.2-43.8 1.3-28.7 12.6-63.3 31.9-100.1.4-.7.8-1.5 1.2-2.2 6.8-12.7 14.4-25.6 23-38.7.6-.9 1.2-1.8 1.8-2.8 9.6-14.5 20.3-29.1 32-43.6l19.3.8 2.2.1 52.9 2.1 2.2.1 38.2 1.5 2.2.1 72.1 2.9 2.1.1 26.2 1 2.7.1 13.3.5c6.1.4 11.2 5.8 11.2 12.2z"/><path class="st1" d="M716 886.1l-231.7-9.2c-6.6-.3-11.8-5.9-11.5-12.5l.4-11c.3-6.6 5.9-11.8 12.5-11.5l231.7 9.2c6.6.3 11.8 5.9 11.5 12.5l-.4 11c-.3 6.6-5.9 11.8-12.5 11.5zm367.9-51.6c-2.6 3.6-5.3 7.2-8.1 10.7-4.6 5.8-9.3 11.5-14.2 17.1l-2.1 2.4c-3.1 3.5-6.2 6.9-9.5 10.2l-2.4 2.4c-8.2 8.4-16.8 16.5-25.7 24.1-.9.8-1.9 1.6-2.8 2.4-2.6 2.2-5.3 4.5-8 6.6-.8.6-1.6 1.3-2.4 1.9-7 5.7-14.2 11.1-21.6 16.4l-185.9-7.3c-6.6-.3-11.8-5.9-11.5-12.5l3-75.1c.3-6.6 5.9-11.8 12.5-11.5l273.4 10.8c1.9 0 3.7.5 5.3 1.4zM928.7 965.3c-8.3 4.5-16.7 8.9-25.1 13-1.6.8-3.3 1.6-4.9 2.4-2 1-3.9 1.9-5.9 2.8-.8.4-1.6.8-2.4 1.1-12.1 5.7-24.3 11-36.5 16-.8.3-1.6.6-2.4 1-13 5.2-26 10.1-38.8 14.6-.8.3-1.6.6-2.4.8l-8.7 3c-2.4.8-4.9 1.6-7.3 2.4-3 1-6.1 2-9.1 2.9l2.9-73.2c.3-6.6 5.9-11.8 12.5-11.5l159.5 6.3c-9.5 6-19.2 11.7-29 17.1-.8.4-1.6.8-2.4 1.3z"/><circle class="st1" cx="371.9" cy="838.5" r="16.5"/><circle class="st1" cx="940" cy="877.2" r="16.5"/><path id="stove" class="st1" d="M758.5 727.2l-39.8-1.6c4.8.2 9-3.6 9.1-8.4.2-4.8-3.6-9-8.4-9.1l-82.8-3.3c-4.8-.2-9 3.6-9.1 8.4-.2 4.8 3.6 9 8.4 9.1l-58.6-2.3c4.8.2 9-3.6 9.1-8.4.2-4.8-3.6-9-8.4-9.1l-82.8-3.3c-4.8-.2-9 3.6-9.1 8.4-.2 4.8 3.6 9 8.4 9.1l-39.8-1.6c-6.6-.3-12.2 4.9-12.5 11.5l-.4 11c-.3 6.6 4.9 12.2 11.5 12.5l303.9 12c6.6.3 12.2-4.9 12.5-11.5l.4-11c.1-6.5-5-12.1-11.6-12.4z"/><path id="plant" class="st1" d="M1030 602.6c-21-1.6 65.6-36.4 54.9-53.9-10.7-17.5-50.4 42.7-74.1 46.6s30.4-50.8 14.9-67.6-34.3 66-49.4 78.7c-15.1 12.7-17.6-27.8-41.1-25.5-.6.1-3.4.4-5.2 2.4-8.1 9.4 16.7 41.8 19.8 45.8l-5.6 140.4 87.2 3.4 5.6-140.4s52.8-22.9 63.1-37.9c10.2-14.8-49.1 9.7-70.1 8z"/></g></g><path class="st3" d="M801.6 1019.9l-27.9.1-.1-24.1c-2 11-2.7 22.2-1.4 33.3.5-.1 1-.3 1.5-.4v-6.4l20.6-.1c2.4-.7 4.9-1.6 7.3-2.4zM1166.5 550h5.9c0-.8 0-1.6-.1-2.4h-5.8l-.1-38.9h2.3c-.1-.8-.3-1.6-.4-2.4h-2v-10.1c-.7-3.3-1.5-6.6-2.4-9.8l.1 19.9-38.9.1-.1-36.6 33.3-.1c-.3-.8-.6-1.6-1-2.4l-32.3.1-.1-34.2h6.1c-.6-.4-1.3-.8-1.9-1.1l-2.4-1.2h-1.8v-.8c-.8-.3-1.6-.7-2.4-.9v1.8l-36.6.1v-.4c-2.6.8-5.2 1.8-7.9 2.8h5.6l.1 34.2-35.1.1-.1-20.4c-.8.4-1.6.8-2.4 1.3l.1 19.1-35.1.1c-1.5.8-2.9 1.6-4.4 2.4h.5l.1 36.6-38.9.1-.1-17.1c-.8.4-1.6.8-2.4 1.1l.1 16-36.5.1-6 2.4h3.5l.1 38.9-36 .1-.1-27c-.8.3-1.6.5-2.4.8l.1 26.2-36.6.1-.1-15.3-2.4.6v14.7l-38.9.1v-5.9c-.8.1-1.6.3-2.4.5v5.5l-34.2.1c-6.7.9-13.2 1.7-19.8 2.5l15-.1.1 36.6-35.1.1-.1-34.7c-.8.1-1.6.1-2.4.2l.1 34.5-16.5.1-.3 2.4 16.8-.1.1 35.1-13.9.1c.1.3.2.7.3 1 .1.5.3.9.5 1.3H732l.1 25.5 2.4 3.3-.1-28.8 35.1-.1.1 36.6-28.8.1 2.1 2.4 26.8-.1.1 26.9c.4.3.7.7 1.1 1 .4.4.9.8 1.3 1.2l-.1-29.1 36.6-.1.1 38.9-26.2.1c.8.8 1.7 1.6 2.5 2.4l23.7-.1.1 24.5c.8.9 1.6 1.9 2.4 2.9l-.1-27.4 38.9-.2.1 36.6-31.8.1c.6.8 1.1 1.6 1.7 2.4l30.1-.1.1 36-13.4.1.6 2.4 12.8-.1.1 36.6h-9.9c0 .8-.1 1.6-.2 2.4h10l.1 38.9-19.3.1-.9 2.4 20.2-.1.1 36.6-37.4.1-1.2 2.4 38.7-.1.1 35.1-38.9.1-.1-34.7-2.4 4.5.1 30.2-15.9.1-1.2 2.4 17.7-.2.1 36.6-32.3.1c-.2.8-.5 1.6-.7 2.4l33-.1.1 35.9c.8-.3 1.6-.5 2.4-.8l-.1-35.1 38.9-.1.1 20.7c.8-.3 1.6-.6 2.4-1l-.1-19.7 36.6-.1v3.9c.8-.4 1.6-.7 2.4-1.1v-2.8h5.9c1.6-.8 3.3-1.6 4.9-2.4h-10.9l-.1-36.6 36-.1.1 23.7c.8-.4 1.6-.9 2.4-1.3l-.1-22.4 36.6-.1v.6l4.5-3h-2.2l-.1-35.1 38.9-.2v8.5c.8-.6 1.6-1.3 2.4-1.9v-6.6h8c.9-.8 1.9-1.6 2.8-2.4h-10.8l-.1-36.6 36.6-.1v12.6l2.4-2.4v-10.1h9.5l2.1-2.4H1050l-.1-38.9 35.1-.1v9.8l2.4-3.3v-6.5h4.6c.6-.8 1.1-1.6 1.6-2.4h-6.2l-.1-36.6 28.2-.1c.4-.8.9-1.6 1.3-2.4l-29.4.1-.1-36 36.6-.1.1 21.8c.8-1.7 1.6-3.3 2.4-5l-.1-16.8h7.5c.3-.8.7-1.6 1-2.4h-8.5l-.1-36.6 22.1-.1c.3-.8.5-1.6.8-2.4l-22.9.1-.1-38.9 33.8-.1.6-2.4-34.4.1-.1-36.6 38.9-.1.1 15.6c.9-4.5 1.6-9.1 2.3-13.6v-2h.3c.1-.8.2-1.6.4-2.4h-.7l-.1-35.1h4.7c.1-.8.1-1.6.2-2.4h-4.9l-.7-36.7zm-431.7 75.7l-.1-35.1 35.1-.1.1 35.1-35.1.1zm37.2-74.2l36.6-.1.1 36.6-36.6.1-.1-36.6zm.1 38.9l36.6-.1.1 35.1-36.6.1-.1-35.1zm.3 74.1l-.1-36.6 36.6-.1.1 36.6-36.6.1zm38.5-113.2l38.9-.2.1 36.6-38.9.1-.1-36.5zm.2 39l38.9-.2.1 35.1-38.9.2-.1-35.1zm.1 37.5l38.9-.1.1 36.6-38.9.2-.1-36.7zm.3 77.8l-.2-38.9 38.9-.1.2 38.9-38.9.1zm1 273l-.1-36.6 38.9-.2.1 36.6-38.9.2zm39.7-427.4l36.6-.1.1 36.6-36.6.1-.1-36.6zm.1 38.9l36.6-.1.1 35.1-36.6.1-.1-35.1zm.2 37.5l36.6-.1.1 36.6-36.6.1-.1-36.6zm.1 39l36.6-.1.2 38.9-36.6.1-.2-38.9zm.2 41.2l36.6-.1.1 36.6-36.6.1-.1-36.6zm.1 39l36.6-.1.1 36-36.6.1-.1-36zm.2 38.4l36.6-.1.1 36.6-36.6.1-.1-36.6zm.1 39l36.6-.1.2 38.9-36.6.1-.2-38.9zm.2 41.2l36.6-.1.1 36.6-36.6.1-.1-36.6zm.1 39l36.6-.1.1 35.1-36.6.1-.1-35.1zm.3 74.1l-.1-36.6 36.6-.1.1 36.6-36.6.1zM891.2 551l36-.1.1 36.6-36 .1-.1-36.6zm.1 39l36-.1.1 35.1-36 .1-.1-35.1zm.2 37.5l36-.1.1 36.6-36 .1-.1-36.6zm.1 38.9l36-.1.1 38.9-36 .1-.1-38.9zm.2 41.3l36-.1.1 36.6-36 .1-.1-36.6zm.1 39l36-.1.1 36-36 .1-.1-36zm.2 38.4l36-.1.1 36.6-36 .1-.1-36.6zm.1 38.9l36-.1.2 38.9-36 .1-.2-38.9zm.2 41.3l36-.1.1 36.6-36 .1-.1-36.6zm.2 74l-.1-35.1 36-.1.1 35.1-36 .1zM966 509.5l.1 38.9-36.6.1-.1-38.9 36.6-.1zm-36.5 41.4l36.6-.1.1 36.6-36.6.1-.1-36.6zm.2 39l36.6-.1.1 35.1-36.6.1-.1-35.1zm.1 37.4l36.6-.1.1 36.6-36.6.1-.1-36.6zm.2 39l36.6-.1.1 38.9-36.6.1-.1-38.9zm.1 41.2l36.6-.1.1 36.6-36.6.1-.1-36.6zm.2 39l36.6-.1.1 36-36.6.1-.1-36zm.1 38.4l36.6-.1.1 36.6-36.6.1-.1-36.6zm.2 39l36.6-.1.2 38.9-36.6.1-.2-38.9zm.1 41.2l36.6-.1.1 36.6-36.6.1-.1-36.6zm.3 74.1l-.1-35.1 36.6-.1.1 35.1-36.6.1zm76.2-429.9l.2 38.9-38.9.1-.2-38.9 38.9-.1zm-38.7 41.4l38.9-.2.1 36.6-38.9.1-.1-36.5zm.2 39l38.9-.1.1 35.1-38.9.2-.1-35.2zm.1 37.5l38.9-.1.1 36.6-38.9.1-.1-36.6zm.2 39l38.9-.1.1 38.9-38.9.1-.1-38.9zm.1 41.2l38.9-.1.1 36.6-38.9.1-.1-36.6zm.2 39l38.9-.1.1 36-38.9.1-.1-36zm.1 38.4l38.9-.1.1 36.6-38.9.1-.1-36.6zm.2 39l38.9-.2.1 38.9-38.9.2-.1-38.9zm.3 77.8l-.1-36.6 38.9-.1.1 36.6-38.9.1zm76.2-431.4l.1 36.6-36.6.1-.1-36.6 36.6-.1zm-36.5 39.1l36.6-.1.2 38.9-36.6.1-.2-38.9zm36.8 41.1l.1 36.6-36.6.1-.1-36.6 36.6-.1zm.1 39l.1 35.1-36.6.1-.1-35.1 36.6-.1zm-36.4 37.6l36.6-.1.1 36.6-36.6.1-.1-36.6zm.1 39l36.6-.1.1 38.9-36.6.1-.1-38.9zm.2 41.2l36.6-.1.1 36.6-36.6.1-.1-36.6zm.1 39l36.6-.1.1 36-36.6.1-.1-36zm.2 38.4l36.6-.1.1 36.6-36.6.1-.1-36.6zm.3 77.9l-.2-38.9 36.6-.1.1 38.9-36.5.1zm37.5-392.3l35.1-.1.1 36.6-35.1.1-.1-36.6zm.1 39l35.1-.1.1 38.9-35.1.1-.1-38.9zm35.2 41.1l.1 36.6-35.1.1-.1-36.6 35.1-.1zm.2 39l.1 35.1-35.1.1-.1-35.1 35.1-.1zm-34.9 37.6l35.1-.1.1 36.6-35.1.1-.1-36.6zm35.2 38.8l.1 38.9-35.1.1-.2-38.9 35.2-.1zm-34.9 41.4l35.1-.1.1 36.6-35.1.1-.1-36.6zm35.2 38.9l.1 36-35.1.1-.1-36 35.1-.1zm-34.8 75.1l-.1-36.6 35.1-.1.1 36.6-35.1.1zm36-387.6l36.6-.1.1 34.2-36.6.1-.1-34.2zm.1 36.5l36.6-.1.1 36.6-36.6.1-.1-36.6zm.2 39l36.6-.1.1 38.9-36.6.1-.1-38.9zm.1 41.3l36.6-.1.1 36.6-36.6.1-.1-36.6zm.2 39l36.6-.1.1 35.1-36.6.1-.1-35.1zm.1 37.4l36.6-.1.1 36.6-36.6.1-.1-36.6zm.2 39l36.6-.1.1 38.9-36.6.1-.1-38.9zm.3 77.9l-.1-36.6 36.6-.1.1 36.6-36.6.1zm38.1-234.7l38.9-.1.2 38.9-38.9.2-.2-39zm.1 41.2l38.9-.1.1 36.6-38.9.2-.1-36.7zm.3 74.1l-.1-35.1 38.9-.2.1 35.1-38.9.2z" id="grid2"/></g><g id="figure1_general"><path class="st0" d="M1125.5 202.7c-9.5 30.4-32.9 48.2-47 58.1-16.5 11.7-32.9 22.3-48.9 31.9-50.1 30.1-97 50.6-133.6 64.1-46 17-76 23-76 23-147 29-149.2-3-263.5 20.6-30.3 6.3-118 25.4-209.7 79.7-34.6 20.5-69.8 46-102.6 77.8-90.8 87.8-124.7 185.4-148.3 232.6-9.8 19.6-17.8 30.5-27.4 28.5-5.2-1-10.5-5.9-15-21.7-.1-.4-.2-.7-.3-1.1-.2-.7-.4-1.5-.6-2.3-.3-1.2-.6-2.5-.9-3.9-.2-1.1-.5-2.3-.7-3.5-.5-2.5-1-5.1-1.4-7.9-.1-.9-.3-1.8-.4-2.7l-.6-3.9c-.1-1-.3-2-.4-3 0-.2-.1-.3-.1-.5-.2-1.6-.4-3.3-.6-5-.3-2.9-.7-6-1-9.2-.2-1.8-.3-3.6-.5-5.5-.1-1.2-.2-2.3-.3-3.5l-.3-3.6c0-.4-.1-.8-.1-1.2-.1-1.2-.2-2.4-.3-3.7 0-.5-.1-.9-.1-1.4-.2-3.8-.5-7.8-.7-11.9 0-.5 0-1-.1-1.5-.1-1.4-.1-2.8-.2-4.2-1.1-22.8-1.6-50.5-1.6-84.4v-6.3c0-4.2 0-8.5.1-13v-9c0-2.3.1-4.6.1-6.9v-10.9c.1-6.6.2-13.4.4-20.4 0-.8 0-1.6.1-2.4 0-1.1 0-2.2.1-3.3 0-1.2 0-2.3.1-3.5 0-1 0-1.9.1-2.9 0-1.1 0-2.2.1-3.3 0-1.5.1-3 .1-4.6.1-2.3.1-4.7.2-7.1 0-1.3.1-2.6.1-4 .1-2.1.1-4.2.2-6.3 0-.8 0-1.6.1-2.4.1-4.8.3-9.5.4-14.2 0-1.6.1-3.1.1-4.7 0-1.3.1-2.5.1-3.8l.3-10.1c0-1.5.1-3 .1-4.6 0-.8 0-1.6.1-2.4.2-8.5.5-16.8.7-24.9.1-3.9.2-7.8.4-11.6 0-.8 0-1.5.1-2.2 0-1.2.1-2.3.1-3.4 0-1.9.1-3.8.2-5.7 0-.9.1-1.8.1-2.8 0-.9.1-1.9.1-2.8.3-8.8.5-17.5.8-26 0-.8 0-1.6.1-2.4.3-9.5.6-18.8 1-27.9.1-2.1.2-4.2.2-6.3 0-.5 0-1 .1-1.5 0-.8.1-1.6.1-2.4.1-2.4.2-4.7.3-7.1.1-1.6.1-3.3.2-4.9.2-6.5.5-12.9.8-19.2.1-1.6.1-3.1.2-4.7 0-.5 0-.9.1-1.4 0-.8.1-1.6.1-2.4v-.8c.1-3.1.3-6.1.4-9.1.3-7.5.7-14.9 1.1-22.1.1-2.5.3-5 .4-7.4 0-.8.1-1.6.1-2.4l.3-4.8.3-4.8c.1-1.2.2-2.5.2-3.7.1-1.2.2-2.5.2-3.7.3-5.3.7-10.6 1.1-15.7.1-1.5.2-2.9.3-4.4.1-.8.1-1.6.2-2.4.1-1 .1-1.9.2-2.9.1-1.2.2-2.5.3-3.7 0-.3 0-.5.1-.8v-.3c0-.3 0-.6.1-1 .1-1 .1-1.9.2-2.9.1-1.4.2-2.7.3-4.1.2-2.3.4-4.5.6-6.7 0-.4.1-.9.1-1.3 0-.3.1-.6.1-.9.4-4 .8-7.9 1.1-11.7.1-.8.2-1.6.2-2.4 1.4-13.2 2.9-25.3 4.6-36.5.1-.8.2-1.6.4-2.4 2.2-14.3 4.8-27 7.7-38.1.2-.8.4-1.5.6-2.3 3.8-13.9 8.2-25.4 13.4-34.5.4-.7.8-1.4 1.3-2.1.8-1.3 1.6-2.6 2.4-3.8 1.2-1.7 2.3-3.2 3.6-4.7 1.1-1.4 2.3-2.6 3.5-3.8 6.5-6.5 13.1-12 20-16.8l2.7-1.8c6.3-4.1 12.7-7.6 19.3-10.4.9-.4 1.8-.8 2.7-1.1 13.3-5.4 27.3-8.4 42.2-9.5.8-.1 1.7-.1 2.5-.2.6 0 1.2-.1 1.8-.1 3-.2 6.1-.3 9.2-.3 8.5-.1 17.3.4 26.4 1.3.8.1 1.6.2 2.4.2 11.4 1.2 23.3 3 35.7 5.3.8.2 1.6.3 2.4.4 11.5 2.2 23.4 4.7 35.8 7.5.8.2 1.6.3 2.3.5 12.1 2.8 24.7 5.7 37.8 8.8.8.2 1.6.4 2.3.5 11.5 2.7 23.4 5.5 35.7 8.3.8.2 1.5.4 2.3.5 11.1 2.5 22.5 5 34.3 7.4.8.1 1.6.3 2.3.5 11.6 2.4 23.6 4.7 36 6.8.8.1 1.6.3 2.3.4 12.5 2.2 25.3 4.2 38.5 6l2.4.3c11.9 1.6 24.1 3.1 36.6 4.3.8.1 1.6.2 2.4.2 79.4 7.8 171.7 7.5 279.9-11.6 96-17 234.2-53.9 289.9 13.4 15.7 19 33.7 61.9 21.1 102.4z"/><path class="st3" d="M530.3 118.3l4.6-19.5c-.8-.1-1.6-.2-2.4-.2l-4.5 19.1-35.6-8.4 3.6-15-2.4-.3-3.5 14.8-37.8-9 2.8-11.9c-.8-.1-1.6-.3-2.3-.4L450 99.3l-35.6-8.4 2.4-10.2c-.8-.2-1.6-.3-2.3-.5l-2.4 10.1-34.1-8.1 2.2-9.4c-.8-.2-1.6-.4-2.3-.5l-2.2 9.4-35.6-8.4L342 64c-.8-.2-1.5-.4-2.3-.5l-2.2 9.2-37.8-9 2.2-9.1c-.8-.2-1.6-.3-2.3-.5l-2.1 9-35.6-8.4 1.9-8.1c-.8-.1-1.6-.3-2.4-.4l-1.9 8-35-8.3 1.2-5c-.8-.1-1.6-.2-2.4-.2l-1.1 4.7-25.3-6c-3.1 0-6.1.1-9.2.3l33.9 8-8.4 35.6-35.6-8.4 8.3-35.1c-.8 0-1.7.1-2.5.2l-8.1 34.4-37.8-9 3.8-15.9c-.9.4-1.8.8-2.7 1.1l-3.4 14.2-16-3.8-2.7 1.8 18 4.3-8.1 34.1-35.6-8.4 2.2-9.4c-1.2 1.5-2.4 3-3.6 4.7l-1 4.1-1.4-.3c-.4.7-.8 1.4-1.3 2.1l2.2.5-8.4 35.6-7.1-1.7c-.2.8-.4 1.5-.6 2.3l7.2 1.7-9 37.9-6-1.4c-.1.8-.2 1.6-.4 2.4l5.8 1.4-8.4 35.6-2-.5c-.1.8-.2 1.6-.2 2.4l1.7.4-2.7 11.6-.2.6c0 .4-.1.9-.1 1.3-.2 2.2-.4 4.4-.6 6.7-.1 1.3-.2 2.7-.3 4.1-.1 1-.2 1.9-.2 2.9 0 .3-.1.6-.1 1v.3l2.8-12 3.8-15.9 19.6 4.7 12.5 3 3.5.8-3.5 14.6-4.8 20.3-15.8-3.7-9.4-2.2-9.3-2.2c-.1.8-.1 1.6-.2 2.4l10.1 2.4 8.2 1.9 15.8 3.7-8.4 35.6-28.1-6.7c0 .8-.1 1.6-.1 2.4l27.7 6.5-9 37.8-20.7-4.9c0 .8-.1 1.6-.1 2.4l20.3 4.8-8.4 35.6-13.4-3.2c0 .8-.1 1.6-.1 2.4l12.9 3.1-8.1 34.1-6.1-1.4c0 .8 0 1.6-.1 2.4l5.6 1.3-6.5 27.7c0 .9 0 1.8-.1 2.8-.1 1.9-.1 3.8-.2 5.7 0 1.1-.1 2.3-.1 3.4l.2-.9 37.8 9-8.9 37.8-30.2-7.1c0 .8 0 1.6-.1 2.4l29.7 7-8.4 35.6-22.3-5.3c0 .8 0 1.6-.1 2.4l21.9 5.2-7.9 33.3-14.9-3.5c0 .8 0 1.6-.1 2.4l14.4 3.4L52 595c-.2.7.2 1.3.9 1.4.6.1 1.3-.2 1.4-.9l5.8-24.5 35.6 8.4-8.9 37.6c-.2.6.2 1.3.9 1.4s1.3-.2 1.4-.9L98 580l35 8.3-6.3 26.5c.9-.2 1.7-.3 2.6-.5l6-25.4 35.6 8.4-.9 3.9 2.7-1.2.5-2.1 2.6.6c1.1-.5 2.2-1.1 3.3-1.7l-5.4-1.3 7.9-33.3 36 8.5c.7-.6 1.5-1.3 2.2-1.9l-37.6-8.9 8.4-35.6 37.8 9-8.4 35.3c1.1-1 2.1-2 3.2-3l7.5-31.7 15.4 3.7c.5-.7.9-1.4 1.4-2.1l-16.3-3.8 9-37.8 24.7 5.8c.3-.8.5-1.5.8-2.3l-24.9-5.9 8.4-35.6 26.8 6.3c.2-.8.4-1.5.6-2.3l-26.8-6.3 8.1-34.1 25.6 6c.1-.8.3-1.6.4-2.3l-25.4-6 8.4-35.6 22.8 5.4c.1-.8.2-1.6.4-2.4l-22.7-5.4 9-37.8 20.4 4.8c.1-.8.3-1.6.5-2.3l-20.3-4.8 8.4-35.6 20.1 4.8c.2-.8.4-1.5.7-2.3l-20.2-5 6.8-28.8 1.5-6.2 14.4 3.4 9.5 2.2c.3-.8.7-1.5 1-2.2l-6.8-1.6-17.5-4.1.7-2.8 7.8-32.8 24.8 5.9 10.3 2.4c1.4-1.9 2.8-3.7 4.3-5.5l8-34 23.7 5.6 2.7-1.8-25.9-6.1 8.4-35.6 34.1 8.1-6.5 27.4c.9-.5 1.9-1.1 2.8-1.6l6-25.2 31.8 7.5c1.3-.5 2.5-1 3.8-1.5l-35.1-8.3 8.1-34.1 35.6 8.4-8 33.8c.9-.4 1.8-.7 2.7-1.1l7.6-32.1 37.8 9-1.2 5.2c.9-.4 1.8-.8 2.8-1.2l.8-3.4 4.3 1c1.1-.5 2.2-1.1 3.4-1.7l-7.1-1.7 8.4-35.6 35.6 8.4-1.7 7.2 3-2.4 1-4.2 3.1.7c.7-.6 1.5-1.3 2.2-1.9l-4.7-1.4zm-191-42.8l35.6 8.4-8.4 35.6-35.6-8.4 8.4-35.6zM299.2 66l37.8 9-8.4 35.6-4.6-1.1-33.2-7.9 1.9-7.9 6.5-27.7zM116 504.2l5.7-24 3.3-13.8 35 8.3-1.3 5.6-7.6 32.3-35.1-8.4zm34.4 10.6l-8.4 35.6-35-8.3 8.4-35.6 35 8.3zm90.9-383.9l-8.4 35.6-2.5-.6-32.6-7.7 8.4-35.6 34.3 8.1.8.2zm-89.1 260.9l-9.1-2.2 8.4-35.6 19.1 4.5 15.9 3.8-8.4 35.6-25.9-6.1zm25.4 8.5l-8.1 34.1-9.6-2.3-25.4-6 8.1-34.1 9.5 2.2 25.5 6.1zm-25.5-48.6l9-37.8 35 8.3-9 37.8-35-8.3zm9.5-40.1L170 276l18.9 4.5 16.2 3.8-5 21.2-3.4 14.4-35.1-8.3zm27-33.7l-18.1-4.3 8.3-35 35 8.3-5.3 22.4-3 12.6-16.9-4zm-45.3-58.5l6.6-27.7 35.6 8.4-8.4 35.6-32.8-7.8-2.9-.7 1.9-7.8zm36.1 16.9l8.4-35.6 35 8.3-8.4 35.6-35-8.3zm9-37.9l9-37.8 32.8 7.8 2.2.5-3.5 14.9-5.4 22.9-35.1-8.3zm7.1-40.7l-35.6-8.4 8.4-35.6L204 122l-8.5 35.7zm-.5 2.3l-9 37.8-35.6-8.4 9-37.8L195 160zm-46.9 28.8l-37.8-8.9 8.9-37.8L157 151l-8.9 37.8zm-.5 2.3l-7.9 33.3-.5 2.3-1-.2-36.9-8.7 8.4-35.6 37.9 8.9zm-6.7 38.5l2.7.7 32.9 7.8-8.3 35-34.8-8.2-.8-.2 8.3-35.1zm-8.2 37.5l34.9 8.3-8.4 35.6-35.6-8.4 5.4-22.9 3-12.7.7.1zm26 46.2l-9 37.8-6.7-1.6-29-6.8.2-1 8.7-36.8 35.8 8.4zm-16.1 38.6l6.6 1.6-8.4 35.6-5.6-1.3-30-7.1 8.4-35.6 29 6.8zm-8 38.2l5.6 1.3-8.1 34.1-4.7-1.1-31-7.3 8.1-34.1 30.1 7.1zm-7.6 36.7l4.6 1.1-8.4 35.6-3.6-.9-32-7.6 8.4-35.6 31 7.4zm-1.5 37.2l8.4-35.6 27.5 6.5 7.5 1.8-1.5 6.5-6.9 29.2-35-8.4zm43.8-18.7l1.9-8 35.6 8.4-4 17-4.1 17.5-.3 1.1-4.6-1.1-31-7.3 6.5-27.6zm2.5-10.4l8.1-34.1 35.6 8.4-8.1 34.1-35.6-8.4zm8.6-36.4l8.4-35.6 35.6 8.4-8.4 35.6-35.6-8.4zm14.4-36.7l-5.4-1.3 8.9-37.8 13.5 3.2 22.1 5.2L225 369l-30.2-7.2zm16.8-38.4l-12.7-3 2.9-12.4 5.5-23.2 35.6 8.4-8.4 35.6-22.9-5.4zm-3.7-40.9l2.9-12.1 5.4-22.9 12.9 3.1 22.7 5.4-8.3 35-35.6-8.5zm21.2-34.4l-12.4-2.9 8.4-35.6 3.2.8 32.4 7.7-8.4 35.6-23.2-5.6zm-.8-40.3l-2.6-.6 2.7-11.4 6.3-26.4 35.6 8.4-9 37.8-33-7.8zm6.9-40.7l8.4-35.6 35.6 8.4-8.4 35.6-35.6-8.4zm10.4-44.1l6.6-28 23.3 5.5 12.3 2.9-8.1 34.1-35.6-8.4 1.5-6.1zm36 17.4l27.4 6.5 10.4 2.5L311 185l-20.3-4.8-17.5-4.2 8.4-35.6zm28.7 4.4l-28.1-6.7 8.1-34.1 33.6 8 4.2 1-8.1 34.1-9.7-2.3zM261.2 57l35.6 8.4-6.8 29.1-1.5 6.6-9.5-2.2-26.1-6.2 8.3-35.7zm-37.3-8.8l35 8.3-8.4 35.6-35-8.3 8.4-35.6zm-9 37.9l35 8.3-8 33.9v.2h-.1l-35-8.3 8.1-34.1zM177 77.2l35.6 8.4-8.1 34.1-35.6-8.4 8.1-34.1zm-40.2-9.5l37.8 9-8.1 34.1-37.8-9 8.1-34.1zm-8.6 36.4l37.8 9-8.4 35.6-37.8-9 8.4-35.6zm-37.9-9l35.6 8.4-8.4 35.6-35.6-8.4 8.4-35.6zm-9 38l35.6 8.4-8.9 37.8-13-3.1-3.2-.8-19.4-4.6 8.9-37.7zM95 216.3l-12-2.8-19.6-4.7 8.4-35.6 19.5 4.6 3.7.9 12.5 2.9-8.5 35.7-4-1zm0 28.3l5.8-24.5 35.9 8.5 1.9.5-8.3 35-16.5-3.9-18.8-4.5-2.5-.6 2.5-10.5zm-3.1 12.9l3 .7 17.3 4.1 17.5 4.1-8.4 35.6-37.8-9 8.4-35.5zm-9 37.9l37.8 9-4.1 17.4-4.7 20-.1.4-37.8-9 8.9-37.8zm-9.5 40.2l37.8 9-8.4 35.6-37.8-9 8.4-35.6zm-8.9 37.9l37.8 9-8.1 34.1-37.8-8.9 8.1-34.2zm-17.1 72.1l8.4-35.6 37.8 8.9-8.4 35.6-37.8-8.9zM87 457.4l32 7.6 3.6.8-3.4 14.4-5.5 23.4-35.7-8.4 9-37.8zm-9.5 40.1l35.6 8.4-8.4 35.6-35.6-8.4 8.4-35.6zm18.8 79.7l-35.6-8.4 7.9-33.3 35.6 8.4-7.9 33.3zm37.3 8.8l-35-8.3 7.9-33.3 35 8.3-7.9 33.3zm37.9 9l-35.6-8.4 7.9-33.3 35.6 8.4-7.9 33.3zm8.5-35.6l-35.6-8.4 8.4-35.6 35.6 8.4-8.4 35.6zm8.9-37.9l-35.6-8.4 7.8-32.8 1.2-5 21.2 5 14.5 3.4-9.1 37.8zm40.2 9.5l-37.8-8.9 9-37.8 37.8 8.9-9 37.8zm9.5-40.2l-37.8-9 .4-1.7 4-17.1 4-16.9 37.8 9-8.4 35.7zm9-37.9l-37.8-9 8.1-34.1 37.8 9-8.1 34.1zm8.6-36.5l-37.8-9 8.4-35.6 37.8 9-8.4 35.6zm9-37.9l-37.8-9 8.9-37.8 37.8 9-8.9 37.8zm9.5-40.2l-37.8-9 8.4-35.6 37.8 9-8.4 35.6zm8.9-37.9l-37.8-9 8.3-35 37.1 8.8.7.2-1.3 5.4-7 29.6zm8.9-37.3l-37.8-9 8.4-35.6 8.9 2.1 19.2 4.5 9.7 2.3-8.4 35.7zm9-38l-7.8-1.8-20.9-4.9-9.2-2.2 9-37.8 17 4 20.9 4.9-6.8 28.9-2.2 8.9zm37.9 9l-9.5-2.3-26.1-6.2 2.7-11.5 6.2-26.3 35.6 8.4-8.9 37.9zm9.5-40.1l-35.6-8.4 8.4-35.6 35.6 8.4-8.4 35.6zm9-38l-35.6-8.4 8.1-34.1 35.6 8.4-8.1 34.1zm36.4 8.7l-34.1-8.1 8.1-34.1 34.1 8.1-8.1 34.1zm8.7-36.5l-34.1-8.1 8.4-35.6 34.1 8.1-8.4 35.6zm37.9 9l-35.6-8.4 8.4-35.6 35.6 8.4-8.4 35.6zm40.1 9.5l-37.8-9 8.4-35.6 37.8 9-8.4 35.6z" id="grid1"/><g id="shelf_with_dishes"><path class="st1" d="M291.8 480.2h55c-34.6 20.5-69.8 46-102.6 77.8-90.8 87.8-124.7 185.4-148.3 232.6-14.1 2.2-28.2 4.5-42.3 6.7-.1-.4-.2-.7-.3-1.1-.2-.7-.4-1.5-.6-2.3-.3-1.2-.6-2.5-.9-3.9-.3-1.1-.5-2.3-.7-3.5-.5-2.5-1-5.1-1.4-7.9-.1-.9-.3-1.8-.4-2.7l-.6-3.9c-.1-1-.3-2-.4-3 0-.2-.1-.3-.1-.5-.2-1.6-.4-3.3-.6-5-.3-2.9-.7-6-1-9.2-.2-1.8-.3-3.6-.5-5.5-.1-1.2-.2-2.3-.3-3.5l-.3-3.6c0-.4-.1-.8-.1-1.2-.1-1.2-.2-2.4-.3-3.7 0-.5-.1-.9-.1-1.4-.2-3.8-.5-7.8-.7-11.9 0-.5 0-1-.1-1.5-.1-1.4-.1-2.8-.2-4.2-1.1-22.8-1.6-50.5-1.6-84.4v-6.3c0-4.2 0-8.5.1-13v-9c0-2.3.1-4.6.1-6.9v-10.9c.1-6.6.2-13.4.4-20.4 0-.8 0-1.6.1-2.4 0-1.1 0-2.2.1-3.3 0-1.2 0-2.3.1-3.5 0-1 0-1.9.1-2.9 0-1.1 0-2.2.1-3.3 0-1.5.1-3 .1-4.6.1-2.3.1-4.7.2-7.1 0-1.3.1-2.6.1-4 .1-2.1.1-4.2.2-6.3 0-.8 0-1.6.1-2.4.1-4.8.3-9.5.4-14.2 0-1.6.1-3.1.1-4.7 0-1.3.1-2.5.1-3.8l.3-10.1c0-1.5.1-3 .1-4.6 0-.8 0-1.6.1-2.4.2-8.5.5-16.8.7-24.9.1-3.9.2-7.7.4-11.6 0-.8 0-1.5.1-2.2 0-1.2.1-2.3.1-3.4 0-1.9.1-3.8.2-5.7 0-.9.1-1.8.1-2.8 0-.9 0-1.9.1-2.8.3-8.8.5-17.5.8-26 0-.8 0-1.6.1-2.4.3-9.5.6-18.8 1-27.9.1-2.1.2-4.2.2-6.3 0-.5 0-1 .1-1.5 0-.8.1-1.6.1-2.4.1-2.4.2-4.7.3-7.1.1-1.6.1-3.3.2-4.9.2-6.5.5-12.9.8-19.2.1-1.6.1-3.1.2-4.7 0-.5 0-.9.1-1.4 0-.8.1-1.6.1-2.4v-.8c.1-3.1.3-6.1.4-9.1.3-7.5.7-14.9 1.1-22.1.1-2.5.3-5 .4-7.4 0-.8.1-1.6.1-2.4l.3-4.8.3-4.8c.1-1.2.2-2.5.2-3.7.1-1.2.2-2.5.2-3.7.3-5.3.7-10.6 1.1-15.7.1-1.5.2-2.9.3-4.4.1-.8.1-1.6.2-2.4.1-1 .1-1.9.2-2.9.1-1.2.2-2.5.3-3.7 0-.3 0-.5.1-.8v-.3c0-.3 0-.6.1-1 .1-1 .1-1.9.2-2.9.1-1.4.2-2.7.3-4.1.2-2.3.4-4.5.6-6.7 0-.4.1-.9.1-1.3 0-.3.1-.6.1-.9l.1.3 1.3 4.8 5.8 21.6.7 2.6 4.7 17.2 3.5-15.3.5-2.3 8.1-35.1.5-2.3 8.3-35.7.5-2.3 3.2-13.7V286l17.3-23.9 1.5-2.1 22.8-31.6 1.5-2.1 1.5-2.1 3.6-5 5.9-8.2-5 16.8-.7 2.3-10.2 34.6-.7 2.3-3.7 12.5-12.4 42.1-5.9 20h34l-1.6 7.8-.5 2.3-7.5 35.8-.5 2.3-7.2 34.3-.5 2.3-7.5 35.8v2.8l-3.2 15.2h105c-1.9-5.3-3.9-10.7-5.8-16-1.9-.1-5.4-.3-9.9-1.1-.8-.1-1.5-.3-2.3-.4-9.8-2-23-6.6-33.5-17.4-.7-.7-1.3-1.4-2-2.1-.1-.1-.2-.3-.4-.4-2.1-2.5-4-5.1-5.6-7.8-.5-.9-1.1-1.9-1.6-2.8-6.3-11.9-8.5-25.5-7.8-37.9 0-.8.1-1.6.2-2.4 1.4-15.2 7.3-27.9 15.7-32.2.9-.5 1.8-.8 2.7-1.1 8-2.3 16.4 2.6 24.1 3.3h.1c3.2.3 6.3-.1 9.3-2.1 8.5-5.7 9.2-20.3 7.8-33.8-.1-.8-.2-1.7-.3-2.5-.2-1.2-.3-2.5-.5-3.7-3.2-3.7-6.4-7.7-9.3-11.7-.6-.9-1.2-1.7-1.8-2.6-5.7-8.4-10.2-17.1-11.2-25-.1-.5-.1-1-.1-1.5 0-.3 0-.7-.1-1-1.1-20.2 6.2-15.1 19.9-8.6.7.3 1.5.7 2.2 1 3.1 1.4 6.5 2.9 10.1 4.1 6.6 2.2 8.1-7.8 8.2-23.9v-2.4c0-10.8-.6-23.9-.7-37.8V208c0-4 0-8 .1-12s.2-8.1.4-12.1c.3-5.2.7-10.4 1.3-15.4l.3-2.4c1.7-13.2 4.8-25.4 10.1-35.2.4-.7.8-1.5 1.2-2.2 0-.1.1-.1.1-.2 1.1-1.9 2.4-3.7 3.7-5.3 1.4-1.8 3-3.4 4.6-4.9 8.1-7.3 16.8-13.2 25.3-17.6 1.1-.6 2.2-1.1 3.4-1.7 3.8-1.8 7.5-3.2 11-4.3.9-.3 1.8-.5 2.6-.8 18-4.8 31.9-.5 31.4 15.7 0 .8-.1 1.6-.2 2.4-.8 7.3-4.3 16.8-11.1 28.6l-2.4 4.2-1.2 2.1c-6.7 11.8-12.9 23-18.3 33.3-.4.7-.8 1.5-1.1 2.2-7.4 14.3-13.2 26.6-16.8 36-.3.8-.6 1.5-.8 2.2-5.4 15.2-3.8 21.3 8.4 12.5 3.4-2.5 7.1-5.2 10.8-8 .8-.6 1.7-1.2 2.5-1.8 3.3-2.4 6.6-4.8 9.9-7.1 1-.7 2-1.4 2.9-2 20.6-14.2 39.3-23.9 34.9-2.6-1.5 7.3-5.9 14.1-11.5 20.3-.6.7-1.2 1.3-1.9 2-10.6 11-24.8 20.1-32.5 27-1.8 1.6-3.3 3.1-4.3 4.4-1.6 2.2-2 4.1-.5 5.6.3.3.7.6 1.2.9.3.2.6.3.9.4 3.6 1.4 9.4-.1 15.9-2.8 1.2-.5 2.4-1 3.6-1.6 19.9-9.1 44.1-25.9 37.2-7.7-5.2 13.8-25 34.6-42.5 51.1h.1c-6 19.8-9.3 39.2-1 45.2 10.7 7.8 30.1-14.2 43.6-7 17.9 9.5 19.2 66.6-12 96.9-13.9 13.5-30.5 18-39.5 19.7-1.9 4.7-4 9.5-6.2 14.2zm654.6-187.5l5.1 33.8h-23.6c4.3-37.9 8.6-75.8 12.8-113.7h-7.8l4.3-25.3c3.8 0 8.9-.9 13.1-4.5 2.3-2.1 6.2-6.7 6-22.5 0-5.4-.4-40-12.3-42.4-10.3-2.1-23.6 20.6-27.9 37.4-3.4 13-.5 19 .6 20.9 3 5.4 8 8.2 11.5 9.6l-4.6 26.9h-24.1l-3.7-47c1.8-1.8 4.1-4.5 7.5-8.8 3.8-4.7 7-8.8 9.4-11.8-5.9-17.8-11.9-35.5-17.8-53.3-9.8 1.7-19.5 3.3-29.3 5 .3 14.1.6 28.2 1 42.3-2.2-3.9-3.9-7.3-5.3-10.3-2.3-5-5.9-14-9.9-13.7-1 .1-2 .7-2.5 1.5-4.5 6.6 18.8 24.7 14 34.3-1.2 2.3-3.8 3.9-5.8 3.6-2.8-.5-4.3-4.6-8.5-19.7-3.7-13.6-5.2-20-7.6-20-1.2 0-2 1.5-2.4 2.2-1.1 1.9-3 6.7 4.6 23.4 4.5 10.1 8.4 15.5 6.2 18.2-.6.7-1.7 1.3-2.7 1.3-8.1-.3-9.9-35-19.5-35.9-1-.1-2.6.1-3.3 1.1-1.8 2.6 2.9 8.9 4.1 10.5 4.1 5.8 9.1 16.8 12.7 39.9 3.1 2 7.6 4.9 13.4 7.8 4.6 2.4 7.6 3.6 9.6 4.2l9.5 25.6h-.7L885.4 327H463.6v30.3h432.3c36.7-13.5 83.6-34.1 133.6-64.1h-83.1zm-63.8-79.8l-11.3-30.5c1-2.1 2.2-5.2 3.6-9.6 1.4-4.6 2.4-8.7 3.1-12.1.2.2.4.3.6.5 4.1 3.3 6.4 5.4 8.1 6.6l3.6 45.1h-7.7z"/><path class="st1" d="M656.8 274.3c2 0 3.9-.5 5.5-1.4.1 27.7 12.6 47.3 17.1 53.7h156.3c4.9-7.7 16.1-28 15.5-56.1 0-2.3-.2-4.6-.4-6.8 1.7 1 3.7 1.6 5.8 1.6 6.3 0 11.4-5.1 11.4-11.4 0-6.3-5.1-11.4-11.4-11.4-3.6 0-6.7 1.6-8.8 4.2-3.5-12.9-8.7-22.5-12-27.7 2.1-2.2 3.3-5.1 3.3-8.3v-4.5c0-6.6-5.4-12-12-12h-58.5c.2-.9.4-1.9.4-2.9 0-6.7-5.4-12-12-12h-.2c-6.7 0-12 5.4-12 12 0 1 .1 2 .4 2.9h-58.5c-6.6 0-12 5.4-12 12v4.5c0 3.5 1.5 6.7 4 8.9-4.1 6-11.2 18-14.6 34.6-2-1.7-4.6-2.7-7.4-2.7-6.3 0-11.4 5.1-11.4 11.4s5.2 11.4 11.5 11.4zm-112.1-17.6c0-10.3-5.3-19.4-13.3-24.7.7-1.5 1.2-3.2 1.2-4.9 0-6.3-5.1-11.4-11.4-11.4h-20c-6.3 0-11.4 5.1-11.4 11.4 0 1.8.4 3.4 1.2 4.9-8 5.3-13.3 14.4-13.3 24.7v69.9h67.1v-69.9zm56.6 23.8c0-6.8-3.5-12.8-8.8-16.3.5-1 .8-2.1.8-3.3 0-4.1-3.4-7.5-7.5-7.5h-13.2c-4.1 0-7.5 3.4-7.5 7.5 0 1.2.3 2.3.8 3.3-5.3 3.5-8.8 9.5-8.8 16.3v46h44.2v-46z"/></g></g></g></g><g id="main"><g id="general_2_"><g id="body"><path class="st4" d="M799.7 413.7c-6.9 18.5-18.8 33.7-39.3 38.2-60.6 13.2-42.7-112.2-41.9-117.6.7-.2 1.5-.3 1.9-.4h.3l77.3-7.4 4.5-.4c1.4-.1 2.7-.3 4.1-.4 0-.1 7.1 50.5-6.9 88z"/><linearGradient id="SVGID_1_" gradientUnits="userSpaceOnUse" x1="711.247" y1="347.824" x2="799.304" y2="347.824" gradientTransform="rotate(3.979 575.216 487.73) scale(1.00001)"><stop offset=".002" stop-color="#19233d" stop-opacity=".5"/><stop offset=".836" stop-color="#f07125"/></linearGradient><path d="M799.7 413.7L751.4 450l-33.6-52.2c5.5-.6 13.9-2.1 23.1-6.8 12-6.1 18.8-14.3 22.6-19 2.6-3.2 11.4-14.5 16.8-33.3 1.2-4.1 2.2-8.7 3-13.6 3.7-23.8-.9-43.4-2.4-50.5-.4-1.9-.5-2.9-.3-3 .2-.1.7.7 1.5 2.8 1 2.5 2.5 6.9 4.7 14.2.7 2.6 1.4 5.1 2.2 7.7 2.9 10.2 5.9 20.2 8.9 30.1v.1c.1.4.2.7.3 1.1.3 1.2.7 2.4 1 3.7.2-.6 1.7-4.6 5.3-5.6.5-.1 1.2-.2 2-.2.1.1 7.2 50.7-6.8 88.2z" opacity=".08" fill="url(#SVGID_1_)"/></g><g id="shirt"><path class="st6" d="M999.6 501.5c-5.8 4.2-11.6 8.4-17.4 12.8-3.6 2.7-7.2 5.4-10.7 8-8.2 6.3-16.3 12.5-24.2 18.8-13.1-11.6-27.3-25.6-41.5-42.3-10.2-12-19-23.7-26.6-34.8l1.8 128.9v.5l-159-7.5c-8-4.6-16.1-9.1-24.1-13.7l-4.4-43.9-4.2-41.9c-2.8 12.3-5.7 24.7-8.7 37.3l-3.6 15c-.2.6-.3 1.3-.5 1.9-4 14.2-8 28.3-12.1 42.5-.3.9-.5 1.8-.8 2.7-4-1-8.3-2.1-12.6-3.3-4.1-1.2-8.4-2.5-12.8-4-3.5-1.2-7.1-2.5-10.7-3.9-8.8-3.4-16.9-7-24.2-10.6 1.1-8.2 2.9-22.7 4.9-41v-.1c.2-3.1.4-7.7 1-13.1 1.2-12.4 3.6-27.4 9.8-50.1 8.8-31.9 15.8-56.6 33.7-80.6 1.4-1.8 3-4 5.4-6.8 14.7-16.8 32-27 47.1-33.3 3.5-1.5 9.3-3.3 11.5-4.3.1 0 1-.3 2-.5.7-.2 1.5-.3 1.9-.4h.3c.7.8 1.4 1.6 2 2.3 7.5 8.9 19 24.8 25.9 47.5 5.9 19.5 6.3 36.4 5.6 47.4 5.7-3.2 37.5-21.7 45.8-59.7 4.1-18.8.9-34.8-1.8-43.8-.1-.4-.2-.7-.3-1.1 1.6-.2 3.1-.4 4.6-.5 1.4-.1 2.7-.3 4.1-.4 11-.9 20.9-.7 29.6.2 4.4.5 8.6 1.1 12.4 1.9 13.1 2.6 23 6.8 30.2 10.5 9.9 5.1 31.7 18.3 94 118.8 11.2 18.4 20.4 33.9 26.6 44.6z"/><path class="st7" d="M636.3 407.2l-.1 1.5-3 43.6-.1 2-2.8 39.8-.1 2-2.8 39.5-.1 2-2.5 36c-.7-.2-1.3-.5-1.9-.8l2.5-35.4.1-2 2.8-39.5.1-2 2.8-39.8.1-2 2.7-39.3c.6-1.4 1.1-2.8 1.7-4.1.2-.6.4-1.1.6-1.5zm43.1-54l-.7 9.6-.1 2-3.1 44.8-.1 2-3 43.7-.1 2-2.8 39.8-.1 2-2.7 39.3-.1 2-3 42.5-.1 2-.1 1c-.6-.1-1.3-.3-2-.5v-.6l.1-2 3-42.5.1-2 2.7-39.3.1-2 2.8-39.8.1-2 3-43.7.1-2 3.1-44.8.1-2 .5-7.9c.9-.6 1.6-1.1 2.3-1.6zm47.8-11.6l-1.7 24.6-.1 2-3.1 44.8-.1 2-3 43.8-.1 2-2.8 39.8-.1 2-2.7 39-.1 2-2.5 35.9c-.6-.4-1.3-.7-1.9-1.1l2.4-34.9.1-2 2.7-39 .1-2 2.8-39.8.1-2 3-43.8.1-2 3.1-44.8.1-2 1.9-26.8c.6.7 1.2 1.5 1.8 2.3zm41.5 79.6l-2.9 41.1-.1 2-2.8 39.8-.1 2-2.7 38.7-.1 2-3 42.9-.1 2-.9 13.4c-.6-.4-1.3-.7-1.9-1.1l.9-12.5.1-2 3-42.9.1-2 2.7-38.7.1-2 2.8-39.8.1-2 2.7-39.3c.7-.4 1.4-1 2.1-1.6zm53.6-96.2l-3.5 48.1-.1 2-3.3 44.7-.2 2-3.2 44.1-.2 2-2.9 39.8-.1 2L806 548l-.1 2-3.2 43.1-.2 2-2.2 29.6c-.7 0-1.3-.1-2-.1l2.2-29.6.1-2 3.2-43.1.1-2 2.8-38.4.1-2 2.9-39.8.2-2 3.2-44.1.1-2 3.3-44.7.1-2 3.5-48c.9.1 1.6.1 2.2.1z"/><path class="st7" d="M742.6 367.5l.9 2.1-18.2-1.3-2-.1-44.8-3.3-2-.1-10.3-.8c.7-.6 1.3-1.2 2-1.9l8.4.6 2 .1 44.8 3.3 2 .1 17.2 1.3zm180.6 15.3l-16.7-1.2-2-.2-40.4-3-2-.1-43.5-3.2-2-.1-17-1.2c.2-.7.3-1.3.5-2l16.7 1.2 2 .1 43.5 3.2 2 .1 40.4 3 2 .1 14.9 1.1c.5.7 1.1 1.4 1.6 2.2zm-168.8 32.5c0 .7.1 1.4.1 2l-32.4-2.4-2-.1-44.8-3.3-2-.1-37.2-2.7h-.5l.6-1.5v-.5h.2l37 2.7 2 .1 44.8 3.3 2 .1 32.2 2.4zm202.9 16.9l-14-1-2-.1-39.1-2.9-2-.2-39.5-2.9-2-.1-43.5-3.2-2-.1-41.5-3c.7-.6 1.3-1.2 2-1.9l39.6 2.9 2 .1 43.5 3.2 2 .1 39.5 2.9 2 .1 39 2.9 2 .1 12.5.9c.6.7 1 1.4 1.5 2.2zM879.4 471v2l-22.1-1.7-2-.2-43.5-3.3-2-.2-44.1-3.4-2-.1-44.8-3.4-2-.2-44.7-3.4-2-.2-37.2-2.8-2-.2-10.2-.8c.2-.7.4-1.3.6-2l9.8.7 2 .2 37.2 2.8 2 .2 44.7 3.4 2 .2 44.8 3.4 2 .1 44.2 3.4 2 .2 43.5 3.3 2 .2 21.8 1.8zm108.3 10.3l-5.3-.4-2-.2-40.4-3.1-2-.2-40.1-3-2-.2-10-.8-1.5-2.1 11.7.9 2 .2 40 3 2 .2 40.5 3.1 2 .2 3.9.3 1.2 2.1zm-301.1 17c-.1.7-.3 1.3-.5 2l-16.9-1.3-2-.2L630 496l-2-.1-16.9-1.3c.1-.6.2-1.3.3-2l16.8 1.3 2 .1 37.2 2.8 2 .2 17.2 1.3zM880 513v2l-25.8-2-2-.1-43.5-3.3-2-.2-44-3.3-2-.2-44.8-3.4-2-.2-23.3-1.8-.2-2 23.6 1.8 2 .2 44.8 3.4 2 .2 44 3.3 2 .2 43.5 3.3 2 .1 25.7 2zm94.3 7.2l-2.4 1.8-34.8-2.7-2-.1-11.5-.9c-.7-.7-1.4-1.4-2.1-2.2l13.7 1 2 .1 37.1 3zM676.9 539c-.1.6-.3 1.1-.4 1.7 0 .1-.1.2-.1.3l-10-.7-2-.1-37.2-2.6-2-.1-18.5-1.3c.1-.7.2-1.3.2-2l18.5 1.3 2 .1 37.2 2.6 2 .1 10.3.7zm203.7 16.2l-29.3-2-2-.1-43.5-3-2-.1-43.8-3-2-.1-44.8-3.1-2-.1-16.2-1.1-.2-2 16.5 1.1 2 .1 44.8 3.1 2 .1 43.8 3 2 .1 43.5 3 2 .1 29.1 2c0 .6 0 1.3.1 2zm-217.1 27.6l1 .1c-.2.7-.4 1.3-.6 2h-.6l-2-.1-3.6-.3c-3.1-.8-6.4-1.7-9.7-2.7l13.4 1h2.1zm217.7 18.1l-33.2-2.5-2-.2-43.5-3.2-2-.1-43.6-3.2-2-.2-26.2-1.9c-1.4-.8-2.7-1.5-4.1-2.3l30.4 2.2 2 .2 43.6 3.2 2 .1 43.5 3.2 2 .2 33 2.4c.1.7.1 1.4.1 2.1z"/><path class="st7" d="M867.5 333l-3.2 43.4-.2 2-3.3 44.7-.1 2-3.2 44.2-.1 2-2.9 39.8-.2 2-2.8 38-.1 2-3.2 43.3-.1 2-2.1 28.8c-.7 0-1.3-.1-2-.1l2.1-28.8.1-2 3.2-43.3.1-2 2.8-38.1.2-2 2.9-39.8.2-2 3.2-44.2.1-2 3.3-44.7.1-2 3.2-44c.7.3 1.3.6 2 .8zm40.6 30.9l-1.4 15.7-.2 2-4.1 44.6-.2 2-4.1 44.3-.2 2-1.2 13.2c-.6-.8-1.2-1.5-1.8-2.3l1-11.1.2-2 4.1-44.3.2-2 4.1-44.6.2-2 1.6-17.6c.6.7 1.2 1.3 1.8 2.1zm36.4 48.9l-1.1 16.3-.1 2-3.1 44.5-.1 2-2.8 39.8-.1 2-.8 11.5c-.6-.6-1.2-1.2-1.9-1.8l.7-9.9.1-2 2.8-39.8.1-2 3.1-44.5.1-2 1.3-18.9c.6 1 1.2 1.9 1.8 2.8zm38.6 60.7l-.4 5.4-.2 2-2.8 35.4c-.7.5-1.4 1.1-2.1 1.6l3-37.1.2-2 .7-8.2c.4.9 1 1.9 1.6 2.9z"/><circle class="st8" cx="753.9" cy="445.7" r="4.4"/><circle class="st8" cx="752.3" cy="468.4" r="4.4"/><linearGradient id="SVGID_2_" gradientUnits="userSpaceOnUse" x1="641.157" y1="489.963" x2="972.955" y2="489.963" gradientTransform="rotate(3.979 575.216 487.73) scale(1.00001)"><stop offset=".195" stop-color="#87aeb4"/><stop offset="1" stop-color="#153e5c"/></linearGradient><path d="M971.5 522.3c-8.2 6.3-16.3 12.5-24.2 18.8-13.1-11.6-27.3-25.6-41.5-42.3-10.2-12-19-23.7-26.6-34.8l1.8 128.9v.5l-159-7.5c-8-4.6-16.1-9.1-24.1-13.7l-4.4-43.9-4.2-41.9c-2.8 12.3-5.7 24.7-8.7 37.3l-3.6 15c-.2.6-.3 1.3-.5 1.9-4 14.2-8 28.3-12.1 42.5l-13.4-.6-12.6-.6s-.1-1.2-.2-3.4c-1.1-22.1-4.7-145.1 47.2-161.1 57.1-17.6 54.8 69.9 167.8 15.5 67-32.2 101.4 31.8 118.3 89.4z" opacity=".17" fill="url(#SVGID_2_)"/></g><g id="apron"><path class="st10" d="M921.8 816.1l-34.7-.9L746.4 800l-74.2-34c.5-5.5 1-11.1 1.5-16.6l19.8-221.1c1-11.3 2-22.7 3.1-34 2.9-51.8 5.7-103.6 8.6-155.4 4-1.7 7.9-3.1 11.5-4.3 1 45.7 2.1 91.4 3.1 137.2l58.2-9.9c21.3-3.6 42.6-7.2 63.9-10.9-1.9-41.8-3.7-83.6-5.6-125.4 4.4.5 8.6 1.1 12.4 1.9 4.2 38.7 15.3 139.6 24.1 206.9 1.9 14.2 4 29.7 6.4 46.3.6 3.9 1.2 8 1.8 12 5.9 39.8 13.5 85.7 23.3 137 5.2 27.4 11 56.2 17.5 86.4z"/><path class="st11" d="M851.7 710.9l-141 .3c2.6-37.1 5.2-74.2 7.7-111.2 12.1 3.9 30.4 8.2 52.8 7.5 32.2-1.1 56.5-12.1 69.2-19.1 3.8 40.9 7.5 81.7 11.3 122.5z"/><path class="st12" d="M725.1 613.8c-.2 2.4-2.3 4.3-4.7 4.1-1.2-.1-2.3-.7-3.1-1.6.1-2.1.3-4.1.4-6.2.9-.8 2-1.2 3.2-1.1 2.5.3 4.3 2.4 4.2 4.8z"/><circle class="st12" cx="751" cy="615.6" r="4.4"/><circle class="st12" cx="787.8" cy="615.7" r="4.4"/><circle class="st12" cx="819.8" cy="611.5" r="4.4"/><circle class="st12" cx="734.3" cy="640" r="4.4"/><circle class="st12" cx="764.8" cy="640.5" r="4.4"/><circle class="st12" cx="801.5" cy="638.5" r="4.4"/><circle class="st12" cx="833.3" cy="632.7" r="4.4"/><path class="st12" d="M718 660.1c-.2 2.2-1.9 3.9-4.1 4.1l.6-8.7c2.2.4 3.7 2.4 3.5 4.6z"/><circle class="st12" cx="743.9" cy="662" r="4.4"/><circle class="st12" cx="780.7" cy="662.3" r="4.4"/><circle class="st12" cx="812.8" cy="658.3" r="4.4"/><circle class="st12" cx="728.5" cy="682.7" r="4.4"/><circle class="st12" cx="758.9" cy="684.8" r="4.4"/><circle class="st12" cx="795.7" cy="684.8" r="4.4"/><circle class="st12" cx="827.7" cy="680.7" r="4.4"/><path class="st12" d="M847.1 661.1h-.2c-2.5-.2-4.3-2.3-4.1-4.7.1-2 1.6-3.6 3.5-4 .3 2.8.5 5.7.8 8.7zm-100.4 48.1c0 .7-.2 1.4-.5 2h-7.8c-.3-.6-.5-1.4-.5-2.2 0-2.5 2.1-4.4 4.5-4.4 2.4.1 4.3 2.1 4.3 4.6zm-31.9-2.3c0 2.3-1.8 4.2-4.1 4.4.2-2.9.4-5.8.6-8.8 2 .4 3.5 2.2 3.5 4.4zm62.3 2.8c0 .5-.1 1-.3 1.4h-8.3c-.2-.5-.3-1-.3-1.6 0-2.5 2.1-4.4 4.5-4.4 2.5.1 4.4 2.1 4.4 4.6zm36.8-2c0 1.3-.6 2.5-1.5 3.3h-5.8c-1-.8-1.6-2.1-1.6-3.4 0-2.5 2.1-4.4 4.5-4.4 2.4.1 4.4 2.1 4.4 4.5z"/><circle class="st12" cx="841.2" cy="701.9" r="4.4"/><path class="st2" d="M851.7 710.9c-13.1 0-26.2.1-39.3.1h-5.8c-9.9 0-19.8 0-29.7.1h-8.3c-7.4 0-14.9 0-22.3.1h-7.8c-9.2 0-18.4.1-27.7.1.2-2.9.4-5.8.6-8.8.9-12.8 1.8-25.5 2.7-38.3l.6-8.7 2.7-39c.1-2.1.3-4.1.4-6.2.2-3.4.5-6.8.7-10.2 12.1 3.9 30.4 8.2 52.8 7.5 32.2-1.1 56.5-12.1 69.2-19.1 2 21.3 3.9 42.6 5.8 63.8.3 2.9.5 5.8.8 8.8 1.5 16.6 3 33.2 4.6 49.8z"/><path class="st13" d="M921.8 816.1l-34.7-.9L746.4 800l-74.2-34c.5-5.5 1-11.1 1.5-16.6 45.7-12.5 76.7-10.6 97-6.1 9.5 2.1 29 7.4 47.1-1.8 11-5.6 12.7-12.2 21.5-17.6 10.5-6.5 29.3-10.1 65 5.8 2.6 14 5.4 28.1 17.5 86.4z"/><linearGradient id="SVGID_3_" gradientUnits="userSpaceOnUse" x1="772.672" y1="433.771" x2="884.946" y2="433.771" gradientTransform="rotate(3.979 575.216 487.73) scale(1.00001)"><stop offset="0" stop-color="#5a142a" stop-opacity=".2"/><stop offset="1" stop-color="#fc860a" stop-opacity=".2"/></linearGradient><path d="M879.2 580.8c-31.6-3.2-71.3-10.9-95.2-29.6-15.8-12.4-14.5-48.2-6.2-89.3 21.3-3.6 42.6-7.2 63.9-10.9-1.9-41.8-3.7-83.6-5.6-125.4 4.4.5 8.6 1.1 12.4 1.9 4.2 38.7 15.3 139.6 24.1 206.9 2.1 14.4 4.2 29.8 6.6 46.4z" opacity=".32" fill="url(#SVGID_3_)"/></g><g id="table"><path class="st15" d="M280.7 895.7c-3.7 22.2-18.1 122.7 45.3 192.5 51.4 56.6 125.9 62.1 200.2 67.5 48.7 3.6 101.5.7 181.2-17.4 170.9-38.7 388.7-129.6 384.8-204.8-.2-4.1-1.6-30.5-19.6-41.4-18.4-11.1-43 .4-48.7 3.2-247.7.2-495.5.3-743.2.4z"/><path d="M1087.2 923c-.1 9.6-3.7 19.5-10.2 29.6-.2.4-.5.7-.7 1.1-2.1 3.2-4.5 6.3-7.2 9.5-.6.7-1.3 1.5-1.9 2.2-.6.8-1.3 1.5-2 2.2-.7.7-1.4 1.5-2.1 2.2-.7.7-1.4 1.5-2.2 2.2l-.7.7-.9.9c-5.7 5.5-12.1 11.1-19.3 16.6-.3.2-.5.4-.8.6-17.5 13.4-39.1 26.6-63.9 39.3-2.7 1.4-5.5 2.8-8.3 4.2-1.1.5-2.2 1.1-3.4 1.7-.3.1-.6.3-.9.4-.1 0-.1.1-.2.1-2.8 1.4-5.6 2.7-8.5 4-1.7.8-3.4 1.6-5.1 2.3-3.8 1.8-7.7 3.5-11.6 5.2-1.3.6-2.6 1.1-4 1.7-1.8.8-3.5 1.5-5.3 2.3-5.3 2.3-10.8 4.5-16.3 6.7-.2.1-.4.2-.7.3-5.1 2-10.3 4-15.6 6-1.8.7-3.5 1.3-5.3 2-.3.1-.7.2-1 .4-6.4 2.4-13 4.7-19.6 7l-.9.3c-1.1.4-2.2.7-3.3 1.1-1.1.4-2.2.7-3.3 1.1-5.2 1.8-10.5 3.5-15.8 5.2-.4.1-.8.3-1.3.4-.3.1-.6.2-1 .3-1 .3-2 .6-3.1 1-41.7 13-86.1 24-131 32.1-.7.1-1.4.2-2.1.4-.3.1-.6.1-1 .2-21 3.7-42.1 6.8-63.1 9.1-.4 0-.8.1-1.1.1-.4 0-.8.1-1.2.1-.2 0-.3 0-.5.1h-.5l-2.4.3c-7.9.8-15.7 1.5-23.5 2.2h-.5c-22.2 1.7-44.2 2.6-65.6 2.4h-1.5c-1.6 0-3.2 0-4.9-.1-2 0-4-.1-5.9-.1-1.5 0-3-.1-4.4-.1-2.1-.1-4.2-.2-6.3-.2-.8 0-1.6-.1-2.4-.1-1.4-.1-2.7-.1-4-.2-2.2-.1-4.3-.2-6.5-.4-1.8-.1-3.5-.2-5.3-.4-.3 0-.7 0-1-.1-.7-.1-1.3-.1-2-.2-.7 0-1.4-.1-2-.2h-.2c-1.2-.1-2.5-.2-3.7-.3-.3 0-.6-.1-.9-.1-1.1-.1-2.1-.2-3.2-.3-1.2-.1-2.3-.2-3.4-.3-.4 0-.7-.1-1.1-.1-.8-.1-1.7-.2-2.5-.3-.3 0-.7-.1-1-.1-.6-.1-1.2-.1-1.8-.2-1.8-.2-3.7-.4-5.5-.7-1.7-.2-3.3-.4-5-.7-.3 0-.6-.1-1-.1-1.7-.2-3.3-.5-5-.8-1.6-.2-3.3-.5-4.9-.8l-6.9-1.2c-1.3-.2-2.6-.5-3.9-.7-.3 0-.5-.1-.8-.2-1.3-.3-2.6-.5-4-.8-.5-.1-1-.2-1.6-.3-1.5-.3-3-.6-4.4-1-1.6-.4-3.1-.7-4.7-1.1-.4-.1-.7-.2-1.1-.3-3.1-.8-6.2-1.5-9.3-2.4-.1 0-.2 0-.2-.1-1.6-.4-3.2-.9-4.8-1.4-1.6-.5-3.3-1-4.9-1.4-1.4-.4-2.9-.9-4.3-1.3-.4-.1-.8-.3-1.2-.4l-2.7-.9c-.4-.1-.7-.2-1.1-.4-.1 0-.2-.1-.3-.1-1.6-.5-3.1-1.1-4.7-1.6s-3.1-1.1-4.6-1.7c-1.5-.6-3-1.2-4.6-1.8-1.5-.6-3-1.2-4.5-1.9-1.5-.6-3-1.3-4.4-1.9-.8-.4-1.6-.7-2.4-1.1-.2-.1-.3-.1-.5-.2-.8-.4-1.6-.7-2.4-1.1l-6.6-3.3c-.6-.3-1.2-.6-1.8-1-.5-.3-1-.5-1.5-.8-2.1-1.1-4.1-2.2-6.1-3.4-.7-.4-1.5-.9-2.2-1.3-.4-.2-.7-.4-1.1-.6-.9-.5-1.8-1.1-2.6-1.6-.9-.6-1.8-1.1-2.7-1.7-.2-.1-.3-.2-.5-.3l-2.7-1.8c-1.1-.7-2.1-1.5-3.2-2.2-.9-.6-1.8-1.3-2.6-1.9-.2-.2-.4-.3-.6-.5-.9-.6-1.7-1.3-2.5-1.9-1-.7-1.9-1.5-2.8-2.2-.8-.7-1.7-1.4-2.5-2.1l-.2-.2c-.8-.6-1.5-1.3-2.2-1.9-.4-.3-.8-.6-1.1-1-.7-.6-1.4-1.3-2.1-1.9-.7-.6-1.3-1.3-2-1.9-.8-.7-1.6-1.5-2.3-2.3l-1.4-1.4c-2.8-2.8-5.5-5.8-8-8.8-.3-.4-.6-.7-.9-1.1-.7-.8-1.3-1.6-1.9-2.4-.6-.8-1.2-1.5-1.8-2.3-.4-.5-.7-1-1.1-1.5-1-1.3-1.9-2.6-2.8-3.9-.7-1-1.3-1.9-2-2.9 0 0-.1-.1-.1-.2-.6-1-1.2-1.9-1.9-2.9-1.7-2.7-3.2-5.4-4.8-8.1-.2-.4-.4-.8-.6-1.1-4-7.4-7.4-15.1-10.3-23l-2.4-6.9c-.4-1.2-.7-2.3-1.1-3.5-.3-1.2-.7-2.3-1-3.5-.2-.7-.4-1.5-.6-2.2-1.4-5.1-2.6-10.3-3.6-15.6-.9-4.7-1.6-9.5-2.2-14.3 0-.2 0-.3-.1-.5-.1-1.1-.2-2.1-.3-3.2v-.5l-.3-3.3v-.2c-.1-1.2-.2-2.3-.3-3.5v-.4c-.2-2.7-.3-5.4-.4-8.1 0-.9 0-1.8-.1-2.7-.2-11.1.5-22.2 2-33.1.1-.6.2-1.2.2-1.8.6-3.9 1.2-7.8 2-11.6l.3-1.2c.4-1.8.8-3.5 1.2-5.3 1.1-4.5 2.3-8.9 3.7-13.3.7-2.1 1.4-4.1 2.1-6.2 4-11.2 9-21.8 15.1-31.5 6.3-10 13.6-19 21.8-27.1 1.8-1.8 3.7-3.5 5.6-5.2s3.9-3.4 5.9-5c1.8-1.5 3.6-2.9 5.5-4.2.3-.2.5-.4.8-.6s.5-.4.8-.5c1.8-1.3 3.5-2.5 5.4-3.7 2.2-1.4 4.3-2.8 6.6-4.2.8-.5 1.7-1 2.5-1.5 1.7-1 3.4-2 5.1-2.9.9-.5 1.7-.9 2.6-1.4.7-.4 1.4-.8 2.2-1.1.7-.4 1.5-.7 2.2-1.1l.6-.3.6-.3.6-.3c.3-.1.6-.3.9-.4 2.4-1.2 4.8-2.3 7.2-3.3 2.5-1.1 4.9-2.1 7.4-3.1l3-1.2c.5-.2 1.1-.4 1.6-.6 1.2-.5 2.4-.9 3.6-1.3 3.6-1.3 7.3-2.5 11-3.7 2.6-.8 5.3-1.6 8-2.4 1.3-.4 2.7-.7 4-1.1 2.7-.7 5.4-1.4 8.2-2.1 12.3-2.9 25-5.2 38-7 2.5-.3 4.9-.6 7.4-.9.3 0 .7-.1 1-.1 8.2-1 16.5-1.7 24.8-2.2.4 0 .7 0 1.1-.1 11.9-.8 23.9-1.2 35.9-1.3h11.9c2.4 0 4.8.1 7.2.1h.2c2.1 0 4.2.1 6.3.2 1.6 0 3.2.1 4.8.2 1.2 0 2.3.1 3.5.1 7.2.3 14.4.7 21.5 1.1 2 .1 3.9.3 5.9.4 5.1.4 10.1.7 15 1.2.3 0 .7.1 1 .1l3.9.3c.7.1 1.4.1 2.1.2 1.1.1 2.3.2 3.4.3.8.1 1.6.2 2.4.2.3 0 .6.1 1 .1 2.5.2 5 .5 7.5.8 2 .2 3.9.4 5.8.6 1.1.1 2.2.2 3.3.4 2.2.2 4.3.5 6.5.8 1.1.1 2.1.3 3.2.4.6.1 1.1.1 1.7.2.5.1 1 .1 1.5.2 1 .1 2.1.3 3.1.4 5 .6 9.9 1.3 14.7 2 1.2.2 2.3.3 3.5.5 1 .1 2 .3 2.9.4 4.6.7 9 1.3 13.4 2 .2 0 .5.1.7.1.9.1 1.8.3 2.7.4.2 0 .4.1.7.1.4.1.8.1 1.2.2.3.1.6.1.8.1.2 0 .5.1.7.1 1 .2 2.1.3 3.1.5 1.9.3 3.7.6 5.5.9 1.1.2 2.3.4 3.4.6 1.8.3 3.5.6 5.2.9.9.2 1.9.3 2.8.5 1.4.2 2.7.5 4 .7 1.3.2 2.6.4 3.9.7.2 0 .3.1.5.1.7.1 1.3.2 2 .3.5.1 1 .2 1.4.2 1.4.2 2.8.5 4.2.7 1.1.2 2.3.4 3.4.6 1.2.2 2.3.4 3.5.6 2.1.4 4.2.8 6.4 1.2.9.2 1.9.3 2.8.5 1.5.3 2.9.6 4.4.9.5.1.9.2 1.4.3 1.3.3 2.6.5 4 .8.7.1 1.3.3 2 .4s1.3.3 2 .4l2.7.6c1.7.3 3.5.7 5.2 1.1 1 .2 2.1.4 3.2.7 1.9.4 3.8.8 5.8 1.2.1 0 .2 0 .3.1 2.6.6 5.3 1.2 8.1 1.8.8.2 1.6.3 2.3.5.3.1.7.1 1 .2 2.1.5 4.2 1 6.4 1.4 4.1.9 8.3 1.9 12.6 2.9 1.8.4 3.6.9 5.4 1.3 2.5.6 5 1.2 7.6 1.9l6 1.5c.3.1.7.2 1 .3 2.4.6 4.7 1.2 7.1 1.8 5.2 1.3 10.5 2.7 15.8 4.2 1.6.4 3.3.9 4.9 1.3 1 .3 1.9.5 2.9.8.3.1.7.2 1 .3 3.9 1.1 7.8 2.2 11.8 3.3 2.2.6 4.5 1.3 6.7 2 .2.1.4.1.6.2 2.4.7 4.9 1.5 7.4 2.2s4.9 1.5 7.4 2.2c1.8.6 3.5 1.1 5.3 1.7.7.2 1.3.4 2 .6 2.4.8 4.9 1.5 7.3 2.3 1.4.5 2.9.9 4.3 1.4 1.1.4 2.3.7 3.4 1.1 2.2.8 4.5 1.5 6.7 2.3.1 0 .2.1.3.1 2.2.7 4.3 1.5 6.5 2.2.2.1.4.1.6.2 2 .7 4.1 1.4 6.1 2.2 4.5 1.6 8.9 3.2 13.2 4.9l3.3 1.2c.5.2 1.1.4 1.6.6.4.1.8.3 1.2.4.1 0 .3.1.4.2 1.1.4 2.1.8 3.2 1.3 4.8 1.9 9.6 3.8 14.2 5.8.3.1.7.3 1 .4 5.8 2.5 11.5 5 17.1 7.6 1.1.5 2.1 1 3.2 1.5.8.4 1.6.7 2.3 1.1.7.3 1.3.6 2 1 1 .5 1.9.9 2.8 1.4 1 .5 1.9.9 2.8 1.4l.6.3c.3.2.6.3.9.5.2.1.5.2.7.4l2.4 1.2c3.1 1.6 6.2 3.3 9.2 4.9.9.5 1.9 1 2.8 1.6 2.1 1.2 4.2 2.4 6.2 3.7l1.5.9c1.6 1 3.1 1.9 4.7 2.9.7.4 1.3.8 1.9 1.3.8.5 1.5 1 2.2 1.5.1 0 .2.1.3.2.7.5 1.4.9 2 1.4.1 0 .1.1.2.1l2.1 1.5c.6.4 1.1.8 1.7 1.2.2.1.3.2.4.3.6.5 1.2.9 1.8 1.3.1.1.2.1.3.2.3.3.7.5 1 .8.3.3.7.5 1 .8 1 .8 2.1 1.6 3.1 2.4.2.1.4.3.6.5.2.2.4.3.6.5.2.2.5.4.7.6l.2.2.1.1c.6.5 1.3 1.1 1.9 1.6.5.4 1 .9 1.5 1.3.9.8 1.8 1.6 2.6 2.4.3.3.6.5.8.8 2 1.9 3.8 3.8 5.5 5.7.2.3.5.5.7.8 4.7 5.4 8.5 11 11.1 16.6.1.3.2.5.4.8.7 1.6 1.3 3.1 1.8 4.7.1.2.2.5.2.7.5 1.5.9 3 1.2 4.6.1.3.1.6.2.9 0 .2.1.4.1.6 0 .2.1.5.1.8 0 .1 0 .2.1.4 0 .3.1.6.1.9.5 1.4.6 3.1.6 4.8z" fill="#f2be54"/><path class="st15" d="M326.1 888.3c1.5 54.1-12.2 103.8-25.7 138.9-.2-.4-.4-.8-.6-1.1 13.3-35 26.8-84.1 25.3-137.7-1.2-42.6 7.5-75.7 17.3-99 .3-.2.5-.4.8-.6s.5-.4.8-.5c-10.1 23.2-19.1 56.7-17.9 100zm81.4 221.8c-.3-23.2-5.6-67.4-32.3-138.1-22.2-58.7-20.7-114.4-15.6-150.7 2.9-20.6 7.3-37.6 10.9-49l.6-.3.6-.3c-3.6 11.4-8.1 28.7-11.1 49.8-5.1 36.2-6.6 91.7 15.5 150.2 12.2 32.4 27.7 79.8 31.6 121.9.6 6.5.9 12.2.9 16.9-.4-.2-.7-.3-1.1-.4z"/><path class="st15" d="M487.4 1127.2c-.3 0-.7-.1-1-.1 6.7-33.3-17.6-76.3-45.6-126-25-44.4-53.4-94.7-61.5-144.5-4.5-28-6-66.2 11.5-93.3.5-.2 1.1-.4 1.6-.6-10.6 15.8-20.2 44.3-12.1 93.8 8.1 49.7 36.4 99.9 61.4 144.2 28.1 49.8 52.4 92.9 45.7 126.5zm19 1.8l-33.8-384.8c.3 0 .7-.1 1-.1l33.8 385c-.3 0-.6 0-1-.1zm42.3 1.8h-1.5c19.3-15.9 28.8-46.2 28.2-90.1-.5-35.7-7.7-80.5-21.4-133-19.5-74.9-46.8-144.6-55.4-165.8.4 0 .7 0 1.1-.1 8.7 21.6 35.9 91 55.3 165.6 13.7 52.6 20.9 97.4 21.4 133.3.6 43.5-8.7 73.8-27.7 90.1zm66.6-2.6l-.5.1-.5.1v-.1c-28.6-105.5-73.8-359.4-78.9-387.9h1c5.2 29.4 50.4 282.6 78.9 387.8zm26.4-2.4c-.2 0-.3.1-.5.1h-.5C611.4 951 605.9 854 606.4 803.1c.4-31.5 3-49.5 5.3-59.4.3 0 .7.1 1 .1-2.5 10.8-5 29.8-5.3 59.8-.5 50.8 5.1 147.7 34.3 322.2zM765 1007.1c-1.8 27.1-9.1 51.3-21.7 71.8-8.5 13.8-19.6 26.1-33.2 36.9-.7.1-1.4.2-2.1.4 14.2-11 25.7-23.6 34.4-37.8 12.5-20.4 19.8-44.4 21.6-71.4 1.7-26.5-1.8-55.3-10.6-85.5-16.8-58-51.2-117.6-100-173.3.5.1 1 .1 1.5.2 48.5 55.6 82.8 115.1 99.5 172.9 8.8 30.3 12.4 59.2 10.6 85.8zm79.2 75.7L696.6 754.3c.4.1.8.1 1.2.2l147.4 328.1c-.4 0-.7.1-1 .2zm25.5-8.4l-.9.3c-33.2-70.4-71.2-166-77.7-246.4-2.2-26.8-.2-45 1.8-55.6 0-.1.1-.3.1-.4.3.1.7.1 1 .2-2.3 11.6-4 29.8-1.9 55.9 6.5 80.3 44.5 175.8 77.6 246zm20.6-7.3c-.3.1-.7.3-1 .4L863.6 790c.3.1.7.2 1 .3l25.7 276.8zm74.5-192.7c-1.6 24-7.1 52.4-16.3 84.2-14.7 51.2-34.4 95.2-36.7 100.3-.1.3-.2.4-.2.5l-.5-.2-.4-.2c.2-.5 21.3-46.6 36.9-100.7C960 915 971 858.8 959.1 821.1c.4.1.8.3 1.2.5 4.4 14.2 5.9 31.9 4.5 52.8zm-2.2 162.2zm16.6-207.4l-15.5 206.9c-.3.1-.6.3-.9.4-.1 0-.1.1-.2.1l15.6-207.8c.3.1.6.2 1 .4zm60.9 161.1c-.3.2-.5.4-.8.6-15-33.5-31-78.5-31.8-119.4-.2-12.3 1-21.6 2.5-28.1.3.2.6.3.9.5-1.4 6.4-2.6 15.6-2.4 27.8.4 23.3 6.4 62.4 31.6 118.6zm20.1-17.5l-.9.9c-8.1-66.7-19.9-101.7-27.2-118l1.5.9c7.4 16.9 18.7 51.7 26.6 116.2zm16.7-20.2c-.2.4-.5.7-.7 1.1-15.6-46.6-18.6-69.8-18.7-80.3.2.2.5.4.7.6l.2.2.1.1c.1 2.6.3 5.8.8 9.9 1.6 11.9 5.9 33.2 17.6 68.4z"/><path class="st2" d="M1087.2 923c-.1 9.6-3.7 19.5-10.2 29.6-.2.4-.5.7-.7 1.1-2.1 3.2-4.5 6.3-7.2 9.5-.6.7-1.3 1.5-1.9 2.2-.6.8-1.3 1.5-2 2.2-.7.7-1.4 1.5-2.1 2.2-.7.7-1.4 1.5-2.2 2.2l-.7.7-.9.9c-5.7 5.5-12.1 11.1-19.3 16.6-.3.2-.5.4-.8.6-17.5 13.4-39.1 26.6-63.9 39.3-2.7 1.4-5.5 2.8-8.3 4.2-1.1.5-2.2 1.1-3.4 1.7-.3.1-.6.3-.9.4-.1 0-.1.1-.2.1-2.8 1.3-5.6 2.7-8.5 4-1.7.8-3.4 1.6-5.1 2.3-3.8 1.8-7.7 3.5-11.6 5.2-1.3.6-2.6 1.1-4 1.7-1.8.8-3.5 1.5-5.3 2.3-5.3 2.2-10.8 4.5-16.3 6.7-.2.1-.5.2-.7.3-5.1 2-10.3 4-15.6 6-1.8.7-3.5 1.3-5.3 2-.3.1-.7.2-1 .4-6.4 2.4-13 4.7-19.6 7-.3.1-.6.2-1 .3-1.1.4-2.2.8-3.3 1.1-1.1.4-2.2.7-3.3 1.1-5.2 1.8-10.5 3.5-15.8 5.2-.4.1-.8.3-1.3.4-.3.1-.6.2-1 .3-1 .3-2 .6-3.1 1-41.7 13-86.1 24-131 32.1-.7.1-1.4.2-2.1.4-.3.1-.7.1-1 .2-21 3.7-42.1 6.8-63.1 9.1-.4 0-.8.1-1.1.1-.4 0-.8.1-1.2.1-.2 0-.3.1-.5.1h-.5l-2.4.3c-7.9.8-15.7 1.5-23.5 2.2h-.5c-22.2 1.7-44.2 2.6-65.6 2.4h-1.5c-1.6 0-3.2 0-4.9-.1-2 0-4-.1-5.9-.1-1.5 0-3-.1-4.4-.1-2.1-.1-4.2-.2-6.3-.2-.8 0-1.6-.1-2.4-.1-1.4-.1-2.7-.1-4-.2-2.2-.1-4.3-.2-6.5-.4-1.8-.1-3.5-.2-5.3-.4-.3 0-.7 0-1-.1-.7-.1-1.3-.1-2-.2-.7 0-1.4-.1-2-.2h-.2c-1.2-.1-2.5-.2-3.7-.3-.3 0-.6-.1-.9-.1-1.1-.1-2.1-.2-3.2-.3-1.2-.1-2.3-.2-3.4-.3-.4 0-.7-.1-1.1-.1-.8-.1-1.7-.2-2.5-.3-.3 0-.7-.1-1-.1-.6-.1-1.2-.1-1.8-.2-1.8-.2-3.7-.4-5.5-.7-1.7-.2-3.3-.4-5-.7-.3 0-.6-.1-1-.1-1.7-.2-3.3-.5-5-.8-1.6-.2-3.3-.5-4.9-.8l-6.9-1.2c-1.3-.2-2.6-.5-3.9-.7-.3 0-.5-.1-.8-.2-1.3-.3-2.6-.5-4-.8-.5-.1-1-.2-1.6-.3-1.5-.3-3-.6-4.4-1-1.6-.4-3.1-.7-4.7-1.1-.4-.1-.7-.2-1.1-.3-3.1-.8-6.2-1.5-9.3-2.4-.1 0-.2 0-.2-.1-1.6-.4-3.2-.9-4.8-1.4-1.6-.5-3.3-1-4.9-1.4-1.4-.4-2.9-.9-4.3-1.3-.4-.1-.8-.3-1.2-.4l-2.7-.9c-.3-.1-.7-.2-1.1-.3-.1 0-.2-.1-.3-.1-1.6-.5-3.1-1.1-4.7-1.6s-3.1-1.1-4.6-1.7c-1.5-.6-3-1.2-4.6-1.8-1.5-.6-3-1.2-4.5-1.9-1.5-.6-3-1.3-4.4-1.9-.8-.4-1.6-.7-2.4-1.1-.2-.1-.3-.1-.5-.2-.8-.4-1.6-.7-2.4-1.1l-6.6-3.3c-.6-.3-1.2-.6-1.8-1-.5-.3-1-.5-1.5-.8-2.1-1.1-4.1-2.2-6.1-3.4-.7-.4-1.5-.9-2.2-1.3-.4-.2-.7-.4-1.1-.6-.9-.5-1.8-1.1-2.6-1.6-.9-.6-1.8-1.1-2.7-1.7-.2-.1-.3-.2-.5-.3l-2.7-1.8c-1.1-.7-2.1-1.5-3.2-2.2-.9-.6-1.8-1.3-2.6-1.9-.2-.2-.4-.3-.6-.5-.9-.6-1.7-1.3-2.5-1.9-1-.7-1.9-1.5-2.8-2.2-.8-.7-1.7-1.4-2.5-2.1l-.2-.2c-.8-.6-1.5-1.3-2.2-1.9-.4-.3-.8-.6-1.1-1-.7-.6-1.4-1.3-2.1-1.9-.7-.6-1.3-1.3-2-1.9-.8-.7-1.6-1.5-2.3-2.3l-1.4-1.4c-2.8-2.8-5.5-5.8-8-8.8-.3-.4-.6-.7-.9-1.1-.7-.8-1.3-1.6-1.9-2.4-.6-.8-1.2-1.5-1.8-2.3-.4-.5-.7-1-1.1-1.5-1-1.3-1.9-2.6-2.8-3.9-.7-1-1.3-1.9-2-2.9 0 0-.1-.1-.1-.2-.6-1-1.2-1.9-1.9-2.9-1.7-2.7-3.3-5.4-4.8-8.1-.2-.4-.4-.8-.6-1.1-4-7.4-7.4-15.1-10.3-23l-2.4-6.9c-.4-1.2-.7-2.3-1.1-3.5-.3-1.2-.7-2.3-1-3.5-.2-.7-.4-1.5-.6-2.2-1.4-5.1-2.6-10.3-3.6-15.6-.9-4.7-1.6-9.5-2.2-14.3 0-.2 0-.3-.1-.5-.1-1.1-.2-2.1-.3-3.2v-.5l-.3-3.3v-.2c-.1-1.2-.2-2.3-.3-3.5v-.4c-.2-2.7-.3-5.4-.4-8.1 0-.9 0-1.8-.1-2.7-.2-11.1.5-22.2 2-33.1.1-.6.2-1.2.2-1.8.6-3.9 1.2-7.8 2-11.6l.3-1.2c.4-1.8.8-3.5 1.2-5.3 1.1-4.5 2.3-8.9 3.7-13.3.7-2.1 1.3-4.1 2.1-6.2 4-11.2 9-21.8 15.1-31.5 6.3-10 13.6-19 21.8-27.1 1.8-1.8 3.7-3.5 5.6-5.2s3.9-3.4 5.9-5c1.8-1.5 3.6-2.9 5.5-4.2.3-.2.5-.4.8-.6s.5-.4.8-.5c1.8-1.3 3.5-2.5 5.4-3.7 2.2-1.4 4.3-2.8 6.6-4.2.8-.5 1.7-1 2.5-1.5 1.7-1 3.4-2 5.1-2.9.9-.5 1.7-.9 2.6-1.4.7-.4 1.4-.8 2.2-1.1.7-.4 1.5-.7 2.2-1.1l.6-.3.6-.3.6-.3c.3-.1.6-.3.9-.4 2.4-1.2 4.8-2.3 7.2-3.3 2.5-1.1 4.9-2.1 7.4-3.1l3-1.2c.5-.2 1.1-.4 1.6-.6 1.2-.5 2.4-.9 3.6-1.3 3.6-1.3 7.3-2.5 11-3.7 2.6-.8 5.3-1.6 8-2.4 1.3-.4 2.7-.7 4-1.1 2.7-.7 5.4-1.4 8.2-2.1 12.3-2.9 25-5.2 38-7 2.5-.3 4.9-.6 7.4-.9.3 0 .7-.1 1-.1 8.2-1 16.5-1.7 24.8-2.2.4 0 .7 0 1.1-.1 11.9-.8 23.9-1.2 35.9-1.3H547c2.4 0 4.8.1 7.2.1h.2c2.1 0 4.2.1 6.3.2 1.6 0 3.2.1 4.8.2 1.2 0 2.3.1 3.5.1 7.2.3 14.4.7 21.5 1.1 2 .1 3.9.3 5.9.4 5.1.4 10.1.7 15 1.2.3 0 .7.1 1 .1l3.9.3c.7.1 1.4.1 2.1.2 1.1.1 2.3.2 3.4.3 1.1.1 2.3.2 3.4.3 2.5.2 5 .5 7.5.8 2 .2 3.9.4 5.8.6 1.1.1 2.2.2 3.3.4 2.2.2 4.3.5 6.5.8 1.1.1 2.1.3 3.2.4.6.1 1.1.1 1.7.2.5.1 1 .1 1.5.2 1.1.1 2.1.3 3.1.4 5 .6 9.9 1.3 14.7 2 1.2.2 2.3.3 3.5.5 1 .1 2 .3 2.9.4 4.6.7 9 1.3 13.4 2 .2 0 .5.1.7.1.9.1 1.8.3 2.7.4.2 0 .4.1.7.1.4.1.8.1 1.2.2.3 0 .6.1.8.1.2 0 .5.1.7.1 1 .2 2.1.3 3.1.5 1.9.3 3.7.6 5.5.9 1.1.2 2.3.4 3.4.6 1.8.3 3.5.6 5.2.9.9.2 1.9.3 2.8.5 1.4.2 2.7.5 4 .7 1.3.2 2.6.4 3.9.7.2 0 .3.1.5.1.7.1 1.3.2 2 .3.5.1 1 .2 1.4.2 1.4.2 2.8.5 4.2.7 1.1.2 2.3.4 3.4.6 1.2.2 2.3.4 3.5.6 2.1.4 4.2.8 6.4 1.2.9.2 1.9.3 2.8.5 1.5.3 2.9.6 4.4.9.5.1.9.2 1.4.3 1.3.3 2.6.5 4 .8.7.1 1.3.3 2 .4s1.3.3 2 .4l2.7.6c1.7.3 3.5.7 5.2 1.1 1 .2 2.1.4 3.2.7 1.9.4 3.8.8 5.8 1.2.1 0 .2 0 .3.1 2.6.6 5.3 1.2 8.1 1.8.8.2 1.6.3 2.3.5.3.1.7.1 1 .2 2.1.5 4.2 1 6.4 1.5 4.1.9 8.3 1.9 12.6 2.9 1.8.4 3.6.9 5.4 1.3 2.5.6 5 1.2 7.6 1.9l6 1.5c.3.1.7.2 1 .3 2.4.6 4.7 1.2 7.1 1.8 5.2 1.3 10.5 2.7 15.8 4.2 1.6.4 3.3.9 4.9 1.3 1 .3 1.9.5 2.9.8.3.1.7.2 1 .3 3.9 1.1 7.8 2.2 11.8 3.3 2.2.6 4.5 1.3 6.7 2 .2.1.4.1.6.2 2.4.7 4.9 1.5 7.4 2.2s4.9 1.5 7.4 2.2c1.8.6 3.5 1.1 5.3 1.7.7.2 1.3.4 2 .6 2.4.8 4.9 1.5 7.3 2.3 1.4.5 2.9.9 4.3 1.4 1.1.4 2.3.7 3.4 1.1 2.2.8 4.5 1.5 6.7 2.3.1 0 .2.1.3.1 2.2.7 4.3 1.5 6.5 2.2.2.1.4.1.6.2 2 .7 4.1 1.4 6.1 2.2 4.5 1.6 8.9 3.2 13.2 4.9l3.3 1.2c.5.2 1.1.4 1.6.6.4.1.8.3 1.2.5.1 0 .3.1.4.2 1.1.4 2.1.8 3.2 1.3 4.8 1.9 9.6 3.8 14.2 5.8.3.1.7.3 1 .4 5.8 2.5 11.5 5 17.1 7.6 1.1.5 2.1 1 3.2 1.5.8.4 1.6.7 2.3 1.1.7.3 1.3.6 2 1 1 .5 1.9.9 2.8 1.4 1 .5 1.9.9 2.8 1.4l.6.3c.3.2.6.3.9.5.2.1.5.2.7.4l2.4 1.2c3.1 1.6 6.2 3.3 9.2 4.9.9.5 1.9 1 2.8 1.6 2.1 1.2 4.2 2.4 6.2 3.7l1.5.9c1.6 1 3.1 1.9 4.7 2.9.7.4 1.3.8 1.9 1.3.8.5 1.5 1 2.2 1.5.1 0 .2.1.3.2.7.5 1.4.9 2 1.4.1 0 .1.1.2.1l2.1 1.5c.6.4 1.1.8 1.7 1.2.2.1.3.2.4.3.6.5 1.2.9 1.8 1.3.1.1.2.1.3.2.3.3.7.5 1 .8.3.3.7.5 1 .8 1 .8 2.1 1.6 3.1 2.4.2.1.4.3.6.5.2.2.4.3.6.5.2.2.5.4.7.6l.2.2.1.1c.6.5 1.3 1.1 1.9 1.6.5.4 1 .9 1.5 1.3.9.8 1.8 1.6 2.6 2.4.3.3.6.5.8.8 2 1.9 3.8 3.8 5.5 5.7.2.3.5.5.7.8 4.7 5.4 8.5 11 11.1 16.6.1.3.2.5.4.8.7 1.6 1.3 3.1 1.8 4.7.1.2.2.5.2.7.5 1.5.9 3 1.2 4.6.1.3.1.6.2.9 0 .2.1.4.1.6 0 .2.1.5.1.8 0 .1 0 .2.1.4 0 .3.1.6.1.9.6 1.1.7 2.8.7 4.5z"/><linearGradient id="SVGID_4_" gradientUnits="userSpaceOnUse" x1="427.467" y1="941.897" x2="1116.219" y2="941.897" gradientTransform="rotate(3.979 575.216 487.73) scale(1.00001)"><stop offset="0" stop-color="#fc860a"/><stop offset="1" stop-color="#f2be54"/></linearGradient><path d="M384.4 1101c65.3-35.7 138.8-84.6 211.8-151.3 70.4-64.3 122.8-129.4 161.1-184.9 111.5 21.8 330.9 81 329.8 158.2-1.6 114.2-486 274.9-702.7 178z" opacity=".3" fill="url(#SVGID_4_)"/><path class="st18" d="M595.9 917.9s271.1 46.8 283 40c11.9-6.8 24.5-89.3 24.5-89.3l-307.5 49.3zm-36.2 109.6s25.8 23.1 56.3 3.6c0 0 45.5 3.2 51.5-10.4 6-13.6-54.4-21.6-54.4-21.6l-53.4 28.4zM459 1060.8s21 9.1 25.1 4.3c4.1-4.8-5.5-11.8-5.5-11.8l-19.6 7.5zM885 980s48.2 37.6 55 30.5c6.8-7.1 35-64.9 35-64.9s-90.8 28-90 34.4zm59.9-43.4s7.9-18 21.4-29.8c13.5-11.8 6.4-18.6 6.4-18.6l-39.3 46 11.5 2.4z"/><path class="st19" d="M516.4 857l10.5-4.8 19.2-21.6-10.1-.7-19.6 27.1zm1.7 10s4.9 5.2 8.9 1.7c4.1-3.5 23.1-31.1 23.1-31.1l-5.4-4.5-26.6 33.9z"/><path class="st19" d="M522.7 876s4.2 1.6 9.9-1.8c5.7-3.4 28.6-40 28.6-40l-8.5-.6-30 42.4zm10 2s2.4 1.4 7.9-4.5c5.5-6 42.9-50.4 42.9-50.4l-6.1-3-44.7 57.9z"/><path d="M624.5 744.9c-2.7 10.6-6.6 25.2-10.2 37.1-6.6 21.1-26.8 56.6-32.5 65.1s-9.4 7-9.4 7l24.7-111.5c9.4.7 18.5 1.5 27.4 2.3z" opacity=".09" fill="#19233d"/></g><g id="cutting_board"><path class="st21" d="M902.5 858.7l-3.4 4.2c-.8-.5-1.7-.8-2.7-.9-88.6-10.7-177.1-21.3-265.7-32-3.3-.4-6.5 1.4-7.9 4.5-10.5 22.6-21 45.2-31.4 67.8l-2.8-1 .2 8.1c0 3.9 2.7 7.5 6.7 8 92.2 11.6 184.3 23.1 276.5 34.7 3.7.5 7.2-1.9 8.3-5.6 8.7-28.9 18.4-58.6 22.4-74.2.3-1.1 1.3-4.7.7-9.3-.2-1.9-.6-3.3-.9-4.3z"/><path d="M902.8 860.7v.8c0 .4-.1.8-.2 1.2 0 .2-.1.4-.2.6-7.5 24.7-14.9 49.5-22.4 74.2-.1.2-.1.4-.2.6l-.6 1.2c-.2.4-.5.7-.7 1-.1.2-.3.3-.4.5-.2.2-.4.4-.7.6-.4.3-.7.6-1.1.8s-.8.4-1.3.6c-1.1.4-2.2.5-3.3.3-5.7-.7-11.3-1.4-17-2.1-.3 0-.7-.1-1-.1-15.9-2-31.9-4-47.8-6-.3 0-.7-.1-1-.1-11.4-1.4-22.7-2.9-34-4.3-.3 0-.7-.1-1-.1-22.1-2.8-44.1-5.5-66.2-8.3-.3 0-.7-.1-1-.1-12.9-1.6-25.7-3.2-38.6-4.8-.3 0-.7-.1-1-.1l-45.6-5.7c-.3 0-.7-.1-1-.1l-21.3-2.7c-.3 0-.6-.1-.8-.2-.2 0-.4-.1-.6-.2-.1 0-.2-.1-.3-.1-.1 0-.1 0-.2-.1h-.2l-.6-.3s-.1 0-.1-.1c-.2-.1-.4-.2-.5-.3-.2-.1-.4-.3-.6-.4l-.5-.5-.5-.5c-.2-.2-.3-.4-.4-.5s-.2-.4-.4-.6l-.3-.6c-.2-.5-.4-1-.5-1.5 0-.2-.1-.3-.1-.5-.1-.7-.2-1.3-.1-2 0-.2 0-.5.1-.7 0-.3.1-.6.2-.9l.3-.9c0-.1.1-.3.2-.4 1.1-2.5 2.3-4.9 3.4-7.4 5-10.7 9.9-21.4 14.9-32.1 5-10.7 9.9-21.4 14.9-32.1.2-.3.3-.7.6-1 .3-.5.7-.9 1-1.3 1.6-1.6 3.9-2.5 6.3-2.2 7.1.9 14.3 1.7 21.4 2.6.3 0 .7.1 1 .1 10.2 1.2 20.3 2.5 30.5 3.7.3 0 .7.1 1 .1 15.1 1.8 30.2 3.6 45.3 5.5.3 0 .7.1 1 .1 12 1.4 24 2.9 36 4.3.3 0 .7.1 1 .1 18.8 2.3 37.5 4.5 56.3 6.8.3 0 .7.1 1 .1 13.3 1.6 26.6 3.2 40 4.8.3 0 .7.1 1 .1 8.8 1.1 17.5 2.1 26.3 3.2 1.3.2 2.6.3 3.9.5.6.1 1.2.2 1.7.4.1 0 .1 0 .2.1.3.1.7.3 1 .5.2.1.3.2.5.3.3.2.6.5.9.8l.4.4c.1.2.3.3.4.5s.2.3.3.5.2.3.3.5c.1.2.2.4.3.5.1.2.1.4.2.6.1.3.2.7.3 1.1v.9c.1 0 .2.2.2.4z" fill="#b85f27"/><linearGradient id="SVGID_5_" gradientUnits="userSpaceOnUse" x1="617.056" y1="875.485" x2="927.899" y2="875.485" gradientTransform="rotate(3.979 575.216 487.73) scale(1.00001)"><stop offset=".164" stop-color="#f07125"/><stop offset=".998" stop-color="#19233d" stop-opacity=".5"/></linearGradient><path d="M902.7 861.5c0 .6-.1 1.2-.3 1.8-7.5 24.7-14.9 49.5-22.4 74.2-1.1 3.7-4.6 6.1-8.4 5.6-1-.1-2.1-.3-3.2-.4-91.1-11.4-182.2-22.9-273.3-34.3-.6-.2-1.3-.3-2-.5-3.9-1.7-5.9-6.5-3.9-10.8 1.1-2.5 2.3-4.9 3.4-7.4 8.9-4.8 22.1-9.2 34-11.5 27.6-5.3 49 .6 60.8 3 73.8 14.8 180.4-27.7 204.7-28.6 1.7-.1 3 .1 3.9.5 5 2.3 6.3 5.5 6.6 6.2v.1c0 .2.1.3.1.5v.7c.1.3.1.6 0 .9z" opacity=".23" fill="url(#SVGID_5_)"/><path class="st11" d="M652.8 823.7c-10.6 26.2-25.1 62.1-35.2 87.5-.3 0-.7-.1-1-.1 3.6-9.1 8-20.1 13.2-33 8.6-21.3 17.3-42.8 22-54.5.3 0 .6.1 1 .1zm31.5 3.8L664.2 917c-.3 0-.7-.1-1-.1l20.1-89.5c.3 0 .7.1 1 .1zm46.3 5.6c-5.3 17.4-18.3 60.3-26.9 88.9-.3 0-.7-.1-1-.1 2.8-9.3 8.2-27.2 13.6-45.2 3.9-12.9 7.8-25.8 10.8-35.5.9-3.1 1.8-5.9 2.5-8.2.3 0 .7.1 1 .1zm40.3 97.3c-.3 0-.7-.1-1-.1l-3.3-92.9c.3 0 .7.1 1 .1l3.3 92.9zm53.9-86l-18.9 90.4c-.3 0-.7-.1-1-.1l18.9-90.4c.4.1.7.1 1 .1zm41 5l-11 91.6c-.3 0-.7-.1-1-.1l11-91.6c.3 0 .7 0 1 .1z"/><path class="st2" d="M902.8 860.7v.8c0 .4-.1.8-.2 1.2 0 .2-.1.4-.2.6-7.5 24.7-14.9 49.5-22.4 74.2-.1.2-.1.4-.2.6l-.6 1.2c-.2.4-.5.7-.7 1-.1.2-.3.3-.4.5-.2.2-.4.4-.7.6-.4.3-.7.6-1.1.8-.4.2-.8.4-1.3.6-1.1.4-2.2.5-3.3.3-5.7-.7-11.3-1.4-17-2.1-.3 0-.7-.1-1-.1-15.9-2-31.9-4-47.8-6-.3 0-.7-.1-1-.1-11.4-1.4-22.7-2.9-34-4.3-.3 0-.7-.1-1-.1-22.1-2.8-44.1-5.5-66.2-8.3-.3 0-.7-.1-1-.1-12.9-1.6-25.7-3.2-38.6-4.8-.3 0-.7-.1-1-.1l-45.6-5.7c-.3 0-.7-.1-1-.1l-21.3-2.7c-.3 0-.6-.1-.8-.2-.2 0-.4-.1-.6-.2-.1 0-.2-.1-.3-.1-.1 0-.1 0-.2-.1 0 0-.1 0-.2-.1l-.6-.3s-.1 0-.1-.1c-.2-.1-.4-.2-.5-.3-.2-.1-.4-.3-.6-.4l-.5-.5-.5-.5c-.2-.2-.3-.4-.4-.5s-.2-.4-.4-.6l-.3-.6c-.2-.5-.4-1-.5-1.5 0-.2-.1-.3-.1-.5-.1-.7-.2-1.3-.1-2 0-.2 0-.5.1-.7 0-.3.1-.6.2-.9l.3-.9c.1-.1.1-.3.2-.4 1.1-2.5 2.3-4.9 3.4-7.4 5-10.7 9.9-21.4 14.9-32.1 5-10.7 9.9-21.4 14.9-32.1.2-.3.3-.7.5-1 .3-.5.7-.9 1-1.3 1.6-1.6 3.9-2.5 6.3-2.2 7.1.9 14.3 1.7 21.4 2.6.3 0 .7.1 1 .1 10.2 1.2 20.3 2.5 30.5 3.7.3 0 .7.1 1 .1 15.1 1.8 30.2 3.6 45.3 5.5.3 0 .7.1 1 .1 12 1.4 24 2.9 36 4.3.3 0 .7.1 1 .1 18.8 2.3 37.5 4.5 56.3 6.8.3 0 .7.1 1 .1 13.3 1.6 26.6 3.2 40 4.8.3 0 .7.1 1 .1 10.1 1.2 20.1 2.4 30.2 3.6.6.1 1.2.2 1.7.4.1 0 .1 0 .2.1.4.1.7.3 1 .5.2.1.3.2.5.3.3.2.6.5.9.8l.4.4c.1.2.3.3.4.5s.2.3.3.5.2.3.3.5c.1.2.2.4.3.5.1.2.1.4.2.6.1.3.2.7.3 1.1v.5c0 .2.1.3.1.5.1.1.2.3.2.5z"/><path d="M656.1 863.7s12.1 19.9 54.9 6.4c42.9-13.5 47.2 14.7 68.1 7.3 20.8-7.4 17.9-20.3 17.9-20.3l-140.9 6.6z" opacity=".11" fill="#19233d"/><path d="M779.7 901.6s18.2 16.4 55.2 13.9 28.3-13.8 28.3-13.8l-83.5-.1z" opacity=".3" fill="#19233d"/></g><g id="meat"><path d="M799 856c-.1 2.9-1.9 5.9-4.8 8.6-.6.5-1.2 1.1-1.8 1.6-.2.2-.5.4-.8.6-1.3 1-2.7 1.9-4.3 2.7-.1.1-.2.1-.3.2-5.4 2.8-11.9 4.4-17.6 3.8-5.5-.6-9.2-3.2-11.1-4.3-27.1-16.9-67.6 15-97.4-2 0 0-.1 0-.1-.1-.8-.4-1.5-.9-2.2-1.4-.1-.1-.3-.2-.4-.2-6-4.1-7.9-8-8.7-10.2-.1-.2-.1-.5-.2-.7-.1-.3-.1-.5-.2-.7-.5-2.9 0-6.1 1.2-9.3 4.3-11 17.6-22.5 31.6-26.3.7-.2 1.4-.4 2.1-.5h.1c9.3-1.9 16.8.1 19.9 1 3.5 1 6.9 2 10.2 2.9 2.4.7 4.7 1.3 6.9 2 4.7 1.3 9.1 2.6 13.3 3.8.6.2 1.3.4 1.9.6 6.1 1.8 11.8 3.5 17 5.1l1.8.6c1.3.4 2.6.8 3.8 1.2.5.1 1 .3 1.5.5 1.8.6 3.6 1.2 5.3 1.7.2.1.4.1.6.2 22.1 6.8 32.9 12.4 32.7 18.6zm63.9 48.2c0 .1-.1.3-.1.4-2.2 7.5-24.7 10.2-45.9 8.5-18.8-1.5-36.8-6.4-38.8-14.5-.2-.9-.2-1.9-.1-2.8 1-6.8 10.3-14.7 17.8-18.3 4-1.9 8-2.9 11.8-3.2.6 0 1.2-.1 1.7-.1h1.9c5.3.1 10 1.2 13.8 2.2l1.2.3c6.8 1.8 14 5 20.1 8.8 10.2 6.1 17.7 13.6 16.6 18.7z" fill="#ff828d"/><path class="st27" d="M792.4 866.1c-.2.2-.5.4-.7.6-1.4 1-2.9 2-4.6 2.8-5.4 2.8-11.9 4.4-17.6 3.8-5.5-.6-9.2-3.2-11.1-4.3-27.1-16.9-67.5 15-97.4-2l-.1-.1c-.9-.5-1.6-1-2.2-1.4-.1-.1-.3-.2-.4-.2-3.3-2.2-7.3-5.3-8.7-10.2-.1-.2-.1-.5-.2-.7-.1-.2-.1-.5-.1-.7-.5-2.9 0-6.1 1.2-9.3 3.2 5.3 8.5 12.3 16.8 16.5 5 2.5 11.8 4.4 36.3.5 27.8-4.4 39.3-7.8 50-4.7 4.8 1.4 9.4 4 14.7 8 5.7 4.4 7 3.6 7.9 3.9 3.2.9 8.5 1.4 16.2-2.5zm70.5 38.1c0 .1-.1.3-.1.4-4.2 14.2-80.4 11.3-84.7-6-.2-.9-.2-1.9-.1-2.8 11.3 6.3 43.1 20.6 84.9 8.4z"/><path class="st27" d="M680.9 865.4l-1.2-1.8s16.1-12.4 7.2-29.5c-3.1-5.9-4.4-11.3-4.8-16 .7-.2 1.4-.4 2.1-.5h.1c2 10.2 17.7 18.9 18.5 25.2.8 6.4-21.9 22.6-21.9 22.6zm50-6.7c1.8-13.2-9-28.4-16.5-37.3 2.4.7 4.7 1.3 6.9 2 9.9 13 12.1 35.5 12.1 35.5l-2.5-.2zm6.9-8.4c-2 10-1.9 5.7-1.9 5.7s2.8-16.7-1.3-28.8c.6.2 1.3.4 1.9.6 1.2 6.9 2.5 16.6 1.3 22.5zm25.9 12l-2.5-.2c-10.8-10.4-9.1-23.5-7.6-29.3l1.8.6c-.4 1.6-.9 3.3-1.5 5.3-3.4 11.3 9.8 23.6 9.8 23.6z"/><path class="st27" d="M767.2 866.4l-2.4-2.7s-11.7-14.9-5.6-29c.5.1 1 .3 1.5.5-1.3 2.2-2.4 5.3-2.1 9.1.6 8.8 8.6 22.1 8.6 22.1zm3.6 2.7l-2.4-1.4s-4.9-21.7-2.4-30.9c.2.1.4.1.6.2-.4 5.6-.9 19.8 4.2 32.1zm69.5 41.7l-12.7.4c.1-1.2 4.7-21.1-2.6-34.8l1.2.3c6.8 1.8 14 5 20.1 8.8 1.7 9.8 1.6 21.2-6 25.3zm-27.9-.7l-2.5-.2s-10.3-16-4.7-23.2c3.3-4.2 3.1-9.1 2.4-12.5.6 0 1.2-.1 1.7-.1.8 4.8-.8 9.7-3 15.2-3.1 7.5 6.1 20.8 6.1 20.8z"/><path class="st28" d="M799 856c-.1 2.9-1.9 5.9-4.8 8.6-.6.5-1.2 1.1-1.8 1.6-.2.2-.5.4-.8.6-1.3 1-2.7 1.9-4.3 2.7.8-11.7-42.1-33.8-73-47.9 2.4.7 4.7 1.3 6.9 2 4.7 1.3 9.1 2.6 13.3 3.8.6.2 1.3.4 1.9.6 6.1 1.8 11.8 3.5 17 5.1l1.8.6c1.3.4 2.6.8 3.8 1.2.5.1 1 .3 1.5.5 1.8.6 3.6 1.2 5.3 1.7.2.1.4.1.6.2 22 6.9 32.8 12.5 32.6 18.7z"/><path d="M862.9 904.2c0 .1-.1.3-.1.4-2.2 7.5-24.7 10.2-45.9 8.5 6.1-7.7-1-27.9-5.7-39 5.3.1 10 1.2 13.8 2.2l1.2.3c6.8 1.8 14 5 20.1 8.8 10.2 6.2 17.7 13.7 16.6 18.8z" opacity=".13" fill="#19233d"/></g><g id="hands"><path class="st4" d="M989.1 653.2c-2.2 4.9-4.7 10.3-7.5 16-10.8 21.6-26.4 48.4-49.1 77-.2.3-.5.6-.7.9l-2.6-.8-4.9-1.6-5.3-1.7-16-5.2c.7-2.5 1.5-4.9 2.4-7.1 2.4-4.6 4.7-9.2 6.9-13.7 2.1-4.2 4.2-8.4 6.1-12.5 13.3-27.5 24.1-52 32.8-72.8 10.6-25.5 19.1-48 10-70.4-4.7-11.6-12.6-19.4-18.5-24.2L998 499c1.1 1.8 2.3 3.9 3.6 6.2 3.8 7 8.1 16.4 11 27.8v.1c10.8 41.9-5 78.7-23.5 120.1z"/><linearGradient id="SVGID_6_" gradientUnits="userSpaceOnUse" x1="932.6" y1="574.666" x2="1001.806" y2="574.666" gradientTransform="rotate(3.979 575.216 487.73) scale(1.00001)"><stop offset=".164" stop-color="#f07125"/><stop offset=".998" stop-color="#19233d" stop-opacity=".5"/></linearGradient><path d="M970.7 551.6c2 25.5 9.7 61.6-40 136.9-5 7.6-9.1 12.7-12.3 15.8 13.3-27.5 24.1-52 32.8-72.8 10.6-25.5 19.1-48 10-70.4-4.7-11.6-12.6-19.4-18.5-24.2l55.3-38.1c1.1 1.8 2.3 3.9 3.6 6.2-9.7 7.2-32.5 26.4-30.9 46.6z" opacity=".09" fill="url(#SVGID_6_)"/><path class="st13" d="M989.1 653.2c-2.2 4.9-4.7 10.3-7.5 16 7.3-55.1 22.4-108.6 31.1-136.4v.1c10.7 42.1-5.1 78.9-23.6 120.3z"/><path class="st4" d="M930.8 805.2c-1.9 1.2-11.6-6.4-19.5-17.6-3.4-4.8-6.4-10.3-8.3-16-3.8-11.3-3-22.4-.6-31.8.2-.7.4-1.4.6-2.2.7-2.5 1.5-4.9 2.4-7.1 2.4-6.2 5.2-11 6.9-13.7.4-.7.7-1.2 1-1.6 15.8 8.4 19.1 14.6 18.7 18.9-.2 3-2.2 4.9-5.3 8l-2.4 2.4c-.4.4-.8.8-1.2 1.3-.9.9-1.8 2-2.7 3.2-3.7 4.6-6.3 9.1-8.2 13-.9 1.9-1.7 3.6-2.3 5.1 1.7 13.5 6.5 19.8 10.8 23.1 3.1 2.3 9.2 5.6 10.3 11.8.1.3.1.6.2.9.1 1 .1 1.9-.4 2.3z"/><path class="st4" d="M923.1 745.8s-11.8 20-9.1 26.5c2.7 6.5 22.1 23.7 21.7 30-.4 6.3-9.2-3.8-9.2-3.8l-19-23.5-.3-19 15.9-10.2z"/><path class="st4" d="M945.3 788.3c-1.2 2.1-14.4-5.7-23.1-12.2 6.3 7.9 18.7 19.9 18.3 25-.1 1.6-.7 2.1-1.6 2.1-2.7-.2-7.6-5.9-7.6-5.9l-19-23.5-.3-19c1.1-7.8 5.9-12.8 10.3-12.9-.3-1-.5-1.9-.8-2.7 3.5 2.1 7 4.1 10.5 6.2 0 .1 0 .1.1.2 5.9 17.4 6.2 21.6 5.2 22.1-1.6.7-7.5-8-11.2-15.8-.4-.7-.7-1.5-1-2.2-2.3 4.4-5.4 11-6.4 16.1 3.9 2.5 28.2 19.8 26.6 22.5z"/><path class="st13" d="M911.3 787.6c-3.4-4.8-6.4-10.3-8.3-16-3.8-11.3-3-22.4-.6-31.8l8.9 47.8z"/><path class="st31" d="M945.3 788.3c-1.2 2.1-14.4-5.7-23.1-12.2 6.3 7.9 18.7 19.9 18.3 25-.1 1.6-.7 2.1-1.6 2.1-7.3-5.8-21-23.1-23.3-40.9-1.5-11.7 9-15.5 16.5-16.7 5.9 17.4 6.2 21.6 5.2 22.1-1.6.7-7.5-8-11.2-15.8-.4-.7-.7-1.5-1-2.2-2.3 4.4-5.4 11-6.4 16.1 3.9 2.5 28.2 19.8 26.6 22.5z"/><path class="st4" d="M605.4 791.4c-.8 2.8-1.6 5.5-2.3 8.3-1.6 4.3-3.3 8.4-4.9 12.2-12.9 30.2-24.5 42.8-25.1 42.6-.1 0-.3-.1-.3-.1-.2-.2-.4-.5-.7-.9-2.4-3.8 1.2-8.5 4.8-20l2.7-9-18 18.6c-13.8 18-24 30.8-25.6 32.6l-.2.2c-.4.4-2.3 2.3-3.5 1.9 0 0-.7-.2-1.1-1.3-1-2.4 12.2-20.7 22.9-35-.5-.3-1-.6-1.4-.9-6.3 8.2-11.9 15.4-16.2 21-5.3 6.8-8.9 11.2-9.8 12.2l-.2.2c-.4.4-2.3 2.3-3.5 1.9 0 0-.7-.2-1.1-1.3-1-2.5 13.9-23 24.9-37.6-.5-.3-1-.5-1.5-.8-12.3 16-21.2 27.2-22.8 28.9l-.2.2c-.4.4-2.3 2.3-3.5 1.9 0 0-.7-.2-1.1-1.3-.9-2.3 11-18.9 21.3-32.8-.5-.2-1-.5-1.6-.7-10 12.5-16.9 21.1-18.3 22.5l-.2.2c-.4.4-2.1 2.1-3.2 1.7 0 0-.6-.2-.9-1.3-.8-2.6 15.2-23.7 25.9-37.3l.1.1c6-7.6 11.1-13.1 14.5-16.2 7-6.6 12.5-8.8 14.9-9.7.1 0 .2-.1.2-.1 13.9-5 27-3 35-.9z"/><path class="st4" d="M676.9 538.7c-.2.6-.4 1.3-.5 1.9-.9 3.2-1.8 6.5-2.8 9.7-3.4 11.8-6.7 23.7-10.1 35.5-10.5 36.8-20.9 73.7-31.4 110.5-9 31.6-18 63.3-26.9 95-.9 3.2-1.8 6.5-2.8 9.7l-4.1 10.3c-11.3-1.6-22.7-3.2-34-4.8.1-.9.3-1.7.4-2.6.1-.5.7-3.9 1.8-9.7 0-.1.1-.3.1-.4 5.4-29.7 21.6-119.2 33.4-206 1.1-8 2.1-15.9 3.1-23.7 1-7.6 2.6-20.7 4.5-37.3 0-.3.1-.6.1-.9 0-.3.1-.6.1-.9.1-.6.1-1.2.2-1.9v-.1c.1-.6.1-1.1.2-1.7h.2c.7.2 1.6.5 2.7.8 9.3 3 19.1 5.8 29.5 8.5.8.2 1.7.4 2.5.7 11.8 3 23.1 5.4 33.8 7.4z"/><path class="st13" d="M676.9 538.7c-.2.6-.4 1.3-.5 1.9-.9 3.2-1.8 6.5-2.8 9.7-3.4 11.8-6.7 23.7-10.1 35.5-10.5 36.8-20.9 73.7-31.4 110.5-2.9-33.4 2.6-58.2 9.9-76.3 9.1-22.8 24.2-43.8 15.9-63.7-7.8-18.5-31.7-26.1-50.2-29.7 0-.3.1-.6.1-.9 0-.3.1-.6.1-.9.1-.6.1-1.2.2-1.9v-.1c.1-.6.1-1.1.2-1.7h.2c.7.2 1.6.5 2.7.8 6.5 2 18.6 5.6 29.5 8.5.8.2 1.7.4 2.5.7 8 2.3 19.4 5 33.7 7.6z"/><linearGradient id="SVGID_7_" gradientUnits="userSpaceOnUse" x1="587.887" y1="689.701" x2="615.185" y2="689.701" gradientTransform="rotate(3.979 575.216 487.73) scale(1.00001)"><stop offset=".002" stop-color="#ff931e"/><stop offset="1" stop-color="#fff"/></linearGradient><path d="M578 792.2c-4.2 1.1-8.4 1.4-11.4 1.5 5.4-29.7 21.6-119.2 33.4-206 .8 18.1 1.2 34.4 1.5 48.6.1.1 2.9 148.9-23.5 155.9z" opacity=".13" fill="url(#SVGID_7_)"/><path d="M598.1 811.8c-12.9 30.2-24.5 42.8-25.1 42.6-.1 0-.3-.1-.3-.1-.2-.2-.4-.5-.7-.9-2.4-3.8 1.2-8.5 4.8-20l2.7-9-18 18.6c-13.8 18-24 30.8-25.6 32.6l-.2.2c-.4.4-2.3 2.3-3.5 1.9 0 0-.7-.2-1.1-1.3-1-2.4 12.2-20.7 22.9-35-.5-.3-1-.6-1.4-.9-6.3 8.2-11.9 15.4-16.2 21 11.4-21.8 28.9-51 43.2-55.4 9.1-2.6 14.9.7 18.5 5.7z" opacity=".03" fill="#19233d"/></g><g id="head"><g id="neck"><path class="st4" d="M798.3 327.6c-4.1 3.3-10.1 7.5-18 11.1-3.7 1.7-7.8 3.2-12.2 4.4a83.77 83.77 0 0 1-38.8 1.3c-2.9-4-5.7-7.4-8.1-10.1-.1-.1-.2-.3-.4-.4-.2-5.6-.3-11.2-.4-16.9-.2-10.6-.3-21-.2-31.2v-3.1c.3 0 .5-.1.8-.1 16.3-2.2 32.7-4.3 49-6.5 3.7-.5 7.3-1 10.9-1.5.4-.1.9-.1 1.3-.2.3 0 .5-.1.8-.1 1.3 4.7 2.6 9.5 3.9 14.3.7 2.6 1.4 5.1 2.2 7.7 2.9 10.2 5.9 20.2 8.9 30.1v.1c.1.4.2.7.3 1.1z"/><path class="st34" d="M747.5 327.7c-4.7 2.3-10.6 3.8-12.5 4.3-5.5 1.4-10.3 2-13.8 2.2-.1-.1-.2-.3-.4-.4-.2-5.6-.3-11.2-.4-16.9-.2-10.6-.3-21-.2-31.2l.8-3.2c6.5 0 15-.7 24.5-3.3 6.8-1.8 12.6-4.1 17.3-6.4 1.5 2 10.4 14.4 6.8 29.7-3.8 16.4-19.1 23.8-22.1 25.2z"/></g><path id="hair_1_" class="st4" d="M784.9 257.7c-.4 2-.9 3.9-1.5 5.8-2.3 7.5-5.9 15.1-10.5 22-13.1 20.1-34 35.4-52.6 31.4-28.4-6.2-35.9-54.4-38.3-70-.3-2.1-.7-4.2-1-6.4-.2-1.3-.4-2.7-.5-4-.8-5.9-1.3-11.9-1-17.8.4-9.6 2.8-19 9.3-27.8 12.7-17.4 36.8-26.7 56.5-21.6 13.1 3.4 23.5 13 30.5 25.6 1.1 5.2 2.3 11.9 3.6 20.7 1.9 12.1 3.8 26.2 5.5 42.1z"/><linearGradient id="moustache_1_" gradientUnits="userSpaceOnUse" x1="676.892" y1="281.683" x2="718.733" y2="281.683" gradientTransform="rotate(3.979 575.216 487.73) scale(1.00001)"><stop offset=".001"/><stop offset=".811"/></linearGradient><path id="moustache" d="M729.4 282.7c-12.4-10.9-20.4-6.1-23.5-3.1-3.9-.3-14.1.9-15.6 18.5-1.5 17.8 12-8.3 15.9-16.2 7.7 2.8 36.9 12.8 23.2.8z" fill="url(#moustache_1_)"/><path d="M704.4 298.2c-1.2 0-2.3-.2-3.2-.4-.3-.1-.5-.4-.5-.7.1-.3.4-.5.7-.5 1.7.4 4.4.6 7.3-.5 4.2-1.5 6.2-4.9 6.9-6.2.2-.3.5-.4.8-.3.3.2.4.5.3.8-.8 1.5-3 5.1-7.6 6.8-1.6.8-3.2 1-4.7 1z"/><g id="eyes"><linearGradient id="SVGID_8_" gradientUnits="userSpaceOnUse" x1="693.549" y1="240.804" x2="699.877" y2="240.804" gradientTransform="rotate(3.979 575.216 487.73) scale(1.00001)"><stop offset=".001"/><stop offset=".811"/></linearGradient><circle cx="713.6" cy="249.8" r="3.2" fill="url(#SVGID_8_)"/><linearGradient id="SVGID_9_" gradientUnits="userSpaceOnUse" x1="668.744" y1="245.733" x2="675.072" y2="245.733" gradientTransform="rotate(3.979 575.216 487.73) scale(1.00001)"><stop offset=".001"/><stop offset=".811"/></linearGradient><circle cx="688.5" cy="253" r="3.2" fill="url(#SVGID_9_)"/></g><path id="nose" d="M700.1 243.1c-1.6 3-3.8 7.7-6 13.6-3.4 9.1-5 13.7-2.9 16.3 3.5 4.2 14.6.1 15.3-.2-2.2-9.9-4.3-19.8-6.4-29.7z" fill="#a2625e"/><g id="brows"><linearGradient id="SVGID_10_" gradientUnits="userSpaceOnUse" x1="687.147" y1="221.807" x2="709.823" y2="221.807" gradientTransform="rotate(3.979 575.216 487.73) scale(1.00001)"><stop offset=".001"/><stop offset=".811"/></linearGradient><path fill="url(#SVGID_10_)" d="M727.9 229.3l-22.5-.3v3.7l22.5.3z"/><linearGradient id="SVGID_11_" gradientUnits="userSpaceOnUse" x1="662.821" y1="229.63" x2="673.806" y2="229.63" gradientTransform="rotate(3.979 575.216 487.73) scale(1.00001)"><stop offset=".001"/><stop offset=".811"/></linearGradient><path d="M691.5 236.4l-10.5 4.2c-.2-1.3-.4-2.7-.5-4l9.6-3.8 1.4 3.6z" fill="url(#SVGID_11_)"/></g><linearGradient id="SVGID_12_" gradientUnits="userSpaceOnUse" x1="644.735" y1="217.148" x2="774.004" y2="217.148" gradientTransform="rotate(3.979 575.216 487.73) scale(1.00001)"><stop offset="0" stop-color="#002544"/><stop offset=".192" stop-color="#00172a"/><stop offset=".417" stop-color="#000a13"/><stop offset=".629" stop-color="#000305"/><stop offset=".811"/></linearGradient><path d="M784.6 254.7l.3 3c1.5 14.1 2.5 26 3.2 34.7l-.1-.1c-1.3-1.1-2.9-2.5-4.6-4.1-2.3-2.1-4.8-4.7-7.4-7.6-1.3-1.5-2.7-3.1-4.1-4.8-1.3-1.6-2.6-3.3-3.9-5.1-1.9-2.7-3.7-5.4-5.3-8-4.2-7-7.3-13.7-9.7-19.9-1.2-3.1-2.3-6-3.3-8.9-5-14.1-8.2-24.7-19.1-29.4-6-2.6-17.8-3.4-28 .6-12.9 5-15.4 14.6-22.5 13.7-.2 0-.4-.1-.6-.1-9.3-2-18.1-20.5-12.4-31.3 3.3-6.3 10.7-8.4 18-10.1 42.6-10.2 66.8-15.9 81.9-2 3.9 3.7 6.3 7.8 8.8 19.6 1.1 5.2 2.3 11.9 3.6 20.7v.1l5.2 39z" fill="url(#SVGID_12_)"/><g id="ear"><path class="st4" d="M773.3 248.9c-.6 8.7-8.2 15.3-16.9 14.7-6.7-.5-12.1-5-14-11-.6-1.8-.8-3.8-.7-5.9.6-8.7 8.2-15.3 16.9-14.7 1.8.1 3.4.5 5 1.2 6.1 2.5 10.2 8.7 9.7 15.7z"/><linearGradient id="SVGID_13_" gradientUnits="userSpaceOnUse" x1="724.589" y1="230.676" x2="737.83" y2="230.676" gradientTransform="rotate(3.979 575.216 487.73) scale(1.00001)"><stop offset=".003" stop-color="#f07125"/><stop offset=".445" stop-color="#19233d" stop-opacity=".5"/></linearGradient><path d="M763.6 233.1l-21.2 19.4c-.6-1.8-.8-3.8-.7-5.9.6-8.7 8.2-15.3 16.9-14.7 1.8.2 3.5.6 5 1.2z" opacity=".09" fill="url(#SVGID_13_)"/></g></g><g id="tablet"><path class="st18" d="M334.6 949.8c6.1 2.6 19.4 7.4 36.2 4.9 9.9-1.4 17.5-4.9 22.5-7.7 3.5.9 13.2 2.7 23-2.2 3.5-1.8 11.7-5.9 12.3-13.1.6-7.3-6.9-14.7-14.1-16.2 0 0-4.3-.9-23.4 7.3l-1.8 7.5s-10.7 14.1-21.9 16.7c-11.2 2.5-15.3 7-32.8 2.8zm-7.2-6.1c.7.2 2.3-4.1 4.5-7.8 3-4.9 8.7-11.2 20.7-16.1l-6.4-5.9c-.1 1.5-.6 3.6-1.9 5.6-1.3 1.9-3 2.9-4.1 3.5-2.1 1.3-7.9 4.8-10.8 9.4-3 4.9-2.9 11-2 11.3z"/><path class="st6" d="M420.9 930c.8-1.4 1.2-3.1 1.3-5.1l4.3-142.8c.2-5.4-2.8-10.1-6.5-10.5l-82.2-9.2c-.6-.1-1.2 0-1.7.2 0 0-3.2.8-5.7 4.6l1.6.6c-.3 1-.4 2-.5 3.1l-4 133.2c-.2 5 2.4 9.7 5.7 10.5l81.9 18.7c.8.2 1.6.1 2.3-.1l-1.8 1.6c5-1.8 5.4-4.8 5.3-4.8z"/><linearGradient id="SVGID_14_" gradientUnits="userSpaceOnUse" x1="338.478" y1="872.429" x2="503.269" y2="846.522" gradientTransform="rotate(3.979 575.216 487.73) scale(1.00001)"><stop offset="0" stop-color="#302c34"/><stop offset=".471" stop-color="#2e2a2f"/><stop offset=".491" stop-color="#2f2b32"/><stop offset="1"/></linearGradient><path d="M412.4 935.1l-81.9-18.7c-.6-.1-1.2-.4-1.8-.8-2.4-1.7-4-5.6-3.9-9.6l4-133.2c.1-5 3-8.8 6.2-8.4l82.2 9.2c3.7.4 6.7 5.2 6.5 10.5l-.1 3.9-4.2 139c-.1 5.2-3.3 8.9-7 8.1z" fill="url(#SVGID_14_)"/><path class="st27" d="M391 908c-2.4-14.4-8-24.2-16.8-29.4-2.1-1.2-7.8-4.5-13.8-2.9-11 2.9-17.6 20-16.5 42.7-.4.2-.8.5-1.2.7-12.9 7.9-20 18.1-17.4 25.1 1.3 3.4 5.6 7.7 19.1 8.6l1 .1c21.1 1.2 37.9-13.4 46-22.2.2-.2.3-.5.3-.7 0-.2 0-.5.1-.9.3-3 .7-11.6-.8-21.1zm-1.7 21.3c-7.9 8.5-23.9 22.2-43.7 21.1-13.6-.8-17-4.7-17.9-7-1.9-5.1 3.8-14.9 18.1-23.1.2-.1.3-.3.5-.5.1-.2.2-.4.2-.7-1.2-21.5 4.8-38.3 14.6-40.9 1.2-.3 2.4-.4 3.5-.3 3.6.3 6.8 2.1 8.3 3 17.9 10.4 17 40.9 16.5 47.6l-.1.8z"/><linearGradient id="SVGID_15_" gradientUnits="userSpaceOnUse" x1="349.228" y1="855.942" x2="444.901" y2="855.942" gradientTransform="rotate(3.979 575.216 487.73) scale(1.00001)"><stop offset=".004" stop-color="#bdd3de"/><stop offset="1" stop-color="#fff"/></linearGradient><path d="M423.7 787.9c-31.7 42.6-63.3 85.1-95 127.7-2.4-1.7-4-5.6-3.9-9.6l4-133.2c.1-5 3-8.8 6.2-8.4l82.2 9.2c3.7.4 6.7 5.2 6.5 10.5v3.8z" opacity=".04" fill="url(#SVGID_15_)"/><path class="st28" d="M391.9 929c0 .5-.1.8-.1.9 0 .3-.1.5-.3.7-8.1 8.8-24.9 23.4-46 22.2l-1-.1c-13.5-.9-17.9-5.2-19.1-8.6-2.6-7 4.5-17.2 17.4-25.1 1.2.2 2.3.4 3.5.6-.1.2-.3.3-.5.5-14.3 8.2-20 18.1-18.1 23.1.8 2.3 4.3 6.2 17.9 7 19.8 1.1 35.8-12.6 43.7-21.1l.1-.8c.8.3 1.6.5 2.5.7z"/></g><g id="recipe_window"><path d="M341.7 757.7c-.5 0-.9-.4-1-.9l-34.8-232c-.1-.5.3-1.1.8-1.1.5-.1 1.1.3 1.1.8l34.8 232c.1.5-.3 1.1-.8 1.1 0 .1 0 .1-.1.1z" opacity=".5" fill="#153e5c"/><linearGradient id="window_1_" gradientUnits="userSpaceOnUse" x1="371.878" y1="653.025" x2="360.664" y2="210.057" gradientTransform="rotate(3.979 575.216 487.73) scale(1.00001)"><stop offset="0" stop-color="#d3e0df"/><stop offset=".664" stop-color="#f1f0e2"/></linearGradient><path id="window" fill="url(#window_1_)" d="M496.4 558.5l-270.5-18.8 20.2-290.1 270.5 18.9z"/><path d="M464.9 300.9l-168.1-11.7c-.3 0-.5-.3-.5-.5s.3-.5.5-.5l168.1 11.7c.3 0 .5.3.5.5 0 .3-.2.5-.5.5zm-54.7 19.7l-67-4.7c-.3 0-.5-.3-.5-.5 0-.3.3-.5.5-.5l67 4.7c.3 0 .5.3.5.5 0 .3-.2.5-.5.5zm-81.5-5.6l-33-2.3c-.3 0-.5-.3-.5-.5 0-.3.3-.5.5-.5l32.9 2.3c.3 0 .5.3.5.5.1.3-.1.5-.4.5zm81.1 11.9c-.1 0-.1 0 0 0l-67-4.7c-.3 0-.5-.3-.5-.5 0-.3.3-.5.5-.5l67 4.7c.3 0 .5.3.5.5-.1.3-.3.5-.5.5zm-81.5-5.6l-33-2.3c-.3 0-.5-.3-.5-.5 0-.3.3-.5.5-.5l32.9 2.3c.3 0 .5.3.5.5.1.3-.2.5-.4.5zm81 12l-67-4.7c-.3 0-.5-.3-.5-.5 0-.3.3-.5.5-.5l67 4.7c.3 0 .5.3.5.5 0 .3-.2.5-.5.5zm-81.5-5.7l-33-2.3c-.3 0-.5-.3-.5-.5 0-.3.3-.5.5-.5l32.9 2.3c.3 0 .5.3.5.5.1.3-.1.5-.4.5zm81.1 12l-67-4.7c-.3 0-.5-.3-.5-.5s.3-.5.5-.5l67 4.7c.3 0 .5.3.5.5 0 .3-.3.5-.5.5zm-81.5-5.7l-33-2.3c-.3 0-.5-.3-.5-.5 0-.3.3-.5.5-.5l32.9 2.3c.3 0 .5.3.5.5.1.3-.1.5-.4.5zm133.5 33.4l-168.1-11.7c-.3 0-.5-.3-.5-.5 0-.3.3-.5.5-.5L461 366.3c.3 0 .5.3.5.5-.1.3-.3.5-.6.5zm-.4 6.4L292.3 362c-.3 0-.5-.3-.5-.5 0-.3.3-.5.5-.5l168.1 11.7c.3 0 .5.3.5.5.1.3-.2.5-.4.5zm-.5 6.3l-168.1-11.7c-.3 0-.5-.3-.5-.5 0-.3.3-.5.5-.5L460.1 379c.3 0 .5.3.5.5-.1.3-.3.5-.6.5z" opacity=".62" fill="#19233d" id="recipe"/><g id="steak"><ellipse transform="rotate(-86.02 373.082 474.976) scale(1.00001)" class="st27" cx="373.1" cy="475" rx="43.8" ry="80.2"/><path class="st11" d="M419.7 469.7c-1.8 6.2-5.9 11.6-9.8 14.9-2.9 2.5-8.9 6.6-37.9 5.7-28.1-.9-42.4-1.5-52.4-10.9-1.8-1.7-13.9-12.9-11.7-26.9.6-3.9 2.2-7.2 4.1-9.8 3.5-4.9 8.1-7.9 9.7-9 .3-.2.6-.4.8-.5 17.8-10.8 39.8-1.6 42-.7 12.1 5.3 10.5 10.4 21 12.9 12.9 3.1 21.4-3.2 29 3.1 1.9 1.6 3.2 3.5 4 5.2.9 1.9 1.3 3.6 1.6 4.6 1 3.9.7 7.8-.4 11.4z"/><path class="st48" d="M327.3 484.6c-.4-.2-.7-.3-1.1-.5l-1.3-9.9-.1-1-2.1-16.2-.1-1-1.5-11.7-.1-1-1.1-8.3c.3-.2.6-.5.9-.7l1.1 8.6.1 1 1.5 11.6.1 1 2.1 16.1.1 1 1.5 11z"/><path class="st48" d="M360.9 431.1l-8.4 2.8-1 .3-4.3 1.4-8 2.6-1 .3-16.1 5.3-1 .3-12 4c.2-.4.3-.8.5-1.2l11.4-3.8 1-.3 16.3-5.4 1-.3 6.4-2.1 5.9-2 1-.3 6.9-2.3c.2.1.4.1.6.2.2 0 .3.1.5.2.1 0 .2 0 .2.1 0 .2.1.2.1.2zm12.9 7.2l-4 1.4-1 .4-6.7 2.5-8.8 3.2-1 .4-13.4 4.9-1 .4-14.2 5.2-1 .4-14.2 5.2c-.1-.3-.2-.6-.2-1l14.3-5.2 1-.4 14.4-5.3 1-.4 13.3-4.8 1-.4 7.7-2.8 8-2.9 1-.4 3-1.1c.2.2.4.3.5.5.1 0 .2.1.3.2zm11.9 7.2l-3 1.4-1.1.5-4.8 2.2-7.7 3.7-1 .5-13.9 6.6-1 .5-14.7 6.9-1 .5-11.7 5.5-1 .5-7.1 3.4c-.2-.2-.5-.5-.7-.8l7.7-3.7 1-.5 11.8-5.6 1-.5 14.6-6.9 1-.5 14.1-6.6 1-.5 6.5-3 6.1-2.9 1-.5 1.4-.7c.2.1.4.1.6.2.2.1.4.1.7.2.1.1.2.1.2.1zm15.8.3l-6 4-1 .6-5.3 3.5-7.5 5-1.1.7-12.2 8.1-1 .7-12.2 8.1-1 .6-16.1 10.7-.1.1c-.3-.1-.6-.1-.9-.2-.2 0-.3-.1-.5-.1l.5-.3 1-.7 16-10.6 1-.6 12.3-8.2 1-.7 12.2-8.1 1.1-.7 6.1-4 6.5-4.3 1-.6 4-2.7c.8-.1 1.5-.2 2.2-.3zm16.3 6.6l-4.4 2.9-2.3 1.6-1 .7-13.7 9.1-1 .6-15.3 10.2-1.1.7-11.5 7.6-1 .7-5.3 3.5c-.6 0-1.1 0-1.7-.1l7.1-4.7 1-.7 11.6-7.7 1.1-.7 15.2-10.1 1-.6 13.8-9.1.8-.5.2-.1 6.2-4.1c.1.1.1.2.2.3-.1.1 0 .3.1.5zm2.2 16.1l-.3 1.2v.1l-8.5 4.7-1 .5-12.9 7.1-1 .5-14.2 7.8H380l16.2-8.9 1-.5 13-7.1 1-.5 8.8-4.9z"/><path class="st48" d="M339.4 428.1l-.1 5.6-.1 3.6v1.1L339 450v1.1l-.3 15.6v1.1l-.4 18.9v1.3h-.1c-.3-.1-.6-.1-.9-.2v-.4l.4-19.1v-1.1l.3-15.7v-1.1l.2-11.7v-1.1l.1-4.1.1-5.3h.8c.1-.1.1-.1.2-.1zm16.7 61.6c-.3 0-.7 0-1-.1l-.8-12.5-.1-1.1-1-15.2-.1-1.1-.9-13.6-.1-1-.5-7.7-.2-3.1-.1-1-.3-4.5c.3 0 .7.1 1 .2l.2 4 .1 1 .2 3.9.4 6.9.1 1 .9 13.5.1 1.1 1 15 .1 1.1 1 13.2zm14-54.3l-.2 3.2-.1 1.1-.3 6.6-.3 5.9-.1 1.1-.7 13.2-.1 1.2-.9 16.8-.1 1.2-.2 4.4h-1l.2-3.7.1-1.2.9-16.8.1-1.2.7-13.4.1-1.1.3-6.8.3-5.7.1-1.1.2-4.2c.2.1.3.2.5.3.2 0 .3.1.5.2zm12.8 9.3l-.1 1.1-.1 1.2-.4 4.9-.5 5.9-.1 1.3-1.5 17.2-.1 1.3-1.1 13h-1l1.1-12.3.1-1.3 1.5-17.2.1-1.3.6-7 .3-4 .1-1.1.2-2c.1 0 .1.1.2.1.2 0 .4.1.7.2zm14.8 44.7c-.3 0-.7.1-1 .1l-.4-6.8-.1-1.1-.8-14.3-.1-1.2-.6-10.8-.3-4.9-.1-1.2-.2-3h1l.1 2.4.1 1.2.3 5.7.6 9.9.1 1.2.8 14.4.1 1.1.5 7.3zm13.5-5.9c-.3.3-.7.6-1 .9V474l-.1-16.3v-11.5c.2 0 .3.1.5.2.1 0 .3.1.4.2h.1V457l.1 16.5v10z"/><path class="st2" d="M420 468.5l-.3 1.2v.1c-1.7 5.5-5 10.3-8.4 13.6-.3.3-.7.6-1 .9l-.3.3c-1.7 1.5-4.5 3.5-12.3 4.7-.3 0-.7.1-1 .1-3.7.5-8.4.9-14.6 1H378c-1.9 0-3.9 0-5.9-.1-1.6 0-3.2-.1-4.7-.1h-1c-1.8-.1-3.5-.1-5.1-.2-.6 0-1.1 0-1.7-.1-1.2 0-2.3-.1-3.4-.2-.3 0-.7 0-1-.1-6.6-.4-12.1-.9-16.9-1.8h-.1c-.3-.1-.6-.1-.9-.2-.2 0-.3-.1-.5-.1-3.5-.7-6.6-1.7-9.4-3-.4-.2-.7-.3-1.1-.5-2.4-1.2-4.6-2.8-6.5-4.7-.3-.3-1-.9-1.9-1.8-.2-.2-.5-.5-.7-.8-2.8-3-6.8-8.2-8.5-14.7-.1-.3-.2-.6-.2-1l14.3-5.2-1.5-11.7-12 4c.2-.4.3-.8.5-1.2.7-1.6 1.5-3 2.5-4.3 2.6-3.6 5.7-6.2 7.8-7.7.3-.2.6-.5.9-.7.4-.2.7-.5.9-.6.3-.2.6-.4.9-.5.1-.1.3-.2.4-.2l1.5-.9c.3-.2.6-.3.9-.5.1-.1.2-.1.4-.2.4-.2.7-.3 1-.5.4-.2.9-.4 1.3-.5.4-.2.9-.3 1.3-.5.4-.1.8-.3 1.2-.4.9-.3 1.8-.5 2.8-.7.3-.1.6-.1.9-.2h.1c.2-.1.4-.1.7-.1.2 0 .4-.1.6-.1.3 0 .6-.1.9-.1.6-.1 1.2-.1 1.8-.2h.9c.5 0 1.1-.1 1.6-.1h3.8c.7 0 1.5.1 2.2.1.4 0 .7.1 1.1.1.4 0 .8.1 1.1.1.2 0 .3 0 .5.1.2 0 .3 0 .5.1.3 0 .6.1 1 .2.3 0 .7.1 1 .2h.1c.3.1.7.1 1 .2 1.3.3 2.5.6 3.7.9.6.1 1.1.3 1.6.4.2.1.5.2.7.2.2.1.4.1.6.2.2 0 .3.1.5.2.1 0 .2 0 .2.1.1 0 .2 0 .2.1.2.1.5.2.7.2.4.1.7.3 1 .4.1 0 .2.1.3.1.3.1.5.2.7.3.2.1.4.2.5.2.2.1.3.1.4.1.9.4 1.7.8 2.5 1.2.1 0 .2.1.2.1.4.2.9.5 1.3.7l.6.3c.2.1.3.2.5.3.2.1.3.2.5.3.4.2.7.5 1 .7.3.2.6.5.9.7.3.2.6.4.8.7.2.2.4.3.5.5l.3.3.2.2c.2.1.3.3.5.5s.5.4.7.6c.2.2.3.3.5.4l.6.6c.1.1.2.2.4.3.6.6 1.3 1.1 2.1 1.6.1.1.2.2.4.2.3.2.5.3.8.5.3.1.5.3.8.5.2.1.3.2.5.2.2.1.5.2.7.3.1 0 .1.1.2.1.2.1.5.2.8.3.4.2.9.3 1.3.4.2.1.4.1.6.2.2.1.4.1.7.2h.2c.4.1.7.2 1 .2h.2c.2 0 .5.1.7.1.3.1.7.1 1 .2.3 0 .6.1.9.1.2 0 .3 0 .4.1 1.5.1 2.9.2 4.2.2h1.1c.5 0 1-.1 1.5-.1.4 0 .7 0 1.1-.1.5 0 1-.1 1.4-.1.7-.1 1.4-.1 2.1-.2 1.8-.2 3.5-.3 5.1-.2h.9c.9.1 1.8.2 2.6.5.2 0 .3.1.5.2.1 0 .3.1.4.2h.1c.1.1.3.1.4.2.1.1.3.1.4.2.2.1.3.1.4.2.1.1.3.1.4.2.1.1.2.1.3.2.3.2.5.3.8.5.1.1.2.1.3.2.1.1.2.2.3.2l.6.6c.2.1.3.3.4.4.1.1.3.2.4.4.2.2.3.3.4.5.2.2.4.4.5.7.1.2.2.3.4.5.1.1.1.2.2.3.1.2.2.4.4.6.1.2.2.3.2.4.1.1.1.3.2.4l.2.4c.9 1.9 1.3 3.6 1.6 4.6 1.4 3.6 1.2 7.1.4 10.4z"/><path class="st48" d="M419.7 469.7c-1.8 6.2-5.9 11.6-9.8 15-2.9 2.5-8.9 6.6-37.9 5.7-28.1-.9-42.4-1.5-52.4-10.9-1.8-1.7-13.9-12.8-11.7-26.9.6-3.9 2.2-7.2 4.1-9.8 2.7 8 8.8 20.9 21.7 28.3 4.9 2.8 8.8 3.8 15.3 5.2 13.7 3.2 37 8.5 61.6-2 2.5-1.1 5.6-2.6 9.1-4.6z"/><path class="st49" d="M375.7 503v-1c8.9-.3 22.4-2.5 35.9-11.1 8.2-5.2 15.1-12 20.6-20.1l.8.6c-5.6 8.2-12.6 15.1-20.9 20.4-13.6 8.7-27.3 10.9-36.4 11.2z"/><path class="st49" d="M431.9 472.4s-4.1-6.7.7-9.8 7.5 6.5-.7 9.8zm-3.6 5.1s-7.3-2.8-5.5-8.1c1.9-5.4 9.9.5 5.5 8.1zm-4.4 4.2s6.1-4.9 9.8-.5c3.6 4.4-5.6 8.3-9.8.5zm-7 6.6s-7.1-3.3-4.8-8.5 9.8 1.2 4.8 8.5zm-10.5 6.3s-6.4-4.5-3.3-9.2c3.2-4.7 9.5 2.9 3.3 9.2zm-11.8 5s-5.3-5.8-1.1-9.7c4.1-4 8.5 4.9 1.1 9.7zm16.4-7.7s7.2-3 9.5 2.2c2.4 5.2-7.5 6.4-9.5-2.2zm-10.1 5.2s7.8.8 7.3 6.5c-.4 5.6-9.6 2-7.3-6.5zm-12.8 3.7s7.8.8 7.3 6.5-9.6 2-7.3-6.5z"/><path d="M418.5 453.7c-1.7.7-3.4 1.2-5.1 1.6-.8.2-1.6.4-2.3.5h-.2c-.3 0-.5.1-.8.1-4.6.7-9.4.5-14.3-.4-.3-.1-.7-.1-1-.2-1.8-.3-3.7-.8-5.6-1.3-.4-.1-.8-.2-1.2-.4-1.9-.5-3.7-1.2-5.6-1.9-.3-.1-.6-.2-1-.4-1.5-.5-2.9-1.1-4.4-1.8-.4-.2-.8-.3-1.2-.5-2-.9-4.1-1.8-6.1-2.8-.3-.2-.7-.3-1-.5-2.1-1-4.3-2.1-6.4-3.3l-1.2-.6c-1-.5-2.1-1.1-3.1-1.7-1.7-.9-3.4-1.8-5-2.5-.4-.2-.7-.3-1-.4-1.5-.6-3.1-1.2-4.5-1.7-.5-.2-1.1-.4-1.6-.5-2.2-.7-4.3-1.1-6.3-1.5-.3-.1-.7-.1-1-.2-6.3-1-11.6-.8-15.6-.3.1-.1.3-.2.4-.2l1.5-.9c.3-.2.6-.3.9-.5.1-.1.2-.1.4-.2.4-.2.7-.3 1-.5.4-.2.9-.4 1.3-.5.4-.2.9-.3 1.3-.5.4-.1.8-.3 1.2-.4.9-.3 1.8-.5 2.8-.7.3-.1.6-.1.9-.2h.1c.2-.1.4-.1.7-.1.2 0 .4-.1.6-.1.3 0 .6-.1.9-.1.6-.1 1.2-.1 1.8-.2h.9c.6 0 1.1-.1 1.6-.1h3.8c.7 0 1.5.1 2.2.1.4 0 .7.1 1.1.1.4 0 .8.1 1.1.1.2 0 .3 0 .5.1.2 0 .3 0 .5.1.3 0 .6.1 1 .2.3 0 .7.1 1 .2h.1c.3.1.7.1 1 .2 1.3.3 2.5.6 3.7.9.6.1 1.1.3 1.6.4.3.1.5.2.8.2.2.1.4.1.6.2.2 0 .3.1.5.2.1 0 .2 0 .2.1.1 0 .2 0 .2.1.2.1.5.2.7.2.4.1.7.3 1 .4.1 0 .2.1.3.1.3.1.5.2.7.3.2.1.4.2.5.2.2.1.3.1.4.1.9.4 1.7.8 2.5 1.2.1 0 .2.1.2.1.4.2.9.5 1.3.7l.6.3c.2.1.3.2.5.3.2.1.3.2.5.3.4.2.7.5 1 .7.3.2.6.5.9.7.3.2.6.4.8.7.2.2.4.3.5.5l.3.3.2.2c.2.1.3.3.5.5s.5.4.7.6c.2.2.3.3.5.4l.6.6c.1.1.2.2.4.3.6.6 1.3 1.1 2.1 1.6.1.1.2.2.4.2.3.2.5.3.8.5.3.1.5.3.8.5.2.1.3.2.5.2.2.1.5.2.7.3.1 0 .1 0 .2.1.2.1.5.2.8.3.4.2.9.3 1.3.4.2.1.4.1.6.2.2.1.4.1.7.2h.2c.4.1.7.2 1 .2h.2c.2 0 .5.1.7.1.3.1.7.1 1 .2.3 0 .6.1.9.1.2 0 .3 0 .4.1 1.5.1 2.9.2 4.2.2h1.1c.5 0 1 0 1.5-.1.4 0 .7 0 1.1-.1.5 0 1-.1 1.4-.1.7-.1 1.4-.1 2.1-.2 1.8-.2 3.5-.3 5.1-.2h.9c.9.1 1.8.2 2.6.5.2 0 .3.1.5.2.1 0 .3.1.4.2h.1c.1.1.3.1.4.2.1.1.3.1.4.2.2.1.3.1.4.2.1.1.3.1.4.2.1.1.2.1.3.2.3.2.5.3.8.5.1.1.2.1.3.2.1.1.2.2.3.2l.6.6c.2.1.3.3.4.4.1.1.3.2.4.4.2.2.3.3.4.5.2.2.4.4.5.7.1.2.2.3.4.5.1.1.1.2.2.3.1.2.2.4.4.6.1.2.2.3.2.4.1.1.1.3.2.4l.4.7z" opacity=".34" fill="#5a142a"/><path class="st27" d="M335.2 422.1c-.3 0-.5-.2-.5-.5-.4-4.5.4-8.4 2.1-11.6 1-1.8 2-2.9 2.9-3.8 1.2-1.3 2.2-2.4 2.8-4.6.7-2.7.5-5.7-.6-8.6-.1-.3 0-.5.3-.6.3-.1.5 0 .6.3 1.2 3.1 1.4 6.4.7 9.2-.7 2.4-1.8 3.7-3 5-.9 1-1.8 2-2.7 3.6-1.7 3-2.3 6.7-2 11-.1.3-.3.6-.6.6zm35.1 6.3c-.3 0-.5-.2-.5-.5-.4-4.5.4-8.4 2.1-11.6 1-1.8 2-2.9 2.9-3.8 1.2-1.3 2.2-2.4 2.8-4.6.7-2.7.5-5.7-.6-8.6-.1-.3 0-.5.3-.6.3-.1.5 0 .6.3 1.2 3.1 1.4 6.4.7 9.2-.7 2.4-1.8 3.7-3 5-.9 1-1.8 2-2.7 3.6-1.7 3-2.3 6.7-2 11-.1.3-.3.5-.6.6zm31.9-1.6c-.3 0-.5-.2-.5-.5-.4-4.5.4-8.4 2.1-11.6 1-1.8 2-2.9 2.9-3.8 1.2-1.3 2.2-2.4 2.8-4.6.7-2.7.5-5.7-.6-8.6-.1-.3 0-.5.3-.6s.5 0 .6.3c1.2 3.1 1.4 6.4.7 9.2-.7 2.4-1.8 3.7-3 5-.9 1-1.8 2-2.7 3.6-1.7 3-2.3 6.7-2 11-.1.3-.3.5-.6.6zm19 19.1c-.3 0-.5-.2-.5-.5-.4-4.5.4-8.4 2.1-11.6 1-1.8 2-2.9 2.9-3.8 1.2-1.3 2.2-2.4 2.8-4.6.7-2.7.5-5.7-.6-8.6-.1-.3 0-.5.3-.6.3-.1.5 0 .6.3 1.2 3.1 1.4 6.4.7 9.2-.7 2.4-1.8 3.7-3 5-.9 1-1.8 2-2.7 3.6-1.7 3-2.3 6.7-2 11-.1.3-.3.5-.6.6z"/><circle class="st27" cx="374" cy="448.4" r=".6"/><circle class="st27" cx="380.8" cy="460.3" r=".6"/><circle class="st27" cx="350.7" cy="472.2" r=".6"/><circle class="st27" cx="401.5" cy="454.2" r=".6"/><circle class="st27" cx="340.3" cy="457.5" r=".6"/><circle class="st27" cx="400.1" cy="474.4" r=".6"/><circle class="st27" cx="332.9" cy="435.4" r=".6"/><path class="st49" d="M360.6 449.4l2.5.2-1.5 3.7-2.6-.2zm48.2 18.6l2.5.2-1.5 3.7-2.5-.2zm-20.2-7.3l.9-1 2.4 3-.9 1zm-53.5 2.6l.9-1 2.4 3-.9 1zm-3.5-19l1.3.2-1.2 3.6-1.3-.2zm75.1 7.9l1.3-.2-.1 3.8-1.3.2zm-58.3-20.6l1.3-.2v3.9l-1.4.2z"/></g></g><g id="knife"><path d="M974.9 945c-5.4 10.3-11.1 20.9-17.2 31.5-6.4 11.2-12.8 22.1-19.3 32.5-.1-.1-.3-.1-.4-.2-7.7-3.2-18.1-7.9-30.2-14.1-18.1-9.4-21-12.7-21.8-14.6-.1-.2-.1-.3-.2-.5-.2-.6-.6-2.1-.3-2.6 1-1.4 11.3 6.9 17.1 4 1.3-.6 1.7-1.5 1.7-1.7.3-1 0-2.2-.6-3.3-.7-1.2-1.9-2.2-3.2-2.6-2.1-.5-3.9.8-5.2 1.7-.7.5-1.2.9-1.4.8-1.8-1.5 27.8-42.1 39.4-46.5 1.2-.5 2.2-.5 3-.1 1 .6 2 1.7 6.1 5.9 1.1 1.1 2.4 2.2 4.3 3.5 5.9 3.9 11.8 5.2 14.4 5.7 5 1 9.2 1 12.2.7.2-.5.5-.9.7-1.4l.9 1.3z" fill="#b9beb6"/><path class="st27" d="M960.4 943.2c-2.6-.5-8.5-1.8-14.4-5.7-7.1-4.7-6.8-8.4-10.4-9.4-.8-.2-1.5-.3-2.3-.1-2.1.3-4.3 1.7-6.8 4-1.8 1.7-3.8 3.8-6 6.2-1.8 2-3.7 4.2-5.8 6.5-.8.9-1.7 1.9-2.6 2.9-4.6 5-8.7 9-12.3 12.3-11 10-16.6 12.9-14.9 18.6.1.5.3 1 .9 1.7 1.6 2.1 6.3 5.7 21 13.3 4.3 2.2 8.4 4.2 12.2 6.1 7.2 3.4 13.5 6.2 18.5 8.2.1-.1.1-.2.2-.4 1.2-2 2.5-4.1 3.7-6.1 1.8-2.9 3.6-5.9 5.3-8.9 1.6-2.7 3.2-5.5 4.8-8.2 1.7-2.9 3.4-5.9 5.1-8.9 5.8-10.2 11.3-20.3 16.4-30.1.2-.5.5-.9.7-1.4-2.5.3-7.4.6-13.3-.6zm-56.7 34.7c-.6 2-3.1 3-5.4 2.2-2.3-.8-3.7-3-3-4.9.7-2 3-2.9 5.3-2.2 1.6.5 2.7 1.7 3.1 3 .3.6.3 1.3 0 1.9z"/><linearGradient id="SVGID_16_" gradientUnits="userSpaceOnUse" x1="970.941" y1="898.401" x2="1018.212" y2="890.97" gradientTransform="rotate(18.213 706.124 707.543)"><stop offset=".004" stop-color="#bdd3de"/><stop offset="1" stop-color="#fff"/></linearGradient><path d="M941.7 1001.3c-1.3 2.2-2.6 4.3-4 6.5-5-2.1-11.3-4.8-18.5-8.2L900 959.8c3.5-3.2 7.7-7.2 12.3-12.3.9-1 1.8-1.9 2.6-2.9l26.8 56.7z" opacity=".36" fill="url(#SVGID_16_)"/><linearGradient id="SVGID_17_" gradientUnits="userSpaceOnUse" x1="988.139" y1="884.612" x2="1023.711" y2="879.02" gradientTransform="rotate(18.213 706.124 707.543)"><stop offset=".004" stop-color="#bdd3de"/><stop offset="1" stop-color="#fff"/></linearGradient><path d="M951.9 984.1c-1.6 2.8-3.2 5.5-4.8 8.2l-24.7-50.8c1.9.5 4.3.9 7.1.7.7 0 1.4-.1 2.1-.3 6.7 14.2 13.5 28.2 20.3 42.2z" opacity=".54" fill="url(#SVGID_17_)"/><path class="st31" d="M974.9 945c-5.4 10.3-11.1 20.9-17.2 31.5-6.4 11.2-12.8 22.1-19.3 32.5-.1-.1-.3-.1-.4-.2l-.1-1.4-4.5-78-.1-1.5c.8-.1 1.6-.1 2.3.1 3.6 1 3.3 4.7 10.4 9.4 5.9 3.9 11.8 5.2 14.4 5.7 5.9 1.2 10.7.9 13.7.6l.8 1.3z"/><path class="st21" d="M973.9 895c-.5 6.1-6.5 8.3-14.5 16.9-.3.4-.5.5-.7.7-3.3 3.7-5.6 7.3-8.8 12.2-1.4 2-2.6 3.9-3.7 5.7-1.1 1.7-2 3.3-2.9 4.7-1 1.1-4 4.3-9 6-.8.3-1.6.5-2.4.6-.5.1-1.1.2-1.6.3-5.8.7-10.2-1.3-11.6-2 35-46.8 47.9-55.8 52.4-53.3.7.4 1.2 1 1.6 1.8.1.2.2.4.3.7.1.3.2.6.3 1 0 .1.1.2.1.3.1.2.1.4.2.7.1.2.1.5.1.7 0 .2.1.4.1.6 0 .2.1.5.1.7v1.7z"/><path d="M973.9 895c-.5 6.1-6.5 8.3-14.5 16.9-.3.4-.5.5-.7.7-3.3 3.7-5.6 7.3-8.8 12.2-1.4 2-2.6 3.9-3.7 5.7-1.6 1.7-2.4 3.5-2.9 4.7-1 1.1-4 4.3-9 6 5.1-9.8 9.5-18.2 13.1-25.6 3.1-6.2 5.8-11.9 11.8-14.7 2.1-1 4.3-1.4 6.9-3.5 3.6-2.8 5.5-6.3 6.5-8.9.1.2.2.4.3.7.1.3.2.6.3 1 0 .1.1.2.1.3.1.2.1.4.2.7.1.2.1.5.1.7 0 .2.1.4.1.6 0 .2.1.5.1.7v.8c.1.4.1.7.1 1z" opacity=".32" fill="#5a142a"/></g><g id="sauce"><path class="st10" d="M667.2 1020.2c-5 1.5-11.9 3.2-20.3 3.4h-5.2c-6.9-.3-12.9-1.5-18-3-4.3-1.3-7.9-2.7-10.7-4.1-.5-10.7-.3-20.4.4-29.1 1.1-13.4 3.5-24.5 6-33.5.6-2 1.2-4 1.8-5.8 3.9-12 7.9-19.4 11.8-34.9 4.9-19.5 5.8-36.5 5.8-48.1v-1.3l24 1.7c-.1.4-.1.8-.2 1.3-1.7 11.5-3.1 28.4-.9 48.4 1.7 15.9 4.6 23.8 6.8 36.2l.6 3.6c.1.6.2 1.3.3 2.4 1.3 9.2 2.1 20.5 1.3 33.9-.3 8.7-1.4 18.4-3.5 28.9z"/><path class="st55" d="M667 864.5c0 .7-.4 1.3-.9 1.7-.5.4-1.1.7-1.8.6l-27.8-1.9c-1.4-.1-2.4-1.3-2.4-2.7 0-.7.4-1.3.9-1.7.5-.4 1.1-.7 1.8-.6l27.8 1.9c1.4.1 2.5 1.3 2.4 2.7z"/><linearGradient id="SVGID_18_" gradientUnits="userSpaceOnUse" x1="648.098" y1="937.136" x2="670.778" y2="937.136" gradientTransform="rotate(3.979 575.216 487.73) scale(1.00001)"><stop offset="0" stop-color="#c56746"/><stop offset="1" stop-color="#8677a7"/></linearGradient><path d="M644.8 864.2c-4.1 31.1-16.9 125.5-21.1 156.3-4.3-1.3-7.9-2.7-10.7-4.1-.5-10.7-.3-20.4.4-29.1 1.1-13.4 3.5-24.5 6-33.5.6-2 1.2-4 1.8-5.8 3.9-12 7.9-19.4 11.8-34.9 4.9-19.5 5.8-36.5 5.8-48.1v-1.3l6 .5z" opacity=".37" fill="url(#SVGID_18_)"/><path class="st55" d="M670.8 991.3c-18.9.3-45.9 0-57.3-3.9 1.1-13.4 3.5-24.5 6-33.5l49.9 3.5c1.4 9.2 2.1 20.5 1.4 33.9z"/><path class="st34" d="M667.2 1020.2c-5 1.5-11.9 3.2-20.3 3.4 2.5-14.5 4.2-26.8 5.2-35.7 2-17.3 3.4-29.7 3.1-45.5-.3-14.7-1.8-19.1-2.9-32-.9-11.1-1.3-26.1.8-44.4 0-.4.1-.8.1-1.3.1-1.2.3-2.5.5-3.8l10.9.8c1.4.1 2.4 1.3 2.4 2.7 0 .7-.4 1.3-.9 1.7-.5.4-1.1.7-1.8.6l-1.6-.1c-1.7 11.5-3.1 28.4-.9 48.4 1.7 15.9 4.6 23.8 6.8 36.2.3 1.9.4 2.6.6 3.6.1.6.2 1.3.3 2.4 1.3 9.2 2.1 20.5 1.3 33.9-.4 8.9-1.5 18.6-3.6 29.1z"/></g><g id="green"><path class="st49" d="M636.2 984.5c.9-2.3.1-4.3-2.4-4.9-.3-.1-.6-.1-.9-.1.3-1.9-.5-3.4-2.6-3.9-.4-.1-.9-.1-1.3-.1 1.4-3.5.1-6.1-3.1-6.2-2.5 0-4.4 2.7-5.8 6-.3-.2-.7-.4-1.2-.5-1.6-.5-3.4.4-5 1.9.3-3.6-1.6-5.7-4.6-4.9-1.3.4-2.3 1.5-3 3.1-.6-.4-1.4-.7-2.4-.7-.5 0-.9.1-1.3.3 2.6-3.2 2.2-6.3-1-7.2-1.8-.5-3.7.6-5.4 2.3-.4-.7-1.2-1.2-2.3-1.5-1.2-.3-2.5.1-3.8.9 1-4.5-1-7.3-4.4-6.4-1.9.5-3 2.5-3.6 5.1-.6-.9-1.6-1.5-3.1-1.5-1.7 0-3.1 1.2-4.3 3.1.9-6-1.8-9.3-5.4-7.5-1.8.9-2.4 3.1-2.5 5.8-.9-.2-1.9 0-2.7.6-.8-.8-1.9-1.1-3.3-.8-2.2.4-3.5 3-4.3 6.2-1-1.8-2.7-2.5-4.8-1.4-.6.3-1.1.8-1.5 1.3.4-4.3-1.6-6.8-4.6-5.9-1.8-3.9-4.8-4.9-7.1-2.3-1.4 1.7-.9 4.4.3 7.2-1.9-1.1-3.8-.6-4.9 1.5-.6 1.2-.5 2.7.2 4.2-.2.2-.4.5-.6.9-3 5.6 11.5 16.1 11.5 16.1 0-2.1-.2-4-.5-5.7.5.4.8.6.8.6 0-1.6-.1-3.1-.3-4.5 2.2 3.3 4.4 5.8 4.4 5.8.3-1.4.5-2.7.6-4 .6 2.7 1.2 4.7 1.2 4.7 1.7-2.5 3-4.8 4-7v.4c-2 4.6-3.1 9.8-3.1 9.8 4.7-2.2 8.1-4.7 10.3-7.1 2.6 4.1 5.9 7.7 5.9 7.7.6-2.9.8-5.6.7-7.9.4 1 .8 1.9 1.2 2.7 0 .4.1.6.1.6l.2-.2c.9 1.9 1.7 3.2 1.7 3.2.5-1.1.9-2.2 1.2-3.2.2-.1.3-.2.5-.3-.4.8-.6 1.4-.6 1.4 4.2-1 7.5-2.4 10-4-1.1 3.6-1.6 6.7-1.6 6.7 3.9-2 6.9-4.3 9-6.4-.9 3.2-1.3 5.7-1.3 5.7 2.2-1.1 4.1-2.3 5.7-3.5-.2.9-.3 1.5-.3 1.5 1.9-1 3.5-2 4.9-3.1-1.6 4.6-2.3 9.3-2.3 9.3.5-.3 1-.5 1.4-.8-.4.8-.6 1.4-.6 1.4 4.2-1 7.5-2.4 10-4-1.1 3.6-1.6 6.7-1.6 6.7 3-1.5 5.4-3.2 7.3-4.8-.6 2.3-.9 4-.9 4 4.2-2.1 7.2-4.5 9.3-6.8 1.6-.5 3.1-1 4.5-1.6-1.6 4.5-2.4 9.2-2.4 9.2 12.3-6.6 15.2-14.9 11.8-17.2z"/><path class="st27" d="M636.6 990.6c-.3 2-.7 3.9-1.2 5.7-.5 1.9-1.1 3.7-1.8 5.4-8 20.5-28.8 34.3-51.5 32.7h-.4c-22.5-1.7-40.9-18-46-39.2-.5-1.9-.8-3.8-1.1-5.7-.2-2-.4-4-.4-6l102.4 7.1z"/><path class="st10" d="M635.4 996.4c-.5 1.9-1.1 3.7-1.8 5.4-14.2 1.2-30.5 1.7-48.6.5-18.6-1.2-35.1-3.9-49.3-7.1-.5-1.9-.8-3.8-1.1-5.7 14.8 2.8 31.4 5.1 49.5 6.4 15.3 1 32.5 1.4 51.3.5z"/><path class="st34" d="M636.6 990.6c-.3 2-.7 3.9-1.2 5.7-.5 1.9-1.1 3.7-1.8 5.4-8 20.5-28.8 34.3-51.5 32.7h-.4c14.1-12.2 21.1-32.7 24.3-45.9l30.6 2.1z"/></g><g id="salt"><path class="st27" d="M481.7 1062.4l-22.7-1.6c.3-6 .7-13.8 1.4-22.8.5-6.8.9-11.5 1.4-15 .8-5.1 2-7.3 4.2-8.8 4.3-2.9 11.4-2.4 15.2 1.1 2.1 2 2.9 4.6 2.8 10.5v2.4c-.1 2.7-.3 6.1-.6 10.1-.4 7.1-1 15.1-1.7 24.1z"/><path d="M484 1026.8v-1c0-5.9-.7-8.5-2.8-10.5-3.8-3.5-10.9-4-15.2-1.1-2.2 1.5-3.3 3.6-4.2 8.8 2.9 1.1 6.1 2.2 9.7 3 .4.1.8.2 1.3.3 4 .9 7.8 1.5 11.1 1.8.1-.3.1-.8.1-1.3z" fill="#302c34"/><circle class="st58" cx="474.2" cy="1015.5" r=".6"/><circle class="st58" cx="479.1" cy="1018.4" r=".6"/><circle class="st58" cx="467.8" cy="1016.3" r=".6"/><path class="st34" d="M481.7 1062.4l-6.7-.5c-.7-11.8-1.5-23.7-2.2-35.5 4 .9 7.8 1.5 11.1 1.8-.1 2.7-.3 6.1-.6 10.1-.3 7.1-.9 15.1-1.6 24.1z"/></g></g></g></svg>