<svg xmlns="http://www.w3.org/2000/svg" width="1205.6" height="1223.6"><style>.st0{fill:#f4f9f9}.st1{fill:#f9e8e2}.st5{fill:#2b303e}.st6{fill:#31455a}.st7{fill:#e6e3f2}.st8{fill:#ebbb5c}.st11{fill:#6f3e43}.st15{fill:#c88f80}.st16{opacity:.25;fill:#2b303e}.st17{fill:#0e0f0f}.st20{fill:#bbd0db}.st21,.st22{opacity:9.000000e-02;fill:#2b303e}.st22{opacity:.12}.st25{opacity:.1;fill:#e6e3f2}.st29{opacity:.26;fill:#522d37}.st33{fill:#3d6658}</style><g id="background"><g id="general_1_"><g id="figures"><path class="st0" d="M1119.5 974.9c-7.2 8.6-14.8 14.6-19.1 17.6-6.5 4.7-14.2 9.2-22.7 13-1.1.5-2.2 1-3.3 1.4-8 3.4-16.4 6.1-25 7.8-16.9 3.5-34 3-47.9-4.1-3.2-1.6-6.2-3.6-9-6-3.5-2.9-6.5-6.3-9-10.1-.6-.9-1.2-1.9-1.8-2.8-10-16.8-11.9-39.3-7.7-57.6 3.2-14.1 9.5-23.9 18.5-32.9 11.1-11.2 26.2-21.3 44.5-37.1 9.1-7.9 18.9-17.2 29.4-28.7 48.8-53.6 49.7-87.6 64-85.3 30.6 4.8 42.4 161.1-10.9 224.8zM713.2 613.7c-.2.6-.4 1.1-.6 1.7-.1.3-.2.5-.2.7 0 .1 0 .1-.1.2 0 .1-.1.2-.1.3 0 .1-.1.2-.1.3-9.7 26-21.2 51.5-34.8 76.2-.4.7-.8 1.5-1.2 2.2-2.3 4.2-4.8 8.4-7.2 12.6-5.1 8.7-10.5 17.1-16 25.3l-1.7 2.5c-59.1 87.1-133.4 145.3-140 150.2-8.6 6.3-17.6 12.5-17.6 12.5-6.3 4.2-15.5 10.5-27.1 17.7-31 19.2-78.9 45.4-132.1 58.4-14.6 3.6-29.6 6.2-44.7 7.3-13.7 1.1-27.5 1-41.2-.5l-3-.4c-18.9-2.4-37.6-7.5-55.8-16.2-5.1-2.5-9.9-5-14.5-7.8 0 0-23.5-14-44.7-37.5-81-89.7-83.7-198.7-83.7-198.7s-.3-12.4 2.5-32.9c.3-2.6.8-5.3 1.2-8.1 6.5-39.9 24.1-103.4 72-165.6 1.5-1.9 3-3.9 4.6-5.8 1.6-2.1 3.4-4.1 3.4-4.1 15.6-18.6 30.5-30.8 44.7-40 39.8-26.2 74.8-29 106.3-83.5 3.1-5.3 5.8-10.5 8.1-15.7 37.1-80.8-11.3-136.9 35.8-228.8 2.7-5.3 5.7-10.6 9-16 6.5-10.6 14-21.3 22.6-31.6.6-.8 1.3-1.6 2-2.4 19.4-23 43.5-44.1 71.2-59.2 1-.5 1.9-1 2.9-1.5 10.7-5.6 21.8-10.3 33.4-13.8 13-4 26.6-6.6 40.7-7.4 1.3-.1 2.7-.2 4-.2 45-1.6 84.7 15.6 117.1 38.4 14.3 10 25.4 19.7 33.8 27.6.8.8 5.7 5.4 11 11 5.6 5.9 26.2 27.7 43 57.9 4.7 8.5 12.2 23.2 19.3 45 .3 1 .6 2 .9 2.9 1.6 5.3 3.2 10.9 4.8 17 36.4 144.2-8.9 357.9-27.9 409.8z"/><path class="st0" d="M1169.1 536.3c-.1.3-.1.7-.2 1-5.5 32.8-14.2 63.4-24.4 91.4-28.8 79.3-69.8 136.6-86.7 158.7-13.8 18.2-29 35.8-45.4 52.5-14.1 14.4-29 28.2-44.7 41.3-35 29.1-73.7 54.2-114.6 73.7-14.6 7-29.6 13.2-44.7 18.6-9.1 3.2-18.3 6.2-27.5 8.8-1.7.5-3.4 1-5.1 1.4-33.7 9.2-68.2 14.1-102.9 14-6.7 0-13.4-.2-20-.7-1-.1-2.2-.1-3.4-.2-1-.1-2-.1-3.1-.2-5-.4-11.2-.9-18.2-1.6-33.2-3.7-82.8-13.8-93-43.7-11.6-33.9 35.9-68 93-129.2 3.7-4 7.4-8 11.2-12.2 1-1.1 1.9-2.2 2.9-3.2 10.1-11.4 20.4-23.7 30.7-37.1 8.1-10.5 16-21.6 23.9-33.5 53.5-81 76.6-161.6 87.4-214.4.4-1.8.7-3.6 1.1-5.3 3.1-15.8 5.1-28.9 6.5-38.3C822 270.8 729.5 144 801.5 79.3c2.2-2 4.6-3.9 6.9-5.6 14.2-10.4 30.1-15.7 44.7-18.4 17-3.1 32.4-2.5 41.6-2.2 25.5.9 49.9 7.9 73 19.5 15.6 7.8 30.5 17.8 44.7 29.4 58.1 47.4 104.4 122.6 132.1 195.2 7.5 19.7 13.6 39.3 18.3 58 16 64.6 15.5 125.9 6.3 181.1zm-870.4-433c-.7 1.3-1.5 2.6-2.2 3.9-8.3 14.8-18.1 32.9-29.1 55.1-1.8 5.5-7.7 23.7-11.1 46.2-8.3 55.5 8.1 73.9 2.4 109.1-1.4 8.6-3.8 16.4-7.2 23.7-.5 1.1-1 2.1-1.5 3.1-9.2 18-24.2 33.7-43.6 54-3.6 3.8-11.2 11.7-21.4 21.4-.9.9-1.8 1.8-2.8 2.7-22.4 21.1-55.7 49.3-87.3 63-1.3.6-2.7 1.1-4 1.7-18.2 7.2-35.6 9.2-49.8 1.9-6.2-3.2-11.9-8.2-16.8-14.6-.6-.8-1.3-1.7-1.9-2.6-17.2-24.7-25.1-67-20.7-107.2.2-1.6.4-3.1.5-4.6 3.6-27.6 13.1-53.8 29.2-72l.2-.2c1.4-1.2 2.8-2.5 4.2-3.7 62.4-55.2 80.2-93.7 84-119.4.8-5.6 2.5-20.2 10.5-37.6 2.4-5.2 12.2-27.7 44.7-52.6C210.7 47.3 257 30 289.6 27c11.1-1 20.6-.4 27.6 2.1 1.2.4 2.3.9 3.4 1.5 2.4 1.2 4.3 2.8 5.7 4.6 8 10.1-3 24.6-27.6 68.1zM96 167.8c-10.7 21.7-35.5 46.1-55.9 40.9-12.7-3.2-22.7-17.7-27.5-35.9-.3-1.2-.6-2.4-.8-3.6-3.8-17.6-2.7-38.2 5.8-55.1 8.8-17.7 26.7-33.6 43.8-38.7 1-.3 2.1-.6 3.1-.8 6.2-1.4 12.2-1.2 17.5.9 9.2 3.6 15.7 12.7 19.5 24.5.4 1.1.7 2.2 1 3.4 5.1 19.3 3.2 44.7-6.5 64.4zm1093.3 61.1c-.6 1.2-1.3 2.3-1.9 3.4-5 8.5-10.4 13.8-15.7 14.9-15.6 3-23.8-32.5-69.2-90.4-.6-.8-1.2-1.6-1.9-2.4-6.2-7.8-13-16-20.6-24.5-20-22.4-37.6-38.7-51.9-51-1.6-1.4-3.2-2.8-4.8-4.1-24.2-20.6-37.5-29.6-34.2-40.1 1.7-5.5 7.5-10.5 16.2-14.6 1.3-.6 2.6-1.2 4-1.8C1037.7 6.7 1090 4 1133 23.7c1.3.6 2.6 1.2 4 1.9 11.4 5.7 22 13 31.2 22.2 19.4 19.4 30.1 44.7 34.7 70.6.2 1.4.5 2.7.7 4.1 6.1 41-2.2 83.1-14.3 106.4z"/></g><path class="st1" d="M102.9 286.7c-.4 0-.8-.1-1-.4-.6-.6-.6-1.5 0-2.1l12.4-12.8c.6-.6 1.5-.6 2.1 0 .6.6.6 1.5 0 2.1L104 286.3c-.3.3-.7.4-1.1.4zm-28 71.2c-.2 0-.4 0-.6-.1-.8-.3-1.1-1.2-.8-2l7.2-16.3c.3-.8 1.2-1.1 2-.8.8.3 1.1 1.2.8 2L76.3 357c-.3.6-.8.9-1.4.9zm15.9 129.2l6.5-14.7c.3-.8 1.2-1.1 2-.8.8.3 1.1 1.2.8 2l-5.2 11.9-4.1 1.6zm-42.3-68.9c-.7 0-1.3-.5-1.5-1.2-.2-.8.3-1.6 1.1-1.8l17.4-3.8c.8-.2 1.6.3 1.8 1.1.2.8-.3 1.6-1.1 1.8l-17.4 3.8c0 .1-.2.1-.3.1zM41 286.5l-9.3 1.4c1.4-1.2 2.8-2.5 4.2-3.7l4.7-.7c.8-.1 1.6.4 1.7 1.2 0 .9-.5 1.6-1.3 1.8zm132.4-31.4c-.8 0-1.5-.6-1.5-1.4l-.8-17.8c0-.8.6-1.5 1.4-1.6.8 0 1.5.6 1.6 1.4l.8 17.8c0 .9-.6 1.6-1.5 1.6zm-5.1 94c-.5 0-1-.2-1.3-.7l-9.8-14.9c-.5-.7-.3-1.6.4-2.1s1.6-.3 2.1.4l9.8 14.9c.5.7.3 1.6-.4 2.1-.3.2-.6.3-.8.3zm83.2-7.8c-.5 1.1-1 2.1-1.5 3.1l-4.5-6.9c-.5-.7-.3-1.6.4-2.1.7-.4 1.6-.3 2.1.4l3.5 5.5zM28.5 468l-4.2 6.4c-.6-.8-1.3-1.7-1.9-2.6l3.6-5.5c.5-.7 1.4-.9 2.1-.4.7.4.9 1.4.4 2.1zM8 371.6c-.3.2-.5.2-.8.2-.5 0-1-.2-1.3-.7l-4.2-6.5c.2-1.6.4-3.1.5-4.6l6.2 9.5c.5.8.3 1.7-.4 2.1zm143.7-204.8c-.4 0-.7-.1-1-.4-.6-.6-.7-1.5-.1-2.1l11.9-13.3c.6-.6 1.5-.7 2.1-.1.6.6.7 1.5.1 2.1l-11.9 13.3c-.2.3-.7.5-1.1.5zm-49.2-63.5l-8 9c-.3.3-.7.5-1.1.5-.3 0-.7-.1-1-.4-.6-.5-.7-1.5-.1-2.1l9.2-10.3c.3 1 .7 2.1 1 3.3zm-85.7 64.8l-4.1 4.6c-.3-1.2-.6-2.4-.8-3.6l2.7-3c.5-.6 1.5-.7 2.1-.1s.6 1.5.1 2.1zM54.5 182c-.8 0-1.4-.6-1.5-1.4-.1-.8.6-1.5 1.4-1.6l17.8-1.1c.8-.1 1.5.6 1.6 1.4.1.8-.6 1.5-1.4 1.6L54.5 182c.1 0 0 0 0 0zm181.4-39c-.8 0-1.4-.6-1.5-1.3l-2-17.7c-.1-.8.5-1.6 1.3-1.7.8-.1 1.6.5 1.7 1.3l2 17.7c.1.8-.5 1.6-1.3 1.7h-.2zm-14.4 71.7c-.4 0-.8-.2-1.1-.5-.5-.6-.5-1.6.2-2.1l13.6-11.6c.6-.5 1.6-.5 2.1.2.5.6.5 1.6-.2 2.1l-13.6 11.6c-.3.2-.7.3-1 .3zM36.7 131.1c-.4 0-.8-.2-1.1-.5-.5-.6-.5-1.6.2-2.1l13.6-11.6c.6-.5 1.6-.5 2.1.2.5.6.5 1.6-.2 2.1l-13.6 11.6c-.3.1-.6.3-1 .3zm170.7 167.4c-.4 0-.8-.2-1.1-.5-.6-.6-.6-1.5 0-2.1l12.9-12.3c.6-.6 1.5-.6 2.1 0 .6.6.6 1.5 0 2.1L208.5 298c-.3.3-.7.5-1.1.5zM185 419.8c-.9.9-1.8 1.8-2.8 2.7l-1.1-13.8c-.1-.8.6-1.6 1.4-1.6.8-.1 1.5.6 1.6 1.4l.9 11.3zm-2.9-333.2c-.5 0-.9-.2-1.2-.6-.5-.7-.3-1.6.3-2.1l14.4-10.5c.7-.5 1.6-.3 2.1.3.5.7.3 1.6-.3 2.1L183 86.3c-.3.2-.6.3-.9.3zm74.8-19.2h-.2c-.8-.1-1.4-.9-1.3-1.7l2.2-17.7c.1-.8.9-1.4 1.7-1.3.8.1 1.4.9 1.3 1.7l-2.2 17.7c-.1.8-.7 1.3-1.5 1.3zM64.5 74.5l-.7 5.5c-.1.8-.7 1.3-1.5 1.3h-.2c-.8-.1-1.4-.9-1.3-1.7l.5-4.3c1.1-.2 2.1-.5 3.2-.8zm256.1-43.9l-8.7 5.1c-.2.1-.5.2-.8.2-.5 0-1-.3-1.3-.7-.4-.7-.2-1.6.5-2.1l6.8-4c1.4.4 2.5.9 3.5 1.5zm-21.9 72.7c-.7 1.3-1.5 2.6-2.2 3.9l-12.6 8.5c-.3.2-.5.2-.8.2-.5 0-1-.2-1.2-.7-.5-.7-.3-1.6.4-2.1l14.8-10c.5-.2 1.1-.1 1.6.2zm200.2 65c-.4 0-.8-.1-1-.4-.6-.6-.6-1.5 0-2.1l12.5-12.8c.6-.6 1.5-.6 2.1 0 .6.6.6 1.5 0 2.1L500 167.9c-.3.3-.7.4-1.1.4zm33.4-67.6c-.2 0-.4 0-.6-.1-.8-.3-1.1-1.2-.8-2l7.2-16.3c.3-.8 1.2-1.1 2-.8.8.3 1.1 1.2.8 2l-7.2 16.3c-.2.6-.8.9-1.4.9zm16.3-72.8c-.7 0-1.3-.5-1.5-1.2-.2-.8.3-1.6 1.1-1.8l17.4-3.8c.8-.2 1.6.3 1.8 1.1.2.8-.3 1.6-1.1 1.8l-17.4 3.8c-.1.1-.2.1-.3.1zm25 128c-.7 0-1.4-.5-1.5-1.3-.1-.8.4-1.6 1.3-1.7l17.6-2.7c.8-.1 1.6.4 1.7 1.3s-.4 1.6-1.3 1.7l-17.6 2.7h-.2zm-132 49c-.8 0-1.5-.6-1.5-1.4l-.8-17.8c0-.8.6-1.5 1.4-1.6.8 0 1.5.6 1.6 1.4l.8 17.8c.1.8-.6 1.5-1.5 1.6.1 0 .1 0 0 0zM335.7 196c-.8 0-1.5-.6-1.5-1.4l-.8-17.8c0-.8.6-1.5 1.4-1.6.8 0 1.5.6 1.6 1.4l.8 17.8c0 .8-.6 1.5-1.5 1.6.1 0 0 0 0 0zm120.2-88c-.5 0-1-.2-1.3-.7l-9.7-14.9c-.5-.7-.3-1.6.4-2.1s1.6-.3 2.1.4l9.7 14.9c.5.7.3 1.6-.4 2.1-.2.3-.5.3-.8.3zm-87.4-4.4c-.3.2-.5.2-.8.2-.5 0-1-.2-1.3-.7L357 88.6c.7-.8 1.3-1.6 2-2.4.1.1.2.2.2.3l9.7 15c.5.7.3 1.6-.4 2.1zm248.6-18.1c-.5 0-1-.2-1.3-.7l-9.7-14.9c-.5-.7-.3-1.6.4-2.1s1.6-.3 2.1.4l9.7 14.9c.5.7.3 1.6-.4 2.1-.3.3-.6.3-.8.3zM450.4 288.7c-.4 0-.7-.1-1-.4-.6-.6-.7-1.5-.1-2.1l11.9-13.3c.6-.6 1.5-.7 2.1-.1.6.6.7 1.5.1 2.1l-11.9 13.3c-.3.3-.7.5-1.1.5zm58.3 54.2c-.4 0-.7-.1-1-.4-.6-.6-.7-1.5-.1-2.1l11.9-13.3c.6-.6 1.5-.7 2.1-.1.6.6.7 1.5.1 2.1l-11.9 13.3c-.3.3-.7.5-1.1.5zm89.7-69.1c-.4 0-.7-.1-1-.4-.6-.6-.7-1.5-.1-2.1l11.9-13.3c.6-.6 1.5-.7 2.1-.1.6.6.7 1.5.1 2.1l-11.9 13.3c-.3.4-.7.5-1.1.5zm-56.6-12.3c-.8 0-1.4-.6-1.5-1.4-.1-.8.6-1.5 1.4-1.6l17.8-1.1c.8 0 1.5.6 1.6 1.4.1.8-.6 1.5-1.4 1.6l-17.9 1.1zm23.3-46.4c-.3 0-.6-.1-.9-.3-.7-.5-.8-1.4-.3-2.1l10.7-14.2c.5-.7 1.4-.8 2.1-.3.7.5.8 1.4.3 2.1l-10.7 14.2c-.3.4-.8.6-1.2.6zm-185 101.6c-.8 0-1.4-.6-1.5-1.3l-1.9-17.7c-.1-.8.5-1.6 1.3-1.7.8-.1 1.6.5 1.7 1.3l1.9 17.7c.1.8-.5 1.6-1.3 1.7h-.2zm-52.6-46.3c-.8 0-1.4-.6-1.5-1.3l-1.9-17.7c-.1-.8.5-1.6 1.3-1.7.8-.1 1.6.5 1.7 1.3l1.9 17.7c.1.8-.5 1.6-1.3 1.7h-.2zm51.6-31.6c-.4 0-.8-.2-1.1-.5-.5-.6-.5-1.6.2-2.1l13.6-11.5c.6-.5 1.6-.5 2.1.2.5.6.5 1.6-.2 2.1L380 238.5c-.3.2-.6.3-.9.3zm184.6 84.1c-.4 0-.8-.2-1.1-.5-.5-.6-.5-1.6.2-2.1l13.6-11.5c.6-.5 1.6-.5 2.1.2.5.6.5 1.6-.2 2.1l-13.6 11.5c-.4.2-.7.3-1 .3zM394 155.9c-.4 0-.8-.2-1.1-.5-.6-.6-.5-1.5 0-2.1l12.9-12.3c.6-.6 1.5-.6 2.1 0 .6.6.5 1.5 0 2.1L395 155.5c-.3.3-.6.4-1 .4zm39.4-125.4c.1.8-.6 1.5-1.4 1.6h-.1c-.8 0-1.4-.6-1.5-1.4l-.3-3.6c1-.5 1.9-1 2.9-1.5l.4 4.9zm-16 335.5c-.5 0-.9-.2-1.2-.6-.5-.7-.3-1.6.3-2.1l14.5-10.4c.7-.5 1.6-.3 2.1.3.5.7.3 1.6-.3 2.1l-14.5 10.4c-.3.2-.6.3-.9.3zm-62.7 26.2h-.2c-.8-.1-1.4-.9-1.3-1.7l2.3-17.7c.1-.8.9-1.4 1.7-1.3.8.1 1.4.9 1.3 1.7l-2.3 17.7c-.1.8-.8 1.3-1.5 1.3zm194.6-13.5h-.2c-.8-.1-1.4-.9-1.3-1.7l2.3-17.7c.1-.8.9-1.4 1.7-1.3.8.1 1.4.9 1.3 1.7l-2.3 17.7c-.1.8-.7 1.3-1.5 1.3zm77.6 8.6c-.2 0-.4 0-.6-.1l-16.4-7.1c-.8-.3-1.1-1.2-.8-2 .3-.8 1.2-1.1 2-.8l16.4 7.1c.8.3 1.1 1.2.8 2-.3.5-.8.9-1.4.9zm78.6-131.8c-.4 0-.7-.1-1-.4-.6-.6-.7-1.5-.1-2.1l11.9-13.3c.6-.6 1.5-.7 2.1-.1.6.6.7 1.5.1 2.1L706.6 255c-.3.4-.7.5-1.1.5zm-57.9-28.9c-.8 0-1.4-.6-1.5-1.4-.1-.8.6-1.5 1.4-1.6l17.8-1.1c.8-.1 1.5.6 1.6 1.4s-.6 1.5-1.4 1.6l-17.9 1.1c.1 0 0 0 0 0zm88.6-39.6l-9.9.6h-.1c-.8 0-1.4-.6-1.5-1.4 0-.8.6-1.5 1.4-1.6l9.1-.5c.4.9.7 1.9 1 2.9zm-61.1-23.6c-.3 0-.6-.1-.9-.3-.7-.5-.8-1.4-.3-2.1l10.7-14.2c.5-.7 1.4-.8 2.1-.3.7.5.8 1.4.3 2.1l-10.7 14.2c-.3.4-.7.6-1.2.6zm-12.3 153.4c-.4 0-.8-.2-1.1-.5-.5-.6-.5-1.6.2-2.1l13.6-11.5c.6-.5 1.6-.5 2.1.2.5.6.5 1.6-.2 2.1l-13.6 11.5c-.3.2-.7.3-1 .3zM636.4 480h-.2c-.8-.1-1.4-.9-1.3-1.7l2.3-17.7c.1-.8.8-1.4 1.7-1.3.8.1 1.4.9 1.3 1.7l-2.3 17.7c-.2.7-.8 1.3-1.5 1.3zm-349.2-65c-.5 0-1-.3-1.3-.7-.4-.7-.2-1.6.5-2.1l15.4-9c.7-.4 1.6-.2 2.1.5.4.7.2 1.6-.5 2.1l-15.4 9c-.3.1-.6.2-.8.2zm28.9-79.2c-.5 0-1-.2-1.2-.7-.5-.7-.3-1.6.4-2.1l14.8-9.9c.7-.5 1.6-.3 2.1.4s.3 1.6-.4 2.1l-14.8 9.9c-.3.3-.6.3-.9.3zM171.8 650.1c-.6 0-1.1-.3-1.4-.9-.4-.7 0-1.6.7-2l16.1-7.7c.8-.4 1.6 0 2 .7.4.7 0 1.6-.7 2l-16.1 7.7c-.2.2-.4.2-.6.2zm-51.1 57c-.4 0-.8-.1-1-.4-.6-.6-.6-1.5 0-2.1l12.4-12.8c.6-.6 1.5-.6 2.1 0 .6.6.6 1.5 0 2.1l-12.4 12.8c-.3.2-.7.4-1.1.4zm-28 49.9h-.2l-17.7-2.5c-.8-.1-1.4-.9-1.3-1.7s.9-1.4 1.7-1.3l17.7 2.5c.8.1 1.4.9 1.3 1.7-.1.7-.8 1.3-1.5 1.3zm20.9-128.8h-.3l-17.5-3.6c-.8-.2-1.3-1-1.2-1.8s1-1.3 1.8-1.2l17.5 3.6c.8.2 1.3 1 1.2 1.8-.2.7-.8 1.2-1.5 1.2zM248.9 645c-.2 0-.3 0-.5-.1-.8-.3-1.2-1.1-1-1.9l5.4-17c.3-.8 1.1-1.2 1.9-1 .8.3 1.2 1.1 1 1.9l-5.4 17c-.2.7-.8 1.1-1.4 1.1zm-37.6 86.3c-.7 0-1.3-.5-1.5-1.2l-4-17.4c-.2-.8.3-1.6 1.1-1.8.8-.2 1.6.3 1.8 1.1l4 17.4c.2.8-.3 1.6-1.1 1.8 0 .1-.2.1-.3.1zm81.3 34.5c-.7 0-1.3-.5-1.5-1.2l-4-17.4c-.2-.8.3-1.6 1.1-1.8.8-.2 1.6.3 1.8 1.1l4 17.4c.2.8-.3 1.6-1.1 1.8 0 .1-.1.1-.3.1zm-191.9 78.7c-.7 0-1.3-.5-1.5-1.2l-4-17.4c-.2-.8.3-1.6 1.1-1.8.8-.2 1.6.3 1.8 1.1l4 17.4c.2.8-.3 1.6-1.1 1.8-.1.1-.2.1-.3.1zm-48-147.9h-.3c-.7 0-1.3-.5-1.5-1.2l-1.8-7.8c.3-2.6.8-5.3 1.2-8.1l3.5 15.3c.2.8-.3 1.6-1.1 1.8zm206.6-141.9c-.5 0-1.1-.3-1.3-.8-.4-.7-.1-1.6.6-2l15.8-8.4c.7-.4 1.6-.1 2 .6.4.7.1 1.6-.6 2l-15.8 8.4c-.2.2-.4.2-.7.2zm-35.8-71c-.5 0-1.1-.3-1.3-.8-.4-.7-.1-1.6.6-2l15.8-8.4c.7-.4 1.6-.1 2 .6.4.7.1 1.6-.6 2l-15.8 8.4c-.2.1-.5.2-.7.2zm-91.7 25.2l-9.5 5c1.5-1.9 3-3.9 4.6-5.8l3.5-1.8c.7-.4 1.6-.1 2 .6.5.7.2 1.6-.6 2zm48.2 31.3c-.1 0-.3 0-.4-.1l-17.1-5.2c-.8-.2-1.2-1.1-1-1.9.2-.8 1.1-1.2 1.9-1l17.1 5.2c.8.2 1.2 1.1 1 1.9-.3.7-.8 1.1-1.5 1.1zm166.5 21.5h-.4c-.8-.2-1.3-1-1.1-1.8l4.3-17.3c.2-.8 1-1.3 1.8-1.1.8.2 1.3 1 1.1 1.8l-4.3 17.3c-.1.7-.7 1.1-1.4 1.1zM308 623.9c-.6 0-1.2-.4-1.4-1-.3-.8.1-1.6.9-1.9l16.8-6.1c.8-.3 1.6.1 1.9.9.3.8-.1 1.6-.9 1.9l-16.8 6.1c-.1.1-.3.1-.5.1zM164 481.1c-.6 0-1.2-.4-1.4-1-.3-.8.1-1.6.9-1.9l16.8-6.1c.8-.3 1.6.1 1.9.9.3.8-.1 1.6-.9 1.9l-16.8 6.1c-.2.1-.4.1-.5.1zm101.7 216.4c-.6 0-1.1-.3-1.4-.9-.3-.8 0-1.6.8-2l16.4-7.1c.8-.3 1.6 0 2 .8.3.8 0 1.6-.8 2l-16.4 7.1c-.2.1-.4.1-.6.1zm-67.1 113.1c-.1 0-.3 0-.4-.1-.8-.2-1.3-1.1-1-1.9l4.9-17.1c.2-.8 1.1-1.3 1.9-1 .8.2 1.3 1.1 1 1.9l-4.9 17.1c-.2.7-.8 1.1-1.5 1.1zm117.1-320.5c-.7 0-1.3-.4-1.4-1.1-.2-.8.2-1.6 1-1.8l17.2-4.8c.8-.2 1.6.2 1.8 1 .2.8-.2 1.6-1 1.8l-17.2 4.8c-.1.1-.2.1-.4.1zm76.8 8.1c-.2 0-.5-.1-.7-.2-.7-.4-1-1.3-.6-2l8.3-15.8c.4-.7 1.3-1 2-.6s1 1.3.6 2l-8.3 15.8c-.2.5-.7.8-1.3.8zm70.7-44.4c-.7 0-1.3-.5-1.5-1.2-.1-.8.4-1.6 1.2-1.7l17.6-3.1c.8-.1 1.6.4 1.7 1.2.1.8-.4 1.6-1.2 1.7l-17.6 3.1h-.2zm-63.1 99.1c-.7 0-1.3-.5-1.5-1.1-.2-.8.3-1.6 1.1-1.8l17.3-4.2c.8-.2 1.6.3 1.8 1.1.2.8-.3 1.6-1.1 1.8l-17.3 4.2c0-.1-.2 0-.3 0zm184.2 124.2c-.6 0-1.1-.3-1.4-.9-.4-.7 0-1.6.7-2l16.1-7.6c.7-.4 1.6 0 2 .7.4.7 0 1.6-.7 2l-16.1 7.6c-.2.2-.4.2-.6.2zm54.8-51.7c-.4 0-.8-.1-1-.4-.6-.6-.6-1.5 0-2.1l12.5-12.8c.6-.6 1.5-.6 2.1 0s.6 1.5 0 2.1L640.2 625c-.3.2-.7.4-1.1.4zm58.3-60h-.2l-17.7-2.5c-.8-.1-1.4-.9-1.3-1.7s.9-1.4 1.7-1.3l17.7 2.5c.8.1 1.4.9 1.3 1.7-.2.7-.8 1.3-1.5 1.3zM677.3 693c-.4.7-.8 1.5-1.2 2.2h-.4l-17.5-3.7c-.8-.2-1.3-1-1.2-1.8.2-.8 1-1.3 1.8-1.2l17.5 3.7c.4.1.8.4 1 .8zm-159.5-1.6c-.2 0-.3 0-.5-.1-.8-.3-1.2-1.1-1-1.9l5.5-17c.3-.8 1.1-1.2 1.9-1 .8.3 1.2 1.1 1 1.9l-5.5 17c-.2.7-.7 1.1-1.4 1.1zm-96.2-45.2c-.2 0-.3 0-.5-.1-.8-.3-1.2-1.1-1-1.9l5.5-17c.3-.8 1.1-1.2 1.9-1 .8.3 1.2 1.1 1 1.9l-5.5 17c-.1.6-.7 1.1-1.4 1.1zm143.3-40.6c-.7 0-1.3-.5-1.5-1.2l-3.9-17.4c-.2-.8.3-1.6 1.1-1.8.8-.2 1.6.3 1.8 1.1l3.9 17.4c.2.8-.3 1.6-1.1 1.8-.1.1-.2.1-.3.1zm-79.3-65.8c-.7 0-1.3-.5-1.5-1.2l-3.9-17.4c-.2-.8.3-1.6 1.1-1.8.8-.2 1.6.3 1.8 1.1l3.9 17.4c.2.8-.3 1.6-1.1 1.8 0 .1-.1.1-.3.1zM496.9 773c-.5 0-1.1-.3-1.3-.8-.4-.7-.1-1.6.6-2l15.8-8.3c.7-.4 1.6-.1 2 .6.4.7.1 1.6-.6 2l-15.8 8.3c-.3.2-.5.2-.7.2zm35.7 71.1c-.5 0-1.1-.3-1.3-.8-.4-.7-.1-1.6.6-2l15.8-8.3c.7-.4 1.6-.1 2 .6.4.7.1 1.6-.6 2l-15.8 8.3c-.3.2-.5.2-.7.2zm124.6-41.9l-15.8 8.3c-.2.1-.5.2-.7.2-.5 0-1-.3-1.3-.8 1-1.1 1.9-2.2 2.9-3.2l13.5-7.1c.7-.4 1.6-.1 2 .6.4.7.2 1.6-.6 2zm-236.1-27.4h-.4c-.8-.2-1.3-1-1.1-1.8l4.4-17.3c.2-.8 1-1.3 1.8-1.1.8.2 1.3 1 1.1 1.8l-4.4 17.3c-.1.7-.7 1.1-1.4 1.1zM388 713.1h-.4c-.8-.2-1.3-1-1.1-1.8l4.4-17.3c.2-.8 1-1.3 1.8-1.1.8.2 1.3 1 1.1 1.8l-4.4 17.3c-.1.6-.7 1.1-1.4 1.1zm59.3-11.6c-.6 0-1.2-.4-1.4-1-.3-.8.1-1.6.9-1.9l16.8-6.1c.8-.3 1.6.1 1.9.9.3.8-.1 1.6-.9 1.9l-16.8 6.1c-.1 0-.3.1-.5.1zm42.9-72.6c-.6 0-1.1-.3-1.4-.9-.3-.8 0-1.6.8-2l16.4-7c.8-.3 1.6 0 2 .8.3.8 0 1.6-.8 2l-16.4 7.1h-.6zm78.7-102.8c-.1 0-.3 0-.4-.1-.8-.2-1.3-1.1-1-1.9l5-17.1c.2-.8 1.1-1.3 1.9-1 .8.2 1.3 1.1 1 1.9l-5 17.1c-.2.6-.8 1.1-1.5 1.1zM438.9 834c-.7 0-1.3-.4-1.4-1.1-.2-.8.2-1.6 1-1.8l17.2-4.7c.8-.2 1.6.2 1.8 1 .2.8-.2 1.6-1 1.8l-17.2 4.7c-.1.1-.2.1-.4.1zm-67.9 2.7c-.2 0-.5-.1-.7-.2-.7-.4-1-1.3-.6-2l8.3-15.8c.4-.7 1.3-1 2-.6s1 1.3.6 2l-8.3 15.8c-.2.5-.7.8-1.3.8zm-71.2-2.1c-.7 0-1.3-.5-1.5-1.2-.1-.8.4-1.6 1.2-1.7l17.6-3.1c.8-.1 1.6.4 1.7 1.2.1.8-.4 1.6-1.2 1.7l-17.6 3.1c0-.1-.1 0-.2 0zm54.7-64.2c-.7 0-1.3-.5-1.5-1.2-.2-.8.3-1.6 1.1-1.8l17.4-4.1c.8-.2 1.6.3 1.8 1.1s-.3 1.6-1.1 1.8l-17.4 4.1c-.1.1-.2.1-.3.1zM245.4 980.7l2.3-7c.3-.8 1.1-1.2 1.9-1 .8.2 1.2 1.1 1 1.9l-2.1 6.5-3.1-.4zm8.7-78.4c-.5 0-1.1-.3-1.3-.8-.4-.7-.1-1.6.6-2l15.8-8.4c.7-.4 1.6-.1 2 .6.4.7.1 1.6-.6 2l-15.8 8.4c-.2.2-.4.2-.7.2zm-79.3-14.5c-.1 0-.3 0-.4-.1l-17.1-5.2c-.8-.2-1.2-1.1-1-1.9.2-.8 1.1-1.2 1.9-1l17.1 5.2c.8.2 1.2 1.1 1 1.9-.3.7-.9 1.1-1.5 1.1zm166.5 21.5h-.4c-.8-.2-1.3-1-1.1-1.8l4.3-17.3c.2-.8 1-1.3 1.8-1.1.8.2 1.3 1 1.1 1.8l-4.3 17.3c-.1.7-.8 1.1-1.4 1.1zm-38.5 62.2c-.6 0-1.2-.4-1.4-1-.3-.8.1-1.6.9-1.9l16.8-6.1c.8-.3 1.6.1 1.9.9.3.8-.1 1.6-.9 1.9l-16.8 6.1c-.2.1-.3.1-.5.1zm92.1-71c-.7 0-1.3-.5-1.5-1.1-.2-.8.3-1.6 1.1-1.8l17.3-4.2c.8-.2 1.6.3 1.8 1.1s-.3 1.6-1.1 1.8l-17.3 4.2c-.1-.1-.2 0-.3 0zm258 86.3l-3.3 10c-1-.1-2-.1-3.1-.2l3.6-10.8c.3-.8 1.1-1.2 1.9-.9.7.2 1.1 1.1.9 1.9zm352.8-843.5c-.2 0-.4 0-.6-.1l-16.2-7.4c-.8-.3-1.1-1.2-.7-2 .3-.8 1.2-1.1 2-.7l16.2 7.4c.8.3 1.1 1.2.7 2-.3.4-.8.8-1.4.8zm-97.5-54.8c-.8 0-1.4-.6-1.5-1.3-.1-.8.5-1.6 1.3-1.7l17.7-1.9c.8-.1 1.6.5 1.7 1.3.1.8-.5 1.6-1.3 1.7l-17.7 1.9c-.1-.1-.2 0-.2 0zm-43.9 76.6c-.8 0-1.4-.6-1.5-1.3-.1-.8.5-1.6 1.3-1.7l17.7-1.9c.8-.1 1.6.5 1.7 1.3s-.5 1.6-1.3 1.7l-17.7 1.9h-.2zM575 947.5c-.8 0-1.4-.6-1.5-1.3-.1-.8.5-1.6 1.3-1.7l17.7-1.9c.8-.1 1.6.5 1.7 1.3.1.8-.5 1.6-1.3 1.7l-17.7 1.9h-.2zm533.6-797.9l-6.2 7.2c-.6-.8-1.2-1.6-1.9-2.4l5.8-6.8c.5-.6 1.5-.7 2.1-.2.7.6.8 1.6.2 2.2zm50.5-3.4c-.6 0-1.2-.4-1.4-1l-6.4-16.6c-.3-.8.1-1.6.9-1.9.8-.3 1.6.1 1.9.9l6.4 16.6c.3.8-.1 1.6-.9 1.9-.1.1-.3.1-.5.1zM1028 78.9c-1.6-1.4-3.2-2.8-4.8-4.1l-4.1-10.6c-.3-.8.1-1.6.9-1.9.8-.3 1.6.1 1.9.9l6.1 15.7zm161.3 150c-.6 1.2-1.3 2.3-1.9 3.4l-6-15.6c-.3-.8.1-1.6.8-1.9.8-.3 1.7.1 1.9.9l5.2 13.2zm-50.4-194.1c-.2.1-.4.1-.5.1-.6 0-1.2-.4-1.4-1l-4-10.3c1.3.6 2.6 1.2 4 1.9l2.8 7.3c.2.9-.1 1.7-.9 2zm-37.3 45c-.2 0-.4 0-.6-.1-.8-.3-1.1-1.2-.8-2l7.1-16.4c.3-.8 1.2-1.1 2-.8.8.3 1.1 1.2.8 2l-7.1 16.4c-.2.6-.8.9-1.4.9zm-92.3-61.6l-5.8 13.3c-.2.6-.8.9-1.4.9-.2 0-.4 0-.6-.1-.8-.3-1.1-1.2-.8-2l4.5-10.3c1.3-.7 2.7-1.3 4.1-1.8zm68.1 230.7c-.2 0-.4 0-.5-.1l-16.7-6.3c-.8-.3-1.2-1.2-.9-1.9.3-.8 1.2-1.2 1.9-.9l16.7 6.3c.8.3 1.2 1.2.9 1.9-.2.6-.8 1-1.4 1zm-69.9-34.5c-.7 0-1.3-.5-1.5-1.2l-4.1-17.4c-.2-.8.3-1.6 1.1-1.8.8-.2 1.6.3 1.8 1.1l4.1 17.4c.2.8-.3 1.6-1.1 1.8 0 .1-.1.1-.3.1zm158.8-126.2c-.7 0-1.3-.5-1.5-1.2l-4.1-17.4c-.2-.8.3-1.6 1.1-1.8.8-.2 1.6.3 1.8 1.1l4.1 17.4c.2.8-.3 1.6-1.1 1.8-.1.1-.2.1-.3.1zm-112.1-44.6c-.7 0-1.3-.5-1.5-1.2l-4.1-17.4c-.2-.8.3-1.6 1.1-1.8.8-.2 1.6.3 1.8 1.1l4.1 17.4c.2.8-.3 1.6-1.1 1.8-.1.1-.2.1-.3.1zM940.4 163.5c-.6 0-1.2-.4-1.4-1.1l-5.1-17.1c-.2-.8.2-1.6 1-1.9.8-.2 1.6.2 1.9 1l5.1 17.1c.2.8-.2 1.6-1 1.9-.2.1-.3.1-.5.1zm-93-90.1c-.2 0-.4 0-.6-.1l-16.5-6.9c-.8-.3-1.1-1.2-.8-2 .3-.8 1.2-1.1 2-.8l16.5 6.9c.8.3 1.1 1.2.8 2-.3.6-.9.9-1.4.9zm285.7 232.4c-.3 0-.6-.1-.8-.3l-14.7-10.1c-.7-.5-.9-1.4-.4-2.1.5-.7 1.4-.9 2.1-.4L1134 303c.7.5.9 1.4.4 2.1-.4.5-.8.7-1.3.7zm70.4-183.3l-9.5-6.5c-.7-.5-.9-1.4-.4-2.1.5-.7 1.4-.9 2.1-.4l7.2 4.9c.1 1.4.4 2.8.6 4.1zm-80.8 253.8c-.8 0-1.4-.6-1.5-1.4l-1.1-17.8c0-.8.6-1.5 1.4-1.6.8 0 1.5.6 1.6 1.4l1.1 17.8c.1.8-.6 1.6-1.5 1.6.1 0 .1 0 0 0zm-57.4-61.7c-.7 0-1.4-.6-1.5-1.3l-2.1-17.7c-.1-.8.5-1.6 1.3-1.7.8-.1 1.6.5 1.7 1.3l2.1 17.7c.1.8-.5 1.6-1.3 1.7h-.2zM923.9 482.1c-.6 0-1.2-.4-1.4-1l-5.7-16.9c-.3-.8.2-1.6.9-1.9.8-.3 1.6.2 1.9.9l5.7 16.9c.3.8-.2 1.6-.9 1.9-.2.1-.4.1-.5.1zm50.4 57.5c-.4 0-.9-.2-1.2-.6L962 525.2c-.5-.6-.4-1.6.2-2.1.6-.5 1.6-.4 2.1.2l11.2 13.9c.5.6.4 1.6-.2 2.1-.3.2-.6.3-1 .3zm41.6 51c-.1 0-.3 0-.4-.1-.8-.2-1.3-1-1.1-1.8l4.6-17.2c.2-.8 1-1.3 1.8-1.1.8.2 1.3 1 1.1 1.8l-4.6 17.2c-.1.8-.7 1.2-1.4 1.2zm-126.4-36.5c-.2 0-.3 0-.5-.1-.8-.3-1.2-1.1-.9-1.9l5.7-16.9c.3-.8 1.1-1.2 1.9-.9.8.3 1.2 1.1.9 1.9l-5.7 16.9c-.2.6-.8 1-1.4 1zM928 404.9c-.2 0-.4 0-.6-.1l-16.2-7.4c-.8-.3-1.1-1.2-.7-2 .3-.8 1.2-1.1 2-.7l16.2 7.4c.8.3 1.1 1.2.7 2-.3.5-.8.8-1.4.8zm56.3-90.2c-.2 0-.4 0-.6-.1l-16.2-7.4c-.8-.3-1.1-1.2-.7-2 .3-.8 1.2-1.1 2-.7l16.2 7.4c.8.3 1.1 1.2.7 2-.3.5-.9.8-1.4.8zm7.2 139.7c-.8 0-1.4-.6-1.5-1.3-.1-.8.5-1.6 1.3-1.6l17.7-1.9c.8-.1 1.6.5 1.6 1.3.1.8-.5 1.6-1.3 1.6l-17.7 1.9h-.1zm44-76.6c-.8 0-1.4-.6-1.5-1.3-.1-.8.5-1.6 1.3-1.6l17.7-1.9c.8-.1 1.6.5 1.6 1.3.1.8-.5 1.6-1.3 1.6l-17.7 1.9h-.1zM938 608c-.8 0-1.4-.6-1.5-1.3-.1-.8.5-1.6 1.3-1.6l17.7-1.9c.8-.1 1.6.5 1.6 1.3.1.8-.5 1.6-1.3 1.6l-17.7 1.9h-.1zm-98.4-224.3c-.6 0-1.2-.4-1.4-1l-6.4-16.6c-.3-.8.1-1.6.9-1.9s1.6.1 1.9.9l6.4 16.6c.3.8-.1 1.6-.9 1.9-.1.1-.3.1-.5.1zm-53.7 138.4c-.2.1-.4.1-.5.1-.4 0-.9-.2-1.1-.5.4-1.8.7-3.6 1.1-5.3l1.5 3.8c.1.8-.2 1.6-1 1.9zm22.7-45c-.2 0-.4 0-.6-.1-.8-.3-1.1-1.2-.8-2l7.2-16.3c.3-.8 1.2-1.1 2-.8.8.3 1.1 1.2.8 2l-7.2 16.3c-.3.6-.8.9-1.4.9zm45.6 41.7c-.6 0-1.1-.3-1.4-.8l-7.8-16.1c-.4-.7 0-1.6.7-2 .7-.4 1.6-.1 2 .7l7.8 16.1c.4.7 0 1.6-.7 2-.2 0-.4.1-.6.1zm2.8-220.7c-.2 0-.4 0-.5-.1l-16.7-6.4c-.8-.3-1.2-1.2-.9-1.9.3-.8 1.2-1.2 1.9-.9l16.7 6.4c.8.3 1.2 1.2.9 1.9-.2.6-.8 1-1.4 1zm65.2-25.7c-.2 0-.4 0-.5-.1L905 266c-.8-.3-1.2-1.2-.9-1.9.3-.8 1.2-1.2 1.9-.9l16.7 6.4c.8.3 1.2 1.2.9 1.9-.2.6-.8.9-1.4.9zm-8 71.3c-.7 0-1.3-.5-1.5-1.2l-4.1-17.4c-.2-.8.3-1.6 1.1-1.8.8-.2 1.6.3 1.8 1.1l4.1 17.4c.2.8-.3 1.6-1.1 1.8-.1.1-.2.1-.3.1zm68 50.8c-.6 0-1.2-.4-1.4-1.1l-5.1-17.1c-.2-.8.2-1.6 1-1.9.8-.2 1.6.2 1.9 1l5.1 17.1c.2.8-.2 1.6-1 1.9-.2.1-.4.1-.5.1zm104.2 80.1c-.2 0-.4 0-.6-.1l-16.4-6.9c-.8-.3-1.1-1.2-.8-2 .3-.8 1.2-1.1 2-.8l16.4 6.9c.8.3 1.1 1.2.8 2-.2.5-.8.9-1.4.9zM799.5 244.8c-.3 0-.6-.1-.8-.3L784 234.4c-.7-.5-.9-1.4-.4-2.1.5-.7 1.4-.9 2.1-.4l14.7 10.1c.7.5.9 1.4.4 2.1-.4.4-.9.7-1.3.7zm-76.8 179.3c-.3 0-.6-.1-.8-.3l-14.7-10.1c-.7-.5-.9-1.4-.4-2.1.5-.7 1.4-.9 2.1-.4l14.7 10.1c.7.5.9 1.4.4 2.1-.4.5-.8.7-1.3.7zM796.3 182c-.8 0-1.5-.6-1.5-1.4l-1-17.8c0-.8.6-1.5 1.4-1.6.8 0 1.5.6 1.6 1.4l1 17.8c0 .9-.6 1.6-1.5 1.6zm58.3 61.7c-.8 0-1.4-.6-1.5-1.3l-2.1-17.7c-.1-.8.5-1.6 1.3-1.7.8-.1 1.6.5 1.7 1.3l2.1 17.7c.1.8-.5 1.6-1.3 1.7h-.2zm229.9 695.6c-.8 0-1.4-.6-1.5-1.4-.1-.8.6-1.5 1.4-1.6l17.8-1.1c.8-.1 1.5.6 1.6 1.4.1.8-.6 1.5-1.4 1.6l-17.9 1.1c.1 0 .1 0 0 0zm-6.7 66.1c-1.1.5-2.2 1-3.3 1.4l-11.1-7.3c-.7-.5-.9-1.4-.4-2.1.4-.7 1.4-.9 2.1-.4l12.7 8.4zm-60.3-77.3c-.3 0-.7-.1-1-.3-.6-.5-.7-1.5-.2-2.1l11.3-13.8c.5-.6 1.5-.7 2.1-.2.6.5.7 1.5.2 2.1l-11.3 13.8c-.2.3-.7.5-1.1.5zm75.4-62.4h-.2c-.8-.1-1.4-.9-1.2-1.7l2.8-17.6c.1-.8.9-1.4 1.7-1.2.8.1 1.4.9 1.2 1.7l-2.8 17.6c-.1.7-.7 1.2-1.5 1.2zm-62.7-62.2h-.2c-.8-.1-1.4-.9-1.2-1.7l2.8-17.6c.1-.8.9-1.4 1.7-1.2.8.1 1.4.9 1.2 1.7l-2.8 17.6c-.1.7-.8 1.2-1.5 1.2zm-44.4 190.8l-2.3.2c-.6-.9-1.2-1.9-1.8-2.8l3.7-.4c.8-.1 1.6.5 1.7 1.3.2.9-.4 1.6-1.3 1.7zm140.1-201.1c-.3 0-.6-.1-.9-.3-.7-.5-.8-1.4-.3-2.1l10.9-14.1c.5-.7 1.5-.8 2.1-.3.7.5.8 1.4.3 2.1l-10.9 14.1c-.3.4-.7.6-1.2.6zm-345 189.1c-1.7.5-3.4 1-5.1 1.4l-14-2.9c-.8-.2-1.3-1-1.2-1.8.2-.8 1-1.3 1.8-1.2l17.5 3.6c.5.1.9.5 1 .9zm73.3-38.4h-.2l-17.7-2.5c-.8-.1-1.4-.9-1.3-1.7.1-.8.9-1.4 1.7-1.3l17.7 2.5c.8.1 1.4.9 1.3 1.7-.1.8-.7 1.3-1.5 1.3zM711.4 761.4c-.8 0-1.4-.6-1.5-1.4-.1-.8.6-1.5 1.4-1.6l17.8-1.1c.9 0 1.5.6 1.6 1.4.1.8-.6 1.5-1.4 1.6l-17.9 1.1c.1 0 0 0 0 0zM652.9 733c-.6.8-1.1 1.7-1.7 2.5l-14.1-9.4c-.7-.5-.9-1.4-.4-2.1.5-.7 1.4-.9 2.1-.4l14.1 9.4zm131.9 52.3c-.3 0-.7-.1-1-.3-.6-.5-.7-1.5-.2-2.1l11.4-13.7c.5-.6 1.5-.7 2.1-.2.6.5.7 1.5.2 2.1L786 784.8c-.3.4-.7.5-1.2.5zm72.6 77.7c-.3 0-.7-.1-1-.3-.6-.5-.7-1.5-.2-2.1l11.4-13.7c.5-.6 1.5-.7 2.1-.2.6.5.7 1.5.2 2.1l-11.4 13.7c-.2.3-.6.5-1.1.5zm-139.5-11.5h-.2c-.8-.1-1.4-.9-1.2-1.7l2.8-17.6c.1-.8.9-1.4 1.7-1.2.8.1 1.4.9 1.2 1.7l-2.8 17.6c-.2.6-.8 1.2-1.5 1.2zm62.6 62.3h-.2c-.8-.1-1.4-.9-1.2-1.7l2.8-17.6c.1-.8.9-1.4 1.7-1.2.8.1 1.4.9 1.2 1.7l-2.8 17.6c-.1.7-.8 1.2-1.5 1.2zM583.3 760h-.2c-.8-.1-1.4-.9-1.2-1.7l2.8-17.6c.1-.8.9-1.4 1.7-1.2.8.1 1.4.9 1.2 1.7l-2.8 17.6c-.1.7-.8 1.2-1.5 1.2zm244.9-54.6c-.8 0-1.4-.6-1.5-1.3-.1-.8.5-1.6 1.3-1.6l17.7-1.9c.8-.1 1.6.5 1.6 1.3.1.8-.5 1.6-1.3 1.6l-17.7 1.9h-.1zm-6.8-79.2c-.8 0-1.4-.6-1.5-1.3-.1-.8.5-1.6 1.3-1.6l17.7-1.9c.8-.1 1.6.5 1.6 1.3.1.8-.5 1.6-1.3 1.6l-17.7 1.9h-.1zm-108.2-12.5c-.4 1.1-.8 2.1-1.2 3.1l-3.4.4h-.2c-.8 0-1.4-.6-1.5-1.3-.1-.8.5-1.6 1.3-1.7l5-.5zm46.8 48.7c-.3 0-.7-.1-.9-.3l-14-11.1c-.6-.5-.8-1.5-.2-2.1.5-.6 1.5-.8 2.1-.2l13.9 11.1c.6.5.8 1.5.2 2.1-.2.3-.7.5-1.1.5zm146.5 82c-.3 0-.6-.1-.9-.3-.7-.5-.8-1.4-.3-2.1l10.5-14.5c.5-.7 1.4-.8 2.1-.3.7.5.8 1.4.3 2.1l-10.5 14.5c-.3.4-.8.6-1.2.6zm7.9 69.6c-.3 0-.6-.1-.9-.3-.7-.5-.8-1.4-.3-2.1l10.5-14.5c.5-.7 1.4-.8 2.1-.3.7.5.8 1.4.3 2.1l-10.5 14.5c-.3.4-.8.6-1.2.6zm-49-25.6l-17.9-.6c-.8 0-1.5-.7-1.5-1.5s.7-1.5 1.5-1.5l17.8.6c.8 0 1.5.7 1.5 1.5.1.8-.6 1.5-1.4 1.5zm-80.5-186.2l-17.9-.6c-.8 0-1.5-.7-1.5-1.5s.7-1.5 1.5-1.5l17.8.6c.8 0 1.5.7 1.5 1.5.1.9-.6 1.5-1.4 1.5zm-4 238.2c-.8 0-1.5-.6-1.5-1.5 0-.8.6-1.5 1.5-1.5l17.8-.5c.8 0 1.5.6 1.5 1.5 0 .8-.6 1.5-1.5 1.5l-17.8.5zm-104.3 79.9c-.3 0-.6-.1-.9-.3-.7-.5-.8-1.5-.3-2.1l11-14.1c.5-.7 1.5-.8 2.1-.3.7.5.8 1.5.3 2.1l-11 14.1c-.3.4-.8.6-1.2.6zm245.7-251.9h-.2l-17.7-2c-.8-.1-1.4-.8-1.3-1.7.1-.8.8-1.4 1.7-1.3l17.7 2c.8.1 1.4.8 1.3 1.7-.1.7-.7 1.3-1.5 1.3zm50.6 34.2c-.4 0-.8-.2-1.1-.5-.5-.6-.5-1.6.2-2.1l13.6-11.6c.6-.5 1.6-.5 2.1.2.5.6.5 1.6-.2 2.1l-13.6 11.6c-.4.2-.7.3-1 .3zm194.7-164.5c-.4 0-.9-.2-1.2-.6l-11.2-13.9c-.5-.6-.4-1.6.2-2.1.6-.5 1.6-.4 2.1.2l11.2 13.9c.5.6.4 1.6-.2 2.1-.2.2-.6.4-.9.4zm-13-84.7c-.4 0-.9-.2-1.2-.6l-11.2-13.9c-.5-.6-.4-1.6.2-2.1.6-.5 1.6-.4 2.1.2l11.2 13.9c.5.6.4 1.6-.2 2.1-.2.3-.5.4-.9.4zm-71.8 99.2c-.2 0-.3 0-.5-.1-.8-.3-1.2-1.1-.9-1.9l5.7-16.9c.3-.8 1.1-1.2 1.9-.9.8.3 1.2 1.1.9 1.9l-5.7 16.9c-.2.6-.8 1-1.4 1zm48.5 53.9c-.8 0-1.4-.6-1.5-1.3-.1-.8.5-1.6 1.3-1.6l17.7-1.9c.8-.1 1.6.5 1.6 1.3.1.8-.5 1.6-1.3 1.6l-17.7 1.9h-.1zm-15.7 60.4h-.2l-17.7-2c-.8-.1-1.4-.8-1.3-1.7s.8-1.4 1.7-1.3l17.7 2c.8.1 1.4.8 1.3 1.7-.1.7-.7 1.3-1.5 1.3zM819.5 582c-.4 0-.8-.2-1.1-.5-.5-.6-.5-1.6.2-2.1l13.6-11.6c.6-.5 1.6-.5 2.1.2.5.6.5 1.6-.2 2.1l-13.6 11.6c-.3.2-.7.3-1 .3zm232.2 137.4h-.3l-17.5-3.6c-.8-.2-1.3-1-1.2-1.8.2-.8 1-1.3 1.8-1.2l17.5 3.6c.8.2 1.3 1 1.2 1.8-.2.7-.8 1.2-1.5 1.2zm-74.5 39.3h-.2l-17.7-2.6c-.8-.1-1.4-.9-1.3-1.7.1-.8.9-1.4 1.7-1.3l17.7 2.6c.8.1 1.4.9 1.3 1.7-.1.8-.8 1.3-1.5 1.3z" id="pattern"/><path class="st1" d="M267 4.3c-.7-.9-2.3-3-5.1-3.8-.4-.1-4.1-1.2-5.1.4-.7 1.1.1 3.2 1.9 4.8 8.6 7.6 50.2 45.8 48.4 100.7-1.5 44.7-31.1 78.5-40.9 81.8-9.5 3.2-15.6.5-23.3-2.8-6.9-3-14.8-6.4-26.2-6-36.2 1.3-63.3 39-87.3 72.3-17.8 24.8-34.6 48.1-48.7 44.6-3.6-.9-5.9-2.5-12.3-6.7-4.7-3.1-11.8-7.8-23.1-14.6-6.5-3.9-13.6-7.3-21.9-10.3-7.1-2.6-13.6-4.5-19.5-5.8-1.9 0-3.5 1-3.9 2.4-.6 1.8 1 4.4 3.9 4.8 6.9 1.6 12.7 3.5 17.1 5.2 7.9 2.9 14.7 6.1 20.8 9.8 11.1 6.7 17.9 11.2 22.8 14.5 6.7 4.4 9.7 6.4 14.4 7.6 1.6.4 3.2.6 4.7.6 16.9 0 33-22.4 51.4-47.9 23-32 49.1-68.2 81.9-69.4 9.8-.4 16.6 2.6 23.1 5.4 8 3.5 16.3 7.1 28.3 3.1 29.2-9.8 45.3-52.8 45.7-88.3.4-42.8-23.2-77.7-47.1-102.4zm717 519.4c2.5-.4 4.8-.6 7.1-.6 9.9 0 17.9 3.7 26.3 7.7 11.4 5.3 24.4 11.3 43.5 8.4 26.8-4.2 41.1-21.8 53.6-37.3 10.3-12.8 19.2-23.8 33.1-25.6 25.1-3.2 50 25.4 53.5 21.5 1-1-.2-3.7-1.7-6.2-2.7-2.6-6.5-5.9-11.3-9-7.8-5.1-14.5-7.5-16.6-8.3-8.8-3.5-17.2-4.8-24.7-3.9-16.3 2.1-26.3 14.6-37 27.8-12.4 15.4-25.3 31.4-49.9 35.2-17.3 2.7-28.9-2.7-40.1-7.9-10.7-5-21.8-10.1-37-7.5-29.4 5.1-59.6 37.6-76.9 82.8-7.4 19.3-11.4 38.6-11.7 55.9-.3 18.9 4 34.6 12.5 45.3 10.9 13.8 25.2 15.3 40.3 16.9 15.5 1.6 33.1 3.5 50.5 19.5 17.7 16.2 23.4 36 28.5 53.5 5.4 18.6 10.5 36.2 28.6 45.3 7.1 3.6 14.5 5 22 5 15.6 0 31.6-6.2 46.3-11.9 13.5-5.2 44.8-17.4 75.8-40.1.6-.3 1.7-.9 2.5-2.2.9-1.3 1.9-3.9.7-5-.9-.8-3-.6-4.8.8-29.6 21.7-56.9 33.8-76.4 40.8-26.8 9.7-46.5 15.7-63.5 7.1-15.8-8-20.3-23.5-25.5-41.6-5.3-18.3-11.3-39-30.2-56.3-18.9-17.3-37.5-19.3-54-21-14.4-1.5-26.9-2.8-36.2-14.7-14.9-18.8-14.9-56.2.1-95.4 16.8-43.2 45.2-74.2 72.6-79zM767.8 287.1c-34.1 0-68.8-16.8-80-41.3-4.6-10.2-3.4-18.2-2.1-26.6 1.3-8.5 2.7-17.4-1.3-30.3-6.4-21.2-21-32.8-32.7-42.1-10.6-8.4-19-15.1-17.3-25.4 1.5-9.3 9.6-13.1 27.4-21.4 11.6-5.4 27.5-12.8 48.6-25 8.9-5.2 14.3-9.1 19.1-12.6 6-4.3 10.7-7.8 19.5-11.6 16.7-7.3 44.6-19.6 65-9.2 12.3 6.3 14.8 17 17.7 29.4 2.5 10.5 5.2 22.4 14.6 34.5 17.2 22 42.8 27.2 63.4 31.4 16.6 3.3 29.7 6 31.9 16.6 2.1 10-7.4 17.1-28.1 32.7-11.2 8.4-25.1 18.9-42.6 33.7-20.4 17.3-33.2 29.9-42.5 39.1-15 14.8-21.9 21.6-38.1 25.6-7.3 1.7-14.9 2.5-22.5 2.5zm27.9-245.6c-15.9 0-33.4 7.7-45.2 12.9-8.4 3.7-13 7-18.8 11.2-4.9 3.5-10.4 7.5-19.4 12.8-21.2 12.3-37.2 19.8-48.9 25.2-16.5 7.7-24 11.2-25.1 18.4-1.3 8 5.9 13.7 15.9 21.7 12.1 9.7 27.3 21.8 34.1 44.1 4.2 13.8 2.7 23.5 1.4 32.1-1.2 8.2-2.3 15.2 1.8 24.3 13 28.4 59.7 45.8 97.9 36.5 15.1-3.7 21.3-9.8 36.2-24.5 9.4-9.3 22.2-21.9 42.8-39.3 17.6-14.9 31.5-25.4 42.7-33.8 19.3-14.5 28.1-21.2 26.5-28.7-1.7-8.1-13.6-10.5-28.8-13.5-21.2-4.3-47.7-9.6-65.8-32.8-9.9-12.7-12.8-25.1-15.4-36-2.8-11.9-5-21.3-15.6-26.7-5-2.9-10.5-3.9-16.3-3.9z" id="lines"/><path d="M1185.1 932l-616.4-.1c-.1-.5-.5-.9-1-.9s-.9.4-1 .9h-72.8c-.1-.4-.5-.8-1-.8s-.9.3-1 .8H269.3c-.1-.5-.5-.8-1-.8s-.9.3-1 .8h-72.9c-.1-.4-.5-.7-1-.7s-.8.3-1 .7H18c-.9 0-1.5.7-1.5 1.5 0 .9.7 1.5 1.5 1.5h27.9V1202c0 .6.5 1 1 1s1-.5 1-1V934.9h72.8V1202c0 .6.5 1 1 1 .6 0 1-.5 1-1V934.9h69.5V1202c0 .6.5 1 1 1 .6 0 1-.5 1-1V934.9H267V1202c0 .6.5 1 1 1 .6 0 1-.5 1-1V934.9h76.2V1202c0 .6.5 1 1 1s1-.5 1-1V934.9H420v267c0 .6.5 1 1 1 .6 0 1-.5 1-1v-267h69.5v267c0 .6.5 1 1 1 .6 0 1-.5 1-1v-267h72.8v267c0 .6.5 1 1 1 .6 0 1-.5 1-1V935h71.6v267c0 .6.5 1 1 1s1-.5 1-1V935h72.8v267c0 .6.5 1 1 1 .6 0 1-.5 1-1V935h69.5v267c0 .6.5 1 1 1s1-.5 1-1V935H861v267c0 .6.5 1 1 1 .6 0 1-.5 1-1V935h76.2v267c0 .6.5 1 1 1 .6 0 1-.5 1-1V935h72.8v267c0 .6.5 1 1 1 .6 0 1-.5 1-1V935h69.5v267c0 .6.5 1 1 1 .6 0 1-.5 1-1V935h72.8v267c0 .6.5 1 1 1 .6 0 1-.5 1-1V935.1h22c.9 0 1.5-.7 1.5-1.5s.1-1.6-.7-1.6zm-817 121.4z" fill="#deded9" id="floor_lines"/></g></g><g id="main"><g id="general"><g id="board_general"><g opacity=".96"><linearGradient id="SVGID_1_" gradientUnits="userSpaceOnUse" x1="508.01" y1="279.845" x2="1147.01" y2="279.845"><stop offset="0" stop-color="#f0eee1"/><stop offset=".608" stop-color="#efefe1"/><stop offset="1" stop-color="#d2dede"/></linearGradient><path fill="url(#SVGID_1_)" d="M508 74h639v411.7H508z"/><path class="st5" d="M1147 490.7H508c-2.8 0-5-2.2-5-5V74c0-2.8 2.2-5 5-5h639c2.8 0 5 2.2 5 5v411.7c0 2.8-2.2 5-5 5zm-634-10h629V79H513v401.7z"/></g><path class="st5" d="M683.9 414.1h-52.3c-.8 0-1.5-.7-1.5-1.5s.7-1.5 1.5-1.5h52.3c.8 0 1.5.7 1.5 1.5s-.6 1.5-1.5 1.5zm47.7.1h-28.8c-.8 0-1.5-.7-1.5-1.5s.7-1.5 1.5-1.5h28.8c.8 0 1.5.7 1.5 1.5s-.7 1.5-1.5 1.5zm-113.4-.1h-78.5c-.8 0-1.5-.7-1.5-1.5s.7-1.5 1.5-1.5h78.5c.8 0 1.5.7 1.5 1.5s-.7 1.5-1.5 1.5z"/><path class="st6" d="M733.6 246.9c-4.5 8.6-20.6 36.8-55.7 52.3-11.4 5.1-39.4 15.3-73.4 6.8-.2 0-.3-.1-.4-.1-.1 0-.6-.1-1.3-.3-6-1.6-11.5-3.6-16.7-5.9-29.5-13.2-45.1-35.9-49.1-42.1V123.4h195.9l.7 123.5z"/><path class="st5" d="M733.6 246.9c-4.5 8.6-20.6 36.8-55.7 52.3-11.4 5.1-39.4 15.3-73.4 6.8-.2 0-.3-.1-.4-.1-.1 0-.6-.1-1.3-.3-6-1.6-11.5-3.6-16.7-5.9 15.4-28.6 30.8-58.2 46.1-89 14.7-29.6 28.5-58.7 41.5-87.2h59.1l.8 123.4z"/><path class="st7" d="M692.3 167.2h-.4c-9.7-.2-16.5-6.3-23.1-12.2-6.1-5.5-11.9-10.6-19.4-10.6h-.4c-8.9.2-18 7.6-26.9 22.1-.4.7-1.4.9-2.1.5-.7-.4-.9-1.4-.5-2.1 9.6-15.4 19.5-23.3 29.4-23.5 9-.2 15.5 5.7 21.9 11.4 6.2 5.5 12.5 11.3 21.1 11.4 8.8.2 17.9-5.5 27-16.9.5-.6 1.5-.8 2.1-.2.6.5.8 1.5.2 2.1-9.4 11.9-19.2 18-28.9 18zM619 232.9h-.2c-5.1-.1-8.8-3.4-12-6.3-3-2.7-5.8-5.2-9.4-5.1-4.2.1-8.5 3.7-12.8 10.7-.4.7-1.4.9-2.1.5-.7-.4-.9-1.4-.5-2.1 4.9-7.9 10.1-12 15.3-12.1 4.8-.1 8.2 2.9 11.5 5.9 3.1 2.8 6.1 5.4 10.1 5.5h.2c4.1 0 8.4-2.7 12.7-8.2.5-.6 1.5-.8 2.1-.2s.8 1.5.2 2.1c-4.9 6.2-10 9.3-15.1 9.3z" id="lines_1_"/><g id="stars_1_"><circle class="st7" cx="709.4" cy="199.2" r="3.4"/><circle class="st7" cx="561.8" cy="142.9" r="3.4"/><circle class="st7" cx="692" cy="146.9" r="3.4"/><circle class="st7" cx="600.7" cy="271.7" r="3.4"/><circle class="st7" cx="662.5" cy="251.6" r="3.4"/><circle class="st7" cx="651.7" cy="172.4" r="3.4"/></g><g id="telescope"><path transform="rotate(-34.933 601.865 369.158)" class="st5" d="M588.8 363.2h26.1v11.9h-26.1z"/><path class="st6" d="M638.5 354.8l-10.6-15.2-29 20.3 10.6 15.2 7.7-5.4c-31 55.6-31 56.3-31 56.8 0 .8.6 1.4 1.4 1.4.7 0 1.2-.4 1.4-1 1-2.4 19.7-36.1 33.1-60.2l17.4 62.3c.2.7 1 1.2 1.7 1 .7-.2 1.2-1 1-1.7l-17.8-63.6 14.1-9.9z"/><path class="st5" d="M657.4 347.3l-23.1 16.1-15.9-22.8 23.1-16.1v.1l15.8 22.6z"/><path class="st8" d="M661.3 333.2c2.1 7.5-2.3 15.2-9.8 17.3-.2 0-.3.1-.5.1-3 .7-6.1.4-8.8-.7-3.8-1.6-6.8-4.9-8-9.1-2.1-7.5 2.3-15.2 9.8-17.3.1 0 .2 0 .3-.1 2.9-.8 5.9-.5 8.6.5 3.9 1.6 7.1 4.9 8.4 9.3z"/><path d="M652.8 323.9l-1.8 26.7c-3 .7-6.1.4-8.8-.7l2-26.5c3-.8 6-.5 8.6.5z" opacity=".5" fill="#e6e3f2"/></g><path id="frame_1_" class="st5" d="M733.6 439.6H537.7c-.8 0-1.5-.7-1.5-1.5v-314c0-.8.7-1.5 1.5-1.5h195.9c.8 0 1.5.7 1.5 1.5v314c0 .8-.7 1.5-1.5 1.5zm-194.4-3h192.9v-311H539.2v311z"/><g id="screen2"><path class="st5" d="M800 120.7h318v214.7H800z"/><path class="st6" d="M1118 235.9v99.5H800V181.5c37.5 16.2 88.9 43 146.3 23.8 42.6-14.3 59.8-44.3 89.9-34.9 30 9.4 31.4 45 75.1 63.1 2.4.9 4.6 1.7 6.7 2.4z"/><path d="M1033.8 194.2l9.1-3.4-9.1-3.7-2.1-14.1-2.3 14-9.3 3.8 9.2 3.5 2.1 14.2zm54.8 111.7l8-3-8-3.3-1.9-12.5-2 12.4-8.3 3.4 8.2 3 1.9 12.7zM847.2 170.4l16-6.1-16-6.5-3.8-25-4.1 24.8-16.5 6.7 16.4 6.2 3.8 25.3z" opacity=".8" fill="#e6e3f2" id="stars"/><path class="st7" d="M1118 208.4c-6.9.9-13.7 2-20.4 3.4-26.2 5.4-39.3 12.3-51.9 19-12.1 6.4-23.6 12.4-45.9 16.3-24.7 4.4-42.8 2.6-58.8 1.1-20.3-1.9-37.9-3.6-61.8 7.6-8.3 3.9-13.6 7.6-18.2 10.9-6 4.2-11.2 7.9-21.4 10.8-12.3 3.5-25.5 4.2-39.5 2.2v4.1c9.8 1.4 19.3 1.5 28.4.2 4.2-.6 8.3-1.4 12.3-2.6 10.9-3.1 16.3-7 22.6-11.4 4.5-3.2 9.6-6.7 17.6-10.5 22.9-10.8 39.9-9.2 59.7-7.3 16.2 1.6 34.6 3.3 59.9-1.1 22.9-4 34.7-10.2 47.1-16.7 12.4-6.5 25.3-13.3 50.9-18.6 6.5-1.3 13-2.4 19.6-3.3v-4.1z"/><g id="planets"><circle class="st11" cx="1046.4" cy="168" r="23.3"/><circle class="st7" cx="1013.3" cy="279.1" r="14.8"/><path class="st8" d="M927.5 335.4H800V230c6.5-1.2 13.2-1.9 20.1-1.9 59.3 0 107.4 48 107.4 107.3z"/></g></g><g id="screen3"><path id="frame" class="st5" d="M1114.7 439.6h-318c-.8 0-1.5-.7-1.5-1.5v-73.8c0-.8.7-1.5 1.5-1.5h318c.8 0 1.5.7 1.5 1.5v73.8c0 .8-.7 1.5-1.5 1.5zm-316.6-3h315v-70.8h-315v70.8z"/><g id="moon2"><path class="st5" d="M945.1 401.2c0 12.6-10.2 22.8-22.8 22.8h-.8c-12.2-.4-22-10.5-22-22.8 0-12.6 10.2-22.8 22.8-22.8h.5c12.4.2 22.3 10.4 22.3 22.8z"/><path class="st8" d="M945.1 401.2c0 12.6-10.2 22.8-22.8 22.8h-.8c2.4-4.5 5.7-12.4 6-22.8.3-9.8-2.3-17.7-4.7-22.8 12.4.2 22.3 10.4 22.3 22.8z"/></g><circle id="moon4" class="st8" cx="1065.7" cy="401.2" r="22.8"/><g id="moon3"><circle class="st5" cx="993.2" cy="401.2" r="22.8"/><path class="st8" d="M1016 401.2c0 12.6-10.2 22.8-22.8 22.8v-45.6c12.6 0 22.8 10.2 22.8 22.8z"/></g><g id="moon1"><path class="st5" d="M873.1 401.2c0 12.5-10 22.6-22.4 22.8h-.4c-12.6 0-22.8-10.2-22.8-22.8s10.2-22.8 22.8-22.8h1.4c12 .7 21.4 10.6 21.4 22.8z"/><path class="st8" d="M873.1 401.2c0 12.5-10 22.6-22.4 22.8h-.3c1.4-1.1 10.5-8.5 11.3-21.5.9-14-8.6-22.9-10-24.1 12 .7 21.4 10.6 21.4 22.8z"/></g></g><linearGradient id="SVGID_2_" gradientUnits="userSpaceOnUse" x1="814.93" y1="279.845" x2="1079.64" y2="279.845"><stop offset="0" stop-color="#fff"/><stop offset=".778" stop-color="#85aab0"/></linearGradient><path d="M1079.6 74l-21.9 46.7-10 21.4-1.2 2.6-18 38.3-1.7 3.6L1013 216l-11.8 25.2-5.9 12.5-22.7 48.3-2.2 4.7-8 17-5.5 11.7-3.5 7.5-22.5 48-12.9 27.5-16.2 34.6-8.2 17.6-7.1 15.1H815c.9-1.8 1.7-3.7 2.6-5.6 2.7-5.8 5.5-11.7 8.2-17.7 5.5-11.8 11.1-23.9 16.9-36.2.4-.8.7-1.5 1.1-2.3 2.2-4.6 4.3-9.3 6.5-14 4.2-9.1 8.5-18.2 12.8-27.5 7.2-15.5 14.5-31.2 21.9-46.9 2.2-4.7 4.4-9.4 6.5-14.1 3-6.5 6.1-13 9.1-19.5l1.8-3.9c5.7-12.2 11.4-24.5 17-36.6 13.3-28.6 26.4-56.6 38.9-83.4 7.1-15.3 14.1-30.2 20.7-44.5 2-4.3 4-8.5 5.9-12.7 7.7-16.6 15-32.3 21.8-46.7h72.9z" opacity=".06" fill="url(#SVGID_2_)"/><linearGradient id="SVGID_3_" gradientUnits="userSpaceOnUse" x1="675.31" y1="279.845" x2="932.3" y2="279.845"><stop offset="0" stop-color="#fff"/><stop offset=".778" stop-color="#85aab0"/></linearGradient><path d="M932.3 74l-22.1 46.7-41.1 86.8-12.7 26.8-20.9 44.2-2.2 4.6-24.8 52.3-71.1 150.3h-62.1c7.4-15.9 14.8-31.7 22.2-47.6 12-25.7 24-51.5 36-77.2 22.1-47.4 44.3-94.9 66.4-142.3 4.8-10.2 9.6-20.5 14.3-30.7 3.5-7.6 7.1-15.1 10.6-22.7.3-.7.6-1.4 1-2l19.8-42.3c7.3-15.6 14.5-31.1 21.8-46.7h64.9z" opacity=".06" fill="url(#SVGID_3_)"/><linearGradient id="SVGID_4_" gradientUnits="userSpaceOnUse" x1="508.01" y1="279.845" x2="737.93" y2="279.845"><stop offset="0" stop-color="#fff"/><stop offset=".778" stop-color="#85aab0"/></linearGradient><path d="M737.9 74L730 90.7l-15.5 32.8-.3.7-6.3 13.3-13.3 28.2-27.8 58.6-12.7 26.7-20.9 44.2-2.2 4.6-4.5 9.4-20.3 42.9-40.7 86-22.5 47.6h-35v-58.2c7.8-16.7 15.5-33.3 23.3-49.9 2.1-4.5 4.2-9 6.3-13.6 11.2-24.1 22.5-48.2 33.7-72.3 8.8-18.8 17.6-37.6 26.4-56.5 4.8-10.2 9.6-20.5 14.3-30.7 3.5-7.6 7.1-15.1 10.6-22.7.3-.7.6-1.4 1-2.1l15.9-34.2c1.3-2.7 2.5-5.5 3.8-8.2 2.1-4.4 4.1-8.9 6.2-13.3.1-.2.2-.5.3-.7 5.1-10.9 10.2-21.8 15.3-32.8 2.6-5.6 5.2-11.1 7.8-16.7h65z" opacity=".06" fill="url(#SVGID_4_)"/></g><g id="teacher"><g id="neck"><path class="st15" d="M543 340.1v25c-3 21.7-6 43.3-9 65-4.4-7.3-8.7-15-13-23-8.5-15.9-15.8-31.4-22-46-1.3-14.3-2.7-28.7-4-43 5.3 3 11 5.9 16.9 8.8.7.4 1.5.7 2.2 1.1 10.1 4.8 19.8 8.8 28.9 12.1z"/><path class="st16" d="M543 340.1v21c-4.7-.3-10.4-1.5-16.2-4.5-17.9-9.5-21.3-28.9-21.7-31.2 2.3.5 4.5 1.1 6.8 1.6.7.4 1.5.7 2.2 1.1 10.1 4.7 19.8 8.7 28.9 12z"/></g><g id="head_general"><path id="head" class="st15" d="M550 347.1c-12.1 8-54.6-14.8-59.6-48.7-2.5-17.3 4-41.3 20.9-48 11.3-4.5 26.7-1.8 34.6 6.7.8.9 1.3 1.7 2 2.7 5.1 7.3 6.9 14.7 8 22.3 3.1 20.3.9 38-1 49-1.6 9.6-2.5 14.5-4.9 16z"/><path id="smile" class="st17" d="M540.9 333.2c-1.6 0-3.5-.3-5.6-1.2-4.3-2-6.3-5.6-6.9-7.1-.1-.3 0-.7.3-.8.3-.1.7 0 .8.3.6 1.4 2.4 4.7 6.3 6.5 2.7 1.2 5.3 1.2 7 .9.3-.1.6.2.7.5.1.3-.2.6-.5.7-.6.1-1.3.2-2.1.2z"/><g id="eyes"><circle class="st17" cx="524.3" cy="298.6" r="2.5"/><circle class="st17" cx="549.7" cy="298.3" r="2.5"/></g><g id="brows"><path transform="rotate(-23.393 517.698 285.742)" class="st17" d="M508.8 284.4h17.8v2.6h-17.8z"/><path transform="matrix(-.9991 -.04295 .04295 -.9991 1081.124 588.493)" class="st17" d="M539.8 281.3H554v2.6h-14.2z"/></g><path id="nose" d="M537 292.1c.5 2.1 1.4 5.3 3 9 3.4 8.2 7.1 12.4 5.8 13.8-.7.7-2.8.2-7-.9-2.7-.7-4.9-1.5-6.6-2.1.4-3.6 1-7.6 1.8-11.8.6-2.8 1.3-5.5 2-8h1z" fill="#af7266"/><path id="glasses" class="st5" d="M558 292.4l-18.6-.2c-.8-.5-2.4-1.2-4.5-1.1-1.2.1-2.4.5-3.5 1.2-.1 0-.1.1-.2.2l-21.3-.3c-.1 0-.3 0-.4.1l-18 8c-.5.2-.7.8-.5 1.3.2.4.5.6.9.6.1 0 .3 0 .4-.1l16.9-7.5c.7 2.4 2.5 6.9 7.2 9.5 1.2.6 4.1 2 7.4 2 1.9 0 4-.5 5.9-1.9 4.7-3.6 4-10 3.9-10.7.4-.1.9-.3 1.4-.3.8-.1 1.6.1 2.2.3-.2 1.4-.4 6.1 3.4 9.3 2 1.7 4.5 2.4 6.8 2.4s4.4-.6 6.1-1.6c3.6-2.1 5.7-6 5.5-10.2 0-.6-.5-1-1-1zm-29.4 10.1c-4.1 3.1-9.5.6-11.1-.3-4-2.2-5.6-6-6.2-8.1l20.5.3c0 1.8-.2 5.8-3.2 8.1zm23.9-.7c-2.8 1.6-7.4 2.2-10.6-.6-2.7-2.3-2.8-5.5-2.7-7l17.8.2c-.1 3.1-1.8 5.9-4.5 7.4z"/><path id="hair" class="st17" d="M503.2 272.9c6.9-6.3 23 6.2 32-1.7 2.9-2.6 4.4-6.9 8.6-7.2 3.4-.3 4.7 2.3 7.5 1.5 3.7-1 6.7-6.8 5.5-11.2-.9-3.4-3.6-3.3-4.6-6.6-1.4-4.7 3.3-7.4 2.1-11.2-1.3-4.2-8.7-6.8-14.5-5.8-6.5 1.2-10.7 6.8-11.5 6-.8-.7 3.5-4.6 2.4-7.2-1.4-3.2-10.7-4.5-17.1-.5-7.3 4.5-8.1 14.4-10.9 14-2.1-.3-1.5-6.4-4.7-7.6-3.3-1.3-9.4 3.3-12.3 9.1-3.9 7.9-1.5 17.1-2.5 17.3-.8.1-1.2-5.4-4.6-6.6-1.6-.6-3.4 0-4 .3-5.2 2.8-1.6 21.7 3.1 36.9 3.7 11.8 13.4 37.7 19.2 36.5 5.3-1.1 5.5-24.3 5.5-29.6.2-17.1-3.2-22.7.8-26.4z"/><g id="ear"><path class="st15" d="M506 305c-1 4-4.4 7.1-8.8 7.5-5.5.5-10.3-3.6-10.8-9.1-.2-2.7.6-5.3 2.3-7.2 1.6-2 4-3.3 6.8-3.6 5.5-.5 10.3 3.6 10.8 9.1.1 1.2 0 2.3-.3 3.3z"/><path d="M506 305c-4.1-2.1-13.1-6.5-17.3-8.8 1.6-2 4-3.3 6.8-3.6 5.5-.5 10.3 3.6 10.8 9.1.1 1.2 0 2.3-.3 3.3z" opacity=".08" fill="#522d37"/></g></g><path class="st7" d="M567 453.1c-.2 11-.3 21.9-.6 32.7-1 39.8-2.6 78.6-4.9 116.3-.5 7.7-.9 15.4-1.5 23h-92c3.8-54.1 5.5-112.3 4-174-.7-29.4-2-57.8-4-85.4 2.6-.9 5.1-1.6 7.5-2.1.4-.1.7-.2 1.1-.2 1-.2 3.6-.8 8.4-1.3 3.5-.4 8.3-.9 14-1 10.7 20 21.3 40 32 60l12-60c3.2.9 5.7 1.4 7.5 1.7 1.3.2 3.9.6 7.5 1.3.2 0 .5.1.8.2.8.2 1.6.5 2.4.7 1.8.6 3.7 1.3 5.8 2.2.4 28.2.4 56.8 0 85.9z"/><path class="st20" d="M561.2 365.1l-8.8 22.7-19.4 50.3-57.5-74.5c.4-.1.7-.2 1.1-.2 1-.2 3.6-.8 8.4-1.3 3.5-.4 8.3-.9 14-1 10.7 20 21.3 40 32 60l9.1-45.3 2.9-14.7c3.2.9 5.7 1.4 7.5 1.7 1.3.2 3.9.6 7.5 1.3.2 0 .5.1.8.2.7.3 1.6.5 2.4.8z"/><circle class="st5" cx="538" cy="541.1" r="3"/><circle class="st5" cx="538" cy="568.1" r="3"/><circle class="st5" cx="538" cy="596.1" r="3"/><path class="st21" d="M566.4 485.8c4 32.1 5.1 68.3.7 107.6-.8 6.9-1.7 13.6-2.7 20.1l-87 6.3-8.4-13.5 97.4-120.5z"/><path class="st22" d="M561.2 365.1l-8.8 22.7-12.4-12 2.9-14.7c3.2.9 5.7 1.4 7.5 1.7 1.3.2 3.9.6 7.5 1.3.2 0 .5.1.8.2.8.3 1.7.5 2.5.8z"/><g id="legs"><path class="st15" d="M443 1087.1c-2.8 3.1-5.5 6.3-8.3 9.4-2.2 2.5-4.5 5-6.7 7.6-21.3-13.2-33.3-20.6-34-21 .1-.1.3-.5.8-1.2.1-.1.2-.3.3-.4.1-.2.2-.3.3-.5.8-1.1 1.8-2.6 3.2-4.6.5-.6.9-1.3 1.5-2.1.4-.6.9-1.3 1.4-2 .2-.3.5-.7.7-1.1 2.4-3.4 5.3-7.5 8.8-12.6 2.6-3.7 5.6-7.9 8.9-12.6 7.3 5.7 14.7 11.3 22 17-.2.2-.3.5-.5.8-1.6 2.5-3.1 5.1-4.7 7.6-.9 1.5-1.9 3.1-2.8 4.6.9 1.1 1.7 2.1 2.6 3.2 1 1.2 2 2.5 3 3.7 1.2 1.5 2.4 2.9 3.5 4.2zm201.1-8.2l-11.1 19.2-34-3v-35l29-2 .5 8.1.2 3.3.3 4.6z"/><path class="st16" d="M628.5 1066.2l-29.5 8.3v-14.4l29-2zm-187-2.3c-1.6 2.5-3.1 5.1-4.7 7.6l-21.3 1.6-15.3 1.2c.4-.6.9-1.3 1.4-2 .2-.3.5-.7.7-1.1 2.4-3.4 5.3-7.5 8.8-12.6l30.4 5.3z"/></g><g id="socks"><path class="st7" d="M443 1087.1c-2.8 3.1-5.5 6.3-8.3 9.4l-9.7 2.6-30.1-17.2c.1-.1.2-.3.3-.4.1-.2.2-.3.3-.5.8-1.1 1.8-2.6 3.2-4.6.5-.6.9-1.3 1.5-2.1.4-.6.9-1.3 1.4-2 .2-.3.5-.7.7-1.1 1.9.2 4.4.6 7.1.9 1.4.2 2.9.4 4.5.7.5.1 1.1.2 1.6.2 3.5.5 7.2 1.1 10.6 1.7 1.7.3 3.3.5 4.9.8 1.1.2 2.1.3 3 .5.9 1.1 1.7 2.1 2.6 3.2 1 1.2 2 2.5 3 3.7 1.1 1.5 2.3 2.9 3.4 4.2zm201.1-8.2l-11.1 19.3-34-3v-12.4c2.3-1 5-2.1 7.7-3.3 1.4-.6 2.8-1.2 4.3-1.9 4.3-1.9 8.6-3.8 12-5.4 1.7-.8 3.2-1.5 4.4-2.1.5-.2.9-.4 1.2-.6l.3 4.7 15.2 4.7z"/><g id="pattern_1_"><path class="st20" d="M403 1074.6c0 1.4-1.1 2.5-2.5 2.5-.7 0-1.3-.3-1.8-.7.8-1.2 1.8-2.5 2.8-4 .9.4 1.5 1.3 1.5 2.2z"/><circle class="st20" cx="406.5" cy="1083.6" r="2.5"/><path class="st20" d="M414 1073.6c0 1.4-1.1 2.5-2.5 2.5s-2.5-1.1-2.5-2.5c0-.5.2-1 .4-1.4 1.4.2 2.9.4 4.5.7.1.3.1.5.1.7z"/><circle class="st20" cx="418.5" cy="1080.6" r="2.5"/><path class="st20" d="M431 1075.6c0 1.4-1.1 2.5-2.5 2.5s-2.5-1.1-2.5-2.5c0-.3 0-.5.1-.8 1.7.3 3.4.6 4.9.8z"/><circle class="st20" cx="427.5" cy="1088.6" r="2.5"/><circle class="st20" cx="601.5" cy="1085.6" r="2.5"/><circle class="st20" cx="612.5" cy="1091.6" r="2.5"/><circle class="st20" cx="618.5" cy="1081.6" r="2.5"/><path class="st20" d="M611 1077.5v.1c0 1.4-1.1 2.5-2.5 2.5-.7 0-1.3-.3-1.8-.8 1.4-.5 2.9-1.1 4.3-1.8zm17-5.9c0 1.4-1.1 2.5-2.5 2.5-1.2 0-2.2-.9-2.5-2 1.7-.8 3.2-1.5 4.4-2.1.4.5.6 1.1.6 1.6z"/><circle class="st20" cx="633.5" cy="1082.6" r="2.5"/><circle class="st20" cx="629.5" cy="1092.6" r="2.5"/><path class="st20" d="M439.6 1083c-.4.7-1.2 1.2-2.1 1.2-1.4 0-2.5-1.1-2.5-2.5 0-1.1.7-2 1.6-2.3 1 1.1 2 2.4 3 3.6z"/></g></g><g id="shoes"><path class="st17" d="M484 1131.1c-12.7 4.2-22.6 3.4-29 2-5.7-1.2-10.4-3.4-29-15-1-.6-2-1.3-3-1.9-6.7-4.2-14.2-9.1-22.4-14.6l2.4-4.8-5.8 3.1-15.1-7.7c-.6-.8-.8-1.5-.9-2.2-.3-3.5 4.7-7.5 12.6-10.5 1.1-.4 2.4-.9 3.6-1.2l28 14.2c5.9-1.8 11.8-3.5 17.7-5.3 3.5 3.2 6.6 6.2 9.2 8.8l1.9 1.9c1.9 2 3.6 3.8 5.1 5.3.2.3.5.5.7.8.4.4.7.8 1 1.1 3.1 3.4 4.3 4.8 7 6.9 6.2 4.7 9.9 4.8 13 9 1.4 2 2.9 5.1 3 10.1z"/><path class="st20" d="M454.2 1098l-7.8 4.5c-.4.2-.8.2-1.2 0-.2-.1-.4-.3-.5-.5-.3-.6-.1-1.4.5-1.8l7.2-4.1c.5.7 1.2 1.3 1.8 1.9zm6.8 7.3l-4.5 6c-.3.4-.7.5-1.1.5-.2 0-.5-.1-.7-.3-.5-.5-.6-1.3-.2-1.8l4.8-6.3c.2.3.5.5.7.8.4.3.7.7 1 1.1z"/><path class="st17" d="M698.4 1108.7c-.3 3.8-36.2 3.5-49.4 3.4-6.3 0-14.8-.2-24.9-.6-2.9-.1-6-.3-9.1-.4-.7-1.7-1.5-3.3-2.2-5l-3.6 5.5-16.9.6c-.9-.4-1.5-1-1.8-1.5-2.2-3.4 1.3-10.6 8.5-18.1l4-.1 27.4-.9c4.3-4.4 8.6-8.8 12.9-13.1 5.3 1.6 9.9 3.1 13.7 4.5 1 .3 1.9.7 2.7 1 1.2.5 2.4.9 3.4 1.3 2.2.8 3.9 1.6 5.3 2.2 1 .4 1.8.8 2.6 1.1 3.5 1.6 4.7 2.3 9.1 3.6 7.5 2.2 10.7 2.1 14 5.3 2.4 2.4 4.6 7.3 4.3 11.2z"/><path class="st20" d="M659.7 1083.9l-4.7 7.1c-.3.4-.7.6-1.2.6-.3 0-.5-.1-.8-.2-.7-.4-.9-1.2-.5-1.8l4.4-6.7c1 .4 1.9.7 2.8 1zm11.2 4.6l-4.1 6.7c-.3.4-.7.6-1.2.7-.3 0-.5 0-.8-.2-.7-.4-.9-1.2-.5-1.8l4-6.5c1 .4 1.9.8 2.6 1.1z"/><linearGradient id="SVGID_5_" gradientUnits="userSpaceOnUse" x1="381.179" y1="1097.87" x2="422.95" y2="1097.87"><stop offset="0" stop-color="#fff"/><stop offset=".778" stop-color="#85aab0"/></linearGradient><path d="M400.5 1101.6l2.4-4.8-5.8 3.1-15.1-7.7c-.6-.8-.8-1.5-.9-2.2-.3-3.5 4.7-7.5 12.6-10.5l29.2 36.7c-6.6-4.2-14.1-9.1-22.4-14.6z" opacity=".15" fill="url(#SVGID_5_)"/><linearGradient id="SVGID_6_" gradientUnits="userSpaceOnUse" x1="589.766" y1="1102.315" x2="624.14" y2="1102.315"><stop offset="0" stop-color="#fff"/><stop offset=".778" stop-color="#85aab0"/></linearGradient><path d="M624.1 1111.6c-2.9-.1-6-.3-9.1-.4-.7-1.7-1.5-3.3-2.2-5l-3.6 5.5-16.9.6c-.9-.4-1.5-1-1.8-1.5-2.2-3.4 1.3-10.6 8.5-18.1l4-.1 21.1 19z" opacity=".1" fill="url(#SVGID_6_)"/></g><g id="pants"><path class="st5" d="M640 1062.5c-16.7 1.3-33.3 2.5-50 3.8-25.3-114.4-50.7-228.8-76.1-343.3-1-4.4-2-8.8-2.9-13.2.1 45.4-2.6 96.3-10 151.4-10.9 81-29.4 151.6-49 209.9-18.1-1.4-36.2-2.9-54.2-4.3-1.9-.1-3.9-.3-5.8-.5 34.7-107.9 38-183.1 34-232.9-1.7-21.1-8.3-82.3-3-165.8 1.2-19.5 2.8-35.5 4-46 9.5-.6 19-1.2 28.6-1.9 44.5-2.9 89-5.8 133.4-8.7 2 17.7 4 35.5 6 53.2 15 132.9 30 265.6 45 398.3z"/><path class="st25" d="M592.2 639.1h-167c.1-.7.1-1.3.2-2h166.5c.1.7.2 1.4.3 2zm-1.8-16H426.8c0-.5.1-1 .2-1.5 2.8-.2 5.5-.4 8.3-.5h154.8c.1.7.2 1.4.3 2z"/><path class="st25" d="M440 620.8v449.3c-.7 0-1.3-.1-2-.2V621c.7-.1 1.3-.1 2-.2zm-17.8 160.3c0 .7.1 1.3.1 2 .3 5 .5 9.6.8 14 .1.7.1 1.3.1 2 .2 3.7.5 7.2.8 10.4v-156c0 .5-.1 1.1-.1 1.6-.3 4-.6 8.2-.9 12.5 0 .5-.1 1-.1 1.5 0 .7-.1 1.3-.1 2-.3 4.7-.5 9.4-.7 14v92l.1 4zM424 924v145.2h-2V939.7c.6-4.3 1.2-8.4 1.6-12.5.1-.7.2-1.3.2-2 .1-.4.2-.8.2-1.2zm-16 86.5v57.1c-.7-.1-1.3-.1-2-.2v-49.1c.7-2.6 1.3-5.2 2-7.8zm47-390.6v449.3h-2V620c.7 0 1.3-.1 2-.1zm14-.9v397c-.3 1-.6 2.1-.9 3.1-.2.7-.4 1.3-.6 2-.2.6-.4 1.3-.5 1.9V619h2zm15-1v341.2h-.6c-.5 2-.9 4.1-1.4 6.1V618.1c.7 0 1.3-.1 2-.1zm15-1v258.4c-.1.6-.2 1.1-.2 1.7-.1.7-.2 1.3-.3 2-.5 3.1-.9 6.2-1.4 9.3V617.1c.6 0 1.2-.1 1.9-.1zm15-1v107.4l-.9-4.2c-.2-.7-.3-1.3-.4-2-.2-.9-.4-1.9-.6-2.8v-98.2c.6-.1 1.2-.1 1.9-.2zm14-.9v171.5c-.2-1.1-.5-2.3-.8-3.4-.1-.7-.3-1.3-.4-2-.3-1.2-.5-2.4-.8-3.6V615.2c.7 0 1.3-.1 2-.1zm15-1v240.1c-.5-2.4-1-4.8-1.6-7.1-.1-.6-.3-1.3-.4-1.9v-231c.7 0 1.3 0 2-.1zm16-1v313.4c-.1-.4-.2-.9-.3-1.3l-1.7-7.7V613.2c.7 0 1.3-.1 2-.1zm15-1v382c-.2-1-.4-2-.7-3-.1-.7-.3-1.3-.4-2-.3-1.3-.6-2.7-.9-4V612.2c.7 0 1.3 0 2-.1zm15-1v450.7c-.6-2.9-1.3-5.8-1.9-8.7h-.1V611.3c.7-.1 1.3-.1 2-.2zM603 735v330.3c-.7 0-1.3.1-2 .2V717.3c.1.6.1 1.2.2 1.8.5 4.7 1.1 9.3 1.6 14 .1.7.1 1.3.2 1.9zm15 132.8v196.4c-.7 0-1.3.1-2 .2V850.1c.4 3.7.8 7.3 1.2 11 .1.7.2 1.3.2 2 .3 1.6.4 3.1.6 4.7zm14 123.3v72c-.7 0-1.3.1-2 .2V974c0 .4.1.8.1 1.1.5 4.7 1 9.3 1.6 14 .1.7.2 1.4.3 2z"/><path class="st25" d="M594 655.1H423.9c0-.6.1-1.1.1-1.6v-.4h169.8c0 .7.1 1.4.2 2zm1.8 16h-173c0-.7.1-1.3.1-2h172.6c.1.7.2 1.4.3 2zm1.8 16H422v-2h175.4c0 .7.1 1.4.2 2zm1.8 16h-178c0-.7 0-1.3.1-2h177.8c-.1.7 0 1.4.1 2zm-88.4 14v2h-90v-2h90zm90.2 2h-88.1c-.2-.7-.3-1.3-.4-2H601v.2c.1.7.1 1.2.2 1.8zm-90.4 14v2H421v-2h89.8zm92.2 2h-86.4c-.1-.7-.3-1.3-.4-2h86.6c.1.7.1 1.3.2 2zm-92.6 14c0 .7 0 1.3-.1 2h-89.2v-2h89.3zm94.4 2h-84.7c-.2-.7-.3-1.3-.4-2h84.9c.1.7.1 1.4.2 2zm-95.1 14c0 .7-.1 1.3-.1 2h-88c0-.7 0-1.3-.1-2h88.2zm96.9 2h-82.9c-.2-.7-.3-1.3-.5-2h83.2c.1.7.1 1.4.2 2zm-97.8 14c0 .7-.1 1.3-.1 2h-86.4c0-.7-.1-1.3-.1-2h86.6zm99.6 2h-81.2c-.1-.7-.3-1.3-.4-2h81.4c.1.7.2 1.4.2 2zm-100.6 14c0 .7-.1 1.3-.2 2h-84.3c0-.7-.1-1.3-.1-2h84.6zm102.4 2h-79.5c-.1-.7-.3-1.3-.4-2H610c.1.7.2 1.4.2 2zm-103.8 14c-.1.7-.1 1.3-.2 2h-81.8c0-.7-.1-1.3-.2-2h82.2zm105.6 2h-77.7c-.2-.7-.3-1.3-.4-2h77.9c.1.7.2 1.4.2 2zm-107.2 14c-.1.7-.1 1.3-.2 2h-78.8c-.1-.6-.1-1.3-.2-2h79.2zm109.1 2h-76c-.2-.7-.3-1.3-.5-2h76.2c.1.7.2 1.4.3 2zm-110.9 14c-.1.7-.1 1.3-.2 2h-75.9c0-.7-.1-1.3-.1-2H503zm112.7 2h-74.2c-.1-.6-.3-1.3-.4-1.9v-.1h74.5c-.1.7 0 1.4.1 2zm-114.7 14v.1c-.1.6-.2 1.2-.3 1.9h-73.4v-2H501zm116.5 2H545c-.1-.7-.3-1.3-.4-2h72.7c0 .7.1 1.4.2 2zm-118.7 14c-.1.7-.2 1.3-.3 2h-71.3v-2h71.6zm120.5 2h-70.8c-.1-.7-.3-1.3-.4-2h71c0 .7.1 1.4.2 2zm-123.1 14c-.1.7-.2 1.3-.3 2h-69.4c0-.7.1-1.3.1-2h69.6zm124.9 2h-69c-.2-.7-.3-1.3-.4-2h69.2c0 .7.1 1.4.2 2zm-127.6 14c-.1.7-.2 1.3-.4 2h-67.8c.1-.7.1-1.3.2-2h68zm129.4 2h-67.3c-.1-.7-.3-1.3-.5-2h67.5c.2.7.2 1.4.3 2zm-132.4 14c-.1.7-.2 1.3-.4 2h-66.5c.1-.7.2-1.3.2-2h66.7zm134.2 2h-65.5c-.1-.2-.1-.5-.2-.7-.1-.4-.2-.9-.3-1.3h65.8c0 .7.1 1.4.2 2zm-137.4 14c-.1.7-.3 1.3-.4 2h-65.4c.1-.7.2-1.3.3-2h65.5zm139.2 2h-63.8c-.2-.7-.3-1.3-.5-2h64c.2.7.2 1.4.3 2zm-142.5 14v2h-65.1c.1-.7.2-1.3.3-2H484zm144.3 2h-62.1c-.1-.7-.3-1.3-.4-2h62.3c.1.7.1 1.4.2 2zm-148.1 14c-.2.7-.3 1.3-.5 2H416c.1-.7.3-1.3.4-2h63.8zm149.9 2h-60.3c-.1-.7-.3-1.3-.4-2H630c0 .3.1.6.1.9-.1.4 0 .8 0 1.1zm-153.9 14c-.2.7-.3 1.3-.5 2h-63.1c.1-.7.3-1.3.4-2h63.2zm155.7 2h-58.6c-.1-.7-.3-1.3-.4-2h58.8c.1.7.2 1.4.2 2zm-159.9 14c-.2.7-.3 1.3-.5 2h-62.6c.2-.7.3-1.3.5-2H472zm161.7 2h-56.9c-.2-.7-.3-1.3-.4-2h57.1c.1.7.2 1.4.2 2zm-165.6 12c-.2.7-.4 1.3-.6 2h-62.3c.2-.7.3-1.3.5-2h62.4zm167.2 2H580c-.1-.7-.3-1.3-.4-2h55.6c0 .7 0 1.4.1 2zm-171.8 14c-.2.7-.4 1.3-.6 2h-62c.2-.7.4-1.3.6-2h62zm173.6 2h-53.6c-.2-.7-.3-1.3-.5-2h53.8c.2.7.3 1.4.3 2zm-178.6 14c-.2.7-.4 1.3-.6 2h-61.8c.2-.7.4-1.3.6-2h61.8zm180.4 2H587v-.3c-.1-.6-.2-1.1-.4-1.7h52.1c.1.7.2 1.4.2 2zm-183.9 14v2h-33v-.4c-4.7-.4-9.3-.8-14-1.1-.7-.1-1.3-.1-2-.2-1.4-.1-2.7-.2-4.1-.3H455z"/><linearGradient id="SVGID_7_" gradientUnits="userSpaceOnUse" x1="392" y1="843.315" x2="461.805" y2="843.315"><stop offset="0" stop-color="#fff"/><stop offset=".778" stop-color="#85aab0"/></linearGradient><path d="M397.8 1066.8c-1.9-.1-3.9-.3-5.8-.5 34.7-107.9 38-183.1 34-232.9-1.7-21.1-8.3-82.3-3-165.8 1.2-19.5 2.8-35.5 4-46 9.5-.6 19-1.2 28.6-1.9 8 71.6 21.6 261.4-57.8 447.1z" opacity=".06" fill="url(#SVGID_7_)"/><path d="M640 1062.5c-16.7 1.3-33.3 2.5-50 3.8-25.3-114.4-50.7-228.8-76.1-343.3l81.1-58.7c15 132.8 30 265.5 45 398.2z" opacity=".32" fill="#212734"/><path d="M583.5 1058.1l4.5 8.7 56.1-4.3 1.9-10.6zm-191.7-1.3c.1 3.2.1 6.4.2 9.5 20.7 2.7 41.3 5.4 62 8.1l3.9-8.5c-22.1-3-44.1-6.1-66.1-9.1z" fill="#212734"/></g><g id="pullover"><path class="st11" d="M490 655.1c-27.3-6.7-54.7-13.3-82-20 .4-3 .7-6 1.1-9 .4-3.3.8-6.6 1.1-9.8 1.8-16 3.4-31.2 4.8-45.4 4.3-44.9 6.5-81.5 7.1-112.8 0 0 1.6-61.5 27-82 6.2-5 12.8-8.2 19-10.4 3-1 5.8-1.8 8.6-2.3 3-.6 5.9-1.1 8.4-1.3 1.6 53.9 2.8 107.8 3.7 161.7.1-.1.1-.1 0 0 .1 3.1.1 6.3.1 9.4.6 37.4 1 74.8 1.1 112.2v9.7zm121-13c-3.6 1-7.4 2-11.3 2.9-4.8 1.1-9.8 2.1-15.1 3-3.7.6-7.4 1.2-10.9 1.6-5.1.7-10 1.1-14.7 1.5 0-2.1.1-4.3.1-6.4.8-38.8 1.2-78.2 1.2-118.3 0-55.3-.8-109.4-2.4-162.2.2.1.5.1.8.2 2.3.6 5.1 1.6 8.2 3 2.2 1 4.6 2.3 7 3.8 24.5 15.9 30.9 72.8 32.5 96 .4 6.2.5 10 .5 10 .1 6.3.3 12.7.4 19 1 45.4 2.2 90 3.4 139.8.2 2 .3 4 .3 6.1z"/><path class="st8" d="M490 655.1c-27.3-6.7-54.7-13.3-82-20 .4-3 .7-6 1.1-9l80.9 19.3v9.7zm121-13c-7.9 2.2-16.8 4.2-26.4 5.9-9.2 1.6-17.7 2.5-25.6 3.1 0-2.1.1-4.3.1-6.4l51.7-8.8c.1 2.1.2 4.1.2 6.2z"/><path class="st29" d="M477.9 533.5s-4 62.8-67.8 82.9c1.8-16 3.4-31.2 4.8-45.4 22.4-10.1 47-23.1 63-37.5zM447 493.6c-5.4 9.4-10.5 18.2-18.5 18.5-8.6.3-17.5-9.4-18.5-18.5-2.2-21.1 38.7-43.4 47-36.5 6.4 5.3-5.4 28.5-10 36.5z"/></g><g id="finger_left_1_"><path class="st15" d="M513.9 458.9c-.1 1.2-.9 3.1-1.9 5-1.5 3-3.4 6.1-4 7.2-.9 1.7-1.8 4-2 7.2-.1 1.4-.1 3.1.1 4.9-3.5 3.4-7.6 6.9-9.1 5.9-.7-.5-.4-1.8 0-5 1.2-9.8-.2-11.7 1.9-14.7 1.1-1.6 1.1-.5 6.1-4.3 4.9-3.7 8.1-7.3 8.8-6.7.2.1.1.4.1.5z"/><path class="st22" d="M512 464c-1.5 3-3.4 6.1-4 7.2-.9 1.7-1.8 4-2 7.2-2 1.7-3.6 2.1-3.5-1.2.1-5.2 5.3-10.1 9.5-13.2z"/></g><g id="tablet"><linearGradient id="SVGID_8_" gradientUnits="userSpaceOnUse" x1="505.305" y1="501.036" x2="583.682" y2="437.013"><stop offset="0" stop-color="#263041"/><stop offset="1" stop-color="#302e41"/></linearGradient><path d="M579.3 436.8l-6 27-12.3 55.3-2 9.1c-.7 3.3-3.7 5.6-6.5 5.2l-49-6.8c-.6-.1-1.1-.3-1.6-.5-.2-.1-.5-.3-.7-.4-4.1-2.7-4.4-7.8-4-9.3l18.1-81.3 3.6-16c.8-3.5 4-5.7 7.1-4.8l15 3.9 32.7 8.5c.8.2 1.5.6 2.1 1.2 0 0 3.1 2.6 3.5 5.9.2.8.2 1.9 0 3z" fill="url(#SVGID_8_)"/><linearGradient id="SVGID_9_" gradientUnits="userSpaceOnUse" x1="533.517" y1="473.28" x2="565.018" y2="447.548"><stop offset="0" stop-color="#fff"/><stop offset=".778" stop-color="#85aab0"/></linearGradient><path d="M573.3 463.8L561 519.1c-12.3-22.5-34.1-62.6-45.8-84.1l3.6-16c.8-3.5 4-5.7 7.1-4.8l15 3.9 32.4 45.7z" opacity=".04" fill="url(#SVGID_9_)"/></g><g id="hand_right"><path class="st15" d="M782.2 400.5c1 1.5-7.5 12.3-18.9 14.3-.8.1-2.4.4-4.2.5l-12.2 2.1-8.3 1.4-10.5 1.8-7.9 1.3c-1.2-.4-2.6-.9-4-1.6-1.1-.5-2.2-1.1-3.1-1.6v-.9c.8-2 1.4-3.9 2-5.4.6-1.6 1-3 1.4-3.9.6-.9 1.6-1.9 3.4-3.4.3-.2.6-.5.9-.7 7.1-5.3 20.2-13.3 24.2-14.8.6-.2 3.6-1.4 4.2-.4 1.6 2.2-11.5 12.2-9.6 15.5 1.5 2.6 10.7-.1 11.8-.4 1.3-.4 4.9-1.5 9-4.3 4.2-2.8 9.2-6.3 11-11.3.3-.9 1-3.1 3-4.6.3-.2 1.6-1.2 2.4-.8.3.2.5.7.5 1.2.8-.5 1.8-1 2.3-.7 1.4 1.1-2.6 11.9-11.1 18.9 2.8-1.8 5.6-4.1 7.3-7.1.5-.8 1.8-3.4 4.7-4.8.9-.4 2.2-1.1 2.6-.7.9.8-1.2 6.3-5.7 11.6.7-.5 1.5-.9 2.5-1.1.7-.3 1.9-.6 2.3-.1z"/><path class="st22" d="M746.9 417.3l-8.3 1.4-10.5 1.8-13-8.2c.6-1.6 1-3 1.4-3.9.6-.9 1.6-1.9 3.4-3.4.3-.2.6-.5.9-.7 7.4 3.7 19.3 9.7 26.1 13z"/><path class="st11" d="M743 418.1c0 .1 0 .1 0 0-.2 1.6-.4 3.2-.7 4.9-2.1 14.2-7.2 35.2-20.3 57.1-7.5 12.5-17 28.3-30 38.4-6.2 4.8-13.1 8.3-21 9.6-10.5 1.7-21.6-.4-32.3-5.6-11.2-5.5-22.1-14.5-31.2-26.4-5.5-7-10.4-15.1-14.4-24-1.6-4.8-3.1-9.7-4.7-14.5-10.1-31.2-20.2-62.3-30.3-93.5 18.1 1.6 29.2 7.7 36 13 25.9 20.1 21.3 52.9 55 90 9.1 10 13.3 11.7 17 12 22.3 1.5 43.7-53.4 47.1-62 .3-.8.6-1.6.9-2.3.9-2.4 1.6-4.3 2-5.7 4.3 1 9 2.3 14 4 2.3.8 4.5 1.6 6.6 2.4 2.1.9 4.3 1.8 6.3 2.6z"/><path class="st8" d="M688.5 516.9l1-1.8c.1-.2.1-.5-.2-.7-.2-.1-.5-.1-.7.2l-1.1 1.9c-2.2-.9-4.4-1.7-6.4-2.3l.7-2.5c.1-.3-.1-.5-.4-.6-.3-.1-.5.1-.6.4l-.6 2.4c-2.1-.6-4.1-1.1-6.1-1.4l.2-1.9c0-.3-.2-.5-.5-.5s-.5.2-.5.5l-.2 1.9c-2.5-.4-5-.6-7.2-.6l-.3-2.3c0-.3-.3-.5-.6-.4-.3 0-.5.3-.4.6l.3 2.1c-2.2 0-4.2.2-6.2.6l-.4-1.8c-.1-.3-.3-.4-.6-.4-.3.1-.4.3-.4.6l.4 1.8c-2.1.4-4 1-5.7 1.6l-1-1.3c-.2-.2-.5-.3-.7-.1-.2.2-.3.5-.1.7l.8 1.1c-1.9.7-3.6 1.6-5.1 2.5l-.9-1.2c-.2-.2-.5-.3-.7-.1-.2.2-.3.5-.1.7l.8 1.1c-2.6 1.6-4.7 3.4-6.4 5 10.7 5.3 21.8 7.3 32.3 5.6 7.9-1.3 14.9-4.8 21-9.6-1.1-.8-2.2-1.3-3.4-1.8zm54.5-98.8c0 .1 0 .1 0 0-.2 1.6-.4 3.2-.7 4.9l-28.4-8.3c.9-2.4 1.6-4.3 2-5.7 4.3 1 9 2.3 14 4 4.8 1.7 9.2 3.4 13.1 5.1z"/><path class="st29" d="M743 418.1c0 .1 0 .1 0 0-.2 1.6-.4 3.2-.7 4.9-2.1 14.2-7.2 35.2-20.3 57.1-7.5 12.5-17 28.3-30 38.4-6.2 4.8-13.1 8.3-21 9.6-10.5 1.7-21.6-.4-32.3-5.6-11.2-5.5-22.1-14.5-31.2-26.4 1 45.4 2.2 90 3.4 139.8.1 2.1.1 4.1.2 6.2-3.6 1-7.4 2-11.3 2.9-4.8 1.1-9.8 2.1-15.1 3-3.7.6-7.4 1.2-10.9 1.6 2.6-42.3 11.3-183.1 12.3-187.5.6-2.8 2.3-4.5 2.3-4.5 4.1-5.2 9.8.7 18.2 9.5 13.6 14.4 34.3 36.6 66.5 32 49-7 61.3-68.5 63.6-83.6 2 .9 4.1 1.8 6.3 2.6z"/></g><g id="hand_left"><path class="st15" d="M547 474.1c.2.5.7 2.3-7 9-3 2.6-5.9 4.8-9 7-1.3.9-11.2 7.7-21.6 14.7-2.8 1.9-5.7 3.9-8.4 5.7-4.3 2.9-8.2 5.6-11.2 7.6 0-7.3.1-14.7.1-22 1.9-2.5 3.7-4.8 5.5-6.8 3.2-3.7 6.2-6.7 8.6-9 2.7-2.5 3.3-2.9 5.7-4.9 1.9-1.5 2.9-2.4 5.2-4.3 13.7-11.8 22.2-17.8 24-17 .1 0 .8.3 1 1 1 2.7-6.8 7.1-17 17l-3 3c6.5-3.6 11-7.3 14-10 2.9-2.7 7.7-7.5 10.3-6.2 0 0 .5.2.7.9.6 1.3-2.3 4.5-4.2 6.5 1.9-1.4 4-2.7 5.1-2.2.1 0 .7.3 1 1 .7 1.7-1.6 4-7 9-5.2 4.8-7.7 7.2-10 9-1.3 1-2.8 2.1-4.3 3.2 4.2-2.3 7.3-4.6 9.3-6.2 0 0 9.7-7.7 11-7 1 .4 1.2 1 1.2 1z"/><path class="st22" d="M509.4 504.9c-2.8 1.9-5.7 3.9-8.4 5.7l-5.5-21.2 13.9 15.5z"/><path class="st11" d="M503 509.1c-1.6 1.8-3.3 3.6-5.2 5.6-13.2 14-34.2 32.7-63.8 47.4-16.7 8.3-35.8 17.8-51.3 19.8-2.8.4-5.4.5-7.9.3-4.5-.3-8.5-1.6-11.8-4.1-7.2-5.6-9.2-16-7.7-30.2.2-1.6.4-3.3.6-5 2.1-14.3 7.1-31.9 13.5-51.9 3.2-10 6.8-20.7 10.5-31.8 1.9-5.8 14.7-42.8 40.7-68.9 1.1-1.1 2.4-2.4 4.3-4.1 8.8-7.6 18.3-12.8 27.2-16.3 12.8-5.1 24.7-6.9 32.8-7.7.3 24 .7 48 1 72-4.9 4-10.8 9-17.4 15.2-7 6.6-14.8 14.5-22.6 23.8-12.6 14.8-27.8 32.7-24 38 2 2.7 9.5 2.8 32-6.9 9.8-4.2 22.4-10.3 38.6-18.7 1.4-.8 2.9-1.5 4.4-2.3 2.1 8.5 4.1 17.2 6.1 25.8z"/><path class="st8" d="M384 578.5c-.1-.3-.4-.4-.6-.3l-1.5.5c-.6-1.9-1.3-3.9-2.2-5.9l2-.7c.3-.1.4-.4.3-.6-.1-.3-.4-.4-.6-.3l-2.1.7c-1.1-2.4-2.4-4.8-4-7.1l2.1-1.5c.2-.2.3-.5.1-.7s-.5-.3-.7-.1l-2.1 1.5c-1.3-1.8-2.7-3.6-4.4-5.3l1.9-1.6c.2-.2.2-.5.1-.7-.2-.2-.5-.2-.7-.1l-1.9 1.7-1.3-1.3c-1.1-1-2.2-1.9-3.3-2.8l1.5-2.6c.1-.2.1-.5-.2-.7-.2-.1-.5-.1-.7.2l-1.5 2.5c-1.7-1.2-3.3-2.3-4.9-3.2l.7-2.1c.1-.3-.1-.5-.3-.6-.3-.1-.5.1-.6.3l-.7 2c-1-.6-2.1-1.1-3.1-1.5-1.5 14.2.5 24.7 7.7 30.2 3.3 2.5 7.3 3.8 11.8 4.1 2.5.2 5.2 0 7.9-.3-.2-.8-.4-1.5-.6-2.3l1.5-.5c.3-.4.5-.7.4-.9zm119-69.4c-1.6 1.8-3.3 3.6-5.2 5.6l-5.3-29.3c1.4-.8 2.9-1.5 4.4-2.3 2.1 8.7 4.1 17.4 6.1 26z"/><linearGradient id="SVGID_10_" gradientUnits="userSpaceOnUse" x1="369.46" y1="430.39" x2="452.24" y2="430.39"><stop offset="0" stop-color="#fff" stop-opacity=".5"/><stop offset=".836" stop-color="#db7643"/></linearGradient><path d="M452.2 369.8c-6.6 7.6-15.3 18.8-27.2 34.3-15.8 20.5-26.3 37.9-55.5 86.8 3.2-10 6.8-20.7 10.5-31.8 1.9-5.8 14.7-42.8 40.7-68.9 1.1-1.1 2.4-2.4 4.3-4.1 8.8-7.5 18.3-12.7 27.2-16.3z" opacity=".12" fill="url(#SVGID_10_)"/></g></g><g id="vase_with_plants"><g id="plants"><path class="st33" d="M167.7 521.2c-.3-16.8-.5-33.6-.8-49.5 3.4 2.4 12.8-7.5 12.8-7.5h-.2c-1.5.1-9.7.6-12.6 3.2-.2-13.6-.4-26.5-.6-38.2 9.4-1.4-1.3-26.8-1.9-28.2s-8.8 24.4-1 27.9c.1 5.4.2 13 .3 22.3-4.2-4.7-11.9-9.2-11.9-9.2s5.5 19.8 12 17.5c.1 5.5.2 11.5.3 17.8-2.6-3-13.5-2.1-13.9-2 0 0 11.1 9.3 14 5.2.4 24.2.8 52.9 1.3 80.4-5.3-.1-10.5.7-11.7 3.9-1.3-8-2.7-16.2-4.1-24.5 4.2 2 9.9-11.5 10.1-12.1-.5.2-8.3 3.7-10.9 7.3-1.6-9.8-3.3-19.8-5-29.7 6.1 1.7 15.3-15.6 16.4-17.7.1-.1.1-.2.1-.2s-13.1 4.4-17.8 9.9c-1.4-8.6-2.9-17.2-4.3-25.6-.8-4.7-1.6-9.3-2.3-13.8-1.3-7.8-2.6-15.4-3.8-22.7 6.8 2.2 16.5-18.9 16.8-19.5-.4.2-13.4 5.3-18.1 11.2-.5-3-1-5.9-1.5-8.7 8.7-2.1 5.7-31.5 5.7-31.5l-.2.2c-2 2.6-19.9 27-8.5 31 1.3 7.8 3.5 21.2 6.3 38-2.5-1.7-10.6 1.6-10.6 1.6s9.3 4 11 1c.1.3.1.6.2.9.8 5 1.7 10.3 2.6 15.8 2.3 13.9 4.9 29.1 7.5 44.6-5-3.3-15.2-5-16.9-5.2h-.2s12.8 16.8 18.3 12.2c1.3 7.8 2.6 15.7 3.9 23.5-3.7-4.5-20.5 3.4-20.5 3.4s19.3 7 21.1 0c8.8 52.8 16.9 100.3 17.3 101.6.1.4.5.7.8.9.2 7.1.3 11.3.4 11.7.1.7.8 1.2 1.4 1.2h.3c.8-.2 1.3-.9 1.2-1.7-.2-1.8-.9-38.4-1.7-85.1 0-1.3 0-2.5-.1-3.8 0-2.3-.1-4.7-.1-7.1v-4.1c4.9-2.3 9.2-5.1 9.5-5.3 0 0-4.5-.9-9.6-1.3-.2-11.3-.4-23-.6-34.8 3.6 4.1 13-5.8 16.2-9.4.7-.8 1.1-1.3 1.1-1.3s-13.8 1-17.5 5.5zm-2.1 47.6v3.8c.1 3.5.1 7 .2 10.4v.8c.4 22.6.8 43.2 1 58.5-2.6-14.9-7.1-41.6-12.3-72.9 2 2.1 6.5 1.2 11.1-.6z"/><path class="st33" d="M201.9 488.4c-.5 3-1 6.1-1.5 9.1 4-.9 12.3 6.9 12.3 6.9h-.3c-1.6 0-9.7 0-12.8-2.3-2 11.5-3.9 22.9-5.8 33.9 5.8-2.4 18.8 1.3 18.8 1.3s-15 8.5-20 5.5c-1.1 6.6-2.2 13-3.3 19.2-.7 4.3-1.5 8.6-2.1 12.7-5.9 34.8-10.1 59.9-10.2 61.4 0 .8-.7 1.5-1.5 1.5s-1.5-.7-1.5-1.5c0-1 4.2-26.2 9.9-60 .8-4.6 1.6-9.3 2.4-14.2 0-.1 0-.3.1-.4-6.4 1.9-11.1-17.5-11.1-17.5s8.7 5.6 12.3 10.6c3.3-19.4 6.9-40.4 10.3-60.6 1.4-8.5 2.9-16.8 4.2-24.8v-.1c-.1 0-.2 0-.2.1-5.5 1.4-16.9-9-17.6-9.6s14.3-.5 18.9 3.2c1.5-9 3-17.6 4.3-25.5-6.4.9-17.8-13-17.8-13h.1c1.5.2 13.8 1.6 18.9 5.4.1-.8.3-1.5.4-2.3v-.2c2-11.5 3.6-20.8 4.6-27-10.5-1.3-8.6-33.6-8.6-33.6l.3.3c2.6 3.1 22.9 28.5 11.4 32.9h-.1c-.8 5-1.7 10.1-2.7 15.5 6.4-3.2 18.8-3.2 20.4-3.2h.2s-15.7 15-22 12.1c-.1 0-.1 0-.2-.1-1.4 8.4-2.9 17.2-4.5 26.2 5.5-3 18.6-.6 20.8-.2.2 0 .3.1.3.1s-17.5 11.5-22.3 7.1c0 .2-.1.4-.1.6-.5 3.1-1.1 6.3-1.6 9.5-.7 7-1.9 14-3.1 21z"/><path d="M217.1 399.7c-2.6-7.7-7.5-22-11.4-32.9 2.6 3.2 22.9 28.5 11.4 32.9zm17.9 12.4s-15.7 15-22 12.1v-.1l21.8-12h.2zm-5.5 38.2s-17.5 11.5-22.3 7.1c0 .2-.1.4-.1.6l-.1-.8 22.2-6.9c.2-.1.3 0 .3 0zM202 469.1c-5.5 1.5-16.9-9-17.6-9.6l17.6 9.6zm10.6 35.3h-.3c-3.9-1.3-10-3.8-12-6.9 4.1-1 12.3 6.9 12.3 6.9zm0 32.9l-18.8-1.3c5.8-2.3 18.8 1.3 18.8 1.3zm-26.1 24.2c-6.4 1.9-11.1-17.5-11.1-17.5l11.1 17.5zm22.4-131.8l-.7 3.8c-9.4-3.1-15-6.6-18.2-9.2 1.6.2 13.8 1.6 18.9 5.4zm-42.6-.5l-1.9-28.2c.6 1.4 11.2 26.8 1.9 28.2zm-2.5 30.2c-6.5 2.3-12-17.5-12-17.5 2.2 4.1 5.9 10.2 12 17.5zm15.9 4.8s-9.3 9.9-12.8 7.5c1.6-3 8.8-6 12.5-7.5h.3zm-15.6 16.1c-2.9 4.2-14-5.1-14-5.1l14 5.1zm21.1 35.1s-.4.5-1.1 1.3c-4.2 2.2-11.5 5.4-16.3 4.5 3.6-4.5 17.4-5.8 17.4-5.8zm-50.4-128.1l-8.5 31c-11.4-4 6.6-28.4 8.5-31zm14.1 28.8c-11.6 12.9-18.1 11.2-18.1 11.2 4.7-5.9 17.7-11.1 18.1-11.2zm-15.8 42.8c-1.7 3-11-1-11-1s10.7-.8 11 1zm27.2 29.1c-1.1 2.1-10.3 19.3-16.4 17.7 3-8.1 12.1-14.9 16.4-17.7zm-15.8 39.1c-5.5 4.5-18.3-12.2-18.3-12.2h.2c7.5 4.4 18.5 11.1 18.1 12.2zm15.3 1c-.3.5-5.6 8.3-11 7.3 2.7-3.7 10.5-7.1 11-7.3zM127.9 554s16.8-8 20.5-3.4c1 2.7-20.5 3.4-20.5 3.4zm50.1 8.2c-3.1 3.1-6.1 5.2-8.3 6.7-4.4 2.8-7.3 4.6-10.5 3.8-2.2-.6-3.8-2.2-4.6-3.3l23.4-7.2z" fill="#182828"/><path class="st16" d="M205.5 467.4c-1.2 6.9-2.4 14-3.6 21L198 494c1.4-8.5 2.9-16.8 4.2-24.8l3.3-1.8zm-67.2 4.7l-2.4 3.4c-.9-5.5-1.8-10.8-2.6-15.8l2.7-1.5c.7 4.6 1.5 9.2 2.3 13.9zm51.1 90c-.7 4.3-1.5 8.6-2.1 12.7l-3.2 1.3c.8-4.6 1.6-9.3 2.4-14.2.9.1 1.9.2 2.9.2z"/></g><g id="vase"><path class="st20" d="M199.3 627.8v81.4c0 1 0 2-.2 2.9h-59c-.1-1-.1-1.9-.1-2.9v-81.4c0-11 6-20.5 14.8-25.7.1 0 .1-.1.2-.1v-11.9h30v12.3c8.6 5.2 14.3 14.6 14.3 25.4z"/><path class="st5" d="M185 590.1v12.2l-30-.3v-11.9zm14.3 111v8.1c0 1 0 2-.2 2.9h-59c-.1-1-.1-1.9-.1-2.9v-8.1h59.3z"/><path class="st21" d="M199.4 627.8v81.4c0 1 0 2-.2 2.9H184l-9.2-122h10.3v12.3c8.6 5.2 14.3 14.6 14.3 25.4z"/></g></g><g id="books"><g id="book3"><path d="M311.6 709.1c.2.7.4 1.4.5 2h-121c-1.2-1.9-4.1-6.9-4-14 .1-6.5 2.8-11.1 4-13h121c-.1.3-.2.6-.3 1-.9 3.2-1.8 7.7-1.7 13 .1 4.4.7 8.1 1.5 11z" fill="#fff"/><path d="M316.1 710.6c0 .8-.7 1.5-1.5 1.5H190.7c-.5 0-1-.2-1.2-.7-1.7-2.5-4.5-7.8-4.3-14.9.1-6.2 2.4-10.9 4.3-13.8.3-.4.8-.7 1.2-.7h123.4c.8 0 1.5.7 1.5 1.5s-.7 1.5-1.5 1.5H191.5c-1.6 2.6-3.3 6.5-3.4 11.5-.1 5.7 1.9 10 3.4 12.5h123.1c.9.1 1.5.8 1.5 1.6z" fill="#4e8b76"/><path d="M305.6 690.1h-111c-.3 0-.5-.2-.5-.5s.2-.5.5-.5h111c.3 0 .5.2.5.5s-.2.5-.5.5zm0 2h-111c-.3 0-.5-.2-.5-.5s.2-.5.5-.5h111c.3 0 .5.2.5.5s-.2.5-.5.5zm0 2h-111c-.3 0-.5-.2-.5-.5s.2-.5.5-.5h111c.3 0 .5.2.5.5s-.2.5-.5.5zm0 2h-111c-.3 0-.5-.2-.5-.5s.2-.5.5-.5h111c.3 0 .5.2.5.5s-.2.5-.5.5zm0 2h-111c-.3 0-.5-.2-.5-.5s.2-.5.5-.5h111c.3 0 .5.2.5.5s-.2.5-.5.5zm0 2h-111c-.3 0-.5-.2-.5-.5s.2-.5.5-.5h111c.3 0 .5.2.5.5s-.2.5-.5.5zm0 2h-111c-.3 0-.5-.2-.5-.5s.2-.5.5-.5h111c.3 0 .5.2.5.5s-.2.5-.5.5zm0 2h-111c-.3 0-.5-.2-.5-.5s.2-.5.5-.5h111c.3 0 .5.2.5.5s-.2.5-.5.5zm0 2h-111c-.3 0-.5-.2-.5-.5s.2-.5.5-.5h111c.3 0 .5.2.5.5s-.2.5-.5.5z" opacity=".18" fill="#2f2b33"/></g><path d="M316.1 710.6c0 .8-.7 1.5-1.5 1.5h-66.4c.1-.3.1-.7.2-1 0-.1.1-.2.1-.4.1-.5.2-1.1.2-1.6 0-.4.1-.8.1-1.1.1-.8.1-1.6.2-2.4v-2.4c0-.5 0-1-.1-1.6 0-.4 0-.8-.1-1.2 0-.3-.1-.6-.1-.8-.1-.6-.2-1.3-.3-1.9v-.1c-.1-.7-.2-1.3-.3-2 0-.2-.1-.4-.1-.7-.1-.4-.2-.9-.3-1.3-.1-.5-.2-.9-.4-1.4 0-.2-.1-.4-.2-.6-.2-.7-.4-1.3-.6-2v-.2c-.3-.9-.6-1.8-1-2.8-.2-.5-.4-1.1-.6-1.6-.1-.3-.3-.7-.4-1 0 0 0-.1-.1-.1-.3-.6-.5-1.2-.8-1.9h70.5c.8 0 1.5.7 1.5 1.5s-.7 1.5-1.5 1.5h-2.3c-.9 3.2-1.8 7.7-1.7 13 0 4.3.7 8.1 1.5 11h3c.9.1 1.5.8 1.5 1.6z" opacity=".08" fill="#2b303e"/></g><linearGradient id="chair_1_" gradientUnits="userSpaceOnUse" x1="23" y1="984.068" x2="168" y2="984.068"><stop offset="0" stop-color="#263041"/><stop offset="1" stop-color="#302e41"/></linearGradient><path id="chair" d="M167.1 822.1H23.9c-.5 0-.9 1.6-.9 3.6v12c0 2 .4 3.6.9 3.6h8.7l60.9 148.5-62.9 153.4c-.4 1 .1 2.2 1.1 2.6.2.1.5.2.8.2.8 0 1.5-.5 1.9-1.2l61.4-149.6 61.4 149.6c.3.8 1.1 1.2 1.9 1.2.3 0 .5 0 .8-.2 1-.4 1.5-1.6 1.1-2.6L97.9 989.9l60.9-148.5h8.2c.5 0 .9-1.6.9-3.6v-12c.1-2-.3-3.7-.8-3.7zM95.7 984.6L36.9 841.4h117.6L95.7 984.6z" fill="url(#chair_1_)"/><g id="table"><path class="st8" d="M635 716.3v15.4c0 2.6-1.8 4.6-4 4.6h-27.8v5.4c.1 12.3.1 30.4.1 53.7v162.4c-.1 88.3-.2 177.3-.3 216 5.8 1.7 10 7.1 10 13.4 0 7.7-6.3 14-14 14s-14-6.3-14-14c0-6.7 4.7-12.3 11-13.7.3-140.7.1-375.5 0-437.1H58.3v5.4c.1 12.3.1 30.4.1 53.7v162.4c-.1 88.3-.2 177.3-.3 216 5.8 1.7 10 7.1 10 13.4 0 7.7-6.3 14-14 14s-14-6.3-14-14c0-6.7 4.7-12.3 11-13.7.3-140.7.1-375.5 0-437.1H30c-2.2 0-4-2.1-4-4.6v-15.4c0-2.6 1.8-4.6 4-4.6h601c2.2-.2 4 1.8 4 4.4z"/><linearGradient id="SVGID_11_" gradientUnits="userSpaceOnUse" x1="278.47" y1="956.405" x2="635" y2="956.405"><stop offset="0" stop-color="#e08944"/><stop offset="1" stop-color="#ebbb5c"/></linearGradient><path d="M635 716.3v15.4c0 2.6-1.8 4.6-4 4.6h-27.8v5.4c.1 12.3.1 30.4.1 53.7v162.4c-.1 88.3-.2 177.3-.3 216 5.8 1.7 10 7.1 10 13.4 0 7.7-6.3 14-14 14s-14-6.3-14-14c0-6.7 4.7-12.3 11-13.7.3-140.7.1-375.5 0-437.1H284.8l-6.3-24.7H631c2.2 0 4 2 4 4.6z" opacity=".5" fill="url(#SVGID_11_)"/></g></g></g></svg>