<svg xmlns="http://www.w3.org/2000/svg" width="1163.8" height="1156.9"><style>.st0{fill:#eeedee}.st1{fill:#ebdede}.st2{fill:#f8e7e1}.st3{fill:#ddddd7}.st4{fill:#fff}.st5{fill:#eaba5c}.st6{fill:#df8744}.st7{opacity:5.000000e-02;fill:#2a303d}.st8{opacity:6.000000e-02;fill:#253041}.st11{fill:#e2c8c0}.st12{fill:#8376a2}.st14{fill:#bacfda}.st20{fill:#31445a}.st21{fill:#000105}.st23{fill:#2a303d}.st25{fill:#3d6658}.st26{opacity:9.000000e-02;fill:#2a303d}.st30{fill:none}.st33{opacity:.6;fill:#3d6658}.st40,.st47{opacity:.6;fill:#31445a}.st47{opacity:.4}</style><g id="background"><g id="general"><g id="figures"><g id="figure2"><path class="st0" d="M1095.7 1069.1c-53.6 47.7-114.2 3.7-254.3-16.8-36.5-5.3-78.5-9.1-127.1-9.2-218.1-.4-286.8 73.1-486.6 30.8-135.6-28.7-171.9-77.1-182.9-93.1-37-53.9-17.5-95.1-20.8-251.7C20.3 548-8.2 487.5 18.5 473.7c55.4-28.8 168.7 236.2 391 256.8 50.6 4.7 126.9-1.6 196.9-39.9 35.4-19.4 44.9-33.7 151.3-137 75-72.8 112.5-109.2 148.4-137 72.8-56.2 181.4-140.1 231.2-110.3 49.7 29.7-8 143.7-18.2 386.6-.2 4.8-.4 9.5-.5 14.1-8 233.2 35.6 310.1-22.9 362.1z"/><path class="st1" d="M1095.7 1069.1c-53.6 47.7-114.2 3.7-254.3-16.8-21.2-35.4-33.4-76.9-33.4-121.2 0-130.4 105.7-236.2 236.2-236.2 26 0 51 4.2 74.3 12-7.9 233.3 35.7 310.2-22.8 362.2z"/></g><g id="figure1"><path class="st1" d="M1123.5 237.3c-47.2 55.4-79.6 47.6-178.3 114.8-44.5 30.3-80.6 61-97.5 75.4-.8.6-11 9.4-21.8 19-96.6 86.5-155.7 171.2-232.7 213.6C495 714 386.5 689 373.9 685.9c-79.3-19.5-132-74.3-237.6-183.7-45.9-47.6-75.4-78.2-94.1-106.4-7.5-11.3-13.2-22.3-17.6-33.8C2.4 303.4-5.3 232.4 3.7 173.7c7.6-49.5 27.1-90.2 59.7-107.4 28.6-15 54.7-5.5 87.7 9 1 .4 2 .9 3 1.3 3.9 1.7 7.9 3.5 12 5.3 1.4.6 2.8 1.2 4.2 1.9 33.6 14.7 74.6 30.4 130.7 31 104.8 1.2 123.4-51.9 203.9-82.3 2.2-.8 4.4-1.6 6.7-2.4 14.2-4.9 30.2-9.1 48.9-12.3 69-11.6 124.9-.3 177.3 19.2.9.3 1.9.7 2.8 1 1.5.6 3 1.2 4.6 1.8l3 1.2c97.2 38.4 184 101.8 322.5 93.2 18.6-1.2 79.7-6.2 91.2 19.1 11.5 25.4-30.6 74.9-38.4 84z"/><path class="st0" d="M116.8 288.4c0 49.2-31 91.2-74.5 107.4-7.6-11.3-13.3-22.3-17.7-33.8C2.4 303.4-5.3 232.4 3.7 173.7c62.6.9 113.1 51.9 113.1 114.7z"/></g></g><g id="posters"><g id="poster2"><path class="st2" d="M1070.5 53.7v302c0 7.1-5.8 12.9-12.9 12.9H853.7c-7.2 0-12.9-5.8-12.9-12.9v-302c0-7.1 5.8-12.9 12.9-12.9h203.9c7.1 0 12.9 5.8 12.9 12.9z"/><path class="st3" d="M1001.1 232.2c-8.4 1.3-17.9 2.2-28.3 2.3-10.8.1-20.7-.7-29.3-2-1.7-12-3.7-24.3-5.9-37-2.4-13.8-5-27.1-7.7-39.8 14.1.7 72.5.7 85.9 0-2.7 12.6-5.4 25.5-7.9 38.8-2.5 12.8-4.7 25.4-6.8 37.7z"/><path class="st3" d="M971.3 237c-9.4 0-18.8-.7-28.1-2-1.1-.2-2-1-2.1-2.1-1.8-12.3-3.7-24.7-5.9-36.9-2.3-13.2-4.9-26.6-7.7-39.8-.2-.8 0-1.6.5-2.1.5-.6 1.3-.9 2-.9 13.6.7 72.1.7 85.7 0 .8 0 1.5.3 2 .9s.7 1.4.5 2.1c-2.8 12.8-5.5 25.9-7.9 38.8-2.4 12.4-4.6 25.1-6.7 37.6-.2 1.1-1 1.9-2.1 2.1-9.5 1.5-19.1 2.3-28.7 2.4-.5-.1-1-.1-1.5-.1zm29.8-4.8zm-55.4-1.9c9 1.2 18.1 1.8 27.1 1.7 8.7-.1 17.5-.8 26.2-2 2-12 4.2-24.1 6.4-35.9 2.3-11.9 4.7-23.9 7.3-35.7-16.7.5-63 .5-79.7 0 2.6 12.2 4.9 24.5 7.1 36.8 2 11.5 3.9 23.4 5.6 35.1z"/><path class="st0" d="M943.5 232.5c-2.7 6.7-5.4 13.5-8 20.2h73.3c-2.5-6.9-5.1-13.7-7.6-20.6-8.7 1.3-18.6 2.2-29.5 2.3-10.4.1-19.8-.7-28.2-1.9z"/><path class="st3" d="M935.5 252.7c-2.6 28.5-5.2 56.9-7.8 85.4h89.3c-2.7-28.5-5.5-56.9-8.2-85.4h-73.3z"/><path class="st3" d="M1016.9 340.6h-89.3c-.7 0-1.4-.3-1.8-.8s-.7-1.2-.6-1.9l7.8-85.4c.1-1.3 1.2-2.3 2.5-2.3h73.2c1.3 0 2.4 1 2.5 2.3l8.2 85.4c.1.7-.2 1.4-.6 1.9s-1.2.8-1.9.8zm-86.5-5h83.8l-7.7-80.4h-68.7l-7.4 80.4z"/><path class="st0" d="M932.1 333.3c1.9-13.6 4.3-29.5 7.3-48 1.5-9.2 3.5-21 10-23.7 1-.4 2.8-1.1 4.4-.4 5.5 2.6 1.4 18.5.5 37.2-.4 8.5-.2 20.5 2.4 34.9h-24.6zm79.6 0c-2.4-19.4-4.9-35.6-6.8-48-1.2-7.7-3.2-19.2-9.3-20.7-.4-.1-2.4-.6-4.2.5-5.4 3.2-1.8 17.1-.5 30.1.9 9.1 1.1 22.1-2.3 38.2 7.7-.1 15.4-.1 23.1-.1zM936 162.8c1.9 11.3 4.2 24.5 7.2 39.9 1.5 7.7 3.4 17.5 9.4 19.6.9.3 2.6.9 4.1.2 4.9-2.4 0-16.1-.7-32.9-.3-6.7.1-16 2.7-27.2-7.5.1-15.1.2-22.7.4zm72.8.4c-2.2 11.4-5 24.8-8.3 40.4-1.7 7.7-3.9 17.7-9.4 19.5-.8.3-2.3.7-3.7 0-4.8-2.4-.2-15.9 1.8-33.1.7-6.5 1.4-15.8.7-27.3 6.3.1 12.6.3 18.9.5zm-25.1 170.1c-.4-16.4-.2-29.6 0-38.4.4-17.2 1.2-27.7-4.3-31.5-2.5-1.7-6-1.7-8.6-.4-4.7 2.5-6.7 9.7-8.2 33.6-.6 9.5-1.1 21.9-1 36.7h22.1zm-19.6-170.7c.3 13.2.3 23.6.3 30.1 0 17.7-.4 26.5 4.4 29.7 1.9 1.3 4.7 1.7 6.9.6 4.1-2 5.5-8.6 6.7-31.4.4-7.1.8-16.7 1-28.3-6.4-.2-12.9-.5-19.3-.7z"/><path class="st3" d="M935.9 184.2l-30.7-28.7c7.9 1.3 15.9 2.6 23.8 3.9m39.2-3.2l-7.8-28.3h27l-6.2 28zm49.5-.7c8.3 1 16.6 1.9 24.9 2.9.9.1 1.6.7 2 1.7l13.1 31.5c.4 1 .3 2.2-.2 3.1-10.2 16.8-20.4 33.7-30.7 50.5-1.2 2.1-3.9 1.5-4.5-.9-.3-1.5-.7-3-1-4.4-.2-.8-.1-1.6.2-2.3L1041 195l-9.4-20.5c-.5-1.2-1.7-1.8-2.8-1.5l-13.1 3.7c-1.8.5-3.4-1.3-3.1-3.5.7-5.1 1.5-10.2 2.2-15.2.4-1.6 1.6-2.7 2.9-2.5zm4.4 186.7h-100c-1.3 0-2.4-1.1-2.4-2.4v-.4c0-1.3 1.1-2.4 2.4-2.4h100c1.3 0 2.4 1.1 2.4 2.4v.4c0 1.3-1.1 2.4-2.4 2.4z"/><path class="st3" d="M987.6 130.5h-27.8c-1.3 0-2.4-1.1-2.4-2.4v-.4c0-1.3 1.1-2.4 2.4-2.4h27.8c1.3 0 2.4 1.1 2.4 2.4v.4c0 1.3-1.1 2.4-2.4 2.4z"/><path class="st4" d="M935.4 109.4c-14.3-8.3-27.2 36.9-29.5 45.7 2.7-9.7 27.4-100.6-3.4-98.5-18.1 1.2-15.1 31.9-8.8 58.8-7.5-19.9-18.1-38.2-29.6-30.9-10 6.3-3.2 20.8 7.5 35-.6-.3-1.2-.7-1.8-1-6.8-3.5-18.5-9.5-29-9v47.7c15.4 4.5 38.3 4.5 64.9-.9-.1.2-.1.3-.1.3s.2-.1.5-.4c.1 0 .3-.1.4-.1 0-.1-.1-.1-.1-.2 6-5.2 43.6-38 29-46.5z"/><path class="st0" d="M896.8 343.8c-.3 2.9-1.8 14.2-7 25h-36c-7.2 0-12.9-5.8-12.9-12.9v-130c3.1 1.2 5.7 2.8 7.7 4.9 13.5 14.8-8 49.5 5.5 59.2 6.7 4.8 13.3-2.6 23.7 1.8 15.7 6.8 21 33.3 19 52zm173.7-290.1v41.5c-12.6-15.4-19.2-36.6-24.2-54.5h11.2c7.2.1 13 5.9 13 13z"/></g><g id="poster1"><path class="st2" d="M274 519.7v194.8c0 4.6-5.1 8.4-11.5 8.4H81.6c-6.4 0-11.5-3.7-11.5-8.4V519.7c0-4.6 5.1-8.4 11.5-8.4h180.8c6.4 0 11.6 3.8 11.6 8.4z"/><path class="st4" d="M99.7 621.5c2.3 39.1 30.9 70 65.8 70s63.5-30.9 65.8-70H99.7z"/><path class="st3" d="M230 622.4H100.7c-1.7 0-3.1-1.4-3.1-3.1v-.9c0-1.7 1.4-3.1 3.1-3.1H230c1.7 0 3.1 1.4 3.1 3.1v.9c0 1.7-1.4 3.1-3.1 3.1zm-45.2 74.2h-36c-1.7 0-3.1-1.4-3.1-3.1v-1.8c0-1.7 1.4-3.1 3.1-3.1h36c1.7 0 3.1 1.4 3.1 3.1v1.8c-.1 1.8-1.5 3.1-3.1 3.1zm22.4-23.7c-1.1 0-2.2-.8-2.4-1.9-.3-1.3.5-2.7 1.9-3l31.6-7.4c4.9-3.8 7-10.3 5.1-16-2.2-6.5-8.9-10.5-15.9-9.5-1.4.2-2.6-.8-2.8-2.1-.2-1.4.8-2.6 2.1-2.8 9.4-1.3 18.4 4.1 21.3 12.9 2.7 7.9-.3 17-7.3 22-.3.2-.6.3-.9.4l-32.1 7.5c-.2-.1-.4-.1-.6-.1z"/><circle class="st3" cx="122.9" cy="638.5" r="6.2"/><circle class="st3" cx="143" cy="669.3" r="6.2"/><circle class="st3" cx="202.3" cy="638.5" r="6.2"/><circle class="st3" cx="163.1" cy="638.5" r="6.2"/><circle class="st3" cx="183.2" cy="669.3" r="6.2"/><path class="st4" d="M171.8 603c-12.3-8.4-50.8-35.8-46.1-50.8.8-2.4 2.9-5.1 5.7-6.3 11.2-4.8 28.3 18.4 28.3 18.4-8.6-19.9-3.7-38.4 5.7-43.1 6.3-3.2 16.1-.8 20.4 5.7 8.4 12.5-3.2 40.6-3.2 40.6 8.5-18.9 20.3-29.2 28.2-26.7 3.5 1.1 6.5 4.8 7.6 8.8.6 2.2 2 9-8 22.8-5.7 7.7-17.2 20.7-38.6 30.6z"/></g></g><g id="lamps"><path class="st4" d="M155.6 241.7c0 2.1.1 4.2.1 6.3 0 .8-.7 1.5-1.5 1.5s-1.5-.7-1.5-1.5c0-2.1-.1-4.2-.1-6.3-.4-28.2-.7-56.4-1-84-.4-37.9-.6-64.5-.5-82.5 1 .4 2 .9 3 1.3 0 21.8.2 51.7.5 81.2.3 27.6.6 55.8 1 84zM737.6 37c.9.3 1.9.7 2.8 1-8.3 23.5-22.8 44.5-42.1 60.3-26.1 21.3-58.6 31.2-89.2 27.2-47.2-6.2-87-44.6-100.4-94.2l10.8 278.2.2 6.2v.1c0 .8-.6 1.5-1.5 1.5h-.1c-.8 0-1.5-.6-1.5-1.4l-.2-6.3-10-258.6c-4.9 47-20.7 91.1-46.1 127.1-29.9 42.4-69.4 68.6-108.3 71.9-31.6 2.7-63.5-10-94.9-37.7-42.3-37.3-74.3-93.6-91.2-130.6 1.4.6 2.8 1.2 4.2 1.9 3.8 8.2 8.4 17.4 13.7 27.1 15.8 29 41.6 69.7 75.2 99.4 30.7 27.1 61.9 39.6 92.7 37 38.1-3.2 76.7-29 106.1-70.7 28.3-40.2 44.7-90.7 46.9-144 2.2-.8 4.4-1.6 6.7-2.4 12.9 48.8 51.9 86.5 98 92.5 29.8 3.9 61.4-5.8 86.9-26.6C715.4 80.6 729.5 60 737.6 37zm10.5 136.8v6.3c0 .8-.7 1.5-1.5 1.5s-1.5-.7-1.5-1.5V39.8l3 1.2v132.8z"/><path class="st3" d="M145.9 276.2v-26.3c0-4.5 3.7-8.3 8.3-8.3 4.5 0 8.3 3.7 8.3 8.3v26.3c-.6.6-3.5 3.4-8.3 3.4-4.7 0-7.7-2.9-8.3-3.4z"/><circle class="st4" cx="154.2" cy="284.4" r="17.6"/><path class="st3" d="M510 344.1v-26.3c0-4.5 3.7-8.3 8.3-8.3 4.5 0 8.3 3.7 8.3 8.3v26.3c-.6.6-3.5 3.4-8.3 3.4-4.7 0-7.7-2.9-8.3-3.4zm228.3-135.8V182c0-4.5 3.7-8.3 8.3-8.3 4.5 0 8.3 3.7 8.3 8.3v26.3c-.6.6-3.5 3.4-8.3 3.4-4.7 0-7.7-2.9-8.3-3.4z"/><circle class="st4" cx="518.3" cy="352.3" r="17.6"/><circle class="st4" cx="746.6" cy="216.5" r="17.6"/></g></g></g><g id="main"><g id="general_1_"><g id="chair"><path class="st5" d="M803 792.4c-72.5-4.6-145-9.2-217.4-13.7 1.2-33.6 8.7-93.2 47.9-147.2 13.6-18.8 32.9-44.5 67-54.3 8.8-2.5 31.9-8.8 57.4 1.5 3.5 1.4 14.4 5.8 24.7 15 5.3 4.7 10.4 10.7 14.3 18.1 5.5 10.7 6.6 21.1 5.7 31.9-.9 12.1-4.2 24.7-6.5 38.6-4.2 26-5.6 62.8 6.9 110.1z"/><path class="st6" d="M790.6 791.8c-72.5-4.6-145-9.2-217.5-13.7.3-9.5 1.2-21.2 3.1-34.2 4.9-32.8 16.6-74.4 44.7-113 13.6-18.8 32.9-44.5 67-54.2 8.8-2.5 31.9-8.8 57.4 1.5 5.3 2.1 27.8 11.2 39 33.1 6.8 13.3 6.8 26.2 4.8 40-1.4 9.6-3.8 19.7-5.6 30.6-4 25.8-5.4 62.7 7.1 109.9z"/><path class="st7" d="M790.6 791.8c-72.5-4.6-145-9.2-217.5-13.7.3-9.5 1.2-21.2 3.1-34.2l212.9-92.7c-1.4 9.6-3.8 19.7-5.6 30.6-4 25.9-5.4 62.8 7.1 110z"/><path class="st8" d="M802.5 643.7l-45.7-37.8 25.7-12.3c5.3 4.7 10.4 10.7 14.3 18.1 5.5 10.7 6.6 21.2 5.7 32z"/></g><g id="woman"><g id="hair"><linearGradient id="SVGID_1_" gradientUnits="userSpaceOnUse" x1="661.755" y1="516.76" x2="803.018" y2="516.76"><stop offset=".325" stop-color="#2a303d"/><stop offset="1" stop-color="#31445a"/></linearGradient><path d="M665.3 404.3c-1.3 4.7-12 46 11.2 68.3 2.8 2.7 6.5 5.4 11.2 7.7-3 3.2-7 8.4-9 15.7-2 7.2-.4 11.1-.9 22.1-.6 15.4-3.7 13.5-2.7 21.7 1.7 14.6 10.1 24.1 16.3 30.9 1.6 1.8 2.8 3 3.1 3.3 20.9 21 30 56.1 49.1 63 18.6 6.8 51-11.8 57.9-38.8 3.1-12 1.8-28.4-7.4-40-11.3-14.2-26.9-12-29.5-22.5-3-12.3 17.3-20.9 13.8-32.9-2.8-9.3-15.1-7.3-28-23.5-4.6-5.8-9.1-11.4-9-19 .1-8.9 6.5-12.2 6.7-22.4.2-6.7-2.5-11.7-4.5-15.7-9.7-19.4-31.6-25-34.7-25.7-22.3-5.3-40.2 5.6-43.6 7.8z" fill="url(#SVGID_1_)"/><linearGradient id="SVGID_2_" gradientUnits="userSpaceOnUse" x1="491.874" y1="546.459" x2="672.134" y2="546.459"><stop offset=".325" stop-color="#2a303d"/><stop offset="1" stop-color="#31445a"/></linearGradient><path d="M633.9 497.5c18.2-11.4-13.1-81.5-13.1-81.5-37.4 17.7-45.7 30.2-44.8 38.8.8 8.4 10.1 10.3 11.6 21.2 2.1 15.3-14.5 20.9-14.7 37.7-.1 16.7 16.5 24.2 13.1 31.7-3.8 8.4-24.3-1.2-46.3 6.2-26.6 8.9-50 40.6-47.5 72.5.2 2.4 3 33.4 24.1 44 19.3 9.7 29.3-10.1 56.8-1.4 13.5 4.2 28.3 14.4 46 8.6l.4-.2c36.5-12.1 51.6-55.4 52.6-85.5 1.3-40.8-23.1-69.4-30.1-77-2.3-5-5.1-10.2-8.1-15.1z" fill="url(#SVGID_2_)"/></g><g id="body"><path class="st11" d="M741.4 602.3c-.7 4-1.6 7.4-2.1 9.7 0 .1-.1.3-.1.4-.2 1-.5 2.1-.8 3.2-2.6 10.3-12.7 44.9-54.1 175.9-21.2-1-42.3-2-63.5-3.1-9.1-.6-18.1-1.2-27.2-1.8.9-18.1-2.3-29.4-5.6-36.5 0 0-5.2-16.9-10.5-35v-.2c-4.9-17-10-35-10.9-41.6-.1-.5-.1-.9-.2-1.2-.2-2-.2-3.9-.2-5.6V665c0-.4 0-.7.1-1.1 0-.3.1-.7.1-1 0-.3.1-.7.1-1 0-.3.1-.7.1-1 .4-2.4 1-4.5 1.7-6.5.1-.3.2-.7.4-1 .6-1.6 1.3-3.3 2.1-4.9.1-.2.2-.4.2-.6.6-1.5 1.3-3 2-4.7.1-.2.2-.4.2-.6.6-1.5 1.1-3.1 1.7-4.8.1-.3.2-.6.2-.8.2-.5.3-1.1.4-1.6.1-.3.1-.6.2-.8 0-.1.1-.3.1-.4.1-.2.1-.5.2-.7.7-3.1 1.4-6.6 1.8-10.7 2.6-18.6.1-27.1.7-32.9v-.5c0-.3.1-.6.1-.9 0-.2.1-.4.2-.7 0-.1.1-.3.1-.4.1-.2.1-.4.2-.6 0-.1.1-.3.2-.4.1-.3.3-.6.4-.8.4-.7.8-1.3 1.4-2 2.9-3.2 8.2-5.6 18.3-9.6 1.3-.5 2.6-1.1 4.1-1.6 0 0 1.1-.4 4.5-1.7.9-.3 1.8-.7 2.7-1.1 8.9-3.7 17.6-8.9 22.8-13.1.3-.2.6-.5.9-.7.6-.5 1.1-.9 1.5-1.3 3-2.8 5.3-6.3 6.9-10 5.5-12.5 4.5-28.3 3.7-35.5l35-12.3v3.3c.1 28.4 4.9 44.4 11.4 53.3.2.3.5.6.7.9 2.6 3.3 5.4 5.5 8.4 7 .6.3 1.1.5 1.7.8 11.3 4.7 23.2-.4 31.9 8.2 8.3 7.7 7.6 21.7 5.8 32.1z"/><path class="st8" d="M668.3 489.4c6.4 2.1 7.7 17.6 4 28.8-6.1 18.3-25.8 25-29.1 26.1 5.5-12.5 4.5-28.3 3.7-35.5 6.9-13.2 16-21.2 21.4-19.4zm-36.6 147c.7-5.7 1.6-19.3-5.4-34.3-8.1-17.3-21.7-25.6-26.6-28.3.7-.3 1.3-.5 2-.8.7-.3 1.4-.5 2.1-.8 0 0 1.1-.4 4.5-1.7.9-.3 1.8-.7 2.7-1.1 9.4 4.9 14.3 10.6 17 14.9 7.6 11.9 10.3 23 10.3 23 .8 3.4 1.5 7.5 5 10.2 3.7 2.8 6.9 1.3 8.3 3.5 2.4 4-4.1 15.9-13 16.8-2.9.3-5.4-.7-6.9-1.4z"/></g><g id="finger_left"><path class="st11" d="M448.5 602.6l20.6-27.8 2.3 5.6-9 13.5z"/><path class="st8" d="M448.5 602.6l20.6-27.8 2.3 5.6-9 13.5z"/></g><g id="shirt"><path class="st12" d="M743.7 569.9c-.7 10.8-1.5 21.6-2.2 32.3v.1c-.2.9-.4 1.7-.5 2.6-.5 2.4-1.1 4.8-1.6 7.1 0 .1-.1.3-.1.4-.4 1.8-.7 3.1-.8 3.2-.2.9 0 3.3 1.9 9.2-2.1 11.7-4.5 23.6-7.1 35.8-2.5 12.1-5.3 24.4-8.3 36.9-2.2 9.2-4.5 18.6-7 28-1.7 6.4-3.4 12.8-5.1 19-1.4 5-2.8 9.9-4.2 14.8-3.2 11-6.4 21.7-9.7 32.2-19.4-.4-35.2-1-46.3-1.5-7.7-.3-15.9-.8-31.7-1.6-4.5-.2-9-.5-13.4-.7-4.6-.2-9.2-.5-13.7-.7v-1.8c-.1-4.1-1.1-10.5-2.8-18.2-1.7-7.7-3.9-16.8-6.4-26.2-2.2-8.5-4.6-17.3-6.9-25.7v-.2c-5.2-19-10-35.7-10.9-41.6-.1-.5-.1-.9-.2-1.2-.2-2-.2-3.9-.2-5.6V665c0-.4 0-.7.1-1.1 0-.3.1-.7.1-1 0-.3.1-.7.1-1 0-.3.1-.7.1-1 .4-2.4 1-4.5 1.7-6.5.1-.3.2-.7.4-1 .6-1.6 1.3-3.3 2.1-4.9.1-.2.2-.4.2-.6.6-1.5 1.3-3 2-4.7.1-.2.2-.4.2-.6.6-1.5 1.1-3.1 1.7-4.8.1-.3.2-.6.2-.8.2-.5.3-1.1.4-1.6.1-.3.1-.6.2-.8 0-.1.1-.3.1-.4.1-.2.1-.5.2-.7.7-3.1 1.2-6.2 1.8-10.7 2.6-18.6.1-27.1.7-32.9v-.5c0-.3.1-.6.1-.9 0-.2.1-.4.2-.7 0-.1.1-.3.1-.4.1-.2.1-.4.2-.6 0-.1.1-.2.1-.4.1-.3.3-.6.4-.8.5-.8 1-1.4 1.4-2 1.6-2.2 6.3-8.6 14.5-11.6.7-.3 1.5-.5 2.3-.7 2.1-.5 5.6-1.2 10.1-.6 8.5 6.4 19.7 17 25.7 33 4 10.6 3.6 17.7 7.8 19 7.1 2.1 15.5-15.4 35.8-36.9 10.3-10.9 19.8-18.8 26.3-23.8 2.4-.8 7-2 12.9-2 3 0 6.4.3 10 1.3 3.1.8 6 2.1 6.3 2.2.1.1.2.1.4.2s.3.2.5.2c.1 0 .2.1.3.1 4.3 1.7 7.4 4.1 9.5 5.9z"/><linearGradient id="SVGID_3_" gradientUnits="userSpaceOnUse" x1="590.989" y1="775.365" x2="708.627" y2="775.365"><stop offset="0" stop-color="#302e40"/><stop offset="1" stop-color="#9375a1"/></linearGradient><path d="M708.6 759.3c-3.2 11-6.4 21.7-9.7 32.2-19.4-.4-35.2-1-46.3-1.5-7.7-.3-15.9-.8-31.7-1.6-4.5-.2-9-.5-13.4-.7-4.6-.2-9.2-.5-13.7-.7v-1.8c-.1-4.1-1.1-10.5-2.8-18.2 17-1.4 78.4-5.3 117.6-7.7z" opacity=".4" fill="url(#SVGID_3_)"/></g><g id="smartphone"><path class="st14" d="M688 711.8c0-.2 0-.3-.1-.5l-32.4-36.8c-.9-1-3.6-1.3-6.1-.8l-23.5 5.3c-1.6.4-2.6 1.1-2.7 1.8 0 .1-.8 3.4-.8 3.4l2.9-.9 27.2 26.3 6.5 6.2c.7.7 2.9 1 5 .6l20.6-3.2 2.7 2 .7-3.4z"/><linearGradient id="SVGID_4_" gradientUnits="userSpaceOnUse" x1="1064.682" y1="346.837" x2="1132.966" y2="346.837" gradientTransform="rotate(7.221 -1909.063 -2994.502)"><stop offset=".471" stop-color="#2a303d"/><stop offset="1" stop-color="#302e40"/></linearGradient><path d="M687.1 714.9l-32.4-36.8c-.9-1-3.6-1.3-6.1-.8l-23.5 5.3c-1.6.4-2.6 1.1-2.7 1.8v.4c.1.1.1.3.3.4l7 6.7 7.6 7.4 14.4 13.9 6.5 6.2c.7.7 2.9 1 5 .6l21.1-3.3c1.6-.3 2.7-.8 3-1.3 0-.1-.1-.3-.2-.5z" fill="url(#SVGID_4_)"/></g><g id="hand_right"><path class="st12" d="M797.9 725.6c-.2 13.2-3.7 22.9-11.7 29-19.6 14.8-54.3.4-73.4-10.1-3.9-2.1-7.1-4.1-9.4-5.6-4.8-3.1-8.3-6-10.8-9-2.8-3.3-4.3-6.5-4.9-10-.5-3-.2-6.2.6-9.2 1.9-7.5 7.3-14.2 14-16.5 4.9-1.7 9.7-.4 19 2.2 1.3.4 2.5.7 3.6 1.1 13.3 4.3 18.1 8.9 21 6.7 3.7-2.8-.1-13.1-4.5-25.7-2.7-7.8-5.6-13.6-8.2-17.9-4.3-7.1-8.1-10-9.7-11.2-4.2-3-5.8-2.9-7.8-4.5-5.9-4.7-7.5-18.4 6.2-54.6 3-7.9 6.7-16.9 11.2-27.1.1.1.2.1.4.2s.3.2.5.2c.1 0 .2.1.3.1 1.8.9 4.4 2.2 7.1 4 15.2 10 22.4 25.5 26.3 36.5.6 1.8 1.2 3.4 1.6 4.9 16.2 50.4 28.9 90.2 28.6 116.5z"/><linearGradient id="SVGID_5_" gradientUnits="userSpaceOnUse" x1="692.605" y1="743.209" x2="797.868" y2="743.209"><stop offset="0" stop-color="#9375a1"/><stop offset="1" stop-color="#302e40"/></linearGradient><path d="M797.9 725.6c-.2 13.2-3.7 22.9-11.7 29-23.6 17.7-69-6.6-82.8-15.7-4.8-3.1-8.3-6-10.8-9 15.2 5.4 44 12.9 77.6 5.3 10.7-2.5 20-6 27.7-9.6z" opacity=".4" fill="url(#SVGID_5_)"/><linearGradient id="SVGID_6_" gradientUnits="userSpaceOnUse" x1="716.658" y1="582.914" x2="767.759" y2="582.914"><stop offset="0" stop-color="#fff"/><stop offset="1" stop-color="#9375a1"/></linearGradient><path d="M767.8 604.2c-11.2 2.5-20 2.5-26.9.7-9.4-2.3-15.4-7.9-19-14.6-5.1-9.5-5.6-21.5-5.1-30.6 3 0 6.4.3 10 1.3 3.1.8 6 2.1 6.3 2.2.1.1.2.1.4.2s.3.2.5.2c.1 0 .2.1.3.1 1.8.9 4.4 2.2 7.1 4 15.3 10 22.5 25.5 26.4 36.5z" opacity=".21" fill="url(#SVGID_6_)"/><path class="st11" d="M711.8 727.2c-2.9 1.5-6-.2-9.6-2.7-5.3-3.7-11.5-9.4-19.4-10-1-.1-2-.1-3 0 0 0-13.1 1.2-19.3.7 0 0-.9-.1-2.1-.2-.4 0-.7-.1-1.1-.1-8.1-.6-15.8-1.1-20.7-2.2-.4-.1-.7-.2-1.1-.3-1.2-.3-2.2-.7-2.9-1.2-.4-.3-.7-.6-.9-.9-.5-.9-.3-1.5-.5-2.6-.3-2.1-1.3-2.3-1-3.8 0-.3.2-1.4 1.2-2 .5-.3 1-.3 1.5-.2.6.1 1.1.3 1.3.3h.1c.1 0 0 0 0 0-.4-.3-3.7-1.1-4.2-3-.2-.9.2-2 .9-2.6.9-.7 2.1-.5 4.1.2.8.3 1.8.6 2.9.9.2.1.5.1.7.2 6.1 1.9 10.5 2.1 11.7 2.2 2.3.1 4.1 0 5.3-.2-7.2-2.3-12.8-4.1-17.2-5.7-1-.4-2-.7-2.9-1-6.7-2.5-9.7-4-10.7-5-.3-.3-.5-.6-.4-.8.1-.7 2.3-.9 3.8-1 3.2-.3 5.9.3 8.3 1.1 1 .3 1.9.7 2.9 1 .2.1.4.1.6.2 2.7 1 12.1 3.1 17.7 4.5 2.8.7 4.1 1.2 6.1.9.7-.1 2-.3 3.2-.9.7-.4 1.4-.9 1.8-1.7 1.6-2.5.2-6-1.1-7.8-1.4-2.1-2.5-1.8-4.8-4.5-1-1.2-2.3-3-2.6-4.2-.1-.4-.1-.7 0-.9.6-.7 3.6 1.1 6.6 2.8 4.1 2.4 6.1 3.5 7.2 4.9 3 3.6 2 6.8 5.2 10.1 1.4 1.5 3.1 2.6 3.1 2.6 1.2.7 2.2 1.3 2.9 1.6 5.8 2.7 18.7 6 25.9 11.5 2.1 1.6 3.6 3.4 4.4 5.3 2.1 5.3.1 12.5-3.9 14.5z"/><linearGradient id="SVGID_7_" gradientUnits="userSpaceOnUse" x1="636.683" y1="712.408" x2="682.792" y2="712.408"><stop offset="0" stop-color="#e2c8c0"/><stop offset="1" stop-color="#dd8093" stop-opacity=".4"/></linearGradient><path d="M682.8 714.6c-1-.1-2-.1-3 0 0 0-13.1 1.2-19.3.7 0 0-.9-.1-2.1-.2-.4 0-.7-.1-1.1-.1-8.1-.6-15.8-1.1-20.7-2.2 11.4-2.5 36.1-6.8 45.2.8.5.4.8.7 1 1z" opacity=".33" fill="url(#SVGID_7_)"/><path class="st8" d="M671.8 689c-1.1 2.8-2.9 3.9-4.6 4.4.7-.4 1.4-.9 1.8-1.7 1.6-2.5.2-6-1.1-7.8-1.4-2.1-2.5-1.8-4.8-4.5-1-1.2-2.3-3-2.6-4.2 4 2.5 13.2 8.9 11.3 13.8z"/><linearGradient id="SVGID_8_" gradientUnits="userSpaceOnUse" x1="625.162" y1="694.209" x2="656.336" y2="694.209"><stop offset="0" stop-color="#e2c8c0"/><stop offset="1" stop-color="#dd8093" stop-opacity=".4"/></linearGradient><path d="M655.9 700.1c-7.2-2.3-12.8-4.1-17.2-5.7-1-.4-2-.7-2.9-1-6.7-2.5-9.7-4-10.7-5 9 2 35.1 9 30.8 11.7z" opacity=".33" fill="url(#SVGID_8_)"/><path class="st8" d="M711.8 727.2c-2.9 1.5-6-.2-9.6-2.7.7-.5 1.7-.9 2.9-1.4 7.9-3.1 7.8-10 6.4-15.3 2.1 1.6 3.6 3.4 4.4 5.3 1.9 4.9-.1 12.1-4.1 14.1z"/></g><g id="necklace"><path class="st20" d="M693.9 553.9c-13.7 12.3-25.9 18.5-36.4 18.5-2.2 0-4.3-.3-6.4-.8-8.9-2.4-14.3-9.7-17.3-15.3.3-.2.6-.5.9-.7 2.8 5.4 8.1 12.6 16.7 14.9 11.4 3.1 25.4-2.8 41.8-17.5.2.3.5.6.7.9z"/><circle class="st6" cx="655" cy="572.4" r="4.3"/></g><g id="head_1_"><path id="head" class="st11" d="M694.4 477.1c-1.1 2-2.6 4.7-4.5 7.8-10.9 17.5-38.2 51.2-60.4 44.8-9.9-2.9-15.7-12.9-17.9-16.8-2.1-3.6-5.2-10.3-5.6-26.9-.3-11.4-.6-25.9 5.6-43.6.5-1.4 2.8-7.8 6.4-15.5 3.1-6.4 7.2-13.7 12.1-19.6 5.6-6.7 12.2-11.6 19.5-11.4 8.9.3 15.3 8 19.5 13.1.1.2.7.9 1.5 1.9 2.4 3.4 7.1 10.7 8.6 19 .7 4 .7 8.2-.6 12.4-1.2 3.8-3.6 8-4.5 15.7-.4 3.7-.4 6.8 1.1 10.1.2.5 1.6 3.3 4.5 5.6 6 4.6 13.2 3.6 14.7 3.4z"/><path class="st8" d="M679.4 430c-7.3-2.1-22-5.9-31.2-5.1-9 .8-22.7 1.6-30.1 2 3.1-6.4 7.2-13.7 12.1-19.6l40.6 3.7c2.4 3.4 7.1 10.7 8.6 19z"/></g><g id="eyes_2_"><circle class="st21" cx="651.5" cy="470" r="3.3"/><circle class="st21" cx="619.7" cy="467.3" r="3.3"/></g><path id="smile" class="st21" d="M633.2 510.6c-4.5 0-8-1.8-9.4-2.6-.3-.2-.4-.6-.2-.9.2-.3.6-.4.9-.2 1.6 1 5.9 3.1 11.4 2.2 6.3-1 9.9-5.5 10.8-6.8.2-.3.6-.3.9-.1.3.2.3.6.1.9-1 1.4-4.9 6.2-11.7 7.3-1 .1-1.9.2-2.8.2z"/><path id="nose_2_" d="M633.3 460.4c-1.4 2-3.3 4.9-5.3 8.5-5.1 9.1-7.7 13.8-5.9 16.8 2.3 4 11 3 13 2.7-.7-9.3-1.2-18.7-1.8-28z" fill="#c0846f"/><path id="forelock" class="st23" d="M701.4 470c-6.8-30.7-18.6-42.2-28.8-46.7-22.4-10-46.5 9.3-61.1-4.1-6.9-6.4-8.9-17.5-6.1-25.2 5.4-15.1 29.5-19.6 45.5-17.5 28.2 3.7 51.4 31 55.1 59.5 1.9 14.6-1.8 26.8-4.6 34z"/><path class="st23" d="M660.8 455.1l-19.4-5.1c-.4-.1-.7-.5-.6-1l.5-1.7c.1-.4.5-.7 1-.6l19.4 5.1c.4.1.7.5.6 1l-.5 1.7c-.2.5-.6.7-1 .6zm-39.7-4.4l-18.2 3.5c-.4.1-.8-.2-.9-.6l-.3-1.7c-.1-.4.2-.8.6-.9l18.2-3.5c.4-.1.8.2.9.6l.3 1.7c.1.4-.2.8-.6.9z" id="brows"/><g id="ear"><path class="st11" d="M703.4 484.8c-.2 7.7-6.7 13.8-14.4 13.5-7.7-.2-13.8-6.7-13.5-14.4v-.8c.6-7.4 6.9-13 14.4-12.8 3.8.1 7.2 1.8 9.7 4.3 2.4 2.7 3.9 6.3 3.8 10.2z"/><linearGradient id="SVGID_9_" gradientUnits="userSpaceOnUse" x1="675.475" y1="476.746" x2="699.497" y2="476.746"><stop offset="0" stop-color="#e2c8c0"/><stop offset="1" stop-color="#dd8093" stop-opacity=".4"/></linearGradient><path d="M699.5 474.7l-24 8.5c.6-7.4 6.9-13 14.4-12.8 3.7.1 7.1 1.7 9.6 4.3z" opacity=".28" fill="url(#SVGID_9_)"/></g><g id="coffee"><path class="st25" d="M511.4 553.2c-.1.9-.2 1.7-.3 2.5-2.5 23.8-5 47.5-7.4 71.3h-30.9c-2.5-23.7-5-47.5-7.5-71.3-.1-.9-.2-1.7-.3-2.5h46.4z"/><path class="st14" d="M516.5 553a2.732 2.732 0 0 1-2.7 2.7h-51.1c-1.5 0-2.7-1.2-2.7-2.7a2.732 2.732 0 0 1 2.7-2.7h51.1c1.5.1 2.7 1.3 2.7 2.7z"/><path class="st26" d="M516.5 553a2.732 2.732 0 0 1-2.7 2.7h-2.7c-2.5 23.8-5 47.5-7.4 71.3h-18.1c-12-13-12.9-18.2-11.5-20.5 2.2-3.6 10.3-1 20.8-6.6 1.3-.7 5.4-3.1 7.6-7.7.3-.6 1.3-2.9.7-3.3-1-.8-5.2 5.6-12.1 9.1-8.9 4.5-18.9 2.4-19 1.4-.1-.8 7.3-.8 17.5-5.3 8.6-3.8 15.1-9.1 14.7-9.8-.4-.7-6 2.6-16.6 5.7-7.6 2.2-17.6 4.3-18.1 3-.3-1 4.9-3.6 5.6-4 6.9-3.5 17.2-6.1 20.7-6.9 1.3-.3 3.9-1 4.5-2.8.3-.9.1-2.1-.6-2.8-1.8-1.8-6.1.6-12.9 2.9-7 2.4-15.1 4.1-15.5 3.2-.3-.8 4.7-3.6 7.6-5.2 11.3-6.2 15.3-5.9 16.2-9.3.9-3.5-2.3-8.8-1.9-12.4 0-.1.1-1.1.3-2.5.1-1 .2-1.9.3-2.8h19.9c1.5 0 2.7 1.2 2.7 2.6z"/><path class="st14" d="M500.3 544.8c-.1 0-.2 0-.3-.1-.3-.1-.3-.5-.2-.7 4.8-8.6 6.1-15.5 3.8-20.7-.5-1.1-1.2-2.2-1.8-3.3-1.5-2.4-3-4.8-3.2-8.5-.2-2.8.5-5.8 1.9-8.6.1-.3.4-.4.7-.2.3.1.4.4.2.7-1.4 2.7-2 5.4-1.8 8.1.2 3.4 1.7 5.8 3.1 8 .7 1.1 1.4 2.2 1.9 3.5 2.4 5.5 1.1 12.8-3.9 21.6 0 .1-.2.2-.4.2zm-12.2 0c-.1 0-.2 0-.3-.1-.3-.1-.3-.5-.2-.7 4.8-8.6 6.1-15.5 3.8-20.7-.7-1.7-1.4-3-2.1-4.3-1.1-2.3-2.1-4.3-3-7.4-1.9-6.9-.2-14.9 5.1-24 .1-.3.5-.3.7-.2.3.1.3.5.2.7-5.1 8.8-6.8 16.6-5 23.2.8 3 1.8 5 2.9 7.2.6 1.2 1.3 2.6 2.1 4.4 2.4 5.5 1.1 12.8-3.9 21.6.1.2-.1.3-.3.3zm-15.1-.3c-.1 0-.2 0-.3-.1-.3-.1-.3-.5-.2-.7 4.8-8.6 6.1-15.5 3.8-20.7-.6-1.5-1.3-2.7-1.9-3.8-1.2-2.2-2.3-4.4-3.2-7.9-1.2-5.1-.7-10.7 1.5-16.5.1-.3.4-.4.7-.3.3.1.4.4.3.7-2.1 5.6-2.6 10.9-1.4 15.8.8 3.4 1.9 5.5 3.1 7.7.6 1.2 1.3 2.4 1.9 3.9 2.4 5.5 1.1 12.8-3.9 21.6-.1.2-.2.3-.4.3z"/></g><g id="hand_left"><path class="st12" d="M606 647.1c-2 10.1-5.3 23.7-11.2 39.2-5.9 15.5-35.9 94.2-77.2 94-18.3-.1-31.8-15.7-51.2-39.4-.8-1-1.7-2.1-2.6-3.1-2.7-3.3-25.3-31.7-33.6-73.8-.7-3.3-1.1-6.4-1.5-9.1-2.3-18 1.7-23.9 4.8-26.7 5.2-4.6 13.6-5.7 20.1-3.4 11.9 4.2 14.5 18.7 21.3 34.7 6.6 15.5 19.5 38 31.8 48.3 4.5 3.8 9 5.9 12.9 5.4 15-1.8 25.9-40.7 38-83.9 1.4-5 5.5-20.3 16.8-36.9 2.2-3.2 4.2-5.9 5.8-7.8.3-.4.7-.8 1-1.2 8.4 21.2 16.6 42.5 24.8 63.7z"/><linearGradient id="SVGID_10_" gradientUnits="userSpaceOnUse" x1="506.95" y1="659.194" x2="580.482" y2="659.194"><stop offset="0" stop-color="#302e40"/><stop offset="1" stop-color="#9375a1"/></linearGradient><path d="M580.5 584.5c-.1 25.1-2.8 122-38.9 143.3-28.5 16.8-34-4.8-34.6-20.1 4.5 3.8 9 5.9 12.9 5.4 15-1.8 25.9-40.7 38-83.9 1.4-5 5.5-20.3 16.8-36.9 2.2-3.2 4.2-5.9 5.8-7.8z" opacity=".4" fill="url(#SVGID_10_)"/><linearGradient id="SVGID_11_" gradientUnits="userSpaceOnUse" x1="428.909" y1="697.849" x2="470.256" y2="697.849"><stop offset="0" stop-color="#fff"/><stop offset="1" stop-color="#9375a1"/></linearGradient><path d="M469.9 733.9c-.6 3.3-1.7 5.6-3.4 7-.8-1-1.7-2.1-2.6-3.1-2.7-3.3-25.3-31.7-33.6-73.8-.7-3.3-1.1-6.4-1.5-9.1 15.3 17.2 45.2 55.5 41.1 79z" opacity=".4" fill="url(#SVGID_11_)"/><path class="st11" d="M504.2 584.2c-1.7 3.4-21.3 10-30.8 13-.7.1-1.3.7-1.1 1.4.1.7.9 1.2 1.6.9 11.9-1.4 18.5-4.5 22.5-7.3 1.4-1 5.9-4.3 6.8-3.4.5.5-.3 2.1-.5 2.6-3.1 6.3-18.5 12.7-27 13.2-.7.3-1 1-.9 1.4.2.5 17.1-2.7 19.4-4.3.6-.4 3.5-2.6 4.2-2 .4.4-.5 2-.6 2.3-1.3 2.2-3.4 3.3-4 3.6-4 2-13.7 4.5-15.1 4.8-2 .5-4.9 1.3-8.4 2.4-10.9 4.4-14.8 9.8-16.4 14.2-2.2 6.2 0 11.8-.4 16.1-.2 1.5-.7 2.9-1.8 4.1-3 3-8.9 3.5-12.3 1.1-2.6-1.8-3.7-5.3-3.9-9.6-.3-7.7 2.5-17.7 5-23.9v-.1c1.7-4.2 4.4-11.1 11.2-17.9 4.8-4.8 13.4-10.3 13.3-10.6 6.6-4 12.5-6.3 16.9-7.7 6.9-2.1 17.3-4.2 18.1-2.7.1.2 0 .4-.2.7-1 1.8-19.7 7.4-28.7 12.3-1.1.4-1.4 1.7-1 2.3.3.5 1.2.8 2 .4 10.2-3.4 33.9-10.8 32.1-7.3z"/><path class="st8" d="M453.5 643.1c-.2 1.5-.7 2.9-1.8 4.1-3 3-8.9 3.5-12.3 1.1-2.6-1.8-3.7-5.3-3.9-9.6 4.3 3 10.8 6 18 4.4z"/><linearGradient id="SVGID_12_" gradientUnits="userSpaceOnUse" x1="440.411" y1="605.788" x2="451.695" y2="605.788"><stop offset="0" stop-color="#e2c8c0"/><stop offset="1" stop-color="#dd8093" stop-opacity=".4"/></linearGradient><path d="M440.4 614.8v-.1c1.7-4.2 4.4-11.1 11.2-17.9.8 11.7-6.2 16.3-11.2 18z" opacity=".28" fill="url(#SVGID_12_)"/></g><path class="st14" d="M623.6 665.6c-.4 0-.8-.2-1.1-.5L612 654.7c-.6-.6-.6-1.6 0-2.2.6-.6 1.6-.6 2.2 0l10.5 10.4c.6.6.6 1.6 0 2.2-.3.3-.7.5-1.1.5zm-87.8 46.1c-.2.1-.4.1-.6.1-.6 0-1.2-.3-1.4-1l-2.8-6.3c.7-1 1.4-2.1 2-3.2l3.6 8.3c.4.8.1 1.8-.8 2.1zm-25.9 57.6c-.6 0-1.2-.4-1.5-.9l-5.9-13.5c-.3-.8 0-1.7.8-2.1.8-.3 1.7 0 2.1.8l5.9 13.5c.3.8 0 1.7-.8 2.1-.1.1-.4.1-.6.1zm65-69.4c-.4 0-.8-.2-1.1-.5L563.3 689c-.6-.6-.6-1.6 0-2.2.6-.6 1.6-.6 2.2 0l10.5 10.4c.6.6.6 1.6 0 2.2-.3.4-.7.5-1.1.5zm-109.1-34.4c-.4 0-.8-.2-1.1-.5l-10.5-10.4c-.6-.6-.6-1.6 0-2.2.6-.6 1.6-.6 2.2 0l10.5 10.4c.6.6.6 1.6 0 2.2-.2.4-.7.5-1.1.5zm322.5 22c-.4 0-.8-.2-1.1-.5l-10.5-10.4c-.6-.6-.6-1.6 0-2.2.6-.6 1.6-.6 2.2 0l10.5 10.4c.6.6.6 1.6 0 2.2-.3.4-.7.5-1.1.5zm-185-85.6h-.1l-14.7-1.3c-.9-.1-1.5-.8-1.4-1.7.1-.9.8-1.5 1.7-1.4l14.7 1.3c.9.1 1.5.8 1.4 1.7-.1.8-.8 1.4-1.6 1.4zm27.6 154.6h-.1l-14.7-1.3c-.9-.1-1.5-.8-1.4-1.7.1-.9.8-1.5 1.7-1.4l14.7 1.3c.9.1 1.5.8 1.4 1.7-.1.7-.8 1.4-1.6 1.4zM450.4 684c-.3 0-.6-.1-.9-.3l-11.9-8.7c-.7-.5-.9-1.5-.3-2.2.5-.7 1.5-.9 2.2-.3l11.9 8.7c.7.5.9 1.5.3 2.2-.3.4-.8.6-1.3.6zm21.3 42.1c-.3 0-.6-.1-.9-.3l-11.9-8.7c-.7-.5-.9-1.5-.3-2.2.5-.7 1.5-.9 2.2-.3l11.9 8.7c.7.5.9 1.5.3 2.2-.3.4-.8.6-1.3.6zM759.2 592c-.3 0-.6-.1-.9-.3l-11.9-8.7c-.7-.5-.9-1.5-.3-2.2.5-.7 1.5-.9 2.2-.3l11.9 8.7c.7.5.9 1.5.3 2.2-.4.4-.9.6-1.3.6zm-6 59.3c-.3 0-.6-.1-.9-.3l-11.9-8.7c-.7-.5-.9-1.5-.3-2.2.5-.7 1.5-.9 2.2-.3l11.9 8.7c.7.5.9 1.5.3 2.2-.3.4-.8.6-1.3.6zM585 653.7c-.6 0-1.2-.4-1.5-1l-5.2-13.8c-.3-.8.1-1.7.9-2 .8-.3 1.7.1 2 .9l5.2 13.8c.3.8-.1 1.7-.9 2-.2.1-.4.1-.5.1zm-99.2 26.6l-2.7 7.9c-.2.7-.8 1.1-1.5 1.1-.2 0-.3 0-.5-.1-.8-.3-1.3-1.2-1-2l3.6-10.6c.6 1.3 1.3 2.5 2.1 3.7zm149.2-47c-.6 0-1.1-.3-1.4-.9-.4-.8-.1-1.7.7-2.1l13.1-6.8c.8-.4 1.7-.1 2.1.7.4.8.1 1.7-.7 2.1l-13.1 6.8c-.2.2-.4.2-.7.2zm138.5-11.2l-8.1 4.2c-.2.1-.5.2-.7.2-.6 0-1.1-.3-1.4-.8-.4-.8-.1-1.7.7-2.1l8.6-4.5c.3.9.6 2 .9 3zM682 584.3c-.6 0-1.1-.3-1.4-.8-.4-.8-.1-1.7.7-2.1l13.1-6.8c.8-.4 1.7-.1 2.1.7.4.8.1 1.7-.7 2.1l-13.1 6.8c-.2 0-.5.1-.7.1zm-89.8 133.8l-12 6.2c-.3-1-.5-2-.8-2.9-.6 1.2-1.2 2.3-1.8 3.5-.3-.2-.5-.4-.6-.7-.4-.8-.1-1.7.7-2.1l13.1-6.8c.8-.4 1.7-.1 2.1.7.4.8.1 1.7-.7 2.1zm-98.3 7.1c-.6 0-1.1-.3-1.4-.9-.4-.8-.1-1.7.7-2.1l13.1-6.8c.8-.4 1.7-.1 2.1.7.4.8.1 1.7-.7 2.1l-13.1 6.8c-.2.1-.4.2-.7.2zm41.6 19.7c-.6 0-1.2-.4-1.5-1-.3-.8.1-1.7.9-2l13.8-5.1c.8-.3 1.7.1 2 .9.3.8-.1 1.7-.9 2l-13.8 5.1c-.1.1-.3.1-.5.1zm133.1-83.4h-.1l-14.7-1.1c-.9-.1-1.5-.8-1.5-1.7.1-.9.8-1.5 1.7-1.5l14.7 1.1c.9.1 1.5.8 1.5 1.7-.1.9-.8 1.5-1.6 1.5zm57.1 9.8h-.1l-14.7-1.1c-.9-.1-1.5-.8-1.5-1.7.1-.9.8-1.5 1.7-1.5l14.7 1.1c.9.1 1.5.8 1.5 1.7-.1.9-.8 1.5-1.6 1.5zm5.1-68.8h-.1l-14.7-1.1c-.9-.1-1.5-.8-1.5-1.7.1-.9.8-1.5 1.7-1.5l14.7 1.1c.9.1 1.5.8 1.5 1.7-.1.9-.8 1.5-1.6 1.5zm-5.8-42c-.2.7-.8 1.2-1.5 1.2h-.1l-14.7-1.1c-.1 0-.2 0-.4-.1 4-.8 9.9-1.4 16.7 0zm-78.4 164.7h-.1l-14.7-1.1c-.9-.1-1.5-.8-1.5-1.7.1-.9.8-1.5 1.7-1.5l14.7 1.1c.9.1 1.5.8 1.5 1.7-.1.8-.8 1.5-1.6 1.5zm99.7-.6h-.1l-14.7-1.1c-.9-.1-1.5-.8-1.5-1.7.1-.9.8-1.5 1.7-1.5l14.7 1.1c.9.1 1.5.8 1.5 1.7-.1.9-.8 1.5-1.6 1.5zm-64.7 27.6c-.6 0-1.1-.3-1.4-.8l-7-13c-.4-.8-.1-1.7.6-2.1.8-.4 1.7-.1 2.1.6l7 13c.4.8.1 1.7-.6 2.1-.1.1-.4.2-.7.2zm96.1-9.8c-.7 0-1.4-.5-1.5-1.2l-3.2-14.4c-.2-.9.4-1.7 1.2-1.9.9-.2 1.7.4 1.9 1.2l3.2 14.4c.2.9-.4 1.7-1.2 1.9h-.4zm-22.9-43c-.7 0-1.4-.5-1.5-1.2l-3.2-14.4c-.2-.9.4-1.7 1.2-1.9.9-.2 1.7.4 1.9 1.2l3.2 14.4c.2.9-.4 1.7-1.2 1.9h-.4zm-59.4 0c-.4 0-.8-.2-1.2-.5l-10.1-10.8c-.6-.6-.6-1.6.1-2.2.6-.6 1.6-.6 2.2.1l10.1 10.8c.6.6.6 1.6-.1 2.2-.2.2-.6.4-1 .4zm6.8-54c-.2 0-.4 0-.6-.1l-13.7-5.4c-.8-.3-1.2-1.2-.9-2.1.3-.8 1.2-1.2 2.1-.9l13.7 5.4c.8.3 1.2 1.2.9 2.1-.2.6-.8 1-1.5 1zM684.5 615c-.3 0-.5-.1-.8-.2l-12.8-7.4c-.8-.4-1-1.4-.6-2.2.4-.8 1.4-1 2.2-.6l12.8 7.4c.8.4 1 1.4.6 2.2-.3.5-.9.8-1.4.8z"/><path class="st30" d="M773.5 622.1c-.3-1-.6-2-1-3.1-1-3.3-2.1-6.6-3.2-9.9-3.5-10.8-10.3-29.8-28-41.4-3.3-2.2-6.3-3.7-8.2-4.5h-.1c-.2-.1-3.1-1.4-6.2-2.2-.7-.2-1.3-.3-1.9-.4-6.8-1.4-12.6-.8-16.7.1-1.8.4-3.2.8-4.3 1.2-5.5 4.2-13.1 10.5-21.5 18.9l-2 2c-.9.9-1.8 1.9-2.8 2.9-20.3 21.5-28.7 39-35.8 36.9-4.3-1.3-3.8-8.4-7.8-19-6-16-17.2-26.6-25.7-33-4.5-.6-8 0-10.1.6-.8.2-1.5.4-2.3.7-8.2 3-12.9 9.4-14.5 11.6-1.6 2-4 5-6.7 8.9-11.2 16.6-15.4 31.9-16.8 36.9-8.3 29.6-16 57.1-24.9 72.1-.7 1.1-1.4 2.2-2 3.2-3.5 5-7.2 8.1-11.1 8.6-10.5 1.2-23.9-15.4-34.1-32.8-.7-1.2-1.4-2.4-2.1-3.7-3.4-6-6.3-12-8.5-17.2-6.8-16-9.3-30.5-21.3-34.7-6.6-2.3-14.9-1.3-20.1 3.4-3.7 3.3-8.3 10.6-3.4 35.8 8.3 42.2 30.9 70.5 33.6 73.9 20.8 25.5 34.6 42.4 53.7 42.5 25.2.1 46.1-29 60-55.3.6-1.2 1.2-2.3 1.8-3.5.3 1 .5 2 .8 2.9 7 25.7 14 52.9 13.5 62.2v.4c9.1.5 18.1 1 27.2 1.4 15.8.8 24 1.2 31.7 1.6 11.1.5 26.8 1.1 46.3 1.5 4.8-15.1 9.4-30.8 13.9-47 19.1 10.5 53.8 24.8 73.4 10.1 22.5-17.1 9.1-64-12.8-132.6zm-40.3 38.5c2.6 4.3 5.4 10 8.2 17.9 4.4 12.7 8.1 23 4.5 25.7-2.9 2.2-7.6-2.4-21-6.7 3-12.6 5.8-24.9 8.3-36.9z"/></g><path id="line" d="M686.5 675.2c-.2 0-.4-.1-.6-.2-.5-.3-.6-1-.3-1.5l222.7-321.2c.3-.5 1-.6 1.5-.3s.6 1 .3 1.5L687.4 674.8c-.2.3-.5.4-.9.4z" opacity=".5" fill="#31445a"/><g id="message"><path class="st14" d="M719.5 423c-12.3-26.4-2.4-63.9 17.5-85.2 27.4-29.4 72.4-26.4 93.9-25 75.7 5 83.2 51.8 157.6 56 13.6.8 36.1.5 47.4 15.5 9.6 12.8 6.9 31.2 4.3 38.8-21.6 63.9-282.1 82.7-320.7-.1z"/><path d="M937.7 395.3h-181c-2.3 0-4.2-1.9-4.2-4.2s1.9-4.2 4.2-4.2h181c2.3 0 4.2 1.9 4.2 4.2s-1.9 4.2-4.2 4.2zm-34.1 24.1h-147c-2.3 0-4.2-1.9-4.2-4.2 0-2.3 1.9-4.2 4.2-4.2h147c2.3 0 4.2 1.9 4.2 4.2.1 2.3-1.8 4.2-4.2 4.2z" opacity=".6" fill="#2a303d"/><path class="st33" d="M976.1 407.4l-15.4 19-3.1 3.7-4 4.9c-.5.6-1.2.9-1.9.9-.5 0-1-.2-1.5-.5l-18.6-14.5c-1.1-.8-1.2-2.3-.4-3.4.8-1.1 2.3-1.2 3.4-.4l16.7 13 2.4-2.9 3.1-3.7 15.5-19c.8-1 2.4-1.2 3.4-.4 1.1.7 1.2 2.3.4 3.3z"/><path class="st33" d="M990.1 407.4L967.7 435c-.5.6-1.2.9-1.9.9-.5 0-1-.2-1.5-.5l-6.7-5.2-3.8-3 3.1-3.7 3.8 3 4.8 3.7 20.9-25.7c.8-1 2.4-1.2 3.4-.4 1 .7 1.1 2.3.3 3.3z"/></g><g id="table"><path class="st6" d="M974.7 884.5c-.1.3-.3.5-.4.8-.1.3-.3.5-.4.8-.6 1.1-1.2 2-1.9 2.9-.2.2-.3.4-.5.6-.2.2-.3.4-.5.6-9.8 11.3-27.1 8.4-48.7 22.8-.4.2-.7.5-1.1.7-.4.3-.8.5-1.1.8-1.7 1.2-3.3 2.5-5 3.9-5 3.8-19.9 15.2-25.7 32.4-.2.5-.3.9-.5 1.4-2.1 7-4 16.2-11.6 27.9-2.2 3.4-5.2 6.8-9.6 10.6-32 27.6-69.5 12.7-164.8 37.7-41.3 10.8-61.9 16.3-82.8 29.3-31 19.3-43.8 41.1-89.7 66.5-9.3 5.2-24.5 12.9-44.1 12.4-16.3-.5-28.6-6.4-35.5-10-32.6-17.1-57.3-42.2-83.8-67.8-11.1-10.7-22.5-21.5-34.9-31.7-18.7-15.5-36-29.9-62.8-42.5-72.8-34.3-156.9-28-161.9-52.4-.7-3.6-2.6-21.9-2.6-21.9.2-2.1.6-4.1 1-5.8.4-1.7.9-3.3 1.3-4.6.1-.3.2-.5.3-.8 10.9-6.1 28.4-14.8 51.2-21.7 119.7-36 192.1 38.9 297.5 71.5 27.4 8.5 57 14.1 90.2 14.2h5.3c70.1-1 130.4-26.5 185.3-53.8 77.9-38.8 145.1-81.2 214.5-62.3 3.9 1.1 7.9 2.3 11.9 3.8s7.9 3.2 11.9 5.1c0 0 0 .1.1.1l.6 1.9c0 .1.1.2.1.4.1.5.3 1.1.4 1.6v.1c2.3 10.6 1.2 18.5-1.7 24.5z"/><path class="st26" d="M974.7 884.5c-.1.3-.3.5-.4.8-.1.3-.3.5-.4.8-.6 1.1-1.2 2-1.9 2.9-.2.2-.3.4-.5.6-.2.2-.3.4-.5.6-9.5 10.5-26.6 7.8-48.7 22.8-.4.2-.7.5-1.1.7-.4.3-.8.5-1.1.8-1.7 1.2-3.3 2.5-5 3.9-5 3.8-19.9 15.2-25.7 32.4-.2.5-.3.9-.5 1.4-2.1 7-4 16.2-11.6 27.9-2.2 3.4-5.2 6.8-9.6 10.6-32 27.6-69.5 12.7-164.8 37.7-41.3 10.8-61.9 16.3-82.8 29.3-31 19.3-43.8 41.1-89.7 66.5-9.3 5.2-24.5 12.9-44.1 12.4-16.3-.5-28.6-6.4-35.5-10-32.6-17.1-57.3-42.2-83.8-67.8v-42.2L551.7 963 737 909.2l214.5-62.3c3.9 1.1 7.9 2.3 11.9 3.8 7.5 2.8 10.4 2.5 11.9 5.1 0 0 0 .1.1.1l.6 1.9c0 .1.1.2.1.4.1.5.3 1.1.4 1.6v.1c2.2 10.7 1.1 18.6-1.8 24.6z"/><path class="st5" d="M976.5 863.9c-2 14.4-26.5 16.6-52.2 30.2-8.7 4.6-17.5 10.4-25.6 18.5-6.4 6.3-10.7 11.9-13.9 17.2l-.1.1-.6.9c-.2.3-.4.6-.5.9l-1.5 2.7c-.2.3-.3.6-.5.9-.9 1.7-1.6 3.3-2.3 4.9-.2.4-.3.7-.5 1.1-.9 2.1-1.7 4.2-2.6 6.2-.2.4-.3.8-.5 1.2-.3.8-.7 1.6-1 2.4-.3.8-.7 1.6-1.1 2.4-.1.3-.3.6-.4.9-.7 1.4-1.4 2.7-2.1 4.1-.3.5-.6 1.1-.9 1.6l-.1.1c-.2.3-.3.5-.5.8-.2.4-.5.7-.7 1.1-.2.3-.4.7-.7 1-.7 1.1-1.5 2.1-2.3 3.2-.4.5-.8 1-1.3 1.6-.2.3-.4.5-.7.8-.3.3-.6.7-.9 1-31.4 35.2-87.5 30.7-156.1 44.1-143.3 28-140.3 95-226.1 92.1 0 0-16.5-.5-31.9-5-34.3-10-51.1-49.5-81.8-84.2-4.6-5.2-9.4-10.2-14.7-15.1-24.8-22.7-48.8-31.7-81.3-43.8-84.6-31.5-156.2-18.8-163.9-47.4-.3-1-1-4.3.1-10.5 11.5-61.4 201.2-164 365.9-144.6 10.1 1.2 20.8 2.9 32.1 4.9 15.6 2.8 32.5 6.1 51.1 9.4 11.1 1.9 22.8 3.8 35.3 5.6 1 .1 1.9.3 2.9.4 5.2.7 10.6 1.4 16.1 2.1 1.1.1 2.2.3 3.2.4 2.1.2 4.3.5 6.4.7 1.4.1 2.8.3 4.2.4h.4c2.1.2 4.2.4 6.4.6 1.1.1 2.1.2 3.2.3 3.1.3 6.2.5 9.4.8 1.7.1 3.3.3 5 .4l2.3.2c.8.1 1.5.1 2.3.2 2.2.1 4.4.3 6.6.4 1.4.1 2.9.2 4.3.2 1.4.1 2.8.1 4.1.2 2 .1 3.9.2 5.9.3 20.4.8 35.4.5 48.6.6 120.6.6 238.9 34.3 252.2 72.4.8 2.5 1.7 4.9 1.3 8.1z"/><path class="st6" d="M189.3 835.5c7.8 28.5 13.2 67 1.5 102l-2.1-.3c11.7-34.6 6.3-72.8-1.4-101.1-1.2-4.5-2.6-9-3.9-13.2.6-.4 1.2-.7 1.9-1.1 1.3 4.3 2.7 8.9 4 13.7zm99.4 128.9c-.7-.3-1.4-.5-2.1-.8-.5-31.2-8.3-65.4-16-98.7-6.4-27.9-12.6-55-13.5-77.7.7-.3 1.4-.5 2.1-.8.7 22.7 7 49.9 13.5 78.1 7.7 33.6 15.6 68.2 16 99.9zm67.7 40.9c-.6-.6-1.3-1.2-2-1.9 5.4-60.5-3.8-114.2-11.3-145.4-8.4-34.9-20.6-66.5-33.4-88.2.7-.2 1.5-.4 2.2-.6 12.7 21.8 24.7 53 33.2 88.3 7.6 31.7 17 86.3 11.3 147.8zm24.9 28.8c-.7-.9-1.4-1.9-2.2-2.8-.4-41.2-5.8-96.5-21.6-168.6-9.1-41.2-19.1-76.5-25.7-98.3.7-.2 1.4-.3 2.1-.5 6.7 21.9 16.7 57.2 25.7 98.3 10.6 48.2 21.4 111.9 21.7 171.9zm35.6-166.5c-8.7 68.3-10.3 137.8-4.9 206.9-.8-.9-1.5-1.8-2.3-2.7-5.2-68.3-3.4-136.9 5.1-204.4 4.9-38.3 12-76.7 21.3-114.5h2.2c-9.4 37.8-16.5 76.3-21.4 114.7zM149 931.2c-.8-.1-1.5-.2-2.2-.4l-13.2-71.1c.6-.6 1.2-1.1 1.8-1.7l13.6 73.2zm331.7 2.4c.9 85.5 5.4 139.2 11.3 172.2-.7 0-1.4.1-2.1.1-6.6-37.2-10.4-94.8-11.3-172.3-.8-69.5 1.1-138.7 2.5-177.4l2.1.3c-1.4 38.8-3.3 107.8-2.5 177.1zm75.9 148.8c-.8.5-1.5 1-2.3 1.5 3.1-34.6-9.2-69.5-22-105.8-17.1-48.4-34.7-98.5-21.7-155.9 5.3-23.3 10.3-42.5 14.9-58.4.7.1 1.4.3 2.1.4-4.6 15.9-9.6 35.1-15 58.5-12.9 56.8 4.6 106.6 21.6 154.7 12.8 36 25 70.7 22.4 105zM602.7 868c18.4 77.9 40.6 131.2 64.5 155.4-.8.2-1.5.5-2.3.7-24.1-24.8-45.7-77.1-64.3-155.6-8.6-36.2-14.7-70.9-18.5-94.8.7.1 1.4.2 2.2.3 3.8 23.8 9.9 58.2 18.4 94zm124.9 142.1c-.7.1-1.5.2-2.2.3-4.9-12.2-17-27.6-30.3-44.6-31.5-40.1-70.7-90.1-52.2-139 6.2-16.2 13.7-31.2 21.9-44.6.8 0 1.6.1 2.3.1-8.6 13.9-16.2 29.3-22.3 45.2-18.1 47.8 20.7 97.2 51.8 136.9 14.2 18 26.2 33.3 31 45.7z"/><path class="st6" d="M735.9 967.2c11.5 14.2 22.4 27.2 31.2 37.5-.8.1-1.7.2-2.5.3-30.5-35.5-84.3-101.4-104.6-146.6-7.3-16.3-6.6-28.5 2.3-38.6 7.8-8.8 21-14.7 34.9-21 10.3-4.6 20.8-9.3 29.6-15.4h3.5c-9.7 7.1-21.3 12.3-32.2 17.3-13.7 6.2-26.6 12-34.2 20.5-8.3 9.4-8.9 20.9-2 36.3 15.1 33.4 48.6 78.1 74 109.7z"/><path class="st6" d="M804.5 998.7c-1 .2-1.9.4-2.9.6-6.5-4.5-13.6-9.9-20.3-16.2-30.1-28.2-40.9-61.2-31.1-95.4 11.8-41.8 26.2-76.7 37.4-101 .7.1 1.5.2 2.2.2-11.2 24.2-25.7 59.3-37.6 101.3-9.6 33.9.7 65.3 30.5 93.3 7.4 6.8 14.9 12.6 21.8 17.2zm42.3-203.4L873 954.7c-.5 1-1 2.1-1.6 3.1l-26.8-162.9c.7.2 1.4.3 2.2.4zm52.7 116.3c-.3.3-.6.6-.9.8l-1.1 1.1c-4.9-32.4-9.4-74.3-6.9-107.7.7.2 1.4.4 2.2.6-2.3 32.5 2 73.3 6.7 105.2zm14.6-11.7c-.6.4-1.2.8-1.7 1.2-10-21.8-10-60.4-9-91.3.7.2 1.4.5 2.1.7-1 30.5-.9 68.4 8.6 89.4zm49.9-22.8c-.6.3-1.3.6-1.9.9-2.7-3.8-6-7.7-9.5-11.8-11.1-13.2-24.3-28.9-25.3-47.5l2.1.9c1.3 17.3 13.7 31.9 24.8 45.2 3.5 4.3 6.9 8.4 9.8 12.3z"/><path class="st30" d="M976.5 863.8c-.8 5.9-5.5 9.8-12.5 13.2-.6.3-1.3.6-1.9.9-9.9 4.5-23.7 8.5-37.8 16-3.4 1.8-6.7 3.7-10.1 5.9-.6.4-1.2.8-1.7 1.2-4.4 3-8.8 6.5-12.9 10.5-.3.3-.6.6-.9.8l-1.1 1.1c-5.8 5.9-9.8 11.2-12.8 16.1 0 .1-.1.1-.1.1l-.6.9c-.2.3-.3.6-.5.9l-1.5 2.7c-.1.3-.3.6-.5.9-.9 1.7-1.6 3.3-2.3 4.9-.2.4-.3.7-.5 1.1-.9 2.1-1.8 4.2-2.6 6.2-.2.4-.3.8-.5 1.2-.3.8-.7 1.6-1 2.4-.3.8-.7 1.6-1.1 2.4-.1.3-.3.6-.4.9-.1.1-.1.3-.2.4-.5 1-1 2.1-1.6 3.1l-.3.6c-.3.5-.6 1.1-.9 1.6l-.1.1c-.2.2-.3.5-.5.8-.2.4-.5.8-.7 1.1-.2.3-.4.7-.7 1-.7 1-1.5 2.1-2.3 3.2-.4.5-.8 1-1.3 1.6-.2.3-.5.5-.7.8-.3.3-.6.7-.9 1-14.5 16.3-34.4 24.1-58.4 29.1-1 .2-1.9.4-2.9.6-10.8 2.1-22.3 3.7-34.6 5.3-.8.1-1.7.2-2.5.3-11.8 1.5-24.1 3.1-37 5.1-.7.1-1.5.2-2.2.3-6.1 1-12.3 2.1-18.6 3.3-14.7 2.9-27.8 6.1-39.7 9.7-.8.2-1.5.5-2.3.7-55.8 17.2-82.8 40.8-108.3 58.3-.8.5-1.5 1-2.3 1.5-17.9 12-35.5 20.7-62.3 21.9-.7 0-1.4.1-2.1.1-2.9.1-5.9.1-9.1 0 0 0-16.6-.5-31.9-5-14.7-4.3-26.2-13.9-36.9-26.3-.8-.9-1.5-1.8-2.3-2.7-9.3-11.2-18.2-24.4-28.3-37.7-.7-.9-1.4-1.9-2.2-2.8-3.8-4.9-7.8-9.9-12.1-14.7-3.4-3.8-6.9-7.6-10.7-11.3-.6-.6-1.3-1.2-2-1.9s-1.4-1.3-2.1-1.9c-20.1-18.4-39.7-27.8-63.7-37.1-.7-.3-1.4-.5-2.1-.8-5-1.9-10.1-3.8-15.5-5.8-28.9-10.8-56.4-16.4-80.2-20.2l-2.1-.3c-14.8-2.3-28.2-4-39.7-5.9-.8-.1-1.5-.2-2.2-.4-22-3.8-36.4-8.5-39.7-20.5-.3-1-1-4.3.1-10.5 2.3-12.2 11.6-26 26.3-40.1.6-.6 1.2-1.1 1.8-1.7 12.6-11.8 28.9-23.7 48-35.2.6-.4 1.2-.7 1.9-1.1 21.1-12.5 45.5-24.3 72-34.5.7-.3 1.4-.5 2.1-.8 16.2-6.2 33.1-11.7 50.5-16.4.7-.2 1.5-.4 2.2-.6 6.6-1.8 13.2-3.4 19.9-4.9.7-.2 1.4-.3 2.1-.5 33.3-7.4 68-11.5 102.2-11.1h2.2c11.7.2 23.4 1 34.9 2.3 2.6.3 5.2.6 7.9 1l2.1.3c7.1 1 14.5 2.3 22.1 3.6 6.5 1.2 13.3 2.4 20.3 3.8.7.1 1.4.3 2.1.4 9.1 1.7 18.6 3.5 28.7 5.2 8.2 1.4 16.8 2.9 25.8 4.2.7.1 1.4.2 2.2.3 2.4.4 4.9.7 7.3 1.1 1 .1 1.9.3 2.9.4 5.2.7 10.6 1.4 16.1 2.1 1.1.1 2.2.2 3.2.4 2.1.2 4.2.5 6.4.7 1.4.2 2.8.3 4.2.4h.4c2.1.2 4.2.4 6.4.6 1.1.1 2.1.2 3.2.3 3.1.3 6.2.5 9.4.8 1.7.1 3.3.3 5 .4l2.3.2c.8.1 1.5.1 2.3.2 2.2.2 4.4.3 6.6.4 1.4.1 2.8.2 4.2.2h.6c.8 0 1.6.1 2.3.1.4 0 .8 0 1.2.1 2 .1 3.9.2 5.9.3 20.4.8 35.4.5 48.6.6h7.4c19.4.3 38.6 1.5 57.4 3.3.7.1 1.5.2 2.2.2 18.9 2 37.3 4.7 54.7 8 .7.1 1.5.3 2.2.4 15.6 3 30.3 6.6 43.9 10.5.7.2 1.4.4 2.2.6 3.6 1.1 7.2 2.2 10.7 3.3.7.2 1.4.5 2.1.7 7.7 2.6 15 5.3 21.7 8.2l2.1.9c24.7 10.8 41.3 23.2 45.9 36.2.6 2.7 1.5 5.1 1.1 8.2z"/><path class="st30" d="M976.5 863.8c-2 14.4-26.5 16.6-52.2 30.2-8.7 4.6-17.5 10.4-25.6 18.5-6.4 6.3-10.7 11.9-13.9 17.2l-.1.1-.6.9c-.2.3-.4.6-.5.9l-1.5 2.7c-.2.3-.3.6-.5.9-.9 1.7-1.6 3.3-2.3 4.9-.2.4-.3.7-.5 1.1-.9 2.1-1.7 4.2-2.6 6.2-.2.4-.3.8-.5 1.2-.3.8-.7 1.6-1 2.4-.3.8-.7 1.6-1.1 2.4-.1.3-.3.6-.4.9-.7 1.4-1.4 2.7-2.1 4.1-.3.5-.6 1.1-.9 1.6l-.1.1c-.2.3-.3.5-.5.8-.2.4-.5.7-.7 1.1-.2.3-.4.7-.7 1-.7 1.1-1.5 2.1-2.3 3.2-.4.5-.8 1-1.3 1.6-.2.3-.4.5-.7.8-.3.3-.6.7-.9 1-31.4 35.2-87.5 30.7-156.1 44.1-143.3 28-140.3 95-226.1 92.1 0 0-16.5-.5-31.9-5-34.3-10-51.1-49.5-81.8-84.2-4.6-5.2-9.4-10.2-14.7-15.1-24.8-22.7-48.8-31.7-81.3-43.8-84.6-31.5-156.2-18.8-163.9-47.4-.3-1-1-4.3.1-10.5 11.5-61.4 201.2-164 365.9-144.6 10.1 1.2 20.8 2.9 32.1 4.9 15.6 2.8 32.5 6.1 51.1 9.4 11.1 1.9 22.8 3.8 35.3 5.6 1 .1 1.9.3 2.9.4 5.2.7 10.6 1.4 16.1 2.1 1.1.1 2.2.3 3.2.4 2.1.2 4.3.5 6.4.7 1.4.1 2.8.3 4.2.4h.4c2.1.2 4.2.4 6.4.6 1.1.1 2.1.2 3.2.3 3.1.3 6.2.5 9.4.8 1.7.1 3.3.3 5 .4l2.3.2c.8.1 1.5.1 2.3.2 2.2.1 4.4.3 6.6.4 1.4.1 2.9.2 4.3.2 1.4.1 2.8.1 4.1.2 2 .1 3.9.2 5.9.3 20.4.8 35.4.5 48.6.6 120.6.6 238.9 34.3 252.2 72.4.8 2.6 1.7 5 1.3 8.1z"/><linearGradient id="SVGID_13_" gradientUnits="userSpaceOnUse" x1="367.091" y1="933.047" x2="976.575" y2="933.047"><stop offset="0" stop-color="#df8744"/><stop offset="1" stop-color="#eaba5c"/></linearGradient><path d="M976.5 863.9c-2 14.4-26.5 16.6-52.2 30.2-9 4.3-17.8 10.1-25.6 18.5-6.7 7.2-13.1 16.1-13.9 17.2l-.1.1-.6.9c-.2.3-.4.6-.5.9l-1.5 2.7c-.2.3-.3.6-.5.9-.9 1.7-1.6 3.3-2.3 4.9-.2.4-.3.7-.5 1.1-.9 2.1-1.7 4.2-2.6 6.2-.2.4-.3.8-.5 1.2-.3.8-.7 1.6-1 2.4-.3.8-.7 1.6-1.1 2.4-.1.3-.3.6-.4.9-.7 1.4-1.4 2.7-2.1 4.1-.3.5-.6 1.1-.9 1.6l-.1.1c-.2.3-.3.5-.5.8-.2.4-.5.7-.7 1.1-.2.3-.4.7-.7 1-.7 1.1-1.5 2.1-2.3 3.2-.4.5-.8 1-1.3 1.6-.2.3-.4.5-.7.8-.3.3-.6.7-.9 1-31.4 35.2-87.5 30.7-156.1 44.1-143.3 28-140.3 95-226.1 92.1 0 0-16.5-.5-31.9-5-34.3-10-51.1-49.5-81.8-84.2.7-.7 1.5-1.4 2.3-2.1 14.5-13.1 23.6-18.1 58.6-44.5 11.2-8.5 20.5-15.4 28.2-21.2 23.9-18.1 33.3-26.3 42.5-42.8 29.4-52.8 10-105.5 6.6-145.9 15.6 2.8 32.5 6.1 51.1 9.4 11.1 1.9 22.8 3.8 35.3 5.6 1 .1 1.9.3 2.9.4 5.2.7 10.6 1.4 16.1 2.1 1.1.1 2.2.2 3.2.4 2.1.2 4.3.5 6.4.7 1.4.1 2.8.3 4.2.4h.4c2.1.2 4.3.4 6.4.6 1.1.1 2.1.2 3.2.3 3.1.3 6.2.5 9.4.8 1.7.1 3.3.3 5 .4 1.5.1 3 .2 4.6.3 2.2.1 4.4.3 6.6.4 1.4.1 2.8.2 4.3.2 1.4.1 2.7.1 4.1.2 2 .1 3.9.2 5.9.3 15.3.6 31.5.9 48.6.6 120.6.6 238.9 34.3 252.2 72.4.8 2.6 1.7 5 1.3 8.2z" opacity=".2" fill="url(#SVGID_13_)"/><path class="st7" d="M286.5 861.3c26.4 10.6 48.3 12.1 62.4 11.9 11.3-.2 41.4-.8 45.5-13.7 1.5-4.7-1.1-9.4-1.7-10.4-11.3-19-65-5-67.5-4.3l-38.7 16.5zm471.3 118s83.5-45.1 83.4-58.7-84.8 46.1-84.8 50.8c-.1 4.7 1.4 7.9 1.4 7.9"/><path d="M503.6 910.4c8 6.4 21 14.6 38.7 17.8 8.4 1.5 32.5 5.8 52.4-8.6 5.5-4 18.5-13.5 18.7-29 .2-15-11.8-25-13.8-26.6-32 15.4-64 30.9-96 46.4z" opacity=".1" fill="#2a303d"/></g><g id="plate"><path d="M609.6 888.4c0 19.9-25.8 36.1-57.9 36.4h-1.1c-32.6 0-59-16.3-59-36.4v-.7c.6-19.8 26.8-35.7 59-35.7 9.2 0 17.9 1.3 25.7 3.6 17.9 5.4 30.8 16.2 32.9 29 .3 1.3.4 2.5.4 3.8z" fill="#182828"/><path class="st25" d="M609.3 884v.6c-.6 19.8-26.7 35.8-59 35.8-30.5 0-55.7-14.4-58.7-32.7-.2-1.2-.3-2.4-.3-3.7 0-20.1 26.4-36.4 59-36.4 8 0 15.7 1 22.7 2.8 21.4 5.5 36.3 18.5 36.3 33.6z"/><path d="M550 897.2c-12.5 0-22.7-7.3-22.7-16.4 0-9 10.2-16.4 22.7-16.4s22.7 7.3 22.7 16.4c-.1 9.1-10.2 16.4-22.7 16.4zm0-29.5c-10.8 0-19.5 5.9-19.5 13.2 0 7.3 8.7 13.2 19.5 13.2s19.5-5.9 19.5-13.2c0-7.3-8.8-13.2-19.5-13.2z" opacity=".7" fill="#bacfda"/><linearGradient id="SVGID_14_" gradientUnits="userSpaceOnUse" x1="550.373" y1="887.616" x2="609.629" y2="887.616"><stop offset=".471" stop-color="#2a303d"/><stop offset="1" stop-color="#302e40"/></linearGradient><path d="M609.6 888.4c0 19.9-25.8 36.1-57.9 36.4l-1.4-4.4c42.1-20.5 35.9-47.7 26-64.8-1.1-1.9-2.2-3.6-3.3-5.2 21.3 5.5 36.3 18.5 36.3 33.6v.6c.2 1.3.3 2.5.3 3.8z" opacity=".2" fill="url(#SVGID_14_)"/><path d="M520.5 910.7c-1.7-.5-20.2-6.5-23-21.1-1.5-7.7 1.2-18.3 5.9-19.3 2.1-.5 4.5 1.1 5.8 2.8 2.8 3.9.2 9.1-.5 14-.6 5.4 1.2 13.2 11.8 23.6z" opacity=".15" fill="#fff"/></g><g id="menu"><path class="st14" d="M729.4 851.1c-28.4 13.6-56.9 27.2-85.3 40.8-.1.5-.1 1.1-.2 1.6 37.5 28.6 75 57.2 112.4 85.8 28.3-19.6 56.5-39.1 84.8-58.7 0-.9.1-1.8.1-2.8-37.2-22.2-74.5-44.5-111.8-66.7z"/><path class="st4" d="M841.3 917.8l-85 58.3-112.2-84.3 29.7-15.3 55.6-28.6 85.2 53.2z"/><path class="st40" d="M762.6 947.9c-.5 0-1-.2-1.3-.7-.5-.7-.3-1.7.4-2.2l44.4-31.6c.7-.5 1.7-.3 2.2.4.5.7.3 1.7-.4 2.2l-44.4 31.6c-.3.2-.6.3-.9.3zm-8-19.5c-.2 0-.4-.1-.5-.3-.1-.3-.1-.6.2-.7l39.1-23.3c.2-.1.6-.1.7.2.1.3.1.6-.2.7l-39.1 23.3c0 .1-.1.1-.2.1zM735.2 944c-.2 0-.3-.1-.4-.2-.2-.2-.1-.6.1-.7l10.7-8.6c.2-.2.6-.1.7.1.2.2.1.6-.1.7l-10.7 8.6s-.2.1-.3.1zm-10.1-8.6c-.2 0-.3-.1-.4-.2-.2-.2-.1-.6.1-.7l10.7-8.6c.2-.2.6-.1.7.1.2.2.1.6-.1.7l-10.7 8.6c-.1 0-.2.1-.3.1zM710 924.3c-.2 0-.3-.1-.4-.2-.2-.2-.1-.6.1-.7l10.7-8.6c.2-.2.6-.1.7.1.2.2.1.6-.1.7l-10.7 8.6c0 .1-.1.1-.3.1zm-10.7-7.5c-.2 0-.3-.1-.4-.2-.2-.2-.1-.6.1-.7l10.7-8.6c.2-.2.6-.1.7.1.2.2.1.6-.1.7l-10.7 8.6c-.1.1-.2.1-.3.1zm44.2 5.8c-.2 0-.3-.1-.4-.2-.2-.2-.1-.6.1-.7l35.7-28.2c.2-.2.6-.1.7.1.2.2.1.6-.1.7l-35.7 28.2c-.1.1-.2.1-.3.1zM728 910.5c-.2 0-.4-.1-.5-.3-.1-.3 0-.6.2-.7l40.2-21.2c.3-.1.6 0 .7.2.1.3 0 .6-.2.7l-40.2 21.2s-.1.1-.2.1zm-12.6-5.9c-.2 0-.3-.1-.4-.2-.2-.2-.1-.6.2-.7l38-24.9c.2-.2.6-.1.7.2.2.2.1.6-.2.7l-38 24.9h-.3zm-15.3-10.7h-.2c-.2-.1-.3-.2-.3-.4-.1-.5-2.8-11.7 4.5-16.4 7.3-4.7 16.4 2.3 16.8 2.6.1.1.2.3.2.4 0 .2-.1.3-.2.4l-20.5 13.2c-.1.2-.2.2-.3.2zm9.6-17.3c-1.7 0-3.4.4-5 1.4-5.7 3.7-4.6 12-4.2 14.6l19.2-12.4c-1.5-1.1-5.7-3.6-10-3.6z"/><path class="st40" d="M695.3 895.9c-.4 0-.7-.1-1-.2-.4-.2-.9-.7-.9-1.8-.1-4 5.8-7 6-7.1.3-.1.6 0 .7.2.1.3 0 .6-.2.7-.1 0-5.5 2.8-5.4 6.2 0 .7.3.9.4.9.9.5 3.5-.7 5-1.8.2-.2.6-.1.7.1.2.2.1.6-.1.7-.4.3-3.2 2.1-5.2 2.1z"/><path d="M814.6 901.1c-31.4-6.2-105.4-18.7-140.7-24.6l55.6-28.6 85.1 53.2z" opacity=".04" fill="#2a303d"/></g><g id="vase_and_plants"><g id="plants"><path class="st25" d="M370.9 486.3c3.1 6.8 2.8 14.4-3.2 33.2-4 12.5-7.9 21.5-11.6 28.8-7.3 14.7-13.8 22.7-18.6 38.2-11.6 37.1 2.8 63.5-5.4 66.7 0 0-.1 0-.1.1-1.6.6-3.6.1-5.7-1.3-10.9-6.7-27.9-34-39.5-52.8-32-51.8-66.1-106.8-46.9-131.4 11.4-14.6 31.1-5.9 37.9-19.4 10.9-21.6-37.4-47.9-40.9-101.3-1.8-27.1 8.3-56.9 22.5-60.1.6-.1 1.3-.2 1.9-.3 10.9-.6 18.5 14.8 28.9 11.7 7.5-2.2 9.3-12.1 11.6-23.4 2.5-12 5.5-25.6 16.4-33.4.4-.3.7-.5 1.1-.7 11.3-7.3 28.4-8 34.1-.8 9 11.1-15.2 33.9-5.6 52.4 6.7 12.8 21.5 7.9 30.5 20.5 11.5 15.9 1 42.1-10.4 69.8-.8 1.9-1.5 3.7-2.3 5.4-18.5 42.6-36.6 58-29.3 72.5.9 1.8 2.1 3.3 3.5 4.6 7.4 7 20.3 7 27.9 16 1.2 1.4 2.3 3.1 3.2 5z"/><linearGradient id="SVGID_15_" gradientUnits="userSpaceOnUse" x1="248.473" y1="502.185" x2="371.212" y2="502.185" gradientTransform="rotate(-21.524 324.967 460.674)"><stop offset=".498" stop-color="#3d6658"/><stop offset="1" stop-color="#fff" stop-opacity=".6"/></linearGradient><path d="M329.1 677.9h-.2c-.6-.1-1-.6-.9-1.2 2.6-15.6 4.1-31.6 4.3-47.4.6-43.4-5.2-84.2-17.2-121.3-1-3.1-2-6.1-3-8.9-4.8-13.9-8.5-24.8-7.5-41 1-16.1 5.9-27 11.2-38.6 4.8-10.6 9.8-21.6 11.7-37.2 1.9-16 .1-32.5-5.4-49-.2-.6.1-1.1.7-1.3.6-.2 1.1.1 1.3.7 5.6 16.9 7.4 33.7 5.5 50-1.9 15.9-7 27.1-11.8 37.8-5.2 11.4-10 22.2-11 37.9-1 15.8 2.7 26.6 7.4 40.2 1 2.9 2 5.8 3 9 12.1 37.3 17.9 78.3 17.3 122-.2 15.9-1.7 32-4.3 47.7-.1.2-.6.6-1.1.6z" fill="url(#SVGID_15_)"/><path class="st7" d="M367.7 481.3l-11.6 67.1L336.5 662s-1.7-3.2-4.5-8.8c-10.4-20.9-35.4-75-38.8-113.4-3.2-37.3 30.6-64.1 46.6-74.6 7.5 7 20.3 7 27.9 16.1z"/><path d="M436 471.8c-17.9 16.6-39.9 18.1-41.2 31.9-1.1 12 14.9 15.1 16.4 28.9 2.2 20.3-30.9 27.4-51.8 62.2-16.6 27.6-14.2 53.9-17.7 60.6-.5 1.1-1.2 1.6-2.1 1.7-4.1.2-6.9-10.8-21.1-68.8-9.3-38-13.9-57.2-8.7-70.2 7.2-18.2 19.1-16.1 38.3-35.9 39.6-40.6 22.7-83.2 57.6-103.2 14.3-8.2 35-11.4 46-2.5 3.4 2.7 5.9 6.6 7.7 11.3 8.3 22.2-.2 62.4-23.4 84z" fill="#c78e7f"/><linearGradient id="SVGID_16_" gradientUnits="userSpaceOnUse" x1="313.132" y1="560.053" x2="407.331" y2="560.053" gradientTransform="matrix(.9971 -.07561 .07561 .9971 -31.843 28.058)"><stop offset="0" stop-color="#c78e7f"/><stop offset="1" stop-color="#fff" stop-opacity=".6"/></linearGradient><path d="M334.1 699.9h-.2c-.6-.1-.9-.7-.8-1.2 2.1-10.8 3.6-21.9 4.6-32.9 3.5-38.8-1-64.3-4.6-84.7-3.8-21.3-6.5-36.8 3.2-54.5 7-12.9 15.9-18.6 25.3-24.6 10.7-6.8 21.7-13.9 31.2-32.7 7.5-14.7 11.3-31.4 11.4-49.6 0-.6.5-1 1.1-1 .6 0 1.1.5 1 1.1-.1 18.5-4 35.5-11.6 50.5-9.8 19.2-21.1 26.5-32 33.5-9.2 5.9-17.8 11.4-24.6 23.9-9.3 17.1-6.8 31.4-3 53.2 3.6 20.6 8.1 46.1 4.6 85.2-1 11.1-2.6 22.2-4.7 33.1 0 .3-.4.7-.9.7z" fill="url(#SVGID_16_)"/><path class="st26" d="M367.9 382.7c-.8 1.9-1.5 3.7-2.3 5.4-12.8-21.1-18.8-39.3-21.9-52-6-24.7-4.4-42.9-18-53.8-7.9-6.3-17.5-7.4-24-7.4 2.5-12 5.5-25.6 16.4-33.4.4-.3.7-.5 1.1-.7 11.3-7.3 28.4-8 34.1-.8 9 11.1-15.2 33.9-5.6 52.4 6.7 12.8 21.5 7.9 30.5 20.5 11.6 15.9 1.1 42.1-10.3 69.8zm68.1 89.1c-17.9 16.6-39.9 18.1-41.2 31.9-1.1 12 14.9 15.1 16.4 28.9 2.2 20.3-30.9 27.4-51.8 62.2-16.6 27.6-14.2 53.9-17.7 60.6l-.3 4.8c.8-58.7 17.8-85.2 34.4-98.4 9.8-7.8 26.7-16.6 26.1-29.2-.6-13-19-16.8-19-28.3 0-13 23.3-19 40.5-32.5 15.9-12.6 32-36.1 35.9-83.8 8.4 22-.1 62.2-23.3 83.8z"/><linearGradient id="SVGID_17_" gradientUnits="userSpaceOnUse" x1="234.269" y1="469.32" x2="326.297" y2="469.32"><stop offset="0" stop-color="#fff"/><stop offset="1" stop-color="#9375a1"/></linearGradient><path d="M326.3 651.9c-10.9-6.7-27.9-34-39.5-52.8-32-51.8-66.1-106.8-46.9-131.4 11.4-14.6 31.1-5.9 37.9-19.4 10.9-21.6-37.4-47.9-40.9-101.3-1.8-27.1 8.3-56.9 22.5-60.1.6-.1 1.3-.2 1.9-.3-7.1 17.7-14.8 44.8-8.9 75.3 8.9 45.9 44.2 76.2 32.3 93.9-7.4 11-26.9 7.8-32.5 22.7-2.5 6.7-1 13.2.6 17.7 10.3 30.7 73 154.8 73.5 155.7z" opacity=".11" fill="url(#SVGID_17_)"/></g><g id="vase"><path class="st14" d="M380.5 744.4v113.1c0 1.3-.1 2.5-.1 3.8h-93.8c-.1-1.3-.1-2.5-.1-3.8V744.4c0-14.8 5.3-28.3 13.8-38.1 3.6-4.1 7.7-7.5 12.3-10.1l-13-40.9-2.2-6.8h72.2l-2.2 6.8-13 40.9c15.5 8.9 26.1 27.2 26.1 48.2z"/><g opacity=".35"><path class="st47" d="M304.3 648.5v21.8l-3.2-9.9v-11.9zm0 53.7v159.1h-3.2V705.4c1-1.1 2.1-2.2 3.2-3.2zm19.3-53.7h3.2v212.8h-3.2zm24.5 1.7v211.1h-3.2V650.2c0-.9.7-1.6 1.6-1.6.9.1 1.6.8 1.6 1.6zm21.5-1.7l-2 6.2v-6.2zm1.2 63.2v149.6h-3.2V707.4c1.1 1.4 2.2 2.8 3.2 4.3z"/><path class="st47" d="M358.5 683.5l-1 3.2h-48l-1-3.2zm18 39.3h-86.1c.4-1.1.8-2.1 1.3-3.2h83.5c.5 1.1.9 2.1 1.3 3.2zm-90.1 31.7h94.1v3.2h-94.1zm0 34.6h94.1v3.2h-94.1zm0 34.7h94.1v3.2h-94.1z"/></g><path class="st30" d="M380.5 744.4v113.1c0 1.3-.1 2.5-.1 3.8h-93.9c-.1-1.3-.1-2.5-.1-3.8V744.4c0-7.7 1.4-15 4-21.6.4-1.1.8-2.1 1.3-3.2 2.2-4.9 5.1-9.4 8.5-13.3.3-.3.6-.6.9-1 1-1.1 2.1-2.2 3.2-3.2 2.5-2.3 5.3-4.3 8.2-6l-3-9.5-1-3.2-4.2-13.2-3.2-10-1.6-5-2.2-6.8h72.2l-2 6.2-.2.6-8.9 28.2-1 3.2-3 9.5c4.9 2.9 9.4 6.7 13.2 11.2 1.1 1.3 2.2 2.8 3.2 4.2 1.7 2.5 3.2 5.2 4.4 8 .5 1 .9 2.1 1.3 3.2 2.6 6.7 4 14 4 21.7z"/><path class="st20" d="M380.5 854.5v3c0 1.3-.1 2.5-.1 3.8h-93.8c-.1-1.3-.1-2.5-.1-3.8v-3h94zm-10.9-206l-2.2 6.8h-67.9l-2.1-6.8z"/><path class="st26" d="M380.5 744.4v113.1c0 1.3-.1 2.5-.1 3.8h-40.6V648.5h29.7l-2.2 6.8-13 40.9c15.6 8.9 26.2 27.2 26.2 48.2z"/><circle cx="305.5" cy="730.9" r="8.2" opacity=".23" fill="#fff"/></g></g></g></g></svg>