<svg xmlns="http://www.w3.org/2000/svg" width="1050.4" height="1006"><style>.st6{fill:#ebdede}.st9{fill:#153e5c}.st10{fill:#c5545a}.st11{fill:#87aeb4}.st12{fill:#271c41}.st19{fill:#c5856e}.st23{opacity:.25;fill:#153e5c}.st39{fill:#f28f3f}.st42{opacity:.61;fill:#fff}</style><g id="background"><g id="general_1_"><g id="figures"><linearGradient id="SVGID_1_" gradientUnits="userSpaceOnUse" x1="42.151" y1="383.638" x2="922.009" y2="383.638"><stop offset=".002" stop-color="#f0e2e2"/><stop offset="1" stop-color="#f4dba9"/></linearGradient><path d="M921 261.3c-.2 1.3-.4 2.7-.6 4-2.3 14.8-7.4 28.8-16.1 41-3.8 5.3-8 10-12.6 14-1.7 1.5-3.5 2.9-5.4 4.2-14.9 10.8-33.5 16.2-55 18.2-1.3.1-2.7.2-4 .3-16.7 1.2-35.2.6-55-1.2-1.3-.1-2.7-.2-4-.3-17.4-1.6-35.8-3.9-55-6.4-1.3-.2-2.7-.3-4-.5-17.7-2.3-36.1-4.7-55-6.7-1.3-.2-2.7-.3-4-.4-12.2-1.3-24.5-2.4-37-3.2-29.5-2-59.9-2.5-90.7 0-15 1.2-30.2 3.2-45.3 6-1.3.2-2.7.5-4 .8-12.3 2.4-24.7 5.5-37 9.2-5.9 1.8-11.9 3.8-18 6-1.3.5-2.7 1-4 1.5-17.7 6.6-36.1 15.1-55 25.8-1.3.8-2.7 1.5-4 2.3-1.9 1.1-3.8 2.2-5.7 3.4-2.1 1.3-4.3 2.6-6.4 4-14.1 8.9-28.4 19.2-42.9 31.1-1.3 1.1-2.7 2.2-4 3.3-7.7 6.4-15.4 13.3-23.1 20.6-1.4 1.3-2.8 2.6-4.2 4-9.2 8.9-18.5 18.6-27.7 28.9-1.3 1.5-2.7 3-4 4.5-6 6.9-12 14-18.1 21.6-1.1 1.3-2.1 2.7-3.2 4-11.3 14.3-22.5 29.7-33.7 46.4-1.3 2-2.7 4-4 6-.6.9-1.2 1.7-1.7 2.6-.9 1.3-1.7 2.7-2.6 4-11 17.1-22 35.4-32.9 55-.7 1.3-1.5 2.7-2.2 4-5.2 9.5-10.4 19.4-15.6 29.5-1.3 2.6-2.7 5.3-4 7.9-2.9 5.7-5.7 11.6-8.6 17.5-.6 1.3-1.3 2.7-1.9 4-8.3 17.5-16.5 35.8-24.6 55-.6 1.3-1.1 2.7-1.7 4-4.1 9.8-8.2 19.8-12.2 30-2.1-7.7-4.1-15.5-6-23.2-1.4-5.8-2.7-11.5-4-17.2-3.6-16.2-6.6-32.4-9.1-48.6-.2-1.3-.4-2.7-.6-4-2.8-18.4-4.9-36.8-6.3-55-.1-1.3-.2-2.7-.3-4-1.3-18.5-2-36.8-1.9-55v-4c.1-18.5 1-36.9 2.5-55 .1-1.3.2-2.7.4-4 1.7-18.6 4.1-37 7.2-55 .2-1.3.5-2.7.7-4 2.2-12.1 4.6-24 7.4-35.7 1.3-5.4 2.6-10.7 4-16l.9-3.3c.4-1.3.7-2.7 1.1-4 5.2-18.8 11.2-37.2 18-55 .5-1.3 1-2.7 1.5-4 7.4-19 15.6-37.3 24.8-55 .7-1.3 1.4-2.7 2.1-4 2.2-4.1 4.4-8.2 6.6-12.2 1.3-2.4 2.7-4.7 4-7 7.1-12.3 14.7-24.2 22.7-35.8.9-1.3 1.9-2.7 2.8-4 9.3-13.1 19.1-25.7 29.5-37.7 1.3-1.5 2.7-3 4-4.6 3.8-4.3 7.7-8.6 11.7-12.7 1.3-1.3 2.6-2.7 3.9-4a443.4 443.4 0 0 1 39.4-35.8c1.3-1.1 2.7-2.1 4-3.2 7.1-5.6 14.3-10.9 21.7-16 2-1.4 3.9-2.7 5.9-4 4.1-2.7 8.2-5.4 12.4-8 4.9-3 9.9-6 15-8.9 1.3-.8 2.7-1.5 4-2.2 17.6-9.7 36-18.3 55-25.8 1.3-.5 2.7-1.1 4-1.6 7.9-3 15.9-5.9 24-8.6 4.2-1.4 8.4-2.7 12.6-4 6.1-1.9 12.2-3.6 18.4-5.2 1.3-.4 2.7-.7 4-1 18.1-4.7 36.5-8.5 55-11.4 1.3-.2 2.7-.4 4-.6 18.3-2.8 36.7-4.7 55-5.8 1.3-.1 2.7-.2 4-.2 18.4-1 36.8-1.1 55-.5 1.3 0 2.7.1 4 .2 18.6.8 37 2.5 55 5.1 1.3.2 2.7.4 4 .6 18.9 2.8 37.3 6.6 55 11.3 1.3.4 2.7.7 4 1.1 7.4 2 14.7 4.2 21.9 6.6 3.9 1.3 7.7 2.6 11.5 4 7.4 2.7 14.5 5.5 21.6 8.6 1.3.6 2.7 1.2 4 1.8 19.9 8.9 38.4 19.3 55 31.1 1.3.9 2.7 1.9 4 2.9 4.7 3.5 9.2 7 13.6 10.7 1.6 1.3 3.1 2.6 4.6 4 14.3 12.8 26.7 26.9 36.8 42.3 1 1.5 2 3.1 3 4.7.3.5.7 1.1 1 1.6 1.2 2.1 2.5 4.2 3.7 6.4.7 1.3 1.4 2.6 2.2 4 8.4 16 15.9 35.1 20.6 55 .3 1.3.6 2.7.9 4 3.9 18.2 5.5 37 3.3 54.9z" fill="url(#SVGID_1_)"/><linearGradient id="SVGID_2_" gradientUnits="userSpaceOnUse" x1="348.447" y1="603.59" x2="980.859" y2="603.59"><stop offset=".002" stop-color="#f0e2e2"/><stop offset="1" stop-color="#f4dba9"/></linearGradient><path d="M980.4 654.3c-.7 6.8-2 13.5-3.9 20-.4 1.3-.8 2.7-1.2 4-5.3 16.1-14.2 31.2-25.9 45.2-1.3 1.6-2.6 3.1-4 4.6-1.6 1.8-3.2 3.5-4.8 5.2-1.3 1.3-2.6 2.7-4 4-13.3 13-29 24.8-46.2 35.1-1.3.8-2.7 1.6-4 2.4-11.1 6.4-22.8 12.3-34.9 17.5-3.2 1.4-6.4 2.7-9.7 4-3.4 1.4-6.9 2.7-10.4 3.9-1.3.5-2.7 1-4 1.4-18.1 6.3-36.7 11.1-55 14.2-1.3.2-2.7.5-4 .7-13.2 2.1-26.3 3.4-39 3.8-5.3.1-10.7.1-16 0-1.3 0-2.7-.1-4-.1-18.5-.9-36.9-3.6-55-7.9-1.3-.3-2.7-.6-4-1-15.4-3.9-30.5-8.9-45.3-14.9-3.2-1.3-6.3-2.6-9.5-4-.1 0-.2-.1-.2-.1-1.3-.6-2.7-1.2-4-1.8-19-8.6-37.4-18.8-55-30.2-1.3-.9-2.7-1.7-4-2.6-9.7-6.4-19.1-13.2-28.2-20.3-1.7-1.3-3.4-2.7-5.1-4-7.4-5.9-14.7-12-21.7-18.4-1.3-1.2-2.7-2.4-4-3.6-11.6-10.6-22.6-21.7-33-33-1.2-1.3-2.4-2.7-3.6-4-6.5-7.2-12.6-14.6-18.5-22-1.3-1.7-2.7-3.4-4-5.1-7.1-9.2-13.6-18.5-19.7-27.8-.9-1.3-1.7-2.7-2.6-4-11.8-18.6-21.5-37.1-28.7-55-.5-1.3-1.1-2.7-1.6-4-.9-2.3-1.7-4.5-2.5-6.8-1.5-4.2-2.8-8.3-4-12.4-3.6-12.5-5.9-24.5-6.6-35.8-.1-1.3-.2-2.7-.2-4-.5-14.9 1.6-28.4 6.8-40 1.2-2.6 2.5-5.2 4-7.6 1.5-2.5 3.2-5 5.1-7.4 1-1.4 2.2-2.7 3.3-4 11.2-12.7 27.2-23 46.6-30.9 1.3-.5 2.7-1.1 4-1.6 16.3-6.2 34.8-10.9 55-14.1 1.3-.2 2.7-.4 4-.6 17.3-2.5 35.8-3.9 55-4.2h4c17.8-.1 36.3.7 55 2.4 1.3.1 2.7.2 4 .4 18.2 1.8 36.6 4.5 55 8 1.3.2 2.7.5 4 .8 18.5 3.7 36.9 8.2 55 13.6 1.3.4 2.7.8 4 1.2 18.8 5.8 37.3 12.4 55 20 1.3.6 2.7 1.1 4 1.7 2.5 1.1 5 2.2 7.5 3.4 2.8 1.3 5.7 2.6 8.5 4 6.5 3.1 20.8 10.1 39 20.4 1.3.7 2.7 1.5 4 2.3 15.1 8.7 32.5 19.6 49.9 32.3 3 2.2 6 4.5 9.1 6.8 19.8 15.2 39.2 32.8 54.9 52.2 1.4 1.7 2.8 3.5 4.1 5.2 12.7 16.7 22.5 34.7 27.6 53.8.3 1.3.7 2.7 1 4 2.8 11 3.7 22.7 2.6 34.7z" fill="url(#SVGID_2_)"/><linearGradient id="SVGID_3_" gradientUnits="userSpaceOnUse" x1="137.365" y1="804.775" x2="426.365" y2="804.775"><stop offset=".002" stop-color="#f0e2e2"/><stop offset="1" stop-color="#f4dba9"/></linearGradient><path d="M426.4 804.8c0 16.3-2.7 31.9-7.6 46.5-1.3 3.8-2.8 7.6-4.4 11.2-7.9 18.2-19.5 34.4-33.8 47.8-1.5 1.4-2.9 2.7-4.5 4-5.3 4.5-10.9 8.7-16.8 12.5-1.3.8-2.7 1.7-4 2.5-16.5 9.8-35.1 16.3-55 18.9-1.3.2-2.7.3-4 .5-4.8.5-9.6.7-14.5.7-14.1 0-27.7-2-40.5-5.8-1.3-.4-2.7-.8-4-1.2-18.5-6-35.4-15.6-49.8-28-1.5-1.3-3-2.6-4.5-4-.2-.2-.5-.5-.8-.7-1.4-1.3-2.7-2.6-4-3.9-13.9-14.2-24.8-31.3-31.9-50.3-.5-1.3-1-2.7-1.4-4-5-14.6-7.6-30.2-7.6-46.5 0-2.9.1-5.7.2-8.5.1-1.3.2-2.7.3-4 1.7-19.7 7.3-38.3 16.2-55 .7-1.3 1.4-2.7 2.2-4 6.1-10.7 13.5-20.6 22.1-29.4 1.3-1.3 2.6-2.6 4-3.9 8.9-8.4 18.8-15.7 29.6-21.7 2.6-1.4 5.1-2.8 7.8-4 5.7-2.7 11.6-5.1 17.6-7 1.3-.4 2.7-.8 4-1.2 12.8-3.7 26.4-5.8 40.5-5.8 4.9 0 9.7.2 14.5.7 1.3.1 2.7.3 4 .5 15.4 2 30.1 6.4 43.6 12.8 2.6 1.2 5.2 2.6 7.8 4l3.6 2.1c1.3.8 2.7 1.6 4 2.5 19.8 12.6 36.4 30 48.1 50.5.8 1.3 1.5 2.7 2.2 4 1.7 3.2 3.3 6.4 4.7 9.8 1.5 3.3 2.8 6.7 4 10.2 3.9 11.1 6.4 22.9 7.5 35 .1 1.3.2 2.7.3 4 .2 2.5.3 5.3.3 8.2z" fill="url(#SVGID_3_)"/><linearGradient id="SVGID_4_" gradientUnits="userSpaceOnUse" x1="11.874" y1="106.266" x2="139.295" y2="106.266"><stop offset=".002" stop-color="#f0e2e2"/><stop offset="1" stop-color="#f4dba9"/></linearGradient><path d="M137.7 120.3c-1.9 8.5-5.5 16.3-10.3 23-1 1.4-2 2.7-3.1 4-.3.4-.6.8-1 1.1-1.3 1.4-2.6 2.8-4 4.1-14.2 13.5-34.5 20.1-55 16.4-.9-.2-1.8-.3-2.8-.5l-1.2-.3c-13.6-3.3-25.1-10.8-33.5-20.8-1.1-1.3-2.1-2.6-3.1-4-10.2-14.2-14.5-32.6-10.3-51 .3-1.4.6-2.7 1-4 .4-1.4.8-2.7 1.3-4C23.2 64 40.2 49.4 60.4 44.4c1.3-.3 2.7-.6 4-.9 8.1-1.5 16.7-1.3 25.2.6 11.6 2.6 21.7 8.2 29.8 15.9 1.4 1.3 2.7 2.7 4 4.2 5.2 5.9 9.3 12.7 12 20.1.5 1.3.9 2.6 1.3 4 3 10 3.5 21 1 32z" fill="url(#SVGID_4_)"/><linearGradient id="SVGID_5_" gradientUnits="userSpaceOnUse" x1="549.365" y1="901.198" x2="1050.372" y2="901.198"><stop offset=".002" stop-color="#f0e2e2"/><stop offset="1" stop-color="#f4dba9"/></linearGradient><path d="M1050.4 876.3c-.2 11.5-5.4 23-14.4 34-1.1 1.3-2.2 2.7-3.4 4-6.1 6.7-13.6 13.3-22.2 19.5-1.3 1-2.6 1.9-4 2.8-15.6 10.8-34.4 20.5-55 28.8-1.3.5-2.7 1.1-4 1.6-2 .8-4 1.6-6.1 2.3-3.8 1.4-7.7 2.7-11.5 4-12.1 4-24.7 7.4-37.3 10.2-1.3.3-2.7.6-4 .9-18.4 3.8-37 6.2-55 6.8-1.3 0-2.7.1-4 .1h-1c-18.7.3-36.8-1.2-54-4.3-1.3-.2-2.7-.5-4-.7-16.2-3.1-31.6-7.6-46.3-13-4.3-1.6-8.5-3.2-12.7-5-19.9-8.3-38.3-18.2-55-28.9-1.3-.9-2.7-1.7-4-2.6-11.2-7.3-21.6-14.9-31.2-22.5-1.7-1.3-3.3-2.7-5-4-6.7-5.5-13-11-18.9-16.3-1.4-1.2-2.7-2.5-4-3.7-14.3-13.4-25.7-25.7-33.9-35-1.2-1.4-2.4-2.7-3.5-4-2.7-3.2-4.9-5.9-6.7-8 6.2 2.8 12.4 5.5 18.4 8 3.2 1.4 6.4 2.7 9.6 4 5.4 2.2 10.7 4.4 16 6.4 1.3.5 2.7 1 4 1.5 19.5 7.5 37.8 13.7 55 18.7 1.3.4 2.7.8 4 1.2 19.7 5.7 38 9.8 55 12.7 1.3.2 2.7.5 4 .7 20.2 3.2 38.4 4.6 55 4.5 1.3 0 2.7 0 4-.1 21-.4 39.2-3.3 55-7.8 1.3-.4 2.7-.8 4-1.2 15.5-4.8 28.7-11.3 40-18.6 5-3.2 10-6.9 15-10.7 1.3-1 2.7-2.1 4-3.1 1.7-1.4 3.5-2.8 5.2-4.2 1.6-1.3 3.3-2.7 4.9-4 14.6-11.9 29.3-24 44.9-31.8 1.3-.7 2.7-1.3 4-1.9 12.6-5.7 25.8-8.2 40-5.3 5.1 1 10.1 2.7 15 5 1.3.6 2.7 1.3 4 2 13.8 7.3 26 19 33.2 32 .7 1.3 1.4 2.6 2 4 3.2 6.8 5 13.9 4.9 21z" fill="url(#SVGID_5_)"/></g><path id="lines" d="M1010.4 855.3h35.2c-.6-1.4-1.3-2.7-2-4h-33.2v-32c-1.3-.7-2.7-1.4-4-2v34h-55v-33.7c-1.3.6-2.7 1.2-4 1.9v31.8h-44.9c-1.6 1.3-3.3 2.7-4.9 4h49.8v55h-55v-50.8c-1.3 1-2.7 2.1-4 3.1v47.7h-55v-18.4c-1.3.4-2.7.8-4 1.2v17.2h-55v-9.4c-1.3 0-2.7 0-4 .1v9.3h-55v-13.8c-1.3-.2-2.7-.4-4-.7v14.5h-55v-27.2c-1.3-.4-2.7-.8-4-1.2v28.3h-36.1c1.6 1.3 3.3 2.7 5 4h31.2v22.5c1.3.9 2.7 1.7 4 2.6v-25.1h55v54c4.2 1.7 8.4 3.4 12.7 5h46.3v13c1.3.2 2.7.5 4 .7v-13.7h55v18c1.3 0 2.7-.1 4-.1v-17.9h55v11c1.3-.3 2.7-.6 4-.9v-10.2h37.3c3.9-1.3 7.8-2.6 11.5-4h-48.9v-55h55V967c1.3-.5 2.7-1 4-1.6v-51.1h55v22.4c1.4-.9 2.7-1.9 4-2.8v-19.5h22.2c1.2-1.3 2.4-2.7 3.4-4h-25.6v-55.1zm-240 114h-55v-55h55v55zm59 0h-55v-55h55v55zm59 0h-55v-55h55v55zm118-59h-55v-55h55v55zm-57-291H978c-.3-1.3-.6-2.7-1-4h-27.6v-53.8c-1.3-1.8-2.7-3.5-4.1-5.2h-54.9v-52.2c-3-2.3-6-4.6-9.1-6.8h-49.9V465c-1.3-.8-2.7-1.5-4-2.3v34.6h-55v-55h16c-2.8-1.4-5.6-2.7-8.5-4h-7.5v-3.4c-1.3-.6-2.7-1.2-4-1.7v5.1h-55v-25.2c-1.3-.4-2.7-.8-4-1.2v26.4h-55v-40c-1.3-.3-2.7-.5-4-.8v40.7h-55v-48.7c-1.3-.1-2.7-.3-4-.4v49.1h-55v-51.5h-4v51.4h-55v-47.2c-1.3.2-2.7.4-4 .6v46.6h-55v-32.5c-1.3.5-2.7 1-4 1.6v30.9h-46.6c-1.2 1.3-2.3 2.6-3.3 4h49.9v55h-55v-47.6c-1.5 2.5-2.8 5-4 7.6v40h-6.8c0 1.3.1 2.7.2 4h6.6v35.8c1.2 4.1 2.5 8.2 4 12.4v-48.2h55v55h-52.5c.5 1.3 1 2.7 1.6 4h50.9v55h-22.3c.8 1.3 1.7 2.7 2.6 4h19.7v27.8c1.3 1.7 2.7 3.4 4 5.1v-33h55v55h-36.5c1.2 1.3 2.4 2.7 3.6 4h33v33c1.3 1.2 2.7 2.4 4 3.6V678h55v55h-33.3c1.7 1.3 3.4 2.7 5.1 4h28.2v20.3c1.3.9 2.7 1.8 4 2.6V737h55v53.1c1.3.6 2.7 1.2 4 1.8V737h55v55h-54.8c3.1 1.4 6.3 2.7 9.5 4h45.3v14.9c1.3.3 2.7.7 4 1V796h55v23.8c1.3.1 2.7.1 4 .1v-24h55v20.2c1.3-.2 2.7-.4 4-.7v-19.6h55v5.3c1.3-.5 2.7-.9 4-1.4v-3.9h10.4c3.3-1.3 6.5-2.6 9.7-4h-20.1v-55h55v37.5c1.3-.8 2.7-1.6 4-2.4v-35.1h46.2c1.4-1.3 2.7-2.7 4-4h-50.2v-55h55v49.8c1.4-1.5 2.7-3.1 4-4.6v-45.2h25.9c.5-1.3.9-2.7 1.2-4h-27.1v-54.5zm-476-4h-55v-55h55v55zm0-59h-55v-55h55v55zm0-59h-55v-55h55v55zm59 177h-55v-55h55v55zm0-59h-55v-55h55v55zm0-59h-55v-55h55v55zm0-59h-55v-55h55v55zm59 236h-55v-55h55v55zm0-59h-55v-55h55v55zm0-59h-55v-55h55v55zm0-59h-55v-55h55v55zm0-59h-55v-55h55v55zm59 236h-55v-55h55v55zm0-59h-55v-55h55v55zm0-59h-55v-55h55v55zm0-59h-55v-55h55v55zm0-59h-55v-55h55v55zm59 295h-55v-55h55v55zm0-59h-55v-55h55v55zm0-59h-55v-55h55v55zm0-59h-55v-55h55v55zm0-59h-55v-55h55v55zm0-59h-55v-55h55v55zm59 295h-55v-55h55v55zm0-59h-55v-55h55v55zm0-59h-55v-55h55v55zm0-59h-55v-55h55v55zm0-59h-55v-55h55v55zm0-59h-55v-55h55v55zm59 295h-55v-55h55v55zm0-59h-55v-55h55v55zm0-59h-55v-55h55v55zm0-59h-55v-55h55v55zm0-59h-55v-55h55v55zm59 177h-55v-55h55v55zm0-59h-55v-55h55v55zm0-59h-55v-55h55v55zm0-59h-55v-55h55v55zm59 118h-55v-55h55v55zm0-59h-55v-55h55v55zm-25-350c.2-1.3.4-2.7.6-4h-30.6v-55h27.3c-.3-1.3-.6-2.7-.9-4h-26.4v-55h5.8c-.7-1.4-1.4-2.7-2.2-4h-3.7v-6.4c-.3-.6-.7-1.1-1-1.6-1-1.6-2-3.2-3-4.7v12.7h-55v-55h18.2c-1.5-1.4-3-2.7-4.6-4h-13.6V73.6c-1.3-1-2.7-1.9-4-2.9v13.6h-55V39.6c-1.3-.6-2.7-1.2-4-1.8v46.4h-55v-55h33.4c-3.8-1.4-7.6-2.7-11.5-4h-21.9v-6.6c-1.3-.4-2.7-.7-4-1.1v7.7h-55v-19c-1.3-.2-2.7-.4-4-.6v19.6h-55V.6c-1.3-.1-2.7-.1-4-.2v24.9h-55V.9c-1.3.1-2.7.2-4 .2v24.2h-55V6.9c-1.3.2-2.7.4-4 .6v17.7h-55V19c-1.3.3-2.7.7-4 1v5.2H396c-4.2 1.3-8.4 2.6-12.6 4h31v55h-55V37.9c-1.3.5-2.7 1-4 1.6v44.9h-55V65.2c-1.3.7-2.7 1.5-4 2.2v16.9H269c-2 1.3-3.9 2.6-5.9 4h33.3v55h-55v-39c-1.3 1-2.7 2.1-4 3.2v35.8H198c-1.3 1.3-2.6 2.7-3.9 4h43.3v55h-55V160c-1.3 1.5-2.7 3-4 4.6v37.7h-29.5c-.9 1.3-1.9 2.7-2.8 4h32.3v55h-55v-19.2c-1.3 2.3-2.7 4.7-4 7v12.2h-6.6c-.7 1.3-1.4 2.7-2.1 4h8.7v55H85.9c-.5 1.3-1 2.7-1.5 4h35v55h-53c-.4 1.3-.7 2.7-1.1 4h54.1v55h-55v-51.7c-1.4 5.3-2.7 10.6-4 16v35.7H53c-.2 1.3-.5 2.7-.7 4h8.1v55H45c-.1 1.3-.2 2.7-.4 4h15.7v55H42.2v4h18.2v55H44.1c.1 1.3.2 2.7.3 4h16v55h-9.7c.2 1.3.4 2.7.6 4h9.1v48.6c1.3 5.7 2.6 11.5 4 17.2v-6.8h18.2c.6-1.3 1.1-2.7 1.7-4H64.4v-55h44.5c.6-1.3 1.3-2.7 1.9-4H64.4v-55h55v37.5c1.3-2.7 2.7-5.3 4-7.9v-29.5H139c.7-1.3 1.5-2.7 2.2-4h-17.8v-55H174c.9-1.3 1.7-2.7 2.6-4h-53.3v-55h55v52.4c1.3-2 2.7-4 4-6v-46.4H216c1.1-1.3 2.1-2.7 3.2-4h-36.9v-55h55v33.4c1.3-1.5 2.7-3 4-4.5v-28.9H269c1.4-1.4 2.8-2.7 4.2-4h-31.9v-55h55v34.4c1.3-1.1 2.7-2.2 4-3.3v-31.1h42.9c2.2-1.4 4.3-2.7 6.4-4h-49.3v-55h55V376c1.3-.8 2.7-1.6 4-2.3v-49.3h55v23.5c1.3-.5 2.7-1 4-1.5v-22h55v6.8c1.3-.3 2.7-.5 4-.8v-6h45.3c30.8-2.5 61.2-2 90.7 0h37v3.2c1.3.1 2.7.3 4 .4v-3.7h55v10.4c1.3.2 2.7.3 4 .5v-10.9h55v17.3c1.3.1 2.7.2 4 .3v-17.7h55V343c1.3-.1 2.7-.2 4-.3v-18.5h55v.2c1.8-1.3 3.6-2.8 5.4-4.2h-1.4v-55h30.1zm-801 350h-55v-55h55v55zm0-59h-55v-55h55v55zm0-59h-55v-55h55v55zm59 0h-55v-55h55v55zm0-59h-55v-55h55v55zm0-59h-55v-55h55v55zm0-59h-55v-55h55v55zm59 118h-55v-55h55v55zm0-59h-55v-55h55v55zm0-59h-55v-55h55v55zm0-59h-55v-55h55v55zm59 118h-55v-55h55v55zm0-59h-55v-55h55v55zm0-59h-55v-55h55v55zm0-59h-55v-55h55v55zm59 118h-55v-55h55v55zm0-59h-55v-55h55v55zm0-59h-55v-55h55v55zm0-59h-55v-55h55v55zm59 177h-55v-55h55v55zm0-59h-55v-55h55v55zm0-59h-55v-55h55v55zm0-59h-55v-55h55v55zm59 177h-55v-55h55v55zm0-59h-55v-55h55v55zm0-59h-55v-55h55v55zm0-59h-55v-55h55v55zm0-59h-55v-55h55v55zm59 236h-55v-55h55v55zm0-59h-55v-55h55v55zm0-59h-55v-55h55v55zm0-59h-55v-55h55v55zm0-59h-55v-55h55v55zm59 236h-55v-55h55v55zm0-59h-55v-55h55v55zm0-59h-55v-55h55v55zm0-59h-55v-55h55v55zm0-59h-55v-55h55v55zm59 236h-55v-55h55v55zm0-59h-55v-55h55v55zm0-59h-55v-55h55v55zm0-59h-55v-55h55v55zm0-59h-55v-55h55v55zm59 236h-55v-55h55v55zm0-59h-55v-55h55v55zm0-59h-55v-55h55v55zm0-59h-55v-55h55v55zm0-59h-55v-55h55v55zm59 236h-55v-55h55v55zm0-59h-55v-55h55v55zm0-59h-55v-55h55v55zm0-59h-55v-55h55v55zm59 177h-55v-55h55v55zm0-59h-55v-55h55v55zm0-59h-55v-55h55v55zm0-59h-55v-55h55v55zm59 177h-55v-55h55v55zm0-59h-55v-55h55v55zm0-59h-55v-55h55v55zm-293 659.4v28.6c1.3 1.2 2.6 2.5 4 3.7v-30.8c-1.4-.5-2.7-1-4-1.5zm-25.6-10.4H556c1.1 1.3 2.2 2.6 3.5 4h17.9c-3.2-1.3-6.4-2.7-9.6-4zm-149.4-55h7.8c-.1-1.3-.2-2.7-.3-4h-7.5v-35c-1.2-3.5-2.5-6.9-4-10.2v45.2h-55v-55h50.3c-.7-1.3-1.4-2.7-2.2-4h-48.1v-50.5c-1.3-.8-2.7-1.7-4-2.5v52.9h-55v-55h51.4c-2.6-1.4-5.1-2.8-7.8-4h-43.6v-12.8c-1.3-.2-2.7-.3-4-.5v13.3h-55V666c-1.3.4-2.7.8-4 1.2v7h-17.6c-2.6 1.2-5.2 2.6-7.8 4h25.4v55h-55V700c-1.4 1.3-2.7 2.6-4 3.9v29.4h-22.1c-.8 1.3-1.5 2.7-2.2 4h24.3v55h-40.5c-.1 1.3-.2 2.7-.3 4h40.8v55H145c.5 1.3.9 2.7 1.4 4h31.9v50.3c1.3 1.3 2.6 2.7 4 3.9v-54.3h55v55h-54.2c1.5 1.4 2.9 2.7 4.5 4h49.8v28c1.3.4 2.7.8 4 1.2v-29.2h55v34.3c1.3-.1 2.7-.3 4-.5v-33.8h55v14.9c1.3-.8 2.7-1.6 4-2.5v-12.5h16.8c1.5-1.3 3-2.6 4.5-4h-21.2v-55h55v7.2c1.6-3.7 3.1-7.4 4.4-11.2h-.4v-54.8zm-181 55h-55v-55h55v55zm0-59h-55v-55h55v55zm59 118h-55v-55h55v55zm0-59h-55v-55h55v55zm0-59h-55v-55h55v55zm0-59h-55v-55h55v55zm59 177h-55v-55h55v55zm0-59h-55v-55h55v55zm0-59h-55v-55h55v55zm59 59h-55v-55h55v55zm-291-763h13.3c-.4-1.4-.8-2.7-1.3-4h-12V64.2c-1.3-1.5-2.6-2.8-4-4.2v24.3h-55V43.6c-1.3.2-2.7.5-4 .9v39.9H15.8c-.5 1.3-.9 2.6-1.3 4h45.9v55H23.7c1 1.4 2 2.7 3.1 4h33.5v20.8l1.2.3c.9.2 1.9.4 2.8.5v-21.7h55v5.3c1.4-1.3 2.7-2.7 4-4.1v-1.1h1c1.1-1.3 2.1-2.6 3.1-4h-4.1V88.3zm-4 55h-55v-55h55v55z" opacity=".42" fill="#bdd3de"/><g id="rectangles"><path transform="rotate(38.479 106.373 914.304)" class="st6" d="M-9.6 889.3h232v50h-232z"/><path transform="rotate(-80.787 984.376 324.271)" class="st6" d="M868.4 299.3h232v50h-232z"/></g></g></g><g id="main"><g id="general_2_"><path d="M574 437.1c-.2 0-.4-.1-.5-.2-.4-.3-.4-.8-.1-1.2l113.7-143.1c.3-.4.8-.4 1.2-.1.4.3.4.8.1 1.2l-113.7 143c-.2.3-.4.4-.7.4zm-5.7 0c-.4 0-.7-.2-.8-.6l-70.6-232.3c-.1-.4.1-.9.6-1.1.4-.1.9.1 1.1.6L569.1 436c.1.4-.1.9-.6 1.1h-.2zm-4.3 2.5c-.1 0-.2 0-.3-.1L290 324.1c-.4-.2-.6-.7-.5-1.1.2-.4.7-.6 1.1-.5L564.3 438c.4.2.6.7.5 1.1-.2.3-.5.5-.8.5z" fill="#153e5c" opacity=".5" id="lines_5_"/><g id="windows"><g id="window2_1_"><path id="window2" fill="#f1f0e2" d="M423.6 79.5h231.7v143.8H423.6z"/><path class="st9" d="M446.2 161.1c-.2 0-.4-.2-.4-.4s.2-.4.4-.4l164-1.7c.2 0 .4.2.4.4s-.2.4-.4.4l-164 1.7zm149 1.1c-.2 0-.4-.2-.4-.4s.2-.4.4-.4l49.8-.5c.2 0 .4.2.4.4s-.2.4-.4.4l-49.8.5zm-158.4 8.5c-.2 0-.4-.2-.4-.4s.2-.4.4-.4l40.5-.4c.2 0 .4.2.4.4s-.2.4-.4.4l-40.5.4z" id="lines_3_"/><g id="woman2"><path class="st10" d="M574.6 187.8c-.3.9-2.9.8-5.9.7-3-.1-4.7-.1-6.8-.7-3.4-1.1-7.6-3.8-7-5.5.6-1.8 6.2-2.5 10.4-1.2 1.3.4 2.3 1 4.2 2.2 2.4 1.5 5.5 3.4 5.1 4.5zm-52.4-2.1c-.3-.9 1.7-2.1 4.1-3.6 2.3-1.5 3.7-2.3 5.8-2.8 3.4-.9 8.5-.7 9.3.9.8 1.8-3 5.3-7.2 6.3-1.3.3-2.5.3-4.9.3-2.9 0-6.7 0-7.1-1.1z"/><path class="st9" d="M550.9 103.8s3.4-1.7 2.5-4.2c-.8-2.5-8.4 1.7-11 .8-2.5-.8-5.1-2.5-5.1.8 0 3.4 4.2 5.9.8 7.6-3.4 1.7-5.9 2.5-3.4 5.1 2.5 2.5.8 5.9 5.1 5.9s5.1 3.4 6.8 1.7c1-1 1.7-2 1.9-3.2.2-.9 0-1.6-.3-2.7-.9-3.4-2.3-4.8-3.4-8.4-.3-1.1-.5-2 0-2.5.7-.8 2.4-.8 2.5-.8h1.6c.9-.1 1.5-.1 2-.1z"/><path class="st11" d="M550.9 105.5h-3.4v-1.7h3.4v1.7z"/><path class="st12" d="M588 145.4c-8-5.5-25.1 4.9-39.7 16.2-13.7-12.1-29.9-23.5-38.2-18.5-3.8 2.3-5 7.5-4.9 11 .3 9 9.7 17.7 25.1 24.4l4.6 7.7c4.3-.5 8.4-1.1 12.3-1.9 4.2 1.1 8.6 2.2 13.3 3l5.5-8.1c15.6-5.7 25.4-13.7 26.2-22.5.4-3.5-.5-8.7-4.2-11.3z"/><path class="st10" d="M597.3 137.6c-.3 0-.5 0-.8-.1-.7-.2-1.4-.1-2 .2-6.9 3.1-13.9 6.1-20.8 9.2-5.4-4.2-10.8-8.4-16.2-12.5l-1.3-1s-2.6 12.7-6.1 10.1h-1.7c-.3.2-.6.3-.9.3-3.1 0-5.3-10.5-5.3-10.5l-.5.4-17.2 12.3-21.2-8.3c-.6-.3-1.3-.3-2-.2-.2.1-.5.1-.8.1-2.4 0-4.3-2.3-3.3-4.7.3-.8 1-1.5 1.9-1.8.5-.2 1-.3 1.4-.3 1.3 0 2.4.7 3 1.6l20.1 5.1 15.9-13.5c.6-.5 1.4-.8 2.2-.9h3.7l1.3-5.9h5.1c.4 2 .9 3.9 1.3 5.9h3.5c.3 0 .7 0 1 .1.5.1 1 .4 1.4.7 5.2 4.8 10.4 9.6 15.6 14.3 6.6-2 13.2-4 19.7-6 .8-1.3 2.5-2 4.4-1.4.9.3 1.5 1 1.9 1.8.9 2.8-1 5-3.3 5z"/><path class="st11" d="M561.9 153.7c-1.3 1.1-2.7 2.2-4.2 3.4-3.2 2.4-6.4 4.3-9.3 5.9-2.5-1.6-5.1-3.5-7.6-5.9l-.8-.8c2.5-3.6 2.8-6 2.5-7.6 0-.3-.6-3.8-.8-5.9-.2-1.3 0-1.2 0-6.8v-12.7h2.6c.4 3.2.6 5.8.7 7.6.2 3.7.2 5.6 1.7 6.8 1.3 1 3.2.9 3.4.8.3 0 1.6-.1 2.5-.8 1.6-1.2 1.4-3.5 1.7-7.6.1-1.7.4-4 1-6.8h1.4c.3 0 .7 0 1 .1-.3 6.3-.3 9.5-.1 11 0 .3.1.5.1.7.1.2.4 1.3.7 2.9.1.4.1.8.2 1.3.4 3.8-.3 5.2 0 7.6.1 1.7.9 4.1 3.3 6.8z"/><path class="st10" d="M555.1 112.7c0 3.7-2.6 8-5.9 8-3.3 0-5.9-4.4-5.9-8 0-1.4.4-2.9 1.1-4.3 1.1-2.1 2.8-3.7 4.8-3.7 1.9 0 3.5 1.4 4.6 3.3.9 1.4 1.3 3.1 1.3 4.7z"/><path class="st9" d="M553.8 108l-4.6 1.8c-1.6-.4-3.2-.9-4.8-1.3 1.1-2.1 2.8-3.7 4.8-3.7 1.9-.1 3.6 1.3 4.6 3.2z"/></g></g><g id="window1_1_"><linearGradient id="window1_2_" gradientUnits="userSpaceOnUse" x1="181.64" y1="272.225" x2="383.398" y2="272.225"><stop offset="0" stop-color="#d3e0df"/><stop offset="1" stop-color="#f1f0e2"/></linearGradient><path id="window1" fill="url(#window1_2_)" d="M181.6 209.6h201.8v125.2H181.6z"/><path class="st9" d="M195.8 271.8c-.2 0-.4-.2-.4-.4s.2-.4.4-.4l136.3-1.7c.3 0 .4.2.4.4s-.2.4-.4.4l-136.3 1.7zm119.2 1.5c-.2 0-.4-.2-.4-.4s.2-.4.4-.4l50.7-.6c.2 0 .4.2.4.4s-.2.4-.4.4l-50.7.6z" id="lines_2_"/><g id="woman1"><path class="st10" d="M225.4 290.2c-1.4.5-3.3.9-4.6 0-1-.7-.9-1.6-2-3.9-1.4-3-3.6-5.5-3.9-5.4v.1c0 1.3 1.3 15.1 2.6 15.1h7.9v-5.9zm106.2 1.8c.5-.6 1.4-1.5 2.6-1.7 1.2-.2 2.2.3 2.6.4 4.6 2.1 11.9.5 12.1 1.8 0 .3-.3.6-.6.8-3.9 2.7-11.8 2.1-16.6 1.7v-3z"/><path class="st9" d="M294 243.8s7.7 4.4 7 8.9c-.6 3.3-1.1 5-.5 5.9.3.4.5.3 1.2.8.8.5 3.7 2.3 3.7 4.5 0 1.7-1.7 3.1-3 3.7-2.8 1.3-6.4-.1-7-1.7-.1-.2-.4-.7-.4-1.3 0-3.7-3.7-3-3.7-6s.7-12.6.7-12.6l2-2.2z"/><path class="st10" d="M260.6 290.3c1.3-.7 1.8-2.4 1.1-3.7 1.7-2.3 5.3-7.5 12-17.5 4.4-6.4 6.2-9.3 5.2-12.4-.7-2.1-2.5-3.4-3.9-4.2-5.4 10.9-10.8 21.8-16.2 32.6-.3 0-.6.1-.8.3-1.3.7-1.8 2.4-1.1 3.7.6 1.4 2.3 1.9 3.7 1.2z"/><path class="st12" d="M334.6 295.3c-16.4 4.9-29.7 4.1-37.4 3-8.9-1.3-17.8-2.8-23.8-10.2-2.6-3.2-3.9-6.6-4.7-9.6-.4-1.5-.6-3-.7-4.2v-.1c3.7-1.5 7.3-3 11-4.4 0 .2.1.4.1.6.2.7.4 1.5.8 2.4.6 1.5 1 2.3 1.7 2.9 1.3 1.1 3 .4 4.5.5 4.1.1 7.1 5.1 7.9 6.2 2.6 3.5 11.6 6.8 40.1 5.7.2 2.4.4 4.8.5 7.2z"/><path class="st12" d="M274.8 278.1c-.4 4-11.2 5.2-11.2 5.2-8.4 1-22.9 2.9-41.9 5.2.2 2.5.5 5 .7 7.5h35.2c12.7 0 20.3.1 24.7-5.2 3-3.6-7.5-13.3-7.5-12.7z"/><path class="st11" d="M289.7 252.7c-.7 3-12.2 10.7-10.6 17.7l-10.4 8.1c-.3-.8-.5-2-.7-3.4 0 0-.3-2.4 0-5.2.6-5.6 4.1-12 4.5-12.7 0 0 0-5.2 2.2-6s15.8-1.5 15 1.5z"/><path class="st10" d="M295 247.5c0 .8-.1 1.7-.4 2.4-.9 2.5-3.2 4.3-5.9 4.3-3.5 0-6.4-3-6.4-6.7 0-2.8 1.6-5.1 3.8-6.2.1 0 .2-.1.5-.2.1 0 .1 0 .2-.1.6-.2 1.2-.3 1.8-.3 3.5 0 6.4 3 6.4 6.8z"/><path class="st9" d="M295 247.5c0 .8-.1 1.7-.4 2.4-.9-.2-2-.4-3.4-.3-.5 0-1 .1-1.5.2.1-1.1 0-3.5-1.5-6-.7-1.1-1.5-1.9-2.2-2.4.1 0 .2-.1.5-.2.1 0 .1 0 .2-.1.6-.2 1.2-.3 1.8-.3 3.6-.1 6.5 2.9 6.5 6.7z"/><path class="st10" d="M310.3 237.7c-1.4 0-2.6 1.2-2.6 2.6-2.4 1.2-7.8 3.9-17.9 9.2-6.5 3.4-9.4 5-9.9 8-.4 2.1.6 4 1.4 5.3 9.4-6.7 18.8-13.4 28.2-20 .3.1.5.1.8.1 1.4 0 2.6-1.2 2.6-2.6s-1.1-2.6-2.6-2.6z"/></g></g><g id="window3"><linearGradient id="window3_2_" gradientUnits="userSpaceOnUse" x1="703.619" y1="346.083" x2="699.183" y2="170.849"><stop offset="0" stop-color="#d3e0df"/><stop offset=".664" stop-color="#f1f0e2"/></linearGradient><path id="window3_1_" fill="url(#window3_2_)" d="M610.1 196.7h182.3v113.1H610.1z"/><path class="st9" d="M700.8 261.6h-73.2c-.2 0-.4-.2-.4-.4s.2-.4.4-.4h73.2c.2 0 .4.2.4.4.1.2-.1.4-.4.4zm72.4 5.1H700c-.2 0-.4-.2-.4-.4s.2-.4.4-.4h73.2c.2 0 .4.2.4.4.1.2-.1.4-.4.4z" id="lines_1_"/><g id="woman3_1_"><path class="st10" d="M689.3 273.7l12.1-42.2-4.9-1.8-10.2 43.1c-2.1.2-4 2-3.7 2.7.2.6 2.2.3 3.9.1 1.7-.2 3.3-.4 3.4-1 0-.3-.2-.6-.6-.9z"/><path class="st9" d="M682.4 271.9c-1.6 1.8-2.3-1-4.5.3s-7.1 2.8-9.6-.4c-.5-.7-1.2-1.5-1-1.9.3-.5 1.5.2 2.5-.5.9-.6 1-1.7 1-1.8.2-1.6-1.3-2.2-1.2-3.8 0-.8.5-1.3.8-1.8 1.6-2.4 4.2-1.1 7.1-3.3.9-.7 1.5-1.4 2-2 .3-.4.6-.7.9-.8.3-.2.5-.3.8-.2.3.1.5.4.6.5.1.2.2.3.2.5.1.4 0 .8-.1 1.2 0 .3-.1.7.1 1.1.3 1.1 1.3 1.1 1.3 2.1 0 .8-.3 1.1-1 1.9-1 1.2-.4 2.8.9 5s.8 2.1-.8 3.9z"/><path class="st11" d="M682 257.9l-2.4-1.2c.3-.4.6-.7.9-.8l1.6.8c0 .3-.1.7-.1 1.2z"/><path class="st10" d="M688.5 254.2c-.6.8-1.4 1.4-2.1 1.9-2 1.3-4.4 1.4-6.1.1-1.1-.9-1.7-2.2-1.7-3.7 0-1.6.5-3.3 1.7-4.8 2.3-2.9 5.9-3.8 8.2-2 2.2 1.9 2.2 5.7 0 8.5z"/><path class="st9" d="M686.1 253.6l.2 2.6c-2 1.3-4.4 1.4-6.1.1-1.1-.9-1.7-2.2-1.7-3.7 2.9.2 7.6 1 7.6 1z"/><path class="st11" d="M713.1 216.3c.2 2.8.3 5.5.5 8.3-.6.3-1.4.8-2.3 1.4-1 0-2.8.2-4.6 1.3-.4.3-1.6 1-2.6 2.4-3.6 4.9-1.4 10.8-5.1 15-2 2.3-4.9 3.1-8.2 4-3.3.9-4.9.5-5.7.3-.9-.3-2.7-.9-3.5-2.4-.5-1-1.2-3.4 5.7-12.4 2.1-2.7 4.8-6 8.4-10 2.4-2.6 4.6-5 6.7-7.2l.3-.3c.7-.2 2.2-.5 4.1-.7 2-.2 4.1-.2 6.3.3z"/><path class="st10" d="M689.1 244.7c-1.1 1.9-2.5 3.4-4 4.3-1.5-.4-2.8-1.2-3.5-2.4-.5-1-1.2-3.4 5.7-12.4.6 0 1.2.1 1.7.4 2.5 1.4 2.5 5.9.1 10.1z"/><path class="st10" d="M690.1 239.2l-4-3.4-24.9 37.7c-2.2-.1-4.3 1.7-4.1 2.3.2.6 2.1.5 3.9.4 1.7-.1 3.3-.1 3.5-.7.1-.2-.1-.5-.4-.8l26-35.5zm37.8 38s1.5 3 1 4.9c-.1.5-.5 4.2-2.7 5.2-1.2.5-2.8.1-3 .8-.1.3 0 .6 0 .6.6 1 4.1 1.3 6.2-.5 1.8-1.5 1-3.2 3.3-5.2.6-.5 1-.7 1.1-1.3.2-.8-.4-1.3-2.1-3.6l-2.1-3-1.7 2.1zm15.7-9.1s1.5 3 1 4.9c-.1.5-.5 4.2-2.7 5.2-1.2.5-2.8.1-3 .8-.1.3 0 .6 0 .6.6 1 4.1 1.3 6.2-.5 1.8-1.5 1-3.2 3.3-5.2.6-.5 1-.7 1.1-1.3.2-.8-.4-1.3-2.1-3.6l-2.1-3-1.7 2.1z"/><path class="st12" d="M744.4 271.3l-18.1-23.6c3.9 15 7.3 31.3 7.3 31.3l-5.4 1.2-20.3-50.1v-.1l-5.3-13.1c.4-.4.9-.9 1.7-1.3 1.7-1 3.4-1 5-.9.8 0 2.5.1 4.6.8 2.6.9 4.3 2.4 5.7 3.7 0 0 1.1.9 2 1.9 8 9.6 27.7 47.5 27.7 47.5l-4.9 2.7z"/></g></g></g><g id="yoga_mat"><path class="st12" d="M938.5 874c-268.4-.9-536.9-1.7-805.3-2.6 11.2-71 22.3-142 33.5-212.9 264.9 4.8 529.8 9.7 794.7 14.5-7.7 67-15.3 134-22.9 201z"/><path d="M960.5 673c-.8 4.8-1.5 9.7-2.2 14.5-.1.8-.2 1.6-.4 2.3-4.6 30-9.2 60-13.9 90-.1.9-.3 1.7-.4 2.6-4.2 27.1-8.4 54.2-12.5 81.4-5.6 0-11.2.1-16.8.2h-1.7c-47.6.5-95.3.9-142.9 1.4H768l-62.5.6c-25.2.2-50.3.5-75.5.7h-1.7l-129.4 1.2c-4.5 0-9 .1-13.4.1h-1.7l-121 1.2h-1.7c-47.5.5-95 .9-142.6 1.4h-1.7c-28.2.3-56.3.5-84.5.8l27-223.2c28.9.9 57.9 1.8 86.8 2.7.8 0 1.5 0 2.3.1 48 1.5 96 3 144 4.4.8 0 1.5 0 2.3.1 37.3 1.1 74.6 2.3 111.9 3.5.8 0 1.6 0 2.4.1 36.7 1.1 73.4 2.3 110.1 3.4l33.9 1 2.4.1 142.1 4.4 2.3.1 144 4.4 2.3.1 14.4.4z" fill="#8677a7"/><linearGradient id="SVGID_6_" gradientUnits="userSpaceOnUse" x1="132.365" y1="759.84" x2="629.031" y2="759.84"><stop offset="0" stop-color="#c56746"/><stop offset="1" stop-color="#8677a7"/></linearGradient><path d="M620.8 769.2C604 813 561.1 846.8 499 867.9c-4.5 0-9 .1-13.4.1h-1.7l-121 1.2h-1.7c-47.5.5-95 .9-142.6 1.4h-1.7c-28.2.3-56.3.5-84.5.8l27-223.2c28.9.9 57.9 1.8 86.8 2.7.8 0 1.5 0 2.3.1 48 1.5 96 3 144 4.4.8 0 1.5 0 2.3.1 37.3 1.1 74.6 2.3 111.9 3.5.8 0 1.6 0 2.4.1 36.7 1.1 73.4 2.3 110.1 3.4 15.7 51 9.9 85 1.6 106.7z" opacity=".37" fill="url(#SVGID_6_)"/><path d="M283.4 732.1c-3.8 9.2-11 13.4-19.4 18.2-6.2 3.6-13.2 7.6-20 14.4-20.9 20.7-29.5 56.2-25.5 105.9h-1.7c-4-50.1 4.7-86.1 26-107.1 7-7 14.1-11.1 20.4-14.7 8.4-4.9 15.1-8.7 18.6-17.4 7.5-18.3-4.6-45.3-35.7-80.5.8 0 1.5 0 2.3.1 30.9 35.2 42.7 62.4 35 81.1zm144.6 2.5c-3.8 9.2-11 13.4-19.3 18.2-6.2 3.6-13.2 7.6-20 14.4-20.4 20.1-29 54.4-25.8 102h-1.7c-3.2-48 5.6-82.7 26.3-103.2 7-6.9 14.1-11.1 20.4-14.7 8.4-4.9 15.1-8.7 18.6-17.4 7.3-17.9-4.1-44.3-34-78.5.8 0 1.5 0 2.3.1 29.5 34.3 40.7 60.8 33.2 79.1zm123.3 13.6c-3.8 9.2-11 13.4-19.4 18.2-6.2 3.6-13.2 7.6-20 14.4-18.2 18-27 47.2-26.4 87.1h-1.7c-.6-40.4 8.4-70.1 26.9-88.4 7-6.9 14.1-11.1 20.4-14.7 8.4-4.9 15.1-8.7 18.6-17.4 8-19.6-6.5-49.4-43.2-88.6.8 0 1.6 0 2.4.1 36.4 39.3 50.6 69.2 42.4 89.3zm144.6 2.6c-3.8 9.2-11 13.4-19.4 18.2-6.2 3.6-13.2 7.6-20 14.4-17.6 17.4-26.4 45.3-26.5 83.2h-1.7c0-38.4 9.1-66.7 27-84.4 7-6.9 14.1-11.1 20.4-14.7 8.4-4.9 15.1-8.7 18.6-17.4 7.9-19.3-6-48.4-41.3-86.7l2.4.1c34.9 38.2 48.6 67.5 40.5 87.3zm139.7-.9c-3.8 9.2-11 13.4-19.3 18.2-6.2 3.6-13.2 7.6-20 14.4-17.5 17.3-26.4 45-26.5 82.7h-1.7c.1-38.2 9.1-66.3 26.9-83.9 7-7 14.1-11 20.4-14.7 8.4-4.9 15.1-8.7 18.6-17.4 7.5-18.4-4.8-45.7-36.5-81.4l2.3.1c31.4 35.7 43.4 63.2 35.8 82zm103.9 34c1.5-1.5 3-2.9 4.6-4.1-.1.9-.3 1.7-.4 2.6-1 .9-2 1.8-3 2.8-16.9 16.7-25.7 43.1-26.4 78.8h-1.7c.7-36.2 9.7-63.1 26.9-80.1zm18.8-96.4c-.1.8-.2 1.6-.4 2.3-4.2-5.5-8.9-11.4-14.2-17.4l2.3.1c4.6 5.2 8.6 10.2 12.3 15z" opacity=".5" fill="#271c41" id="lines_4_"/><linearGradient id="SVGID_7_" gradientUnits="userSpaceOnUse" x1="215.488" y1="766.154" x2="870.924" y2="766.154"><stop offset="0" stop-color="#153e5c"/><stop offset=".902" stop-color="#8677a7"/></linearGradient><path d="M864 733.1c-6.4 4.8-16.3 11.3-29.3 16.6-42.9 17.4-83.7 6.9-106.6 1.9-52.5-11.5-12.5 5.5-153.5-13.5-159.6-21.5-253-49.1-272.4-15.4-8.4 14.6-2.4 40.1-19.4 48.9-6.5 3.4-9.7.9-24.9 2.8-17.9 2.2-42.6 9.4-42.4 15.7.1 6.6 27.5 15.6 53.7 12.3 18.8-2.4 21.1-9.1 33.9-6.8 15.5 2.8 16.8 13.4 38.6 21.6 9 3.4 16.2 4.3 28.1 6.1 18.6 2.7 33 2.2 39.2 1.9 129.7-5.3 201.9-11.5 201.9-11.5 62.5-5.4 124.2-19.1 186.9-23.1 21.5-1.4 62.5-3.6 71.3-25.7 4.4-10.8-.2-23-5.1-31.8z" opacity=".17" fill="url(#SVGID_7_)"/></g><g id="woman_3_"><path class="st19" d="M549.6 493.6l15.3-5.7-7.6-15.2z"/><g id="woman_2_"><path id="hair_back" d="M456 576.9c-4.6 4.8-11.7 6.8-19.8 6.8h-1.1c-16.5-.2-36.8-7.9-48.4-15-9.7-5.9-13.7-11.7-15.4-14.4-7.1-11.4-6.1-24.1-5-32.4 4.6-34.1 35.1-164 66.4-159.5 4.3.6 7.1 3.6 11.7 8.4 17.2 18.1 12.9 46.1 11.9 52.7-2 12.8-6.3 21.4-8.2 25.8-22.2 51 28.1 106.3 7.9 127.6z" fill="#e4b351"/><g id="woman"><g id="legs"><g id="back_leg"><linearGradient id="SVGID_8_" gradientUnits="userSpaceOnUse" x1="348.666" y1="691.734" x2="733.498" y2="691.734" gradientTransform="matrix(.9994 .03389 -.03389 .9994 28.806 -44.106)"><stop offset="0" stop-color="#153e5c"/><stop offset="1" stop-color="#271c41"/></linearGradient><path d="M716.5 758.6c-14.2-.2-24.4-13.7-30.7-21.2-37.2-44.8-63.3-36.1-102.6-89-6.7-9-11.5-16.7-14.3-21.4-10 17.1-37.9 62-81.7 95.9-8.8 6.8-37.7 28.2-70.8 39-5.1 1.7-10.2 3.1-15.1 4.3-19 4.6-36.4 5.9-51.4 5.7 8.4-16 18.4-33.4 30.2-51.5 5.6-8.6 11.7-17.4 18.1-26.3 2.2-3 4.4-6 6.6-8.9 15.4-20.4 30.7-37.9 44.8-52.7.2-.2.4-.5.6-.7.7-.7 1-1.1 1-1.1 2.1-2.2 4.2-4.3 6.3-6.4 30.2-30.4 53.1-47.7 68.8-57.5 3.9-2.4 7.3-4.4 10.3-6 9.9-5.3 14.9-6.4 14.9-6.4.4-.1 1.2-.3 2.3-.5.8-.2 1.6-.3 2.5-.4 0 0 1.4-.2 2.7-.4 37.9-4 147.5 153.5 147.5 153.5 9.2 12.6 18.4 25.6 27.6 39 .5.7 1.8 2.5 1.5 4.6-.7 5.3-11.9 8.5-19.1 8.4z" fill="url(#SVGID_8_)"/><path d="M536.8 560.7c-3.4 14.3-9.3 32.1-20 50.3-10.5 17.7-19.2 32.5-35.8 40.8-7.8 3.9-11.7 3.5-14.6 7.9-8.2 12.5 6.8 41 20.9 63.3-19.6 15.9-43.1 30-70.8 39-5.1 1.7-10.2 3.1-15.1 4.3-11.3-12.3-18.2-28.4-21.3-45.8 5.6-8.6 11.7-17.4 18.1-26.3 2.2-3 4.4-6 6.6-8.9 18.4-24.1 38.9-46.4 44.8-52.7.2-.3.5-.5.6-.7.7-.7 1-1.1 1-1.1 2.1-2.2 4.2-4.3 6.3-6.4 30.2-30.4 53.1-47.7 68.8-57.5 4.1-2.6 7.5-4.6 10.5-6.2z" opacity=".35" fill="#0b224c"/></g><g id="front_leg_1_"><g id="feet"><path class="st19" d="M862.7 742.1c-2.5 16.2-.2 24.7-14 26.5-1.1.2-2.4.3-3.7.5-7.2.9-16.7 1.9-24.7 2.7-8.5.9-15.2 1.5-15.2 1.5l10-22.3c.7-.1 1.4-.3 2-.5 4.2-1 7.9-2.1 11-3.4 7.8-3 12.5-6.6 15.4-10.1 1.2-1.4 2.1-2.9 2.8-4.2 5-9.7 7.4-33.1 11-41 .4-.8 1.3-2.9 2.8-3.8.4-.2.7-.4 1.2-.4 0 0 1.1-.1 2.3.9 4.6 3.6 2.8 30.4-.9 53.6z"/><path class="st23" d="M845.1 769.1c-7.2.9-16.7 1.9-24.7 2.7l-3.1-21.2c4.2-1 7.9-2.1 11-3.4l16.8 21.9z"/><linearGradient id="SVGID_9_" gradientUnits="userSpaceOnUse" x1="857.222" y1="649.679" x2="879.208" y2="649.679" gradientTransform="matrix(.9958 -.09128 .09128 .9958 -71.288 146.36)"><stop offset=".002" stop-color="#ff931e"/><stop offset="1" stop-color="#fff"/></linearGradient><path d="M857.9 733c-4.7 8.9-10.3 7.2-14.3 4.2 1.2-1.4 2.1-2.9 2.8-4.2 5-9.7 7.4-33.1 11-41 .4-.8 1.3-2.9 2.8-3.8 3.2 9.4 4 32.8-2.3 44.8z" opacity=".19" fill="url(#SVGID_9_)"/></g><g id="front_leg"><path class="st11" d="M826.5 772.2c-8.8 1.3-18.3 2.6-28.5 4-1.9.3-3.8.5-5.8.8-13.7 1.8-28.5 3.8-44.3 5.7-.8.1-1.7.2-2.5.3-7.8 1-15.8 1.9-24.1 2.9l-2.4.3c-14.3 1.7-29.2 3.3-44.8 5-1.2.1-2.5.3-3.7.4-14.7 1.5-30 3.1-45.7 4.6-1.5.1-3 .3-4.5.4h-.3c-15 1.4-29.3 2.7-42.9 3.8-1.1.1-2.2.2-3.2.3-16.6 1.4-32.2 2.5-46.8 3.4-2 .1-4 .3-6 .4-15.4 1-29.6 1.7-42.7 2.2-.8 0-1.6.1-2.4.1-5.3.2-10.4.3-15.3.4-.8 0-1.6 0-2.3.1-17.3.4-32.4.3-45.9-.2-1.3 0-2.7-.1-4-.2-4.7-.2-9.1-.4-13.4-.8-1.3-.1-2.5-.2-3.8-.3-49.7-3.9-69-14.9-79.1-30-.7-1-1.3-2-1.9-3-6.6-11.4-12.7-31-3.9-65.5.5-1.8 1-3.6 1.5-5.5 1.8-6.1 4-12.6 6.7-19.6 4.5.5 8.8 1.1 12.9 1.6 33.2 4.3 56.1 8.3 56.7 9.2.5.8 1 1.5 1 1.5.1.3.4.7.7 1.2 0 0 7 11.6 26.8 16 .3.1.6.1.9.2 1.4.3 3.9.7 7.5 1.1.2 0 .4.1.6.1 4.7.6 11.1 1.3 19.1 2.2.9.1 1.7.2 2.6.3 2 .2 4.1.4 6.2.6l3 .3c2.9.3 6 .6 9.2.9 1 .1 2.1.2 3.2.3l1.9.2c.8.1 1.6.1 2.4.2.3 0 .5 0 .8.1.9.1 1.7.2 2.6.3.7.1 1.3.1 2 .2 2 .2 4 .4 6.1.6.7.1 1.4.1 2.1.2.5 0 .9.1 1.4.1.2 0 .5 0 .7.1 1.4.1 2.9.3 4.3.4.5 0 1 .1 1.4.1 2.2.2 4.5.4 6.7.6 1 .1 2.1.2 3.1.3 1.3.1 2.5.2 3.8.4.4 0 .8.1 1.2.1 10.3 1 21.4 2 33.2 3 1.7.2 3.4.3 5.2.5 1.9.2 3.7.3 5.6.5 1.2.1 2.5.2 3.7.3.7.1 1.3.1 2 .2 1.8.2 3.7.3 5.5.5 1.7.2 3.5.3 5.2.5 1 .1 2.1.2 3.1.3 1 .1 2.1.2 3.1.3l6.3.6c1.1.1 2.1.2 3.2.3h.4c2.1.2 4.1.4 6.2.5 1 .1 2.1.2 3.2.3 1.7.2 3.4.3 5.1.4 2.6.2 5.1.5 7.7.7 3.2.3 6.5.6 9.9.9.4 0 .8.1 1.2.1 1.3.1 2.5.2 3.8.3 3.9.3 7.8.7 11.8 1 1.3.1 2.6.2 3.8.3 1.3.1 2.7.2 4 .3 1.3.1 2.7.2 4 .3.5 0 .9.1 1.4.1 1.4.1 2.8.2 4.2.4 3.3.3 6.6.5 9.9.8 2.1.2 4.3.4 6.5.5.5 0 1 .1 1.6.1 2.3.2 4.7.4 7 .6 8.7.7 17.5 1.5 26.5 2.2 13.8 1.1 28 2.3 42.5 3.5 2 .2 4 .3 6 .5 4.3.4 8.5.7 12.9 1.1.8.1 1.7.1 2.5.2 19.7 1.6 39.9 3.2 60.6 4.9h.2v.5c.4 4.3.8 8.7 1.2 13 0 .4.1.8.1 1.2l.6 6c0 1 .1 1.9.2 2.9z"/><path class="st12" d="M469.6 718.3l-.6.3-.2-.4c.2.1.5.1.8.1zm21 2.6l-4.8 2.7-2-3.9c.2 0 .5 0 .7.1 1.4.1 2.9.3 4.3.4.5 0 1 .1 1.4.1l.4.6zm16.8 5l-4.8 2.7-2.5-4.8 3.9-2.2c.4 0 .8.1 1.2.1l2.2 4.2zm15.1 4.5l-2.6-4.9-4.7 2.7 2.5 4.9zm16.8 5l-2.6-4.9-4.7 2.7 2.5 4.9zm16.8 5l-2.6-4.9-4.7 2.7 2.5 4.8zm16.8 4.9l-2.5-4.8-4.8 2.7 2.5 4.8zm17.5 5.2l-2.5-4.8-4.8 2.6 2.5 4.9zm16.8 5l-2.5-4.9-4.8 2.7 2.5 4.9zm16.8 5l-2.5-4.9-4.8 2.7 2.6 4.9zm16.8 4.9l-2.5-4.8-4.8 2.7 2.6 4.8zm15.1 4.5l-2.5-4.8-4.8 2.7 2.6 4.8zm16.8 5l-2.5-4.9-4.8 2.7 2.6 4.9zm16.8 5L687 775l-4.8 2.7 2.6 4.9zm16.9 4.9l-2.6-4.8-4.7 2.7 2.5 4.8zm14.8 1.1l-2.4.3 2-1.1.4.8zm-394.3-94.5l-2.5-4.9-4.8 2.7 2.6 4.9zm10.4 7.1l4.7-2.7-2.5-4.8-4.8 2.7zm16.8 5l4.7-2.7-2.5-4.8-4.8 2.7zm16.8 5l4.8-2.7-2.6-4.9-4.7 2.7zm21.6 2.3l-2.6-4.9-4.7 2.7 2.5 4.9zm16.9 5l-2.5-4.9-4.8 2.7 2.5 4.9zm16.8 5l-2.5-4.9-4.8 2.7 2.6 4.9zm16.8 4.9l-2.5-4.8-4.8 2.7 2.6 4.8zm16.9 5l-2.6-4.8-4.7 2.7 2.5 4.8zm10.3 7.2l4.7-2.7-2.5-4.9-4.8 2.7zm16.8 5l4.8-2.7-2.6-4.9-4.7 2.7zm16.8 4.9l4.8-2.6-2.6-4.9-4.7 2.7zm21.6 2.3l-2.5-4.8-4.8 2.7 2.5 4.8zm17.5 5.2l-2.6-4.8-4.7 2.6 2.5 4.9zm16.8 5l-2.5-4.9-4.8 2.7 2.5 4.9zm16.8 5l-2.5-4.9-4.8 2.7 2.5 4.8zm16.8 4.9l-2.5-4.8-4.8 2.7 2.6 4.8zm10.3 7.2l4.8-2.7-2.5-4.8-4.8 2.6zm16.9 5l4.7-2.7-2.5-4.9-4.8 2.7zm16.8 5l4.7-2.7-2.5-4.9-4.8 2.7zm21.6 2.2l-2.6-4.8-4.7 2.7 2.5 4.8zm15 1.5c-1.2.1-2.5.3-3.7.4l3-1.7.7 1.3zm-364.6-85.7l-3.4 1.9c.5-1.8 1-3.6 1.5-5.5l1.9 3.6zm12 7.6l4.8-2.6-2.6-4.9-4.7 2.7zm16.8 5l4.8-2.7-2.5-4.8-4.8 2.7zm16.8 5l4.8-2.7-2.5-4.8-4.8 2.7zm15.1 4.5l4.8-2.7-2.5-4.9-4.8 2.7zm16.8 4.9l4.8-2.6-2.5-4.9-4.8 2.7zm16.9 5l4.7-2.7-2.5-4.8-4.8 2.7zm16.8 5l4.7-2.7-2.5-4.8-4.8 2.7zm16.9 5l4.8-2.7-2.6-4.8-4.7 2.7zm16.8 5l4.8-2.7-2.5-4.8-4.8 2.6zm16.8 5l4.8-2.7-2.5-4.9-4.8 2.7zm16.9 5l4.7-2.7-2.5-4.9-4.8 2.7zm15 4.4l4.8-2.7-2.5-4.8-4.8 2.7zm16.9 5l4.7-2.7-2.5-4.8-4.8 2.7zm16.8 5l4.7-2.7-2.5-4.9-4.8 2.7zm16.8 5l4.8-2.7-2.6-4.9-4.7 2.7zm17.5 5.1l4.7-2.7-2.5-4.8-4.8 2.7zm16.8 5l4.8-2.7-2.6-4.8-4.7 2.7zm16.8 5l4.8-2.7-2.6-4.8-4.7 2.6zm20-.8c-1.5.1-3 .3-4.5.4h-.3l3.9-2.2.9 1.8zm-317.1-68.3l4.8-2.7-2.5-4.8-4.8 2.6zm12.6-.4l2.5 4.9 4.8-2.7-2.6-4.9zm16.8 5l2.5 4.8 4.8-2.6-2.5-4.9zm16.8 5l2.5 4.8 4.8-2.7-2.5-4.8zm19.4 9.8l4.7-2.7-2.5-4.8-4.8 2.7zm16.9 5l4.8-2.7-2.6-4.8-4.7 2.7zm16.8 5l4.8-2.7-2.6-4.8-4.7 2.6zm16.8 5l4.8-2.7-2.5-4.9-4.8 2.7zm16.8 5l4.8-2.7-2.5-4.9-4.8 2.7zm12.6-.4l2.5 4.8 4.8-2.7-2.5-4.8zm16.8 4.9l2.6 4.9 4.7-2.7-2.5-4.8zm16.8 5l2.6 4.9 4.7-2.7-2.5-4.9zm19.4 9.9l4.7-2.7-2.5-4.9-4.8 2.7zm17.5 5.1l4.7-2.7-2.5-4.8-4.8 2.7zm16.8 5l4.7-2.7-2.5-4.8-4.8 2.7zm16.8 5l4.8-2.7-2.6-4.8-4.7 2.6zm19.7-1.4c-1.1.1-2.2.2-3.2.3l2.6-1.5.6 1.2zm-271.8-60.6l2.5 4.9 4.8-2.7-2.6-4.9zm24.1 7.2l-2.6-4.9-4.7 2.7 2.5 4.9zm16.8 4.9l-2.5-4.8-4.8 2.7 2.5 4.8zm12.5-.3l-4.7 2.7 2.5 4.8 4.8-2.7zm16.9 4.9l-4.8 2.7 2.5 4.9 4.8-2.7zm16.8 5l-4.8 2.7 2.5 4.9 4.8-2.7zm16.8 5l-4.8 2.7 2.6 4.8 4.7-2.6zm16.9 5l-4.7 2.7 2.5 4.9 4.8-2.7zm12.1 7.7l2.5 4.8 4.8-2.7-2.6-4.8zm24.1 7.1l-2.5-4.8-4.8 2.7 2.5 4.8zm16.8 5l-2.5-4.8-4.8 2.6 2.5 4.9zm12.6-.4l-4.8 2.7 2.5 4.9 4.8-2.7zm16.8 5l-4.8 2.7 2.5 4.8 4.8-2.7zm18.5 8.2c-2 .1-4 .3-6 .4l-.5-1 4.8-2.7 1.7 3.3zm-215.8-47.7l-4.7 2.7 2.5 4.8 4.8-2.7zm16.9 4.9l-4.8 2.7 2.5 4.9 4.8-2.7zm16.8 5l-4.8 2.7 2.5 4.9 4.8-2.7zm16.8 5l-4.8 2.7 2.6 4.8 4.7-2.7zm16.9 5l-4.7 2.7 2.5 4.8 4.8-2.6zm16.8 5l-4.7 2.7 2.5 4.8 4.8-2.7zm16.9 5l-4.8 2.7 2.5 4.8 4.8-2.7zm16.8 5l-4.8 2.6 2.5 4.9 4.8-2.7zm15.1 4.4l-4.8 2.7 2.5 4.9 4.8-2.7zm19.3 9.8l-3 1.7c-.8 0-1.6 0-2.3.1l-2-3.9 4.8-2.7 2.5 4.8zm14.8 1.2c-.8 0-1.6.1-2.4.1l1.9-1.1.5 1zm-166.2-30.8zm16.8 4.9l-4.7 2.7 2.5 4.9 4.8-2.7zm10.3 7.2l2.6 4.8 4.7-2.6-2.5-4.9zm16.9 5l2.5 4.8 4.8-2.7-2.6-4.8zm16.8 5l2.5 4.8 4.8-2.7-2.6-4.8zm24.1 7.1l-2 1.1c-1.3-.1-2.5-.2-3.8-.3l-1.6-3 4.8-2.7 2.6 4.9zm15.3 2c-1.3 0-2.7-.1-4-.2l3-1.7 1 1.9zm412.4-57.8l-.3-.5h.2c0 .1.1.3.1.5zm-76.3-6.7l-4.4 2.5-1.6-3c2 .2 4 .4 6 .5zm17.3 4.9l-4.8 2.7-2.5-4.8 2.9-1.6c.8.1 1.7.1 2.5.2l1.9 3.5zm14.3.1l-4.8 2.7 2.5 4.8 4.8-2.6zm16.8 5l-4.8 2.7 2.6 4.8 4.7-2.7zm16.8 5l-4.8 2.7 2.6 4.8 4.7-2.7zm13 11.9l-.1.1-2.5-4.9 2.1-1.2c.1 2 .3 4 .5 6zm-182.3-35.5l-1 .6-.4-.7c.5 0 .9.1 1.4.1zm21.2 3.1l-4.8 2.7-2.4-4.6c2.1.2 4.3.4 6.5.5l.7 1.4zm14.3.1l-4.8 2.7 2.6 4.8 4.8-2.6zm16.8 5l-4.7 2.7 2.5 4.8 4.8-2.7zm16.8 5l-4.7 2.6 2.5 4.9 4.8-2.7zm10.4 7.1l2.5 4.9 4.8-2.7-2.6-4.9zm16.8 5l2.5 4.8 4.8-2.6-2.6-4.9zm16.8 5l2.5 4.8 4.8-2.7-2.5-4.8zm16.8 4.9l2.5 4.9 4.8-2.7-2.5-4.8zm24.2 7c-1.9.3-3.8.5-5.8.8l-1.4-2.8 4.8-2.7 2.4 4.7zm-232.4-49l-3.8 2.2-1.4-2.6c1.7.1 3.4.3 5.2.4zm17.7 4.5l-4.8 2.7-2.5-4.8 2.1-1.2c1.1.1 2.1.2 3.2.3h.4l1.6 3zm9.5 2.8l2.6 4.9 4.7-2.7-2.5-4.9zm17.5 5.2l2.6 4.9 4.7-2.7-2.5-4.9zm16.8 5l2.6 4.8 4.7-2.7-2.5-4.8zm16.9 5l2.5 4.8 4.8-2.7-2.6-4.8zm16.8 4.9l2.5 4.9 4.8-2.7-2.6-4.8zm15.1 4.5l2.5 4.9 4.8-2.7-2.6-4.9zm16.8 5l2.5 4.8 4.8-2.6-2.6-4.9zm16.8 5l2.5 4.8 4.8-2.7-2.5-4.8zm16.8 4.9l2.5 4.9 4.8-2.7-2.5-4.8zm24.2 7.2l-2.7 1.5c-.8.1-1.7.2-2.5.3l-2.1-4 4.8-2.7 2.5 4.9z" opacity=".4"/><linearGradient id="SVGID_10_" gradientUnits="userSpaceOnUse" x1="412.105" y1="729.344" x2="699.515" y2="729.344"><stop offset="0" stop-color="#fff"/><stop offset=".778" stop-color="#87aeb4"/></linearGradient><path d="M699.5 738.6c-6.2.5-12.3 1-18.6 1.5-2 .2-3.9.3-5.9.5-14 1-28.1 2-42.4 2.8-1.2.1-2.4.1-3.6.2-5.3.3-10.6.6-16 .8h-.2c-13.5.7-27.2 1.2-41.1 1.6-1.5 0-3 .1-4.6.1-9.6.3-19.2.5-29 .7-4.7.1-9.5.2-14.5.1h-3.7c-4.4-.1-9-.2-13.6-.5-1.2-.1-2.3-.2-3.5-.2-20.1-1.6-41.9-6-64.6-17.7-4.7-2.4-9-4.9-12.8-7.3-1.8-1.2-3.5-2.3-5.1-3.4-3.2-2.2-6-4.2-8.3-6 .3.1.6.1.9.2 1.4.3 3.9.7 7.5 1.1.2 0 .4.1.6.1 4.7.6 11.1 1.3 19.1 2.2.9.1 1.7.2 2.6.3 2 .2 4.1.4 6.2.6l3 .3c2.9.3 6 .6 9.2.9 1 .1 2.1.2 3.2.3l1.9.2c.8.1 1.6.1 2.4.2.3 0 .5 0 .8.1.9.1 1.7.2 2.6.3.7.1 1.3.1 2 .2 2 .2 4 .4 6.1.6.7.1 1.4.1 2.1.2.5 0 .9.1 1.4.1.2 0 .5 0 .7.1 1.4.1 2.9.3 4.3.4.5 0 1 .1 1.4.1 2.2.2 4.5.4 6.7.6 1 .1 2.1.2 3.1.3 1.3.1 2.5.2 3.8.4.4 0 .8.1 1.2.1 10.3 1 21.4 2 33.2 3 1.7.2 3.4.3 5.2.5 1.9.2 3.7.3 5.6.5 1.2.1 2.5.2 3.7.3.7.1 1.3.1 2 .2 1.8.2 3.7.3 5.5.5 1.7.2 3.5.3 5.2.5 1 .1 2.1.2 3.1.3 1 .1 2.1.2 3.1.3l6.3.6c1.1.1 2.1.2 3.2.3h.4c2.1.2 4.1.4 6.2.5 1 .1 2.1.2 3.2.3 1.7.2 3.4.3 5.1.4 2.6.2 5.1.5 7.7.7 3.2.3 6.5.6 9.9.9.4 0 .8.1 1.2.1 1.3.1 2.5.2 3.8.3 3.9.3 7.8.7 11.8 1 1.3.1 2.6.2 3.8.3 1.3.1 2.7.2 4 .3 1.3.1 2.7.2 4 .3.5 0 .9.1 1.4.1 1.4.1 2.8.2 4.2.4 3.3.3 6.6.5 9.9.8 2.1.2 4.3.4 6.5.5.5 0 1 .1 1.6.1 2.3.2 4.7.4 7 .6 9.1.8 17.9 1.5 26.9 2.3z" opacity=".3" fill="url(#SVGID_10_)"/><linearGradient id="SVGID_11_" gradientUnits="userSpaceOnUse" x1="301.506" y1="744.799" x2="826.455" y2="744.799"><stop offset="0" stop-color="#153e5c"/><stop offset=".805" stop-color="#87aeb4"/></linearGradient><path d="M826.5 772.2c-8.8 1.3-18.3 2.6-28.5 4-1.9.3-3.8.5-5.8.8-13.7 1.8-28.5 3.8-44.3 5.7-.8.1-1.7.2-2.5.3-7.8 1-15.8 1.9-24.1 2.9l-2.4.3c-14.3 1.7-29.2 3.3-44.8 5-1.2.1-2.5.3-3.7.4-14.7 1.5-30 3.1-45.7 4.6-1.5.1-3 .3-4.5.4h-.3c-15 1.4-29.3 2.7-42.9 3.8-1.1.1-2.2.2-3.2.3-16.6 1.4-32.2 2.5-46.8 3.4-2 .1-4 .3-6 .4-15.4 1-29.6 1.7-42.7 2.2-.8 0-1.6.1-2.4.1-5.3.2-10.4.3-15.3.4-.8 0-1.6 0-2.3.1-17.3.4-32.4.3-45.9-.2-1.3 0-2.7-.1-4-.2-4.7-.2-9.1-.4-13.4-.8-1.3-.1-2.5-.2-3.8-.3-49.7-3.9-69-14.9-79.1-30-.7-1-1.3-2-1.9-3-6.6-11.4-12.7-31-3.9-65.5.5-1.8 1-3.6 1.5-5.5 1.8-6.1 4-12.6 6.7-19.6 4.5.5 8.8 1.1 12.9 1.6-.3 2.1-.5 4.4-.4 6.9v.9c.5 12.6 6.9 29 30.2 44 1 .6 1.9 1.2 3 1.8 3.4 2 7.1 4 11.2 6 1.6.8 3.2 1.5 4.8 2.2 4.1 1.8 8.6 3.6 13.4 5.3.6.2 1.2.4 1.9.6 4.7 1.7 9.8 3.2 15.2 4.7.5.1.9.3 1.4.4 4.7 1.3 9.7 2.6 15 3.8.9.2 1.9.4 2.9.6 4.2.9 8.5 1.8 13.1 2.7 2 .4 3.9.7 6 1.1 3 .5 6 1 9.2 1.5 1.8.3 3.7.6 5.5.8 4.9.7 9.9 1.4 15.1 2h.2c18 2.1 38.1 3.8 60.6 4.8l6 .3c4.5.2 9 .3 13.7.5h1.2c14.6.4 30.1.6 46.6.5h5c4.9 0 9.8-.1 14.9-.2h.4c13.8-.2 28.1-.7 43.2-1.3l6-.3c12.5-.5 25.4-1.2 38.8-2 2-.1 4-.2 6-.4 13.6-.8 27.7-1.8 42.3-3 .8-.1 1.7-.1 2.5-.2 5.6-.4 11.2-.9 17-1.4h.1c10.3-.9 20.9-1.8 31.7-2.8 1.2-.1 2.5-.2 3.7-.3 3.8-.4 7.7-.7 11.6-1.1 0 .4.1.8.1 1.2l.6 6c-.8.9-.7 1.8-.6 2.8z" opacity=".17" fill="url(#SVGID_11_)"/></g></g></g><g id="hand_back"><path class="st19" d="M553.5 489.8c-16.7 66-39.9 113.8-60.1 112.5-7.2-.4-18-8.2-37.1-24.4-.6-.5-1.1-1-1.7-1.4-1.1-.9-2.2-1.9-3.3-2.9-1.2-1-2.4-2.1-3.7-3.2-.2-.2-.4-.3-.6-.5-4.6-4-9.7-8.4-15.4-13.4-18.6-16.2-33.6-29-41.9-36.2-3.7-5.5-8-13.1-11.4-22.8-4-11.5-5.1-21.7-5.3-28.9 9.9.5 18 4.2 20 5.1 31.3 14.9 58 44.9 70.9 60.8.1.2.3.4.4.6.1.1.3.3.4.5.2.3.4.5.4.5.9 1.2 1.9 2.5 3 3.9.5.6 1 1.2 1.5 1.9.3.3.5.6.5.7.2.3.9 1 2 2.3l.8.8c1.5 1.6 3.6 3.9 6.4 6.9 4.1 4.3 9.6 10.2 17 18 8.4-14 16.9-30.1 24.9-48.3 1.8-4.1 3.5-8.2 5.1-12.2 3.5-8.7 6.6-17.2 9.3-25.2 2.1.7 4.2 1.4 6.4 2.1 3.9 1 7.8 2 11.5 2.8z"/><path d="M470 542.5l-22.5 27.9c-4.7-4.1-10-8.7-16-13.9-18.6-16.2-33.6-29-41.9-36.2-3.7-5.5-8-13.1-11.4-22.8-4-11.5-5.1-21.7-5.3-28.9 9.9.5 18 4.2 19.9 5.1 31.3 14.9 58 44.9 70.9 60.8.2.2.3.4.4.6.1.2.3.3.4.5.2.3.4.5.4.5 1.8 2.3 3.3 4.2 4.5 5.8.3.2.4.4.6.6z" fill="#191535"/><path class="st23" d="M472 544.8c-3.1 4.5-6.3 9.2-9.6 13.8-3.7 5.2-7.4 10.2-11.1 15-1.2-1-2.4-2.1-3.7-3.2 7.5-9.3 15-18.6 22.4-27.9.2.3.9 1 2 2.3z"/><linearGradient id="SVGID_12_" gradientUnits="userSpaceOnUse" x1="478.596" y1="544.643" x2="526.229" y2="544.643"><stop offset=".002" stop-color="#ff931e"/><stop offset="1" stop-color="#fff"/></linearGradient><path d="M526.2 510s-6.4 70-31.9 69.3c-15.8-.4-16.8-15.5-15.3-26.8 4.1 4.3 9.6 10.2 17 18 8.4-14 16.9-30.1 24.9-48.3 2-4.1 3.7-8.2 5.3-12.2z" opacity=".19" fill="url(#SVGID_12_)"/></g><path id="back_fingers" class="st19" d="M584 453.8c-.7-.1-1.5.1-2.3.6 2.5-3.3 4.1-5.8 2.8-6.1-3.6-.7-11.7 10-11.7 10l-4.5 22c.3-.8 18.6-19.6 15-20.3-.8-.2-1.9.3-3.1 1.1 3.1-3.8 5.3-7 3.8-7.3z"/><g id="smartphone"><linearGradient id="main_part_1_" gradientUnits="userSpaceOnUse" x1="541.478" y1="465.503" x2="586.467" y2="465.503"><stop offset=".471" stop-color="#19233d"/><stop offset="1" stop-color="#271c41"/></linearGradient><path id="main_part" d="M586.2 444l-9.9 23-1.2 2.9-7.3 17c-.5 1.1-1.5 1.9-2.6 2.1l-19.2 3.3c-.8.1-1.4-.1-1.9-.5-.1 0-2.1-2.5-2.1-2.5l-.1-.1c0-.1-.1-.1-.1-.2-.3-.6-.4-1.3 0-2.1l19.6-41.6c.4-.9 1.4-1.7 2.4-2l18.1-4.4c1-.2 1.8.1 2.3.6l1.8 2.2c.5.5.7 1.4.2 2.3z" fill="url(#main_part_1_)"/><path id="screen" fill="#bdd3de" d="M581.1 442.3l-.6 1.4-5.1 11.4-1.4 3.2-2.8 6.3-6.3 14.3-19.4 3.7.1-.1 3.1-6.5 1.5-3.3 5.6-11.8 6.7-14z"/><linearGradient id="SVGID_13_" gradientUnits="userSpaceOnUse" x1="545.63" y1="470.411" x2="574.018" y2="470.411"><stop offset="0" stop-color="#fff"/><stop offset="1" stop-color="#bdd3de"/></linearGradient><path opacity=".64" fill="url(#SVGID_13_)" d="M574 458.3l-2.8 6.3-25.6 17.9 3.1-6.5z"/><linearGradient id="SVGID_14_" gradientUnits="userSpaceOnUse" x1="550.236" y1="458.224" x2="580.458" y2="458.224"><stop offset="0" stop-color="#fff"/><stop offset="1" stop-color="#bdd3de"/></linearGradient><path opacity=".64" fill="url(#SVGID_14_)" d="M580.5 443.7l-5.1 11.4-25.2 17.6 5.6-11.8z"/></g><g id="big_finger"><path class="st19" d="M559.2 463.1c-2.6 2-5.3 2.6-11.4 3.8.4.9.8 1.9 1 2.8.6 2.1.9 4.1.9 6.1 0 3.9-1.2 7.4-3.2 9.8-.8.9-1.6 1.7-2.6 2.3-3.7 2.3-8 1.5-9.8 1 .5-.8 4.3-25.9 11.7-27.7 6.8-1.7 15-2.3 15.5-.5.2.7-.9 1.6-2.1 2.4z"/><linearGradient id="SVGID_15_" gradientUnits="userSpaceOnUse" x1="544.074" y1="477.716" x2="549.685" y2="477.716"><stop offset="0" stop-color="#fff"/><stop offset=".778" stop-color="#87aeb4"/></linearGradient><path d="M549.7 475.8c0 3.9-1.2 7.4-3.2 9.8-5.6-3.6 0-12.7 2.3-15.9.6 2.1.9 4.2.9 6.1z" opacity=".11" fill="url(#SVGID_15_)"/></g><g id="body"><path class="st12" d="M413 712c-19.5-3.9-35.1-5.6-46-6.5-17.1-1.4-34.8-1.6-49-12.2-2.5-1.9-5.5-4.5-5.9-4.9-1.5-1.3-2.9-2.6-4.2-4-9.8-9.7-15-18.6-15.7-19.7.3-2.9.7-5.7 1-8.5l11.4-57c.6-4.7 1.1-9.4 1.6-14.1 3.1-14.3 6.1-28.5 9.2-42.8v-.1c4.9-23.5 11.7-43.9 19.5-60 1.8-3.7 3.6-7.2 5.5-10.4 5-1.2 44.6-10 66.7 13.3 12 12.7 13.4 28.9 14.3 40.8 1.4 20-2.8 34.9-8.6 48.5-1.6 3.8-3.3 7.5-5 11.1-6.8 14.6-13.9 29.1-15.7 48.7-1.6 17.8.7 44.1 20.9 77.8z"/><linearGradient id="SVGID_16_" gradientUnits="userSpaceOnUse" x1="307.932" y1="648.674" x2="413.005" y2="648.674"><stop offset="0" stop-color="#153e5c"/><stop offset="1" stop-color="#271c41"/></linearGradient><path d="M413 712c-19.5-3.9-35.1-5.6-46-6.5-17.1-1.4-34.8-1.6-49-12.2-2.5-1.9-5.5-4.5-5.9-4.9-1.5-1.3-2.9-2.6-4.2-4 1.3-9.4 4.1-20.6 9.6-32.3 17.3-36.7 58.1-70.1 90.3-66.5-6.8 14.6-13.9 29.1-15.7 48.7-1.6 17.7.7 44 20.9 77.7z" opacity=".31" fill="url(#SVGID_16_)"/></g><g id="front_hand"><path class="st19" d="M349.8 542.3c-3.3 12.8-7.1 27.4-11.1 42.7-1.7 6.5-3.5 13.2-5.2 19.9-7.6 28.8-15.4 58.7-21.8 83.6-6.8 26.6-12.1 47.6-13.7 55.6-2.2 10.9-9 35.4-12.1 37.4-2 1.2-1.2.2-23.4 3.6-6.6 1-14.3 2.3-15.8-.6-.2-.4-.2-.8-.2-1.1l-15.3 6.2c-3.7 1.4-4.9 1.4-4.9 1.4-1.1 0-3.3-.4-3.5-1.4v-.1c-1.7 0-3.4-.3-3.6-1.1-.7-2.4 11.9-8.7 19.5-12 3.6-1.6 7.4-3 10.8-4.2 2.2-1.4 4.1-2.1 7-2.5 1.2-.1 2.2-.1 2.4-.1 1.4 0 4.7-.1 11.7-.6 1.4-7.1 2.8-14.3 4.2-21.4L297 633.9c1.7-8.7 3.4-17.5 5.1-26.2 1.4-7.5 2.9-15 4.4-22.5.2-.9.3-1.8.5-2.8 2.6-13.4 5.2-26.7 7.8-40.1v-.1h35z"/><path class="st23" d="M338.6 584.9c-1.7 6.5-3.5 13.2-5.2 19.9-9.8.8-23.4 2-31.6 2.8 1.4-7.5 2.9-15 4.4-22.5.2-.9.3-1.8.5-2.8 11.2 1 24.6 2.1 31.9 2.6z"/><path class="st12" d="M313.4 524c-7.5 24.5-14.9 48.9-22.4 73.4 15.5.8 31.1 1.6 46.6 2.5 33.4-19.4 40.4-54.5 28.8-69.6-9-11.7-31.2-14.5-53-6.3z"/><linearGradient id="SVGID_17_" gradientUnits="userSpaceOnUse" x1="274.51" y1="690.736" x2="303.116" y2="690.736"><stop offset=".002" stop-color="#ff931e"/><stop offset="1" stop-color="#fff"/></linearGradient><path d="M284.3 738.1c-3.6 4.3-6.9 7.4-9.8 9.5l22.2-113.7c6.8 25.3 14.2 72.4-12.4 104.2z" opacity=".19" fill="url(#SVGID_17_)"/></g><g id="head"><g id="neck"><path class="st19" d="M409.1 439.5c-2 2.1-4.3 4.7-6.4 7.8-.6.9-1.2 1.8-1.8 2.8-1 1.7-2 3.6-2.8 5.6-.5 1.1-.9 2.3-1.3 3.5-.1.2-.2.5-.2.7-4.3 14.2 1.3 22.5-5.9 29.8-5.1 5.2-14.6 7.7-22.4 5.4-9.7-3-16.4-13.4-14.3-25.1l26.7-37.8c.5-.7 1-1.4 1.4-2.1 2.9-4.1 5.7-8.1 8.6-12.1l18.4 21.5z"/><path d="M401 450.2c-1 1.7-2 3.6-2.8 5.6-.5 1.1-.9 2.3-1.3 3.5-.1.2-.2.5-.2.7-2.5-1.6-6-4.4-8.6-8.9-4.2-7.2-3.1-18.8-2-25.1 2.7 7.9 6.3 13.5 7.7 15.6 2 3 4.3 6.3 7.2 8.6z" opacity=".17" fill="#153e5c"/></g><g id="face"><path class="st19" d="M441.7 413.4v.1c6.9-30.4-3-53-5.6-55.1-.2-.2-1.4-1-2.7-1.8-1.3-.8-2.8-1.8-3.6-2.2-.9-.3-1.8-.6-2.8-.9-16.9-3.8-34 17-40.4 32.3-.8 1.9-1.4 3.7-1.9 5.5-3.8 13.3-1.8 25.5 1.4 34.6 2.7 7.9 6.3 13.5 7.7 15.6 2.4 3.7 5.2 7.7 8.9 9.8 1 .5 1.9.9 2.8 1.2 9.2 2.9 18.2-2.8 21.3-4.9-1.2-.8-4.9-3.5-6.3-8.4-.6-2.1-.5-3.9-.4-5.2 3.7 2.3 7.4 4.5 11.1 6.8.9-1.6 2.3-4.4 3.9-7.9.4-.8.7-1.7 1.1-2.5v.1s8.9.4 8.5-3.5c-.4-4-3-13.6-3-13.6z"/><circle cx="433.9" cy="412.3" r="2.3"/><path d="M441.3 397.4c0-.4-3.7-1.2-7.6-.3-3.9.9-6.9 3.3-6.7 3.7.2.3 2.8-1.2 7.8-2.3 4.1-.9 6.5-.8 6.5-1.1z"/></g><g id="hair_front"><path d="M444.7 374.3c-.2 4.8-3.3 7.6-8 10.3-.5.3-1 .6-1.5.8-8.1 4.3-20.1 8.6-31.1 20.1-7.8 8.2-11.4 16-15.7 25.4-18.9 41.5-16.3 83.6-22.8 107.7-2.3 8.5-5.7 14.7-11.5 17.9-12.8 7.1-36.9-.6-55-16.6l-.9-.8c-9.6-8.7-17.4-19.7-20.7-32v-.1l-.4-1.8c-.1-.6-.3-1.2-.4-1.8-4.8-25.1 7.3-52.1 30.6-69.3 19.1-14.1 20.8-15 34.5-31 2.3-2.8 5.1-6 8.3-9.8 14.4-17.1 24.5-33.6 44.2-44.4 7.4-4.1 15.8-7.1 24.7-5 2.1.5 3.9 1.2 5.6 1.9.3.2.7.3 1 .5 3.1 1.6 5.3 3.4 6.5 4.5 1.4 1.2 2.8 2.5 4.1 4 .3.2.5.5.7.8 4.6 5.8 8.1 12.8 7.8 18.7z" fill="#f2be54"/><path class="st39" d="M425.5 346.6c-47.2 35.1-72.1 63.4-74.2 84.1l-.1.9c-.4 4.6-1.4 15.6-9.5 23-6.4 5.8-13.8 6.4-21.1 6.9-3.6.3-7 .5-10.3 1.4-13.6 3.6-24.6 18.5-32.9 44.4v-.1l-.4-1.8c8.4-25.3 19.5-40 33.1-43.6 3.4-.9 7-1.1 10.5-1.4 7-.5 14.3-1 20.4-6.6 7.8-7.2 8.8-17.8 9.2-22.4l.1-.9c2.1-20.9 27-49.4 74.2-84.5.4.2.7.4 1 .6z"/><path class="st39" d="M436.8 355.9c-46.8 37.9-71.2 68.7-72.7 91.5l-.1 1c-.2 4.4-.8 14.7-7.3 24.6-6.2 9.5-14.3 13.4-22.2 17.2-4 1.9-8 3.9-11.8 6.5-11.8 8.3-19.8 22.8-23.7 43.4l-.9-.8c4-20.5 12-35.1 24-43.5 3.8-2.7 8-4.7 11.9-6.6 7.8-3.7 15.8-7.6 21.8-16.8 6.3-9.7 6.8-19.7 7.1-24l.1-1c1.5-23.1 26.1-54.1 73.1-92.2.3.2.5.4.7.7z"/><linearGradient id="SVGID_18_" gradientUnits="userSpaceOnUse" x1="275.628" y1="481.245" x2="365.624" y2="481.245"><stop offset=".002" stop-color="#ff931e"/><stop offset="1" stop-color="#fff"/></linearGradient><path d="M365.6 538.6c-2.3 8.5-5.7 14.7-11.5 17.9-12.8 7.1-36.9-.6-55-16.6l-.9-.8c-9.6-8.7-17.4-19.7-20.7-32v-.1l-.4-1.8c-.1-.6-.3-1.2-.4-1.8-4.8-25.1 7.3-52.1 30.6-69.3 19.1-14.1 20.8-15 34.5-31-21.3 41.7-43.6 102.5-3.1 119.1 12.4 5.3 21 10.8 26.9 16.4z" opacity=".37" fill="url(#SVGID_18_)"/></g></g></g></g></g><g id="bottle_with_water"><path d="M316.3 911.5h-29c-4.7-7.7-5.4-13.6-5-17.7.3-3.2 1.1-4.5 1.8-7.4.4-1.3.7-3 1-5.3.5-4.1.4-7.7.3-15-.1-5.2-.2-7.8-.5-11.2-.5-5.6-1.2-7.3-.8-10.6.4-3.9 1.9-6.9 3.1-8.9H317c1 1.8 2.1 4.6 2.5 8.1.4 3.6-.2 5.6-.8 10.6-.4 3.3-.4 6.2-.5 11.9-.1 7.1-.2 10.8.3 15.7.2 2 .5 3.5.7 4.7.6 3.1 1.3 4.2 1.5 7.4.3 4-.3 10-4.4 17.7z" opacity=".61" fill="#87aeb4"/><path class="st42" d="M317 828.6v6.7h-29.6v-6.7h5v-5.2h8.2v5.2H317z"/><path class="st9" d="M316.3 911.5h-29c-4.7-7.7-5.4-13.6-5-17.7.3-3.2 1.1-4.5 1.8-7.4h35.1c.6 3.1 1.3 4.2 1.5 7.4.3 4-.3 10-4.4 17.7z"/><path class="st42" d="M318.5 881.7c-4.6 1.5-10 2.4-15.8 2.4-6.6 0-12.7-1.2-17.6-3.1.3-4.8.4-9.8.3-15-.1-3.9-.2-7.6-.5-11.2 5-2 11.1-3.2 17.8-3.2 5.9 0 11.3.9 15.9 2.5-.3 3.8-.5 7.8-.5 11.9 0 5.4.1 10.7.4 15.7z"/><linearGradient id="SVGID_19_" gradientUnits="userSpaceOnUse" x1="282.239" y1="867.456" x2="305.126" y2="867.456"><stop offset=".704" stop-color="#fff"/><stop offset=".985" stop-color="#87aeb4"/></linearGradient><path d="M300.9 911.5h-13.5c-4.7-7.7-5.4-13.6-5-17.7.3-3.2 1.1-4.5 1.8-7.4.4-1.3.7-3 1-5.3.5-4.1.4-7.7.3-15-.1-5.2-.2-7.8-.5-11.2-.5-5.6-1.2-7.3-.8-10.6.4-3.9 1.9-6.9 3.1-8.9v-6.7h5v-5.2h5.5l.4 11.8c2.8 8.3 6 20.7 6.7 36.2.9 17.1-1.7 31.1-4 40z" opacity=".2" fill="url(#SVGID_19_)"/><circle cx="291.3" cy="844.7" r="3.9" opacity=".45" fill="#fff"/></g></g></g></svg>